<?xml version="1.0" standalone="no"?>
<!DOCTYPE svg PUBLIC "-//W3C//DTD SVG 1.1//EN" "http://www.w3.org/Graphics/SVG/1.1/DTD/svg11.dtd" >
<svg xmlns="http://www.w3.org/2000/svg" xmlns:xlink="http://www.w3.org/1999/xlink" version="1.1">
<metadata>
Created by FontForge 20170731 at Tue Feb 11 14:47:16 2020
 By Aleksey,,,
Copyright (c) 2020 by Locomotype. All rights reserved.
</metadata>
<defs>
<font id="GigaSans-ExtraBold" horiz-adv-x="700" >
  <font-face 
    font-family="Giga Sans ExtBd"
    font-weight="800"
    font-stretch="normal"
    units-per-em="1000"
    panose-1="0 0 0 0 0 0 0 0 0 0"
    ascent="700"
    descent="-300"
    x-height="500"
    cap-height="700"
    bbox="-127 -300 1325 966"
    underline-thickness="50"
    underline-position="-175"
    unicode-range="U+000D-FB02"
  />
<missing-glyph horiz-adv-x="500" 
d="M0 -300v1000h500v-1000h-500zM71 650l179 -390l179 390h-358zM50 -176l172 376l-172 376v-752zM450 576l-172 -376l172 -376v752zM250 140l-179 -390h358z" />
    <glyph glyph-name="fi" unicode="fi" horiz-adv-x="743" 
d="M28 353v147h44v35q0 87 47 132.5t135 45.5q70 0 146 -30l-37 -118q-35 12 -55 12q-45 0 -46 -57v-20h109v-147h-109v-353h-190v353h-44zM483 0v500h189l1 -500h-190zM577 545q-45 0 -75.5 23.5t-30.5 57.5q0 33 31 57.5t75 23.5q43 -1 75 -25t32 -56q0 -33 -31.5 -57
t-75.5 -24z" />
    <glyph glyph-name="fl" unicode="fl" horiz-adv-x="724" 
d="M28 353v147h44v35q0 87 47 132.5t135 45.5q70 0 146 -30l-37 -118q-35 12 -55 12q-45 0 -46 -57v-20h109v-147h-109v-353h-190v353h-44zM475 0v700h190v-700h-190z" />
    <glyph glyph-name=".notdef" horiz-adv-x="500" 
d="M0 -300v1000h500v-1000h-500zM71 650l179 -390l179 390h-358zM50 -176l172 376l-172 376v-752zM450 576l-172 -376l172 -376v752zM250 140l-179 -390h358z" />
    <glyph glyph-name="uni0000" horiz-adv-x="0" 
 />
    <glyph glyph-name="uni0000" horiz-adv-x="0" 
 />
    <glyph glyph-name="uni000D" unicode="&#xd;" horiz-adv-x="250" 
 />
    <glyph glyph-name="space" unicode=" " horiz-adv-x="260" 
 />
    <glyph glyph-name="exclam" unicode="!" horiz-adv-x="318" 
d="M71 251l-17 449h209l-16 -449h-176zM48 97q0 43 32.5 74.5t78.5 31.5q45 0 78 -32t33 -74q0 -43 -33.5 -75t-77.5 -32q-46 0 -78.5 31.5t-32.5 75.5z" />
    <glyph glyph-name="quotedbl" unicode="&#x22;" horiz-adv-x="597" 
d="M515 387h-166v313h200zM224 387h-166v313h200z" />
    <glyph glyph-name="numbersign" unicode="#" horiz-adv-x="683" 
d="M18 143v116h109l42 187h-84v116h109l31 138h133l-30 -138h122l30 138h134l-31 -138h82v-116h-108l-41 -187h83v-116h-109l-32 -143h-134l32 143h-121l-32 -143h-134l32 143h-83zM302 446l-41 -187h121l42 187h-122z" />
    <glyph glyph-name="dollar" unicode="$" horiz-adv-x="615" 
d="M247 -1q-59 12 -120.5 43t-99.5 72l75 103q64 -69 145 -93v197q-46 12 -78 25t-66 35.5t-51.5 56t-17.5 78.5q0 86 61 134t152 57v69l129 -1v-74q49 -11 101.5 -34.5t86.5 -53.5l-63 -105q-45 54 -125 69v-167q46 -13 78.5 -27t65.5 -37t50.5 -58t17.5 -80
q0 -89 -60.5 -145.5t-151.5 -68.5v-80h-129v85zM376 283v-167q34 9 53.5 33t19.5 59q0 47 -73 75zM172 518q0 -43 75 -71v141q-75 -13 -75 -70z" />
    <glyph glyph-name="percent" unicode="%" horiz-adv-x="929" 
d="M530 192q0 94 46.5 148.5t138.5 54.5q93 0 140 -54t46 -149q-1 -94 -49 -147.5t-141 -53.5q-92 0 -136.5 53.5t-44.5 147.5zM28 505q0 94 46.5 148t139.5 54t139.5 -54t45.5 -148t-47.5 -148.5t-137.5 -53.5q-94 1 -140 54t-46 148zM181 0l453 700h116l-453 -700h-116z
M150 505q0 -20 2.5 -37t8.5 -35t20 -28t33 -10q61 1 63 110q2 110 -63 110q-64 0 -64 -110zM652 192q0 -27 4 -49t19 -41t40 -19q64 1 64 109q0 110 -64 110q-63 0 -63 -110z" />
    <glyph glyph-name="ampersand" unicode="&#x26;" horiz-adv-x="776" 
d="M38 197q0 120 153 208q-42 71 -42 132q0 62 53 118t147 56t142.5 -52t48.5 -116q0 -51 -33.5 -96t-91.5 -77l85 -100q23 41 23 113h152q0 -74 -14 -128t-53 -110l130 -145h-200l-40 43q-86 -52 -198 -52q-119 0 -190.5 59.5t-71.5 146.5zM200 195q0 -34 28.5 -57
t71.5 -23q56 0 104 34l-127 150q-77 -47 -77 -104zM331 478q47 25 47 65q0 17 -8 29.5t-25 12.5t-26.5 -13t-9.5 -33q0 -31 22 -61z" />
    <glyph glyph-name="quotesingle" unicode="'" horiz-adv-x="306" 
d="M258 700l-34 -313h-166v313h200z" />
    <glyph glyph-name="parenleft" unicode="(" horiz-adv-x="388" 
d="M177 -200q-61 96 -95 213t-34 235q0 237 126 452h184q-12 -21 -26 -52.5t-35.5 -91.5t-35.5 -142t-14 -166t15 -167t35.5 -140.5t37 -93.5t25.5 -47h-183z" />
    <glyph glyph-name="parenright" unicode=")" horiz-adv-x="388" 
d="M28 -200q10 14 25.5 48.5t37 92.5t36.5 141t15 167q0 109 -26 217.5t-47.5 158t-37.5 75.5h183q127 -212 127 -452q0 -117 -34.5 -234t-94.5 -214h-184z" />
    <glyph glyph-name="asterisk" unicode="*" horiz-adv-x="514" 
d="M456 558l-88 -47l88 -47l-59 -103l-77 49l3 -88h-131l2 88l-77 -48l-59 102l88 47l-88 47l59 102l77 -48l-2 88h131l-3 -88l77 48z" />
    <glyph glyph-name="plus" unicode="+" horiz-adv-x="589" 
d="M58 276v148h160v147h153v-147h160v-148h-160v-147h-153v147h-160z" />
    <glyph glyph-name="comma" unicode="," horiz-adv-x="318" 
d="M48 97q0 43 32.5 74t78.5 32q45 1 77.5 -30t33.5 -76q1 -49 -31.5 -109.5t-71.5 -97.5l-88 43q19 27 33 68q-29 12 -46.5 38t-17.5 58z" />
    <glyph glyph-name="hyphen" unicode="-" horiz-adv-x="503" 
d="M446 175h-388v148h388v-148z" />
    <glyph glyph-name="period" unicode="." horiz-adv-x="318" 
d="M48 97q0 43 32.5 74.5t78.5 31.5q45 0 78 -32t33 -74q0 -43 -33.5 -75t-77.5 -32q-46 0 -78.5 31.5t-32.5 75.5z" />
    <glyph glyph-name="slash" unicode="/" horiz-adv-x="451" 
d="M508 790l-416 -875h-149l417 876z" />
    <glyph glyph-name="zero" unicode="0" horiz-adv-x="677" 
d="M339 -11q-72 0 -126.5 20.5t-87 53t-52.5 81t-27.5 97.5t-7.5 108q0 74 15.5 136t49 114t94 82t142.5 30q84 0 144.5 -30.5t93.5 -83.5t47.5 -114t14.5 -133q0 -74 -15 -135.5t-48 -114t-93.5 -82t-143.5 -29.5zM339 549q-102 0 -102 -200q0 -198 102 -198q101 0 101 198
q0 200 -101 200z" />
    <glyph glyph-name="one" unicode="1" horiz-adv-x="472" 
d="M8 535l228 165l158 1v-701h-199v474l-90 -67z" />
    <glyph glyph-name="two" unicode="2" horiz-adv-x="600" 
d="M28 565q110 146 286 146q119 0 188.5 -61t69.5 -147q0 -43 -14 -83t-40.5 -75.5t-53.5 -64.5t-63 -63q-7 -7 -11 -10l-50 -48h226v-159h-504v124l134 129q2 2 22.5 22t26.5 26l25 25t27 28.5t23 27.5t22 30t15.5 27.5t12 29t3.5 26.5q0 57 -68 57q-27 0 -53 -9.5t-44 -23
t-32 -27t-20 -22.5l-7 -10z" />
    <glyph glyph-name="three" unicode="3" horiz-adv-x="626" 
d="M28 92l96 129q61 -73 184 -73q44 0 72.5 19t28.5 53q0 37 -37.5 56t-92.5 19h-81l1 139h76q37 0 64.5 18.5t27.5 51.5q0 22 -19.5 36t-47.5 14q-41 0 -79.5 -17t-55.5 -32t-20 -20l-111 108q98 120 282 120q101 0 175.5 -47.5t74.5 -136.5q0 -43 -27.5 -85.5t-69.5 -59.5
q57 -12 98 -61t41 -114q0 -92 -78 -156.5t-214 -64.5q-40 0 -76 4.5t-63.5 13.5t-49 17.5t-40 21t-27.5 19.5t-20 18z" />
    <glyph glyph-name="four" unicode="4" horiz-adv-x="647" 
d="M25 129v123l379 448h177v-412h60v-159h-60v-129h-199v129h-357zM267 288h115v143z" />
    <glyph glyph-name="five" unicode="5" horiz-adv-x="612" 
d="M43 48l58 147q67 -47 174 -47q49 0 84.5 26.5t35.5 73.5q0 43 -35.5 67t-80.5 24q-76 0 -131 -42l-92 44l42 359h452v-155h-299l-7 -70q19 4 62 4q74 0 137.5 -23.5t107 -77.5t43.5 -130q0 -119 -87.5 -189.5t-209.5 -70.5q-64 0 -136 15.5t-118 44.5z" />
    <glyph glyph-name="six" unicode="6" horiz-adv-x="648" 
d="M33 339q0 75 20.5 140.5t61.5 118.5t110 84t158 31q75 0 133.5 -19.5t88.5 -42.5l-76 -132q0 2 -17.5 11.5t-52 20t-69.5 10.5q-65 0 -101 -38t-46 -96q3 2 21.5 12t31.5 16t38 12t51 6q110 0 177.5 -61t67.5 -166q0 -119 -85 -188.5t-208 -69.5q-77 0 -137 29
t-95.5 78.5t-53.5 111.5t-18 132zM345 328q-40 0 -66.5 -24t-25.5 -64q1 -39 26.5 -66t65.5 -27q39 0 65 25t25 64q0 37 -23.5 64.5t-66.5 27.5z" />
    <glyph glyph-name="seven" unicode="7" horiz-adv-x="571" 
d="M558 584l-292 -584h-216l270 541h-292v159h530v-116z" />
    <glyph glyph-name="eight" unicode="8" horiz-adv-x="657" 
d="M329 -17q-135 0 -218 58.5t-83 160.5q0 49 28 92t78 73q-85 56 -85 148q0 67 45.5 115t106.5 67.5t127 19.5q50 0 97.5 -11.5t89.5 -35t67.5 -63.5t25.5 -91q0 -94 -84 -149q105 -63 105 -165t-82.5 -160.5t-217.5 -58.5zM329 298q-42 -1 -72 -22t-30 -58q0 -38 30 -58
t72 -21t72 19.5t29 58.5t-30.5 59.5t-70.5 21.5zM328 574q-34 0 -59.5 -20t-25.5 -50t24 -51t59 -21q33 0 60 20t27 52q0 30 -25 50t-60 20z" />
    <glyph glyph-name="nine" unicode="9" horiz-adv-x="648" 
d="M18 455q0 119 85 188.5t208 69.5q102 0 172.5 -50.5t101 -127.5t30.5 -173q0 -157 -88.5 -265t-261.5 -109q-74 0 -133 20t-89 43l76 132q3 -3 18.5 -11.5t50.5 -19.5t70 -11q65 0 101 38t46 96q-4 -2 -21.5 -12t-31 -16.5t-38.5 -12.5t-51 -6q-109 0 -177 61.5
t-68 165.5zM303 555q-39 0 -65 -25.5t-25 -64.5q1 -38 24.5 -64.5t65.5 -26.5q41 0 67 24t25 64q-1 39 -26.5 66.5t-65.5 26.5z" />
    <glyph glyph-name="colon" unicode=":" horiz-adv-x="338" 
d="M58 405q0 44 32.5 75t78.5 31q45 0 78 -31.5t33 -73.5q0 -43 -33.5 -75t-77.5 -32q-46 0 -78.5 31t-32.5 75zM58 97q0 43 32.5 74.5t78.5 31.5q45 0 78 -32t33 -74q0 -43 -33.5 -75t-77.5 -32q-46 0 -78.5 31.5t-32.5 75.5z" />
    <glyph glyph-name="semicolon" unicode=";" horiz-adv-x="338" 
d="M123 1q-29 12 -47 38t-18 58q0 43 32.5 74t78.5 32q45 1 78 -30t33 -76q0 -49 -32 -109.5t-70 -97.5l-89 43q20 25 34 68zM58 405q0 44 32.5 75t78.5 31q45 0 78 -31.5t33 -73.5q0 -43 -33.5 -75t-77.5 -32q-46 0 -78.5 31t-32.5 75z" />
    <glyph glyph-name="less" unicode="&#x3c;" horiz-adv-x="601" 
d="M543 68l-485 215v134l485 215v-175l-241 -107l241 -107v-175z" />
    <glyph glyph-name="equal" unicode="=" horiz-adv-x="516" 
d="M458 389h-400v132h400v-132zM458 181h-400v131h400v-131z" />
    <glyph glyph-name="greater" unicode="&#x3e;" horiz-adv-x="561" 
d="M270 350l-242 107v175l485 -215v-134l-485 -215v175z" />
    <glyph glyph-name="question" unicode="?" horiz-adv-x="602" 
d="M130 465l-112 107q48 68 124.5 104.5t163.5 36.5q47 0 90.5 -10t82.5 -30.5t62 -58.5t23 -88q0 -42 -18.5 -77.5t-46 -60.5t-55.5 -46.5t-50.5 -45t-27.5 -45.5h-175q6 33 26.5 61.5t45 48.5t48 40.5t39 46t15.5 55.5q0 25 -21.5 38t-47.5 13q-45 0 -91 -25.5t-75 -63.5z
M175 97q0 44 33 75t78 31q43 0 76.5 -31.5t33.5 -74.5q0 -44 -33.5 -75.5t-77.5 -31.5q-45 0 -77.5 31t-32.5 76z" />
    <glyph glyph-name="at" unicode="@" horiz-adv-x="972" 
d="M504 -171q-92 0 -175.5 28.5t-149 81t-104.5 134.5t-39 182q0 90 31 171t88 144t147.5 100.5t201.5 37.5q182 0 307 -123.5t125 -300.5q0 -88 -43 -152.5t-131 -64.5q-99 0 -141 76q-44 -77 -143 -77q-90 0 -143.5 61.5t-53.5 152.5t53 147t144 56q38 0 75 -14.5
t54 -34.5v35h115v-214q-2 -90 37 -90q22 0 37.5 39t15.5 77q0 138 -76 225t-232 87q-146 0 -239.5 -96t-94.5 -242q0 -92 47 -164.5t120.5 -109t156.5 -36.5q39 0 90.5 12t85.5 35l51 -107q-117 -56 -217 -56zM504 379q-37 0 -63.5 -29t-25.5 -70q1 -42 27 -72.5t62 -30.5
q37 0 64 31t26 72t-27 70t-63 29z" />
    <glyph glyph-name="A" unicode="A" horiz-adv-x="863" 
d="M222 0h-210l316 700h208l315 -700h-209l-50 113h-320zM341 271h181l-90 202z" />
    <glyph glyph-name="B" unicode="B" horiz-adv-x="769" 
d="M68 700h380q127 0 194 -51t67 -130q0 -52 -25 -91t-67 -58q47 -12 81.5 -55.5t34.5 -105.5q0 -95 -67.5 -152t-196.5 -57h-401v700zM457 284h-190v-125h188q37 0 58 17t21 46q0 62 -77 62zM437 541h-170v-113h170q37 0 56.5 15.5t18.5 40.5q-1 26 -20.5 41.5t-54.5 15.5z
" />
    <glyph glyph-name="C" unicode="C" horiz-adv-x="752" 
d="M417 -10q-161 0 -271 98t-110 260q0 160 110.5 260t270.5 101q105 0 184 -40.5t121 -101.5l-133 -98q-59 80 -162 80q-80 0 -136 -56t-56 -145q0 -88 55.5 -142.5t135.5 -54.5q113 0 167 82l128 -89q-34 -60 -112.5 -107t-191.5 -47z" />
    <glyph glyph-name="D" unicode="D" horiz-adv-x="786" 
d="M68 700h310q169 0 270.5 -97.5t101.5 -252.5q0 -158 -101 -254t-271 -96h-310v700zM267 159h111q75 0 124 54t49 137q0 85 -48 138t-125 53h-111v-382z" />
    <glyph glyph-name="E" unicode="E" horiz-adv-x="679" 
d="M68 700h563v-157h-364v-117h314v-152h-314v-117h364v-157h-563v700z" />
    <glyph glyph-name="F" unicode="F" horiz-adv-x="666" 
d="M68 0v700h563v-157h-364v-145h314v-157h-314v-241h-199z" />
    <glyph glyph-name="G" unicode="G" horiz-adv-x="769" 
d="M36 348q0 158 111.5 261t269.5 103q187 0 295 -115l-116 -118q-68 72 -169 73q-82 1 -137 -57.5t-55 -146.5q0 -87 54.5 -143.5t136.5 -55.5q60 0 105 25v85h-172v144h352v-279q-37 -53 -113.5 -95t-180.5 -42q-160 1 -270.5 101.5t-110.5 259.5z" />
    <glyph glyph-name="H" unicode="H" horiz-adv-x="817" 
d="M69 700h198v-271h282v271h199v-700h-199v270h-281v-270h-199v700z" />
    <glyph glyph-name="I" unicode="I" horiz-adv-x="347" 
d="M273 700v-700h-199v700h199z" />
    <glyph glyph-name="J" unicode="J" horiz-adv-x="610" 
d="M16 97l103 123q52 -68 129 -68q42 0 68.5 28t26.5 79l-1 441h199l1 -458q0 -114 -76 -184.5t-201 -70.5q-143 0 -249 110z" />
    <glyph glyph-name="K" unicode="K" horiz-adv-x="791" 
d="M267 0h-199v700h199v-249l247 249h251l-288 -289l296 -411h-237l-198 272l-71 -71v-201z" />
    <glyph glyph-name="L" unicode="L" horiz-adv-x="624" 
d="M267 159h323v-159h-522v700h199v-541z" />
    <glyph glyph-name="M" unicode="M" horiz-adv-x="944" 
d="M68 0v700h201l202 -302l204 302h201v-700h-199v382l-206 -313l-204 312v-381h-199z" />
    <glyph glyph-name="N" unicode="N" horiz-adv-x="812" 
d="M68 700h201l276 -381v381h199v-700h-202l-275 382v-382h-199v700z" />
    <glyph glyph-name="O" unicode="O" horiz-adv-x="833" 
d="M36 352q0 152 109 255.5t272 103.5t272 -104t108 -255q-1 -153 -109.5 -258.5t-270.5 -104.5t-271.5 106.5t-109.5 256.5zM235 352q0 -80 53 -137t129 -57q75 0 128 56.5t53 137.5q0 80 -53 134.5t-128 54.5q-76 0 -129 -55t-53 -134z" />
    <glyph glyph-name="P" unicode="P" horiz-adv-x="708" 
d="M68 0v700h350q120 0 191.5 -70.5t72.5 -178.5q1 -106 -70.5 -177t-192.5 -71h-152v-203h-199zM267 362h135q43 0 66.5 25.5t23.5 63.5q0 39 -23.5 64.5t-66.5 25.5h-135v-179z" />
    <glyph glyph-name="Q" unicode="Q" horiz-adv-x="833" 
d="M36 352q0 152 109 255.5t272 103.5q162 0 271 -104t109 -255q0 -85 -36.5 -158t-101.5 -123l95 -131h-190l-45 61q-48 -12 -102 -12q-162 0 -271.5 106t-109.5 257zM235 352q0 -72 48 -127.5t120 -62.5l-73 101l128 86l89 -122q51 51 51 125q0 80 -53 134.5t-128 54.5
q-76 0 -129 -55t-53 -134z" />
    <glyph glyph-name="R" unicode="R" horiz-adv-x="728" 
d="M68 0v700h357q120 0 191.5 -70.5t71.5 -178.5q0 -73 -35.5 -131t-98.5 -88l158 -232h-225l-139 203h-81v-203h-199zM267 541v-179h141q43 0 66.5 25.5t24.5 63.5q0 38 -24 64t-67 26h-141z" />
    <glyph glyph-name="S" unicode="S" horiz-adv-x="688" 
d="M27 79l85 143q109 -73 250 -74q100 0 100 54q0 21 -24 36t-62 25.5t-84 21.5t-91.5 28t-83.5 39.5t-62 61.5t-24 90q0 88 75.5 146t220.5 59q186 0 314 -84l-81 -135q-85 59 -233 59q-97 0 -97 -43q0 -21 32 -36t80 -23.5t104 -25t104 -38t79.5 -64t31.5 -100.5
q-1 -101 -84 -165.5t-226 -64.5q-187 0 -324 90z" />
    <glyph glyph-name="T" unicode="T" horiz-adv-x="658" 
d="M20 541v159h618v-159h-210v-541h-199v541h-209z" />
    <glyph glyph-name="U" unicode="U" horiz-adv-x="765" 
d="M383 -11q-134 0 -224.5 75t-90.5 207v429h199v-429q0 -52 30.5 -87.5t84.5 -35.5q55 0 85.5 35.5t30.5 87.5v429h199v-429q0 -132 -90.5 -207t-223.5 -75z" />
    <glyph glyph-name="V" unicode="V" horiz-adv-x="909" 
d="M28 700h210l217 -470l216 470h210l-320 -700h-212z" />
    <glyph glyph-name="W" unicode="W" horiz-adv-x="1273" 
d="M280 0l-252 700h205l150 -415l151 415h205l151 -415l150 415h205l-252 -700h-206l-150 417l-151 -417h-206z" />
    <glyph glyph-name="X" unicode="X" horiz-adv-x="874" 
d="M264 0h-238l292 367l-264 333h236l147 -184l146 184h236l-264 -333l293 -367h-239l-172 218z" />
    <glyph glyph-name="Y" unicode="Y" horiz-adv-x="798" 
d="M299 277l-271 423h223l148 -231l149 231h222l-272 -423v-277h-199v277z" />
    <glyph glyph-name="Z" unicode="Z" horiz-adv-x="672" 
d="M46 700h580v-159l-332 -382h332v-159h-580v159l333 382h-333v159z" />
    <glyph glyph-name="bracketleft" unicode="[" horiz-adv-x="402" 
d="M374 -200h-306v900h306v-159h-107v-582h107v-159z" />
    <glyph glyph-name="backslash" unicode="\" horiz-adv-x="451" 
d="M508 -85h-149l-416 875l148 1z" />
    <glyph glyph-name="bracketright" unicode="]" horiz-adv-x="402" 
d="M28 700h306v-900h-306v159h107v582h-107v159z" />
    <glyph glyph-name="asciicircum" unicode="^" horiz-adv-x="551" 
d="M36 322l188 378h103l188 -378h-152l-88 177l-88 -177h-151z" />
    <glyph glyph-name="underscore" unicode="_" horiz-adv-x="444" 
d="M28 -130v115h388v-115h-388z" />
    <glyph glyph-name="grave" unicode="`" horiz-adv-x="401" 
d="M333 575h-119l-146 97l77 77z" />
    <glyph glyph-name="a" unicode="a" horiz-adv-x="678" 
d="M282 -10q-99 0 -172.5 73.5t-73.5 183.5q0 111 71.5 187t169.5 76q92 0 153 -56v46h190v-500h-190v49q-61 -59 -148 -59zM219 248q0 -46 29.5 -79t76.5 -33q46 0 75 33t29 79q0 47 -29.5 80.5t-75.5 32.5q-46 0 -75.5 -33.5t-29.5 -79.5z" />
    <glyph glyph-name="b" unicode="b" horiz-adv-x="678" 
d="M58 700h190v-246q61 56 152 56q99 0 171 -76t71 -187q-1 -110 -74 -183.5t-172 -73.5q-87 0 -148 59v-49h-190v700zM248 248q0 -46 29.5 -79t75.5 -33t76 33t30 79q0 47 -29.5 80.5t-75.5 32.5q-46 0 -75.5 -33t-30.5 -80z" />
    <glyph glyph-name="c" unicode="c" horiz-adv-x="572" 
d="M36 248q0 113 74.5 189.5t198.5 76.5q81 0 141 -34t89 -78l-103 -90q-38 52 -99 52q-46 0 -78.5 -32t-32.5 -80q0 -51 32 -83t82 -32q59 0 96 56l106 -95q-19 -25 -44 -47t-78 -44t-113 -22q-121 0 -196 76t-75 187z" />
    <glyph glyph-name="d" unicode="d" horiz-adv-x="678" 
d="M282 -10q-99 0 -172.5 73.5t-73.5 183.5q0 111 71.5 187t169.5 76q92 0 153 -56v246h190v-700h-190v49q-61 -59 -148 -59zM219 248q0 -46 29.5 -79t76.5 -33q46 0 75 33t29 79q0 47 -29.5 80t-75.5 33t-75.5 -33.5t-29.5 -79.5z" />
    <glyph glyph-name="e" unicode="e" horiz-adv-x="609" 
d="M36 249q0 116 71 189.5t201 73.5q133 0 202.5 -85t62.5 -210h-344q7 -42 34.5 -65.5t66.5 -23.5q71 0 111 54l110 -80q-28 -45 -90 -79.5t-148 -34.5q-124 0 -200.5 74.5t-76.5 186.5zM235 316h170q-3 28 -26 46.5t-56 18.5q-68 0 -88 -65z" />
    <glyph glyph-name="f" unicode="f" horiz-adv-x="416" 
d="M28 500h44v35q0 87 47 132.5t135 45.5q70 0 146 -30l-37 -118q-33 12 -55 12q-45 0 -46 -57v-20h109v-147h-109v-353h-190v353h-44v147z" />
    <glyph glyph-name="g" unicode="g" horiz-adv-x="673" 
d="M36 249q0 111 71 186t170 75q94 0 152 -55v45h190v-472q0 -122 -78.5 -185t-206.5 -61q-83 0 -146 20.5t-97 50.5l68 109q51 -43 142 -43q57 0 92.5 28.5t35.5 78.5v26q-60 -58 -147 -58q-100 0 -173 72.5t-73 182.5zM219 250q0 -46 29.5 -78t76.5 -32q45 0 74.5 32.5
t29.5 77.5q0 49 -28 80t-77 31q-46 1 -75.5 -32t-29.5 -79z" />
    <glyph glyph-name="h" unicode="h" horiz-adv-x="670" 
d="M58 0v700h190v-248q59 61 147 61q100 -1 161.5 -65.5t61.5 -183.5v-264h-191v245q0 49 -23 77.5t-63 27.5q-44 -1 -68.5 -32.5t-24.5 -80.5v-237h-190z" />
    <glyph glyph-name="i" unicode="i" horiz-adv-x="331" 
d="M260 0h-190v500h190v-500zM165 545q-45 0 -75.5 23.5t-30.5 57.5q0 33 31 57.5t75 23.5q42 -1 74.5 -25t32.5 -56q0 -33 -32 -57t-75 -24z" />
    <glyph glyph-name="j" unicode="j" horiz-adv-x="329" 
d="M97 -212q-55 0 -115 15v128q18 -7 41 -7q49 0 49 52v524h190v-535q0 -91 -37.5 -134t-127.5 -43zM59 626q0 33 30.5 57t75.5 24q42 0 74 -24.5t32 -56.5q0 -33 -31.5 -57t-74.5 -24q-45 0 -75.5 23.5t-30.5 57.5z" />
    <glyph glyph-name="k" unicode="k" horiz-adv-x="686" 
d="M58 700h190v-350l170 150h232l-221 -204l227 -296h-221l-134 174l-53 -48v-126h-190v700z" />
    <glyph glyph-name="l" unicode="l" horiz-adv-x="308" 
d="M249 700v-700h-190v700h190z" />
    <glyph glyph-name="m" unicode="m" horiz-adv-x="988" 
d="M58 0v500h190v-49q59 61 148 61q112 0 164 -99q63 99 180 99q86 0 141 -65t55 -183v-264h-190v245q0 48 -20 76.5t-55 28.5q-37 0 -58 -32t-21 -81v-237h-190v245q0 48 -20 76.5t-55 28.5q-37 0 -58 -32t-21 -82v-236h-190z" />
    <glyph glyph-name="n" unicode="n" horiz-adv-x="670" 
d="M248 0h-190v500h190v-48q60 60 148 60q99 0 160.5 -64.5t61.5 -183.5v-264h-190v245q0 48 -23.5 76.5t-63.5 28.5q-44 0 -68.5 -32t-24.5 -82v-236z" />
    <glyph glyph-name="o" unicode="o" horiz-adv-x="623" 
d="M312 -12q-129 0 -202.5 74t-73.5 188t73 188t202 74t202.5 -74t73.5 -188q0 -113 -73.5 -187.5t-201.5 -74.5zM311 363q-39 0 -62 -32.5t-23 -80.5q0 -47 23.5 -79.5t61.5 -32.5q39 0 62.5 32.5t23.5 79.5q0 48 -23.5 80.5t-62.5 32.5z" />
    <glyph glyph-name="p" unicode="p" horiz-adv-x="677" 
d="M58 500h190v-46q61 56 153 56q98 0 169 -75.5t71 -186.5t-73 -184.5t-172 -73.5q-87 0 -148 59v-249h-190v700zM248 248q0 -46 29.5 -79t75.5 -33t76 33t30 79t-30 79.5t-76 33.5q-45 0 -74.5 -33t-30.5 -80z" />
    <glyph glyph-name="q" unicode="q" horiz-adv-x="673" 
d="M36 248q0 111 71.5 186.5t169.5 75.5q91 0 152 -56v46h190v-700h-190v249q-59 -59 -148 -59q-99 0 -172 73.5t-73 184.5zM324 361q-46 0 -75.5 -33.5t-29.5 -79.5t29.5 -79t75.5 -33t75.5 33t29.5 79q0 47 -29.5 80t-75.5 33z" />
    <glyph glyph-name="r" unicode="r" horiz-adv-x="520" 
d="M58 0v500h190v-55q57 65 151 65q56 0 110 -22l-53 -160q-38 19 -79 19q-50 0 -89.5 -34t-39.5 -109v-204h-190z" />
    <glyph glyph-name="s" unicode="s" horiz-adv-x="506" 
d="M25 47l69 112q49 -38 155 -38q17 0 30 7t13 18q0 16 -26.5 29t-64 25.5t-75 29t-64 48.5t-26.5 75q0 74 61.5 116.5t163.5 42.5q114 0 199 -48l-62 -119q-53 35 -132 35q-44 0 -44 -22q0 -13 27 -25t65 -25t76 -31.5t65 -52t27 -77.5q0 -75 -64 -117.5t-170 -42.5
q-137 0 -223 60z" />
    <glyph glyph-name="t" unicode="t" horiz-adv-x="434" 
d="M81 353h-64v147h64v130h190v-130h109v-147h-109v-166q0 -56 40 -56q32 0 59 12l34 -130q-53 -26 -142 -26q-104 0 -142.5 52t-38.5 148v166z" />
    <glyph glyph-name="u" unicode="u" horiz-adv-x="670" 
d="M274 -12q-99 -1 -160.5 64t-61.5 184v264h190v-245q0 -48 23 -76.5t64 -28.5q44 0 68.5 32t24.5 82v236h190v-500h-190v48q-60 -60 -148 -60z" />
    <glyph glyph-name="v" unicode="v" horiz-adv-x="718" 
d="M260 0l-236 500h203l132 -286l132 286h203l-236 -500h-198z" />
    <glyph glyph-name="w" unicode="w" horiz-adv-x="995" 
d="M217 0l-191 500h200l90 -262l89 262h184l89 -262l90 262h201l-193 -500h-196l-83 218l-84 -218h-196z" />
    <glyph glyph-name="x" unicode="x" horiz-adv-x="670" 
d="M239 0h-217l205 256l-193 244h213l88 -109l87 109h214l-194 -244l206 -256h-217l-96 121z" />
    <glyph glyph-name="y" unicode="y" horiz-adv-x="707" 
d="M287 4l-263 496h206l143 -276l109 276h201l-233 -578q-29 -71 -88.5 -106.5t-134.5 -35.5q-105 0 -182 61l59 111q40 -32 91 -32q60 0 82 57z" />
    <glyph glyph-name="z" unicode="z" horiz-adv-x="582" 
d="M536 0h-490v147l240 206h-240v147h490v-147l-239 -206h239v-147z" />
    <glyph glyph-name="braceleft" unicode="{" horiz-adv-x="442" 
d="M8 323q45 0 69 22t24 57v127q0 75 54.5 123t134.5 48h124v-157h-84q-30 0 -30 -29v-127q0 -49 -27 -88.5t-68 -48.5q41 -8 68 -46t27 -91v-125q0 -14 8.5 -22.5t21.5 -8.5h84v-157h-124q-78 0 -133.5 52.5t-55.5 126.5v126q-1 31 -24.5 51.5t-68.5 20.5v146z" />
    <glyph glyph-name="bar" unicode="|" horiz-adv-x="294" 
d="M226 773v-973h-158v973h158z" />
    <glyph glyph-name="braceright" unicode="}" horiz-adv-x="442" 
d="M28 -43h84q13 0 21.5 8.5t8.5 22.5v125q0 50 27 89.5t68 47.5q-41 8 -68 46t-27 91v127q0 29 -30 29h-84v157h124q78 0 133.5 -51.5t55.5 -125.5v-128q1 -31 24.5 -51.5t68.5 -20.5v-146q-45 0 -69 -22t-24 -57v-125q0 -75 -55 -124t-134 -49h-124v157z" />
    <glyph glyph-name="asciitilde" unicode="~" horiz-adv-x="623" 
d="M152 227l-104 17q6 40 16.5 76t29.5 73t51 58.5t73 21.5t75 -20.5t52.5 -45.5t38 -45.5t33.5 -20.5q22 0 37.5 42t19.5 83l101 -12q-3 -58 -17.5 -107t-52.5 -87t-93 -38q-37 0 -69.5 21t-50 46t-36 46t-32.5 21q-23 0 -45 -47t-27 -82z" />
    <glyph glyph-name="exclamdown" unicode="&#xa1;" horiz-adv-x="318" 
d="M263 -201h-209l17 450h176zM159 296q-45 0 -78 32t-33 74q0 43 33.5 75t77.5 32q46 0 78.5 -31.5t32.5 -75.5q0 -43 -32.5 -74t-78.5 -32z" />
    <glyph glyph-name="cent" unicode="&#xa2;" horiz-adv-x="572" 
d="M36 347q0 119 78.5 193t197.5 73l18 87h101l-21 -104q87 -30 129 -95l-98 -80q-25 34 -58 49l-52 -249q34 2 65.5 18t49.5 44l96 -86q-88 -113 -240 -113l-18 -84h-101l21 101q-78 28 -123 95t-45 151zM234 245l50 235q-45 -10 -72 -46.5t-27 -83.5q0 -69 49 -105z" />
    <glyph glyph-name="sterling" unicode="&#xa3;" horiz-adv-x="588" 
d="M533 0h-505v149h60q55 22 55 73q0 23 -8 69h-107v111h84q-7 40 -7 68q0 238 247 238q20 0 39.5 -2t36 -5.5t32.5 -8t29 -9.5t24.5 -10t19.5 -9.5t14 -8t9 -5.5l4 -2l-77 -118q-53 34 -113 34q-79 0 -79 -92q0 -30 7 -70h226v-111h-203q7 -47 6 -63q-2 -44 -19 -79h225
v-149z" />
    <glyph glyph-name="currency" unicode="&#xa4;" horiz-adv-x="623" 
d="M113 453l-45 46l96 96l47 -47q46 24 97 24q61 0 105 -24l46 47l96 -96l-45 -46q26 -49 26 -102q0 -57 -26 -104l45 -46l-96 -96l-46 47q-45 -24 -101 -24t-101 24l-47 -47l-96 96l45 46q-26 49 -26 103t26 103zM231 350q0 -36 24 -62.5t57 -26.5q32 0 56 26.5t24 62.5
q0 35 -24 62t-56 27q-33 0 -57 -26.5t-24 -62.5z" />
    <glyph glyph-name="yen" unicode="&#xa5;" horiz-adv-x="798" 
d="M255 346l-227 354h226l145 -223l145 223h226l-227 -354h108v-104h-153v-54h153v-104h-153v-84h-199v84h-152v104h152v54h-152v104h108z" />
    <glyph glyph-name="brokenbar" unicode="&#xa6;" horiz-adv-x="295" 
d="M227 -200h-159v416h159v-416zM68 769h159v-413h-159v413z" />
    <glyph glyph-name="section" unicode="&#xa7;" horiz-adv-x="565" 
d="M27 -60l98 115q34 -30 83.5 -51t94.5 -21q32 0 54 13.5t22 43.5q0 23 -35 39t-84.5 29.5t-99.5 31.5t-85 54.5t-35 88.5q0 67 67 109q-67 49 -67 135q0 48 20 84.5t54 57t74.5 30.5t86.5 10q61 0 129.5 -20.5t115.5 -55.5l-68 -121q-87 56 -182 56q-71 0 -71 -39
q0 -18 25 -31t63 -21t81.5 -23t81.5 -34.5t63 -58t25 -91.5q0 -64 -43 -115q43 -44 43 -115q0 -96 -68 -149t-167 -53q-73 0 -149 27.5t-127 74.5zM199 299q0 -11 12 -21.5t31.5 -18t38 -13t39 -10.5t26.5 -7q33 19 33 41q0 10 -10.5 19t-28.5 16.5t-34.5 12.5t-35 10
t-23.5 7q-48 -10 -48 -36z" />
    <glyph glyph-name="dieresis" unicode="&#xa8;" horiz-adv-x="456" 
d="M319 705q32 0 50.5 -21t18.5 -44t-18 -44t-51 -21t-50.5 21t-17.5 44t18 43.5t50 21.5zM137 705q32 0 50 -21t18 -44t-17.5 -44t-50.5 -21t-51 21t-18 44t18.5 43.5t50.5 21.5z" />
    <glyph glyph-name="copyright" unicode="&#xa9;" horiz-adv-x="793" 
d="M396 708q150 0 255.5 -104.5t105.5 -253.5q0 -148 -105 -253t-256 -105q-149 0 -254.5 104.5t-105.5 253.5q0 148 105 253.5t255 104.5zM107 350q1 -122 85.5 -208t203.5 -86q120 0 204.5 86t84.5 208q1 121 -84 207t-205 87q-119 1 -204 -85.5t-85 -208.5zM163 350
q0 95 69 162t164 67q52 0 89.5 -16.5t79.5 -52.5l-64 -74q-47 42 -105 42q-50 0 -86.5 -38t-36.5 -90t36.5 -90t86.5 -38q67 2 100 41l71 -70q-81 -72 -171 -72q-95 0 -164 67t-69 162z" />
    <glyph glyph-name="ordfeminine" unicode="&#xaa;" horiz-adv-x="432" 
d="M185 395q-59 0 -103 44t-44 110t42.5 111.5t101.5 45.5q54 0 90 -31v25h115v-299h-115v28q-36 -34 -87 -34zM149 549q0 -27 17.5 -46t44.5 -19t44 19t17 47q0 27 -17.5 46.5t-44.5 19.5q-26 0 -43.5 -19.5t-17.5 -47.5z" />
    <glyph glyph-name="guillemotleft" unicode="&#xab;" horiz-adv-x="542" 
d="M363 54l-113 196l113 196h141l-112 -196l112 -196h-141zM28 250l113 196h141l-112 -196l112 -196h-141z" />
    <glyph glyph-name="logicalnot" unicode="&#xac;" horiz-adv-x="608" 
d="M48 398l512 -1v-262h-154v115h-358v148z" />
    <glyph glyph-name="uni00AD" unicode="&#xad;" horiz-adv-x="517" 
d="M437 175h-357v148h357v-148z" />
    <glyph glyph-name="registered" unicode="&#xae;" horiz-adv-x="793" 
d="M36 350q0 148 105 253t255 105t255.5 -104.5t105.5 -253.5q0 -147 -105.5 -252t-255.5 -106q-149 0 -254.5 104.5t-105.5 253.5zM107 350q1 -122 85.5 -208t203.5 -86q120 0 204.5 86t84.5 208q0 121 -85 207t-204 87t-204.5 -86t-84.5 -208zM351 143h-107v420h197
q66 0 108 -39t42 -98q0 -44 -26.5 -79.5t-70.5 -50.5l92 -153h-125l-79 144h-31v-144zM351 477v-103h63q70 0 70 52q0 51 -70 51h-63z" />
    <glyph glyph-name="macron" unicode="&#xaf;" horiz-adv-x="392" 
d="M324 668v-91h-256v91h256z" />
    <glyph glyph-name="degree" unicode="&#xb0;" horiz-adv-x="406" 
d="M203 709q69 0 118 -49t49 -118t-49 -118t-118 -49t-118 49t-49 118t49 118t118 49zM115 542q0 -36 26 -62t62 -26q37 0 62.5 26t25.5 62q0 37 -26 62.5t-62 25.5t-62 -26t-26 -62z" />
    <glyph glyph-name="plusminus" unicode="&#xb1;" horiz-adv-x="525" 
d="M186 321h-160v148h160v147h153v-147h160v-148h-160v-147h-153v147zM26 123h473v-123h-473v123z" />
    <glyph glyph-name="twosuperior" unicode="&#xb2;" horiz-adv-x="436" 
d="M227 859q76 0 129 -30.5t53 -97.5q0 -85 -139 -186l-26 -19h170v-100h-382v83l93 66q3 2 15 10.5t19 13.5t20.5 15t22 17.5t20.5 17.5t19.5 19t14.5 18.5t10.5 18.5t3.5 17q0 35 -52 35q-72 0 -113 -57l-81 62q71 97 203 97z" />
    <glyph glyph-name="threesuperior" unicode="&#xb3;" horiz-adv-x="443" 
d="M18 492l68 75q25 -23 63 -34.5t71 -11.5q34 0 52 10.5t18 27.5q0 42 -127 42h-36v86h33q36 0 68 10t32 36q0 29 -48 29q-68 0 -129 -51l-64 72q69 74 203 74q78 0 123.5 -28t45.5 -75q0 -40 -21.5 -63.5t-51.5 -30.5q37 -4 68.5 -32.5t32.5 -74.5q0 -62 -55 -98.5
t-148 -36.5q-134 0 -198 74z" />
    <glyph glyph-name="acute" unicode="&#xb4;" horiz-adv-x="401" 
d="M333 672l-145 -97h-120l189 174z" />
    <glyph glyph-name="paragraph" unicode="&#xb6;" horiz-adv-x="616" 
d="M18 480q0 90 63.5 155t152.5 65h314v-815h-142v678h-78v-678h-143v383q-72 18 -119.5 77t-47.5 135z" />
    <glyph glyph-name="periodcentered" unicode="&#xb7;" horiz-adv-x="358" 
d="M68 351q0 44 32.5 75t78.5 31q45 0 78 -32t33 -74q0 -43 -33.5 -75t-77.5 -32q-46 0 -78.5 31.5t-32.5 75.5z" />
    <glyph glyph-name="cedilla" unicode="&#xb8;" horiz-adv-x="381" 
d="M68 -183l29 73q45 -25 80 -25q36 0 36 25t-34 25q-20 0 -31 -8l-42 44l53 99h79l-20 -64q44 -4 70 -29.5t26 -65.5q0 -45 -35 -75t-93 -30q-74 0 -118 31z" />
    <glyph glyph-name="onesuperior" unicode="&#xb9;" horiz-adv-x="450" 
d="M56 750l151 100h107v-325h107v-99h-364v99h127v179l-58 -39z" />
    <glyph glyph-name="ordmasculine" unicode="&#xba;" horiz-adv-x="411" 
d="M50 549q0 66 48 112t118 46q69 0 117 -46t48 -112t-48.5 -112t-116.5 -46q-69 0 -117.5 46t-48.5 112zM215 469q31 0 51 23.5t20 56.5t-19.5 56t-51.5 23t-51 -22.5t-19 -56.5q0 -33 19.5 -56.5t50.5 -23.5z" />
    <glyph glyph-name="guillemotright" unicode="&#xbb;" horiz-adv-x="542" 
d="M260 54l112 196l-112 196h142l112 -196l-112 -196h-142zM180 54h-142l112 196l-112 196h142l112 -196z" />
    <glyph glyph-name="onequarter" unicode="&#xbc;" horiz-adv-x="1068" 
d="M604 157l250 267h104v-241h74v-98h-74v-85h-130v85h-224v72zM108 515l-70 85l151 100h108v-325h106v-99h-364v99h127v179zM394 0h-116l453 700h116zM828 259l-67 -76h67v76z" />
    <glyph glyph-name="onehalf" unicode="&#xbd;" horiz-adv-x="1094" 
d="M871 433q79 0 130.5 -31.5t51.5 -96.5q0 -51 -36.5 -94t-98.5 -89l-30 -22h170v-100h-382v82l93 67q3 3 21 15.5t27.5 19.5t26.5 20.5t27 23.5t21.5 22.5t16.5 23.5t5 21q0 15 -12.5 25.5t-39.5 10.5q-70 0 -114 -63l-80 68q63 97 203 97zM108 515l-70 85l151 100h108
v-325h106v-99h-364v99h127v179zM275 0l453 700h116l-453 -700h-116z" />
    <glyph glyph-name="threequarters" unicode="&#xbe;" horiz-adv-x="1012" 
d="M36 342l68 75q24 -23 62 -34.5t72 -11.5q33 0 51.5 11t18.5 27q0 42 -127 42h-36l-1 87l34 -1q14 0 29 1.5t32 6t27.5 14.5t10.5 24q0 29 -47 29q-68 0 -129 -51l-64 72q69 74 202 74q78 0 123.5 -28t45.5 -75q0 -40 -21 -63.5t-51 -30.5q36 -4 68 -32.5t32 -74.5
q0 -62 -55 -98.5t-148 -36.5q-133 0 -197 74zM772 85h-225v72l251 267h105v-241h73v-98h-73v-85h-131v85zM370 0h-116l453 700h116zM705 183h67v76z" />
    <glyph glyph-name="questiondown" unicode="&#xbf;" horiz-adv-x="602" 
d="M296 -213q-47 0 -90.5 10t-82.5 30.5t-62 58.5t-23 88q0 42 18.5 77.5t46 60.5t55.5 46.5t50.5 45t27.5 45.5h175q-6 -33 -26.5 -61.5t-45 -48.5t-48 -40.5t-39 -46t-15.5 -55.5q0 -25 21.5 -38t47.5 -13q45 0 91 25.5t75 63.5l112 -107q-48 -68 -124.5 -104.5
t-163.5 -36.5zM316 297q-43 0 -76.5 31.5t-33.5 74.5q0 44 33.5 75.5t77.5 31.5q45 0 77.5 -31t32.5 -76q0 -44 -33 -75t-78 -31z" />
    <glyph glyph-name="Agrave" unicode="&#xc0;" horiz-adv-x="863" 
d="M222 0h-210l316 700h208l315 -700h-209l-50 113h-320zM444 775l-145 97l77 77l188 -174h-120zM432 473l-91 -202h181z" />
    <glyph glyph-name="Aacute" unicode="&#xc1;" horiz-adv-x="863" 
d="M222 0h-210l316 700h208l315 -700h-209l-50 113h-320zM419 775h-120l189 174l76 -77zM341 271h181l-90 202z" />
    <glyph glyph-name="Acircumflex" unicode="&#xc2;" horiz-adv-x="863" 
d="M222 0h-210l316 700h208l315 -700h-209l-50 113h-320zM250 775l131 145h101l131 -145h-109l-72 64l-72 -64h-110zM432 473l-91 -202h181z" />
    <glyph glyph-name="Atilde" unicode="&#xc3;" horiz-adv-x="863" 
d="M222 0h-210l316 700h208l315 -700h-209l-50 113h-320zM333 777h-77q18 147 114 148q27 0 48 -9t31.5 -20.5t21.5 -20.5t21 -9q15 0 25.5 16t13.5 32h77q-6 -147 -110 -147q-36 0 -73 29.5t-55 29.5q-16 0 -25 -15t-12 -34zM432 473l-91 -202h181z" />
    <glyph glyph-name="Adieresis" unicode="&#xc4;" horiz-adv-x="863" 
d="M12 0l316 700h208l315 -700h-209l-50 113h-320l-50 -113h-210zM341 271h181l-90 202zM523 905q32 0 50.5 -21t18.5 -44t-18 -44t-51 -21t-51 21t-18 44t18 43.5t51 21.5zM340 905q32 0 50.5 -21t18.5 -44t-18 -44t-51 -21t-50.5 21t-17.5 44t18 43.5t50 21.5z" />
    <glyph glyph-name="Aring" unicode="&#xc5;" horiz-adv-x="863" 
d="M12 0l316 700h208l315 -700h-209l-50 113h-320l-50 -113h-210zM318 860q0 38 30 72t84 34q53 0 83 -34t30 -72t-30 -72t-83 -34q-54 0 -84 34t-30 72zM341 271h181l-90 202zM432 816q15 0 25 11.5t10 32.5t-10.5 32.5t-24.5 11.5q-15 0 -25.5 -11.5t-10.5 -32.5
t10.5 -32.5t25.5 -11.5z" />
    <glyph glyph-name="AE" unicode="&#xc6;" horiz-adv-x="1122" 
d="M12 0l328 700h734v-159h-362v-112h316v-158h-316v-112h362v-159h-561v150h-221l-70 -150h-210zM474 541l-108 -233h147v233h-39z" />
    <glyph glyph-name="Ccedilla" unicode="&#xc7;" horiz-adv-x="752" 
d="M321 0q-126 27 -205.5 119.5t-79.5 228.5q0 160 110.5 260t270.5 101q105 0 184 -40.5t121 -101.5l-133 -98q-59 80 -162 80q-80 0 -136 -56t-56 -145q0 -88 55.5 -142.5t135.5 -54.5q113 0 167 82l128 -89q-34 -60 -112.5 -107t-191.5 -47h-10l-4 -12q43 -3 69 -28.5
t26 -65.5q0 -46 -34.5 -76t-93.5 -29q-76 0 -117 30l29 73q45 -25 80 -25t35 26q0 25 -34 25q-19 0 -30 -8l-42 44z" />
    <glyph glyph-name="Egrave" unicode="&#xc8;" horiz-adv-x="679" 
d="M68 0v700h563v-157h-364v-117h314v-152h-314v-117h364v-157h-563zM352 775l-145 97l77 77l188 -174h-120z" />
    <glyph glyph-name="Eacute" unicode="&#xc9;" horiz-adv-x="679" 
d="M631 0h-563v700h563v-157h-364v-117h314v-152h-314v-117h364v-157zM207 775l189 174l76 -77l-145 -97h-120z" />
    <glyph glyph-name="Ecircumflex" unicode="&#xca;" horiz-adv-x="679" 
d="M68 0v700h563v-157h-364v-117h314v-152h-314v-117h364v-157h-563zM268 775h-110l131 145h101l131 -145h-108l-73 64z" />
    <glyph glyph-name="Edieresis" unicode="&#xcb;" horiz-adv-x="679" 
d="M68 0v700h563v-157h-364v-117h314v-152h-314v-117h364v-157h-563zM431 905q32 0 50.5 -21t18.5 -44t-18 -44t-51 -21t-51 21t-18 44t18 43.5t51 21.5zM248 905q32 0 50.5 -21t18.5 -44t-18 -44t-51 -21t-50.5 21t-17.5 44t18 43.5t50 21.5z" />
    <glyph glyph-name="Igrave" unicode="&#xcc;" horiz-adv-x="347" 
d="M273 700v-700h-199v700h199zM306 775h-120l-145 97l77 77z" />
    <glyph glyph-name="Iacute" unicode="&#xcd;" horiz-adv-x="347" 
d="M273 700v-700h-199v700h199zM306 872l-145 -97h-120l189 174z" />
    <glyph glyph-name="Icircumflex" unicode="&#xce;" horiz-adv-x="347" 
d="M74 700h199v-700h-199v700zM-8 775l131 145h101l131 -145h-109l-72 64l-72 -64h-110z" />
    <glyph glyph-name="Idieresis" unicode="&#xcf;" horiz-adv-x="347" 
d="M74 700h199v-700h-199v700zM265 775q-33 0 -51 21t-18 44t18 44t51 21q32 0 50.5 -21t18.5 -44t-18 -44t-51 -21zM14 840q0 23 18 44t50 21t50.5 -21t18.5 -44t-18 -44t-51 -21t-50.5 21t-17.5 44z" />
    <glyph glyph-name="Eth" unicode="&#xd0;" horiz-adv-x="786" 
d="M68 274h-50v149h50v277h310q169 0 270.5 -97.5t101.5 -252.5q0 -158 -101 -254t-271 -96h-310v274zM267 274v-115h111q75 0 124 54t49 137q0 85 -48 138t-125 53h-111v-118h139v-149h-139z" />
    <glyph glyph-name="Ntilde" unicode="&#xd1;" horiz-adv-x="812" 
d="M267 0h-199v700h201l276 -381v381h199v-700h-202l-275 382v-382zM230 777q18 147 114 148q28 0 49 -9t31.5 -20.5t21.5 -20.5t21 -9q15 0 25.5 16.5t13.5 31.5h76q-6 -147 -110 -147q-36 0 -73 29.5t-54 29.5q-28 0 -38 -49h-77z" />
    <glyph glyph-name="Ograve" unicode="&#xd2;" horiz-adv-x="833" 
d="M417 -11q-162 0 -271.5 106t-109.5 257q0 152 109 255.5t272 103.5t272 -104t108 -255q-1 -153 -109.5 -258t-270.5 -105zM235 352q0 -80 53 -137t129 -57q75 0 128 56.5t53 137.5q0 80 -53 134.5t-128 54.5q-76 0 -129 -55t-53 -134zM284 872l77 77l188 -174h-120z" />
    <glyph glyph-name="Oacute" unicode="&#xd3;" horiz-adv-x="833" 
d="M417 -11q-162 0 -271.5 106t-109.5 257q0 152 109 255.5t272 103.5t272 -104t108 -255q-1 -153 -109.5 -258t-270.5 -105zM235 352q0 -80 53 -137t129 -57q75 0 128 56.5t53 137.5q0 80 -53 134.5t-128 54.5q-76 0 -129 -55t-53 -134zM284 775l189 174l76 -77l-145 -97
h-120z" />
    <glyph glyph-name="Ocircumflex" unicode="&#xd4;" horiz-adv-x="833" 
d="M36 352q0 152 109 255.5t272 103.5t272 -104t108 -255q-1 -153 -109.5 -258.5t-270.5 -104.5t-271.5 106.5t-109.5 256.5zM235 352q0 -80 53 -137t129 -57q75 0 128 56.5t53 137.5q0 80 -53 134.5t-128 54.5q-76 0 -129 -55t-53 -134zM345 775h-110l131 145h101l131 -145
h-109l-72 64z" />
    <glyph glyph-name="Otilde" unicode="&#xd5;" horiz-adv-x="833" 
d="M417 -11q-162 0 -271.5 106t-109.5 257q0 152 109 255.5t272 103.5t272 -104t108 -255q-1 -153 -109.5 -258t-270.5 -105zM235 352q0 -80 53 -137t129 -57q75 0 128 56.5t53 137.5q0 80 -53 134.5t-128 54.5q-76 0 -129 -55t-53 -134zM318 777h-77q18 147 113 148
q28 0 49 -9t31.5 -20.5t21.5 -20.5t21 -9q15 0 25.5 16t13.5 32h76q-4 -147 -109 -147q-36 0 -73.5 29.5t-54.5 29.5q-16 0 -25 -15t-12 -34z" />
    <glyph glyph-name="Odieresis" unicode="&#xd6;" horiz-adv-x="833" 
d="M36 352q0 152 109 255.5t272 103.5t272 -104t108 -255q-1 -153 -109.5 -258.5t-270.5 -104.5t-271.5 106.5t-109.5 256.5zM235 352q0 -80 53 -137t129 -57q75 0 128 56.5t53 137.5q0 80 -53 134.5t-128 54.5q-76 0 -129 -55t-53 -134zM508 775q-33 0 -51 21t-18 44t18 44
t51 21q32 0 50.5 -21t18.5 -44t-18 -44t-51 -21zM325 775q-33 0 -51 21t-18 44t18.5 44t50.5 21t50.5 -21t18.5 -44t-18 -44t-51 -21z" />
    <glyph glyph-name="multiply" unicode="&#xd7;" horiz-adv-x="548" 
d="M153 124l-105 105l121 122l-120 120l105 105l120 -121l121 121l105 -105l-121 -121l121 -120l-105 -105l-120 120z" />
    <glyph glyph-name="Oslash" unicode="&#xd8;" horiz-adv-x="800" 
d="M36 352q0 153 109 256t272 103q55 0 108 -14l22 42l131 1l-46 -90q77 -49 121 -127t44 -171q0 -153 -109 -258.5t-271 -104.5q-59 0 -111 15l-20 -40h-131l45 87q-77 50 -120.5 129t-43.5 172zM387 162q12 -4 30 -4q75 0 128 56.5t53 137.5q0 77 -52 129zM417 541
q-76 0 -129 -55t-53 -134q0 -76 51 -130l158 316q-14 3 -27 3z" />
    <glyph glyph-name="Ugrave" unicode="&#xd9;" horiz-adv-x="765" 
d="M383 -11q-134 0 -224.5 75t-90.5 207v429h199v-429q0 -52 30.5 -87.5t84.5 -35.5q55 0 85.5 35.5t30.5 87.5v429h199v-429q0 -132 -90.5 -207t-223.5 -75zM250 872l76 77l189 -174h-120z" />
    <glyph glyph-name="Uacute" unicode="&#xda;" horiz-adv-x="765" 
d="M383 -11q-134 0 -224.5 75t-90.5 207v429h199v-429q0 -52 30.5 -87.5t84.5 -35.5q55 0 85.5 35.5t30.5 87.5v429h199v-429q0 -132 -90.5 -207t-223.5 -75zM370 775h-120l189 174l76 -77z" />
    <glyph glyph-name="Ucircumflex" unicode="&#xdb;" horiz-adv-x="765" 
d="M383 -11q-134 0 -224.5 75t-90.5 207v429h199v-429q0 -52 30.5 -87.5t84.5 -35.5q55 0 85.5 35.5t30.5 87.5v429h199v-429q0 -132 -90.5 -207t-223.5 -75zM311 775h-110l131 145h101l131 -145h-109l-72 64z" />
    <glyph glyph-name="Udieresis" unicode="&#xdc;" horiz-adv-x="765" 
d="M383 -11q-134 0 -224.5 75t-90.5 207v429h199v-429q0 -52 30.5 -87.5t84.5 -35.5q55 0 85.5 35.5t30.5 87.5v429h199v-429q0 -132 -90.5 -207t-223.5 -75zM474 775q-33 0 -51 21t-18 44t18 44t51 21q32 0 50.5 -21t18.5 -44t-18 -44t-51 -21zM222 840q0 23 18.5 44
t50.5 21t50.5 -21t18.5 -44t-18 -44t-51 -21t-51 21t-18 44z" />
    <glyph glyph-name="Yacute" unicode="&#xdd;" horiz-adv-x="798" 
d="M299 277l-271 423h223l148 -231l149 231h222l-272 -423v-277h-199v277zM266 775l189 174l77 -77l-146 -97h-120z" />
    <glyph glyph-name="Thorn" unicode="&#xde;" horiz-adv-x="708" 
d="M267 0h-199v700h199v-100h151q120 0 192 -71t72 -178q-1 -107 -72 -178t-191 -71h-152v-102zM267 262h135q43 0 66.5 25.5t23.5 63.5t-23.5 63.5t-66.5 25.5h-135v-178z" />
    <glyph glyph-name="germandbls" unicode="&#xdf;" horiz-adv-x="596" 
d="M68 452q0 119 60.5 188t175.5 69q41 0 78.5 -9.5t70 -28.5t51.5 -53t19 -78q0 -20 -4 -37t-13.5 -31.5t-16.5 -25t-22.5 -21.5t-22 -16t-23.5 -15t-19 -11q4 -2 23.5 -13t29 -16.5t28.5 -18t29.5 -23t25 -27t22 -32.5t13 -38t5.5 -46q0 -87 -54 -133t-143 -46
q-80 0 -128 24l32 121q27 -17 78 -19q27 -1 49.5 14.5t22.5 47.5q0 30 -19 51.5t-45.5 34t-53.5 23.5t-46 28t-19 41q0 29 18.5 49t40 31t40 34.5t18.5 56.5q0 28 -20.5 41.5t-44.5 13.5q-42 0 -62 -35.5t-20 -94.5v-452h-154v452z" />
    <glyph glyph-name="agrave" unicode="&#xe0;" horiz-adv-x="677" 
d="M36 247q0 111 71.5 187t169.5 76q92 0 153 -56v46h190v-500h-190v49q-61 -59 -148 -59q-99 0 -172.5 73.5t-73.5 183.5zM219 248q0 -46 29.5 -79t76.5 -33q46 0 75 33t29 79q0 47 -29.5 80.5t-75.5 32.5q-46 0 -75.5 -33.5t-29.5 -79.5zM206 672l77 77l189 -174h-120z
" />
    <glyph glyph-name="aacute" unicode="&#xe1;" horiz-adv-x="677" 
d="M282 -10q-99 0 -172.5 73.5t-73.5 183.5q0 111 71.5 187t169.5 76q92 0 153 -56v46h190v-500h-190v49q-61 -59 -148 -59zM219 248q0 -46 29.5 -79t76.5 -33q46 0 75 33t29 79q0 47 -29.5 80.5t-75.5 32.5q-46 0 -75.5 -33.5t-29.5 -79.5zM326 575h-120l189 174l77 -77z
" />
    <glyph glyph-name="acircumflex" unicode="&#xe2;" horiz-adv-x="677" 
d="M36 247q0 111 71.5 187t169.5 76q92 0 153 -56v46h190v-500h-190v49q-61 -59 -148 -59q-99 0 -172.5 73.5t-73.5 183.5zM219 248q0 -46 29.5 -79t76.5 -33q46 0 75 33t29 79q0 47 -29.5 80.5t-75.5 32.5q-46 0 -75.5 -33.5t-29.5 -79.5zM157 575l132 145h100l131 -145
h-108l-73 64l-72 -64h-110z" />
    <glyph glyph-name="atilde" unicode="&#xe3;" horiz-adv-x="677" 
d="M282 -10q-99 0 -172.5 73.5t-73.5 183.5q0 111 71.5 187t169.5 76q92 0 153 -56v46h190v-500h-190v49q-61 -59 -148 -59zM219 248q0 -46 29.5 -79t76.5 -33q46 0 75 33t29 79q0 47 -29.5 80.5t-75.5 32.5q-46 0 -75.5 -33.5t-29.5 -79.5zM163 577q18 147 114 148
q28 0 49 -9t31 -20.5t21.5 -20.5t20.5 -9q15 0 26 16.5t14 31.5h76q-6 -147 -110 -147q-36 0 -73 29.5t-54 29.5q-28 0 -38 -49h-77z" />
    <glyph glyph-name="adieresis" unicode="&#xe4;" horiz-adv-x="677" 
d="M282 -10q-99 0 -172.5 73.5t-73.5 183.5q0 111 71.5 187t169.5 76q92 0 153 -56v46h190v-500h-190v49q-61 -59 -148 -59zM219 248q0 -46 29.5 -79t76.5 -33q46 0 75 33t29 79q0 47 -29.5 80.5t-75.5 32.5q-46 0 -75.5 -33.5t-29.5 -79.5zM430 575q-33 0 -50.5 21
t-17.5 44t17.5 44t50.5 21q32 0 50.5 -21t18.5 -44t-18 -44t-51 -21zM248 575q-33 0 -51 21t-18 44t18 44t51 21q32 0 50 -21t18 -44t-17.5 -44t-50.5 -21z" />
    <glyph glyph-name="aring" unicode="&#xe5;" horiz-adv-x="677" 
d="M36 247q0 111 71.5 187t169.5 76q92 0 153 -56v46h190v-500h-190v49q-61 -59 -148 -59q-99 0 -172.5 73.5t-73.5 183.5zM339 554q-54 0 -84 34t-30 72t30 72t84 34t84 -34t30 -72t-30 -72t-84 -34zM219 248q0 -46 29.5 -79t76.5 -33q46 0 75 33t29 79q0 47 -29.5 80.5
t-75.5 32.5q-46 0 -75.5 -33.5t-29.5 -79.5zM303 660q0 -21 11 -32.5t25 -11.5q15 0 25 11.5t10 32.5t-10.5 32.5t-24.5 11.5t-25 -11.5t-11 -32.5z" />
    <glyph glyph-name="ae" unicode="&#xe6;" horiz-adv-x="1003" 
d="M36 247q0 111 71.5 187t169.5 76q92 0 153 -56v46h116v-30q64 42 155 42q134 0 203.5 -85t61.5 -210h-343q7 -42 34.5 -65.5t66.5 -23.5q71 0 111 54l110 -80q-28 -45 -90 -79.5t-148 -34.5q-93 0 -161 46v-34h-116v49q-61 -59 -148 -59q-99 0 -172.5 73.5t-73.5 183.5z
M219 248q0 -46 29.5 -79t76.5 -33q46 0 75 33t29 79q0 47 -29.5 80.5t-75.5 32.5q-46 0 -75.5 -33.5t-29.5 -79.5zM629 316h170q-3 28 -26 46.5t-56 18.5q-68 0 -88 -65z" />
    <glyph glyph-name="ccedilla" unicode="&#xe7;" horiz-adv-x="572" 
d="M233 -7q-90 22 -143.5 92.5t-53.5 162.5q0 113 74.5 189.5t198.5 76.5q81 0 141 -34t89 -78l-103 -90q-38 52 -99 52q-47 0 -79.5 -32t-31.5 -80q1 -51 32.5 -83t81.5 -32q59 0 96 56l106 -95q-85 -113 -244 -113l-5 -13q47 0 81.5 -25.5t34.5 -71.5t-35 -76t-93 -30
q-74 0 -118 31l29 73q46 -25 80 -25q36 0 36 26q0 20 -34 24q-18 2 -31 -8l-41 45z" />
    <glyph glyph-name="egrave" unicode="&#xe8;" horiz-adv-x="609" 
d="M36 249q0 116 71 189.5t201 73.5q133 0 202.5 -85t62.5 -210h-344q7 -42 34.5 -65.5t66.5 -23.5q71 0 111 54l110 -80q-28 -45 -90 -79.5t-148 -34.5q-124 0 -200.5 74.5t-76.5 186.5zM172 672l77 77l188 -174h-120zM323 381q-68 0 -88 -65h170q-3 28 -26 46.5t-56 18.5z
" />
    <glyph glyph-name="eacute" unicode="&#xe9;" horiz-adv-x="609" 
d="M36 249q0 116 71 189.5t201 73.5q133 0 202.5 -85t62.5 -210h-344q7 -42 34.5 -65.5t66.5 -23.5q71 0 111 54l110 -80q-28 -45 -90 -79.5t-148 -34.5q-124 0 -200.5 74.5t-76.5 186.5zM172 575l189 174l76 -77l-145 -97h-120zM323 381q-68 0 -88 -65h170q-3 28 -26 46.5
t-56 18.5z" />
    <glyph glyph-name="ecircumflex" unicode="&#xea;" horiz-adv-x="609" 
d="M313 -12q-124 0 -200.5 74.5t-76.5 186.5q0 116 71 189.5t201 73.5q133 0 202.5 -85t62.5 -210h-344q7 -42 34.5 -65.5t66.5 -23.5q71 0 111 54l110 -80q-28 -45 -90 -79.5t-148 -34.5zM123 575l131 145h101l131 -145h-108l-73 64l-72 -64h-110zM235 316h170
q-3 28 -26 46.5t-56 18.5q-68 0 -88 -65z" />
    <glyph glyph-name="edieresis" unicode="&#xeb;" horiz-adv-x="609" 
d="M313 -12q-124 0 -200.5 74.5t-76.5 186.5q0 116 71 189.5t201 73.5q133 0 202.5 -85t62.5 -210h-344q7 -42 34.5 -65.5t66.5 -23.5q71 0 111 54l110 -80q-28 -45 -90 -79.5t-148 -34.5zM396 575q-33 0 -51 21t-18 44t18 44t51 21q32 0 50.5 -21t18.5 -44t-18 -44t-51 -21
zM213 575q-33 0 -50.5 21t-17.5 44t18 44t50 21t50.5 -21t18.5 -44t-18 -44t-51 -21zM235 316h170q-3 28 -26 46.5t-56 18.5q-68 0 -88 -65z" />
    <glyph glyph-name="igrave" unicode="&#xec;" horiz-adv-x="330" 
d="M70 500h190v-500h-190v500zM298 575h-120l-145 97l76 77z" />
    <glyph glyph-name="iacute" unicode="&#xed;" horiz-adv-x="330" 
d="M70 500h190v-500h-190v500zM298 672l-145 -97h-120l188 174z" />
    <glyph glyph-name="icircumflex" unicode="&#xee;" horiz-adv-x="330" 
d="M70 0v500h190v-500h-190zM-16 575l131 145h101l131 -145h-109l-72 64l-73 -64h-109z" />
    <glyph glyph-name="idieresis" unicode="&#xef;" horiz-adv-x="330" 
d="M70 0v500h190v-500h-190zM257 575q-33 0 -51 21t-18 44t18 44t51 21q32 0 50 -21t18 -44t-17.5 -44t-50.5 -21zM74 575q-33 0 -51 21t-18 44t18.5 44t50.5 21t50.5 -21t18.5 -44t-18 -44t-51 -21z" />
    <glyph glyph-name="eth" unicode="&#xf0;" horiz-adv-x="648" 
d="M311 -12q-125 0 -209 63t-84 180q0 103 72.5 167.5t173.5 64.5q52 0 102 -13.5t73 -39.5q0 57 -32 104l-56 -39l-47 68l41 29q-42 26 -85 26l5 115q120 0 204 -57l61 42l46 -67l-45 -31q86 -103 84 -261q-1 -71 -19 -132t-53.5 -111t-95 -79t-136.5 -29zM213 236
q-1 -39 25 -64t65 -25q40 0 65.5 27t26.5 66q1 40 -25.5 64t-66.5 24q-43 0 -66.5 -27.5t-23.5 -64.5z" />
    <glyph glyph-name="ntilde" unicode="&#xf1;" horiz-adv-x="670" 
d="M58 500h190v-48q60 60 148 60q99 0 160.5 -64.5t61.5 -183.5v-264h-190v245q0 48 -23.5 76.5t-63.5 28.5q-44 0 -68.5 -32t-24.5 -82v-236h-190v500zM159 577q18 147 114 148q27 0 48.5 -9t31.5 -20.5t21.5 -20.5t20.5 -9q15 0 26 17t13 31h77q-6 -147 -110 -147
q-36 0 -73 29.5t-54 29.5q-28 0 -38 -49h-77z" />
    <glyph glyph-name="ograve" unicode="&#xf2;" horiz-adv-x="623" 
d="M312 -12q-129 0 -202.5 74t-73.5 188t73 188t202 74t202.5 -74t73.5 -188q0 -113 -73.5 -187.5t-201.5 -74.5zM311 363q-39 0 -62 -32.5t-23 -80.5q0 -47 23.5 -79.5t61.5 -32.5q39 0 62.5 32.5t23.5 79.5q0 48 -23.5 80.5t-62.5 32.5zM324 575l-145 97l77 77l188 -174
h-120z" />
    <glyph glyph-name="oacute" unicode="&#xf3;" horiz-adv-x="623" 
d="M36 250q0 114 73 188t202 74t202.5 -74t73.5 -188q0 -113 -73.5 -187.5t-201.5 -74.5q-129 0 -202.5 74t-73.5 188zM226 250q0 -47 23.5 -79.5t61.5 -32.5q39 0 62.5 32.5t23.5 79.5q0 48 -23.5 80.5t-62.5 32.5t-62 -32.5t-23 -80.5zM179 575l189 174l76 -77l-145 -97
h-120z" />
    <glyph glyph-name="ocircumflex" unicode="&#xf4;" horiz-adv-x="623" 
d="M36 250q0 114 73 188t202 74t202.5 -74t73.5 -188q0 -113 -73.5 -187.5t-201.5 -74.5q-129 0 -202.5 74t-73.5 188zM226 250q0 -47 23.5 -79.5t61.5 -32.5q39 0 62.5 32.5t23.5 79.5q0 48 -23.5 80.5t-62.5 32.5t-62 -32.5t-23 -80.5zM130 575l131 145h101l131 -145h-108
l-73 64l-72 -64h-110z" />
    <glyph glyph-name="otilde" unicode="&#xf5;" horiz-adv-x="623" 
d="M36 250q0 114 73 188t202 74t202.5 -74t73.5 -188q0 -113 -73.5 -187.5t-201.5 -74.5q-129 0 -202.5 74t-73.5 188zM213 577h-77q18 147 114 148q27 0 48 -9t31.5 -20.5t21.5 -20.5t21 -9q15 0 25.5 16t13.5 32h77q-6 -147 -110 -147q-36 0 -73 29.5t-55 29.5
q-16 0 -25 -15t-12 -34zM226 250q0 -47 23.5 -79.5t61.5 -32.5q39 0 62.5 32.5t23.5 79.5q0 48 -23.5 80.5t-62.5 32.5t-62 -32.5t-23 -80.5z" />
    <glyph glyph-name="odieresis" unicode="&#xf6;" horiz-adv-x="623" 
d="M312 -12q-129 0 -202.5 74t-73.5 188t73 188t202 74t202.5 -74t73.5 -188q0 -113 -73.5 -187.5t-201.5 -74.5zM226 250q0 -47 23.5 -79.5t61.5 -32.5q39 0 62.5 32.5t23.5 79.5q0 48 -23.5 80.5t-62.5 32.5t-62 -32.5t-23 -80.5zM403 575q-33 0 -51 21t-18 44t18 44
t51 21q32 0 50.5 -21t18.5 -44t-18 -44t-51 -21zM220 575q-33 0 -50.5 21t-17.5 44t18 44t50 21t50.5 -21t18.5 -44t-18 -44t-51 -21z" />
    <glyph glyph-name="divide" unicode="&#xf7;" horiz-adv-x="436" 
d="M54 205v92h320v-92h-320zM214 149q30 1 51.5 -20t22.5 -49q1 -30 -21.5 -51t-52.5 -21q-31 0 -52.5 21t-21.5 51q0 28 21.5 48.5t52.5 20.5zM214 491q30 0 51.5 -21t22.5 -48q1 -30 -21.5 -51t-52.5 -21q-31 0 -52.5 21t-21.5 51q0 28 21.5 48.5t52.5 20.5z" />
    <glyph glyph-name="oslash" unicode="&#xf8;" horiz-adv-x="612" 
d="M45 250q0 114 73 188.5t202 73.5q51 0 93 -12l26 43h105l-49 -81q101 -73 101 -212q0 -113 -73.5 -187t-201.5 -75q-54 0 -99 14l-23 -38h-105l47 79q-96 74 -96 207zM299 128q14 -2 21 -2q50 0 80 37.5t30 91.5q0 38 -21 67zM320 385q-51 -1 -80 -38t-29 -92
q0 -36 20 -66l110 193q-11 3 -21 3z" />
    <glyph glyph-name="ugrave" unicode="&#xf9;" horiz-adv-x="670" 
d="M52 236v264h190v-245q0 -48 23 -76.5t64 -28.5q44 0 68.5 32t24.5 82v236h190v-500h-190v48q-60 -60 -148 -60q-99 -1 -160.5 64t-61.5 184zM348 575l-146 97l77 77l189 -174h-120z" />
    <glyph glyph-name="uacute" unicode="&#xfa;" horiz-adv-x="670" 
d="M52 500h190v-245q0 -48 23 -76.5t64 -28.5q44 0 68.5 32t24.5 82v236h190v-500h-190v48q-60 -60 -148 -60q-99 -1 -160.5 64t-61.5 184v264zM202 575l189 174l77 -77l-146 -97h-120z" />
    <glyph glyph-name="ucircumflex" unicode="&#xfb;" horiz-adv-x="670" 
d="M274 -12q-99 -1 -160.5 64t-61.5 184v264h190v-245q0 -48 23 -76.5t64 -28.5q44 0 68.5 32t24.5 82v236h190v-500h-190v48q-60 -60 -148 -60zM263 575h-110l132 145h100l131 -145h-108l-73 64z" />
    <glyph glyph-name="udieresis" unicode="&#xfc;" horiz-adv-x="670" 
d="M274 -12q-99 -1 -160.5 64t-61.5 184v264h190v-245q0 -48 23 -76.5t64 -28.5q44 0 68.5 32t24.5 82v236h190v-500h-190v48q-60 -60 -148 -60zM426 575q-33 0 -50.5 21t-17.5 44t17.5 44t50.5 21q32 0 50.5 -21t18.5 -44t-18 -44t-51 -21zM175 640q0 23 18 44t50 21
t50.5 -21t18.5 -44t-18 -44t-51 -21t-50.5 21t-17.5 44z" />
    <glyph glyph-name="yacute" unicode="&#xfd;" horiz-adv-x="707" 
d="M24 500h206l143 -276l109 276h201l-233 -578q-29 -71 -88.5 -106.5t-134.5 -35.5q-105 0 -182 61l59 111q40 -32 91 -32q60 0 82 57l10 27zM221 575l188 174l77 -77l-145 -97h-120z" />
    <glyph glyph-name="thorn" unicode="&#xfe;" horiz-adv-x="677" 
d="M58 700h190v-246q61 56 152 56q98 0 169.5 -75.5t71.5 -186.5t-73 -184.5t-172 -73.5q-87 0 -148 59v-249h-190v900zM353 136q46 0 76 33t30 80q0 46 -30 79t-76 33t-75.5 -33t-29.5 -79q0 -47 29.5 -80t75.5 -33z" />
    <glyph glyph-name="ydieresis" unicode="&#xff;" horiz-adv-x="707" 
d="M24 500h206l143 -276l109 276h201l-233 -578q-29 -71 -88.5 -106.5t-134.5 -35.5q-105 0 -182 61l59 111q40 -32 91 -32q60 0 82 57l10 27zM445 575q-33 0 -51 21t-18 44t18 44t51 21q32 0 50.5 -21t18.5 -44t-18 -44t-51 -21zM193 640q0 23 18.5 44t50.5 21t50.5 -21
t18.5 -44t-18 -44t-51 -21t-51 21t-18 44z" />
    <glyph glyph-name="Amacron" unicode="&#x100;" horiz-adv-x="863" 
d="M222 0h-210l316 700h208l315 -700h-209l-50 113h-320zM559 777h-255v91h255v-91zM341 271h181l-90 202z" />
    <glyph glyph-name="amacron" unicode="&#x101;" horiz-adv-x="677" 
d="M36 247q0 111 71.5 187t169.5 76q92 0 153 -56v46h190v-500h-190v49q-61 -59 -148 -59q-99 0 -172.5 73.5t-73.5 183.5zM219 248q0 -46 29.5 -79t76.5 -33q46 0 75 33t29 79q0 47 -29.5 80.5t-75.5 32.5q-46 0 -75.5 -33.5t-29.5 -79.5zM211 577v91h256v-91h-256z" />
    <glyph glyph-name="Abreve" unicode="&#x102;" horiz-adv-x="863" 
d="M222 0h-210l316 700h208l315 -700h-209l-50 113h-320zM275 918h81q0 -27 21 -44.5t55 -17.5q33 0 54 17.5t21 44.5h82q0 -71 -41.5 -112.5t-115.5 -41.5t-115.5 41.5t-41.5 112.5zM341 271h181l-90 202z" />
    <glyph glyph-name="abreve" unicode="&#x103;" horiz-adv-x="677" 
d="M36 247q0 111 71.5 187t169.5 76q92 0 153 -56v46h190v-500h-190v49q-61 -59 -148 -59q-99 0 -172.5 73.5t-73.5 183.5zM219 248q0 -46 29.5 -79t76.5 -33q46 0 75 33t29 79q0 47 -29.5 80.5t-75.5 32.5q-46 0 -75.5 -33.5t-29.5 -79.5zM339 564q-74 0 -115.5 41.5
t-41.5 112.5h81q0 -27 21 -44.5t55 -17.5q33 0 54 17.5t21 44.5h82q0 -71 -41.5 -112.5t-115.5 -41.5z" />
    <glyph glyph-name="Aogonek" unicode="&#x104;" horiz-adv-x="863" 
d="M12 0l316 700h208l315 -700h-141q-40 -47 -40 -88q0 -31 36 -31q27 0 54 20l30 -74q-39 -34 -100 -36q-59 0 -90 27.5t-31 73.5q0 57 66 125l-43 96h-320l-50 -113h-210zM341 271h181l-90 202z" />
    <glyph glyph-name="aogonek" unicode="&#x105;" horiz-adv-x="677" 
d="M282 -10q-99 0 -172.5 73.5t-73.5 183.5q0 111 71.5 187t169.5 76q92 0 153 -56v46h190v-500h-105q-41 -48 -41 -88q0 -31 37 -31q29 0 53 20l31 -74q-39 -34 -101 -36q-58 0 -88 27.5t-32 73.5q-1 48 56 115v42q-61 -59 -148 -59zM219 248q0 -46 29.5 -79t76.5 -33
q46 0 75 33t29 79q0 47 -29.5 80t-75.5 33t-75.5 -33.5t-29.5 -79.5z" />
    <glyph glyph-name="Cacute" unicode="&#x106;" horiz-adv-x="752" 
d="M36 348q0 160 110.5 260t270.5 101q105 0 184 -40.5t121 -101.5l-133 -98q-59 80 -162 80q-80 0 -136 -56t-56 -145q0 -88 55.5 -142.5t135.5 -54.5q113 0 167 82l128 -89q-34 -60 -112.5 -107t-191.5 -47q-161 0 -271 98t-110 260zM243 775l189 174l77 -77l-146 -97
h-120z" />
    <glyph glyph-name="cacute" unicode="&#x107;" horiz-adv-x="572" 
d="M36 248q0 113 74.5 189.5t198.5 76.5q81 0 141 -34t89 -78l-103 -90q-38 52 -99 52q-46 0 -78.5 -32t-32.5 -80q0 -51 32 -83t82 -32q59 0 96 56l106 -95q-19 -25 -44 -47t-78 -44t-113 -22q-121 0 -196 76t-75 187zM153 575l189 174l77 -77l-146 -97h-120z" />
    <glyph glyph-name="Ccircumflex" unicode="&#x108;" horiz-adv-x="752" 
d="M417 -10q-161 0 -271 98t-110 260q0 160 110.5 260t270.5 101q105 0 184 -40.5t121 -101.5l-133 -98q-59 80 -162 80q-80 0 -136 -56t-56 -145q0 -88 55.5 -142.5t135.5 -54.5q113 0 167 82l128 -89q-34 -60 -112.5 -107t-191.5 -47zM304 775h-110l132 145h100l131 -145
h-108l-73 64z" />
    <glyph glyph-name="ccircumflex" unicode="&#x109;" horiz-adv-x="572" 
d="M36 248q0 113 74.5 189.5t198.5 76.5q81 0 141 -34t89 -78l-103 -90q-38 52 -99 52q-46 0 -78.5 -32t-32.5 -80q0 -51 32 -83t82 -32q59 0 96 56l106 -95q-19 -25 -44 -47t-78 -44t-113 -22q-121 0 -196 76t-75 187zM214 575h-110l132 145h100l131 -145h-108l-73 64z" />
    <glyph glyph-name="Cdotaccent" unicode="&#x10a;" horiz-adv-x="752" 
d="M417 -10q-161 0 -271 98t-110 260q0 160 110.5 260t270.5 101q105 0 184 -40.5t121 -101.5l-133 -98q-59 80 -162 80q-80 0 -136 -56t-56 -145q0 -88 55.5 -142.5t135.5 -54.5q113 0 167 82l128 -89q-34 -60 -112.5 -107t-191.5 -47zM376 775q-33 0 -51 21t-18 44
t18.5 44t50.5 21t50 -21t19 -44q0 -23 -18 -44t-51 -21z" />
    <glyph glyph-name="cdotaccent" unicode="&#x10b;" horiz-adv-x="572" 
d="M36 248q0 113 74.5 189.5t198.5 76.5q81 0 141 -34t89 -78l-103 -90q-38 52 -99 52q-46 0 -78.5 -32t-32.5 -80q0 -51 32 -83t82 -32q59 0 96 56l106 -95q-19 -25 -44 -47t-78 -44t-113 -22q-121 0 -196 76t-75 187zM217 640q0 23 18.5 44t50.5 21t50.5 -21t18.5 -44
t-18 -44t-51 -21t-51 21t-18 44z" />
    <glyph glyph-name="Ccaron" unicode="&#x10c;" horiz-adv-x="752" 
d="M36 348q0 160 110.5 260t270.5 101q105 0 184 -40.5t121 -101.5l-133 -98q-59 80 -162 80q-80 0 -136 -56t-56 -145q0 -88 55.5 -142.5t135.5 -54.5q113 0 167 82l128 -89q-34 -60 -112.5 -107t-191.5 -47q-161 0 -271 98t-110 260zM194 920h109l73 -64l72 64h109
l-131 -145h-100z" />
    <glyph glyph-name="ccaron" unicode="&#x10d;" horiz-adv-x="572" 
d="M36 248q0 113 74.5 189.5t198.5 76.5q81 0 141 -34t89 -78l-103 -90q-38 52 -99 52q-46 0 -78.5 -32t-32.5 -80q0 -51 32 -83t82 -32q59 0 96 56l106 -95q-19 -25 -44 -47t-78 -44t-113 -22q-121 0 -196 76t-75 187zM104 720h109l73 -64l72 64h109l-131 -145h-100z" />
    <glyph glyph-name="Dcaron" unicode="&#x10e;" horiz-adv-x="786" 
d="M68 700h310q169 0 270.5 -97.5t101.5 -252.5q0 -158 -101 -254t-271 -96h-310v700zM378 541h-111v-382h111q75 0 124 54t49 137q0 85 -48 138t-125 53zM273 775l-131 145h108l73 -64l72 64h110l-131 -145h-101z" />
    <glyph glyph-name="dcaron" unicode="&#x10f;" horiz-adv-x="962" 
d="M36 247q0 111 71.5 187t169.5 76q92 0 153 -56v246h190v-700h-190v49q-61 -59 -148 -59q-99 0 -172.5 73.5t-73.5 183.5zM748 511q-29 13 -46.5 39t-17.5 57q0 44 32 75t79 31q45 0 78 -30.5t33 -75.5q0 -49 -32.5 -109.5t-70.5 -96.5l-88 42q19 28 33 68zM219 248
q0 -46 29.5 -79t76.5 -33q46 0 75 33t29 79q0 47 -29.5 80t-75.5 33t-75.5 -33.5t-29.5 -79.5z" />
    <glyph glyph-name="Dcroat" unicode="&#x110;" horiz-adv-x="786" 
d="M68 274h-50v149h50v277h310q169 0 270.5 -97.5t101.5 -252.5q0 -158 -101 -254t-271 -96h-310v274zM267 274v-115h111q75 0 124 54t49 137q0 85 -48 138t-125 53h-111v-118h139v-149h-139z" />
    <glyph glyph-name="dcroat" unicode="&#x111;" horiz-adv-x="677" 
d="M282 -10q-99 0 -172.5 73.5t-73.5 183.5q0 111 71.5 187t169.5 76q92 0 153 -56v103h-103v91h103v52h190v-52h53v-91h-53v-557h-190v49q-61 -59 -148 -59zM219 248q0 -46 29.5 -79t76.5 -33q46 0 75 33t29 79q0 47 -29.5 80t-75.5 33t-75.5 -33.5t-29.5 -79.5z" />
    <glyph glyph-name="Emacron" unicode="&#x112;" horiz-adv-x="679" 
d="M68 0v700h563v-157h-364v-117h314v-152h-314v-117h364v-157h-563zM467 777h-255v91h255v-91z" />
    <glyph glyph-name="emacron" unicode="&#x113;" horiz-adv-x="609" 
d="M36 249q0 116 71 189.5t201 73.5q133 0 202.5 -85t62.5 -210h-344q7 -42 34.5 -65.5t66.5 -23.5q71 0 111 54l110 -80q-28 -45 -90 -79.5t-148 -34.5q-124 0 -200.5 74.5t-76.5 186.5zM177 668h256v-91h-256v91zM323 381q-68 0 -88 -65h170q-3 28 -26 46.5t-56 18.5z" />
    <glyph glyph-name="Ebreve" unicode="&#x114;" horiz-adv-x="679" 
d="M631 0h-563v700h563v-157h-364v-117h314v-152h-314v-117h364v-157zM183 918h81q0 -27 21 -44.5t55 -17.5q33 0 54 17.5t21 44.5h82q0 -71 -41.5 -112.5t-115.5 -41.5t-115.5 41.5t-41.5 112.5z" />
    <glyph glyph-name="ebreve" unicode="&#x115;" horiz-adv-x="609" 
d="M313 -12q-124 0 -200.5 74.5t-76.5 186.5q0 116 71 189.5t201 73.5q133 0 202.5 -85t62.5 -210h-344q7 -42 34.5 -65.5t66.5 -23.5q71 0 111 54l110 -80q-28 -45 -90 -79.5t-148 -34.5zM148 718h81q0 -27 21 -44.5t55 -17.5q33 0 54 17.5t21 44.5h82q0 -71 -41.5 -112.5
t-115.5 -41.5t-115.5 41.5t-41.5 112.5zM323 381q-68 0 -88 -65h170q-3 28 -26 46.5t-56 18.5z" />
    <glyph glyph-name="Edotaccent" unicode="&#x116;" horiz-adv-x="679" 
d="M68 0v700h563v-157h-364v-117h314v-152h-314v-117h364v-157h-563zM340 905q32 0 50 -21t18 -44t-17.5 -44t-50.5 -21t-51 21t-18 44t18.5 43.5t50.5 21.5z" />
    <glyph glyph-name="edotaccent" unicode="&#x117;" horiz-adv-x="609" 
d="M36 249q0 116 71 189.5t201 73.5q133 0 202.5 -85t62.5 -210h-344q7 -42 34.5 -65.5t66.5 -23.5q71 0 111 54l110 -80q-28 -45 -90 -79.5t-148 -34.5q-124 0 -200.5 74.5t-76.5 186.5zM305 575q-33 0 -51 21t-18 44t18.5 44t50.5 21t50 -21t18 -44t-17.5 -44t-50.5 -21z
M323 381q-68 0 -88 -65h170q-3 28 -26 46.5t-56 18.5z" />
    <glyph glyph-name="Eogonek" unicode="&#x118;" horiz-adv-x="679" 
d="M68 0v700h563v-157h-364v-117h314v-152h-314v-117h364v-157h-81q-41 -48 -41 -88q0 -31 39 -31q25 0 52 20l30 -74q-40 -36 -101 -36q-58 0 -89 27.5t-31 73.5q0 49 50 108h-391z" />
    <glyph glyph-name="eogonek" unicode="&#x119;" horiz-adv-x="609" 
d="M36 249q0 116 71 189.5t201 73.5q133 0 202.5 -85t62.5 -210h-344q7 -42 34.5 -65.5t66.5 -23.5q71 0 111 54l110 -80q-25 -40 -77.5 -72t-123.5 -40q-32 -40 -33 -78q0 -31 34 -31q31 0 57 20l30 -74q-39 -34 -101 -36q-58 0 -88 27.5t-32 73.5q-1 40 43 100
q-102 16 -163 87t-61 170zM323 381q-68 0 -88 -65h170q-3 28 -26 46.5t-56 18.5z" />
    <glyph glyph-name="Ecaron" unicode="&#x11a;" horiz-adv-x="679" 
d="M631 0h-563v700h563v-157h-364v-117h314v-152h-314v-117h364v-157zM158 920h109l72 -64l72 64h110l-131 -145h-101z" />
    <glyph glyph-name="ecaron" unicode="&#x11b;" horiz-adv-x="609" 
d="M313 -12q-124 0 -200.5 74.5t-76.5 186.5q0 116 71 189.5t201 73.5q133 0 202.5 -85t62.5 -210h-344q7 -42 34.5 -65.5t66.5 -23.5q71 0 111 54l110 -80q-28 -45 -90 -79.5t-148 -34.5zM123 720h109l73 -64l72 64h109l-131 -145h-101zM235 316h170q-3 28 -26 46.5
t-56 18.5q-68 0 -88 -65z" />
    <glyph glyph-name="Gcircumflex" unicode="&#x11c;" horiz-adv-x="769" 
d="M36 348q0 158 111.5 261t269.5 103q187 0 295 -115l-116 -118q-68 72 -169 73q-82 1 -137 -57.5t-55 -146.5q0 -87 54.5 -143.5t136.5 -55.5q60 0 105 25v85h-172v144h352v-279q-37 -53 -113.5 -95t-180.5 -42q-160 1 -270.5 101.5t-110.5 259.5zM313 775h-110l131 145
h101l131 -145h-108l-73 64z" />
    <glyph glyph-name="gcircumflex" unicode="&#x11d;" horiz-adv-x="673" 
d="M36 249q0 111 71 186t170 75q94 0 152 -55v45h190v-472q0 -122 -78.5 -185t-206.5 -61q-83 0 -146 20.5t-97 50.5l68 109q51 -43 142 -43q57 0 92.5 28.5t35.5 78.5v26q-60 -58 -147 -58q-100 0 -173 72.5t-73 182.5zM219 250q0 -46 29.5 -78t76.5 -32q45 0 74.5 32.5
t29.5 77.5q0 49 -28 80t-77 31q-46 1 -75.5 -32t-29.5 -79zM155 575l131 145h101l131 -145h-108l-73 64l-72 -64h-110z" />
    <glyph glyph-name="Gbreve" unicode="&#x11e;" horiz-adv-x="769" 
d="M36 348q0 158 111.5 261t269.5 103q187 0 295 -115l-116 -118q-68 72 -169 73q-82 1 -137 -57.5t-55 -146.5q0 -87 54.5 -143.5t136.5 -55.5q60 0 105 25v85h-172v144h352v-279q-37 -53 -113.5 -95t-180.5 -42q-160 1 -270.5 101.5t-110.5 259.5zM228 918h81
q0 -27 21 -44.5t55 -17.5q33 0 54 17.5t21 44.5h82q0 -71 -41.5 -112.5t-115.5 -41.5t-115.5 41.5t-41.5 112.5z" />
    <glyph glyph-name="gbreve" unicode="&#x11f;" horiz-adv-x="673" 
d="M36 249q0 111 71 186t170 75q94 0 152 -55v45h190v-472q0 -122 -78.5 -185t-206.5 -61q-83 0 -146 20.5t-97 50.5l68 109q51 -43 142 -43q57 0 92.5 28.5t35.5 78.5v26q-60 -58 -147 -58q-100 0 -173 72.5t-73 182.5zM219 250q0 -46 29.5 -78t76.5 -32q45 0 74.5 32.5
t29.5 77.5q0 49 -28 80t-77 31q-46 1 -75.5 -32t-29.5 -79zM337 564q-74 0 -115.5 41.5t-41.5 112.5h81q0 -27 21 -44.5t55 -17.5q33 0 54 17.5t21 44.5h82q0 -71 -41.5 -112.5t-115.5 -41.5z" />
    <glyph glyph-name="Gdotaccent" unicode="&#x120;" horiz-adv-x="769" 
d="M36 348q0 158 111.5 261t269.5 103q187 0 295 -115l-116 -118q-68 72 -169 73q-82 1 -137 -57.5t-55 -146.5q0 -87 54.5 -143.5t136.5 -55.5q60 0 105 25v85h-172v144h352v-279q-37 -53 -113.5 -95t-180.5 -42q-160 1 -270.5 101.5t-110.5 259.5zM385 775q-33 0 -51 21
t-18 44t18.5 44t50.5 21t50 -21t18 -44t-17.5 -44t-50.5 -21z" />
    <glyph glyph-name="gdotaccent" unicode="&#x121;" horiz-adv-x="673" 
d="M36 249q0 111 71 186t170 75q94 0 152 -55v45h190v-472q0 -122 -78.5 -185t-206.5 -61q-83 0 -146 20.5t-97 50.5l68 109q51 -43 142 -43q57 0 92.5 28.5t35.5 78.5v26q-60 -58 -147 -58q-100 0 -173 72.5t-73 182.5zM219 250q0 -46 29.5 -78t76.5 -32q45 0 74.5 32.5
t29.5 77.5q0 49 -28 80t-77 31q-46 1 -75.5 -32t-29.5 -79zM268 640q0 23 18.5 44t50.5 21t50 -21t18 -44t-17.5 -44t-50.5 -21t-51 21t-18 44z" />
    <glyph glyph-name="uni0122" unicode="&#x122;" horiz-adv-x="769" 
d="M417 -13q-160 0 -270.5 101t-110.5 260q0 158 111.5 261t269.5 103q187 0 295 -115l-116 -118q-68 72 -169 73q-82 1 -137 -57.5t-55 -146.5q0 -87 54.5 -143.5t136.5 -55.5q60 0 105 25v85h-172v144h352v-279q-37 -53 -113.5 -95t-180.5 -42zM397 -155q-36 15 -36 52
q0 23 17.5 40t42.5 17q24 0 41.5 -16.5t17.5 -40.5q0 -27 -17.5 -60.5t-37.5 -53.5l-47 23q9 11 19 39z" />
    <glyph glyph-name="uni0123" unicode="&#x123;" horiz-adv-x="673" 
d="M36 249q0 111 71 186t170 75q94 0 152 -55v45h190v-472q0 -122 -78.5 -185t-206.5 -61q-83 0 -146 20.5t-97 50.5l68 109q51 -43 142 -43q57 0 92.5 28.5t35.5 78.5v26q-60 -58 -147 -58q-100 0 -173 72.5t-73 182.5zM219 250q0 -46 29.5 -78t76.5 -32q45 0 74.5 32.5
t29.5 77.5q0 49 -28 80.5t-77 30.5q-47 0 -76 -32.5t-29 -78.5zM266 634q-1 27 17 60.5t39 53.5l47 -22q-12 -17 -19 -40q36 -14 36 -52q0 -23 -17.5 -40t-42.5 -17q-24 0 -42 16.5t-18 40.5z" />
    <glyph glyph-name="Hcircumflex" unicode="&#x124;" horiz-adv-x="816" 
d="M69 700h198v-271h282v271h199v-700h-199v270h-281v-270h-199v700zM337 775h-110l131 145h101l131 -145h-109l-72 64z" />
    <glyph glyph-name="hcircumflex" unicode="&#x125;" horiz-adv-x="670" 
d="M248 0h-190v700h190v-248q59 61 147 61q100 -1 161.5 -65.5t61.5 -183.5v-264h-191v245q0 49 -23 77.5t-63 27.5q-44 -1 -68.5 -32.5t-24.5 -80.5v-237zM157 775l131 145h101l131 -145h-109l-72 64l-72 -64h-110z" />
    <glyph glyph-name="Hbar" unicode="&#x126;" horiz-adv-x="816" 
d="M32 603h37v97h198v-97h282v97h199v-97h43v-91h-43v-512h-199v270h-281v-270h-199v512h-37v91zM549 512h-282v-83h282v83z" />
    <glyph glyph-name="hbar" unicode="&#x127;" horiz-adv-x="670" 
d="M16 649h42v51h190v-51h154v-91h-154v-106q59 61 147 61q100 -1 161.5 -65.5t61.5 -183.5v-264h-191v245q0 49 -23 77.5t-63 27.5q-44 -1 -68.5 -32.5t-24.5 -80.5v-237h-190v558h-42v91z" />
    <glyph glyph-name="Itilde" unicode="&#x128;" horiz-adv-x="347" 
d="M74 0v700h199v-700h-199zM-2 777q18 147 113 148q28 0 49 -9t31.5 -20.5t21.5 -20.5t21 -9q15 0 25.5 16t13.5 32h76q-4 -147 -109 -147q-36 0 -73.5 29.5t-54.5 29.5q-16 0 -25 -15t-12 -34h-77z" />
    <glyph glyph-name="itilde" unicode="&#x129;" horiz-adv-x="330" 
d="M260 0h-190v500h190v-500zM66 577h-77q20 147 114 148q28 0 49 -9t31.5 -20.5t21.5 -20.5t21 -9q15 0 25.5 16t13.5 32h76q-6 -147 -109 -147q-36 0 -73.5 29.5t-54.5 29.5q-28 0 -38 -49z" />
    <glyph glyph-name="Imacron" unicode="&#x12a;" horiz-adv-x="347" 
d="M273 700v-700h-199v700h199zM301 868v-91h-255v91h255z" />
    <glyph glyph-name="imacron" unicode="&#x12b;" horiz-adv-x="330" 
d="M70 500h190v-500h-190v500zM293 668v-91h-256v91h256z" />
    <glyph glyph-name="Iogonek" unicode="&#x12e;" horiz-adv-x="347" 
d="M184 -209q-58 0 -89 27.5t-31 73.5q0 49 50 108h-40v700h199v-700h-68q-41 -48 -41 -88q0 -31 37 -31q29 0 53 20l31 -74q-40 -36 -101 -36z" />
    <glyph glyph-name="iogonek" unicode="&#x12f;" horiz-adv-x="330" 
d="M57 -108q0 49 50 108h-37v500h190v-500h-63q-40 -47 -40 -88q0 -31 36 -31q30 0 54 20l31 -74q-40 -36 -101 -36q-53 0 -86 24.5t-34 76.5zM165 545q-45 0 -75.5 23.5t-30.5 57.5q0 33 30.5 57t75.5 24q42 0 74.5 -24.5t32.5 -56.5q0 -33 -32 -57t-75 -24z" />
    <glyph glyph-name="Idotaccent" unicode="&#x130;" horiz-adv-x="347" 
d="M74 700h199v-700h-199v700zM174 775q-33 0 -51 21t-18 44t18 44t51 21q32 0 50 -21t18 -44t-17.5 -44t-50.5 -21z" />
    <glyph glyph-name="dotlessi" unicode="&#x131;" horiz-adv-x="330" 
d="M70 500h190v-500h-190v500z" />
    <glyph glyph-name="IJ" unicode="&#x132;" horiz-adv-x="678" 
d="M84 97l104 123q19 -26 53 -47t75 -21q43 0 69 28t26 79v441h199v-458q0 -115 -75.5 -185t-201.5 -70q-141 0 -249 110zM68 279v421h199v-421h-199z" />
    <glyph glyph-name="ij" unicode="&#x133;" horiz-adv-x="660" 
d="M313 -197v128q18 -7 40 -7q49 0 49 52v524h190v-535q0 -91 -37 -134t-127 -43q-55 0 -115 15zM260 0h-190v500h190v-500zM165 545q-45 0 -75.5 23.5t-30.5 57.5q0 33 31 57.5t75 23.5q42 -1 74.5 -25t32.5 -56q0 -33 -32 -57t-75 -24zM389 626q0 33 30.5 57t75.5 24
q42 0 74 -24.5t33 -56.5q1 -33 -31 -57t-76 -24q-45 0 -75.5 23.5t-30.5 57.5z" />
    <glyph glyph-name="Jcircumflex" unicode="&#x134;" horiz-adv-x="609" 
d="M16 97l103 123q52 -68 129 -68q42 0 68.5 28t26.5 79l-1 441h199l1 -458q0 -114 -76 -184.5t-201 -70.5q-143 0 -249 110zM254 775l131 145h101l131 -145h-109l-73 64l-72 -64h-109z" />
    <glyph glyph-name="jcircumflex" unicode="&#x135;" horiz-adv-x="330" 
d="M-18 -69q18 -7 41 -7q49 0 49 52v524h190v-535q0 -91 -37.5 -134t-127.5 -43q-55 0 -115 15v128zM93 575h-110l131 145h101l131 -145h-108l-73 64z" />
    <glyph glyph-name="uni0136" unicode="&#x136;" horiz-adv-x="791" 
d="M267 0h-199v700h199v-249l247 249h251l-288 -289l296 -411h-237l-198 272l-71 -71v-201zM369 -155q-36 15 -36 52q0 23 17.5 40t42.5 17q24 0 41.5 -16.5t17.5 -40.5q0 -27 -17.5 -60.5t-37.5 -53.5l-47 23q9 11 19 39z" />
    <glyph glyph-name="uni0137" unicode="&#x137;" horiz-adv-x="686" 
d="M58 0v700h190v-350l170 150h232l-221 -204l227 -296h-221l-134 174l-53 -48v-126h-190zM277 -103q0 23 17 40t42 17t43 -16.5t17 -40.5q-1 -27 -18 -60.5t-37 -53.5l-47 23q12 17 18 39q-35 15 -35 52z" />
    <glyph glyph-name="kgreenlandic" unicode="&#x138;" horiz-adv-x="686" 
d="M248 0h-190v500h190v-150l170 150h232l-221 -204l227 -296h-221l-134 174l-53 -48v-126z" />
    <glyph glyph-name="Lacute" unicode="&#x139;" horiz-adv-x="624" 
d="M267 159h323v-159h-522v700h199v-541zM445 872l-146 -97h-120l189 174z" />
    <glyph glyph-name="lacute" unicode="&#x13a;" horiz-adv-x="308" 
d="M249 700v-700h-190v700h190zM141 775h-120l189 174l77 -77z" />
    <glyph glyph-name="uni013B" unicode="&#x13b;" horiz-adv-x="624" 
d="M68 0v700h199v-541h323v-159h-522zM272 -103q0 23 17.5 40t42.5 17q24 0 42 -16.5t18 -40.5q0 -27 -17.5 -60.5t-38.5 -53.5l-46 23q12 17 18 39q-36 15 -36 52z" />
    <glyph glyph-name="uni013C" unicode="&#x13c;" horiz-adv-x="308" 
d="M59 0v700h190v-700h-190zM95 -103q0 23 17.5 40t42.5 17q24 0 42 -16.5t18 -40.5q0 -27 -17.5 -60t-38.5 -54l-46 23q12 17 18 39q-36 15 -36 52z" />
    <glyph glyph-name="Lcaron" unicode="&#x13d;" horiz-adv-x="624" 
d="M68 700h199v-541h312v-159h-511v700zM321 597q0 43 32.5 74t78.5 31q45 1 77.5 -29.5t33.5 -75.5q1 -49 -32 -109t-71 -98l-88 43q19 27 33 68q-29 12 -46.5 38t-17.5 58z" />
    <glyph glyph-name="lcaron" unicode="&#x13e;" horiz-adv-x="626" 
d="M59 700h190v-700h-190v700zM357 508q-29 12 -46.5 38.5t-17.5 57.5q0 43 32.5 74.5t78.5 31.5q45 0 78 -30.5t33 -75.5q0 -49 -32.5 -109.5t-70.5 -96.5l-88 42q20 29 33 68z" />
    <glyph glyph-name="Ldot" unicode="&#x13f;" horiz-adv-x="624" 
d="M68 0v700h199v-541h323v-159h-522zM460 333q-46 0 -78.5 31.5t-32.5 75.5t32.5 75t78.5 31q45 0 78 -32t33 -74q0 -43 -33.5 -75t-77.5 -32z" />
    <glyph glyph-name="ldot" unicode="&#x140;" horiz-adv-x="540" 
d="M59 700h190v-700h-190v700zM313 350q0 44 32 75t79 31q44 0 77.5 -32t33.5 -73q0 -43 -33.5 -75t-78.5 -32q-46 0 -78 31t-32 75z" />
    <glyph glyph-name="Lslash" unicode="&#x141;" horiz-adv-x="640" 
d="M-13 295l97 70v335h199v-194l80 57l71 -99l-151 -107v-198h323v-159h-522v215l-27 -19z" />
    <glyph glyph-name="lslash" unicode="&#x142;" horiz-adv-x="342" 
d="M-23 326l100 71v303h190v-168l27 19l71 -99l-98 -69v-383h-190v247l-29 -21z" />
    <glyph glyph-name="Nacute" unicode="&#x143;" horiz-adv-x="812" 
d="M68 0v700h201l276 -381v381h199v-700h-202l-275 382v-382h-199zM393 775h-120l189 174l77 -77z" />
    <glyph glyph-name="nacute" unicode="&#x144;" horiz-adv-x="670" 
d="M248 0h-190v500h190v-48q60 60 148 60q99 0 160.5 -64.5t61.5 -183.5v-264h-190v245q0 48 -23.5 76.5t-63.5 28.5q-44 0 -68.5 -32t-24.5 -82v-236zM322 575h-120l189 174l77 -77z" />
    <glyph glyph-name="uni0145" unicode="&#x145;" horiz-adv-x="812" 
d="M68 0v700h201l276 -381v381h199v-700h-202l-275 382v-382h-199zM397 -155q-36 15 -36 52q0 23 17.5 40t42.5 17q24 0 42 -16.5t18 -40.5q0 -27 -17.5 -60.5t-38.5 -53.5l-46 23q12 17 18 39z" />
    <glyph glyph-name="uni0146" unicode="&#x146;" horiz-adv-x="670" 
d="M58 500h190v-48q60 60 148 60q99 0 160.5 -64.5t61.5 -183.5v-264h-190v245q0 48 -23.5 76.5t-63.5 28.5q-44 0 -68.5 -32t-24.5 -82v-236h-190v500zM286 -103q0 23 17.5 40t42.5 17q24 0 42 -16.5t18 -40.5q0 -27 -17.5 -60.5t-38.5 -53.5l-46 23q12 17 18 39
q-34 15 -36 52z" />
    <glyph glyph-name="Ncaron" unicode="&#x147;" horiz-adv-x="812" 
d="M68 0v700h201l276 -381v381h199v-700h-202l-275 382v-382h-199zM225 920h108l73 -64l72 64h110l-132 -145h-100z" />
    <glyph glyph-name="ncaron" unicode="&#x148;" horiz-adv-x="670" 
d="M248 0h-190v500h190v-48q60 60 148 60q99 0 160.5 -64.5t61.5 -183.5v-264h-190v245q0 48 -23.5 76.5t-63.5 28.5q-44 0 -68.5 -32t-24.5 -82v-236zM285 575l-132 145h109l73 -64l72 64h109l-131 -145h-100z" />
    <glyph glyph-name="napostrophe" unicode="&#x149;" horiz-adv-x="872" 
d="M260 500h190v-48q60 60 148 60q99 0 160.5 -64.5t61.5 -183.5v-264h-190v245q0 48 -23.5 76.5t-63.5 28.5q-44 0 -68.5 -32t-24.5 -82v-236h-190v500zM200 387h-166v313h200z" />
    <glyph glyph-name="Omacron" unicode="&#x14c;" horiz-adv-x="833" 
d="M417 -11q-162 0 -271.5 106t-109.5 257q0 152 109 255.5t272 103.5t272 -104t108 -255q-1 -153 -109.5 -258t-270.5 -105zM235 352q0 -80 53 -137t129 -57q75 0 128 56.5t53 137.5q0 80 -53 134.5t-128 54.5q-76 0 -129 -55t-53 -134zM289 777v91h255v-91h-255z" />
    <glyph glyph-name="omacron" unicode="&#x14d;" horiz-adv-x="623" 
d="M312 -12q-129 0 -202.5 74t-73.5 188t73 188t202 74t202.5 -74t73.5 -188q0 -113 -73.5 -187.5t-201.5 -74.5zM226 250q0 -47 23.5 -79.5t61.5 -32.5q39 0 62.5 32.5t23.5 79.5q0 48 -23.5 80.5t-62.5 32.5t-62 -32.5t-23 -80.5zM439 577h-255v91h255v-91z" />
    <glyph glyph-name="Obreve" unicode="&#x14e;" horiz-adv-x="833" 
d="M36 352q0 152 109 255.5t272 103.5t272 -104t108 -255q-1 -153 -109.5 -258.5t-270.5 -104.5t-271.5 106.5t-109.5 256.5zM235 352q0 -80 53 -137t129 -57q75 0 128 56.5t53 137.5q0 80 -53 134.5t-128 54.5q-76 0 -129 -55t-53 -134zM417 764q-74 0 -116 41.5t-42 112.5
h82q0 -27 21 -44.5t55 -17.5q33 0 54 17.5t21 44.5h82q0 -71 -41.5 -112.5t-115.5 -41.5z" />
    <glyph glyph-name="obreve" unicode="&#x14f;" horiz-adv-x="623" 
d="M36 250q0 114 73 188t202 74t202.5 -74t73.5 -188q0 -113 -73.5 -187.5t-201.5 -74.5q-129 0 -202.5 74t-73.5 188zM312 564q-74 0 -115.5 41.5t-41.5 112.5h81q0 -27 21 -44.5t55 -17.5q33 0 54 17.5t21 44.5h82q0 -71 -41.5 -112.5t-115.5 -41.5zM226 250
q0 -47 23.5 -79.5t61.5 -32.5q39 0 62.5 32.5t23.5 79.5q0 48 -23.5 80.5t-62.5 32.5t-62 -32.5t-23 -80.5z" />
    <glyph glyph-name="Ohungarumlaut" unicode="&#x150;" horiz-adv-x="833" 
d="M417 -11q-162 0 -271.5 106t-109.5 257q0 152 109 255.5t272 103.5t272 -104t108 -255q-1 -153 -109.5 -258t-270.5 -105zM235 352q0 -80 53 -137t129 -57q75 0 128 56.5t53 137.5q0 80 -53 134.5t-128 54.5q-76 0 -129 -55t-53 -134zM288 775h-120l189 174l76 -77z
M400 775l188 174l77 -77l-145 -97h-120z" />
    <glyph glyph-name="ohungarumlaut" unicode="&#x151;" horiz-adv-x="623" 
d="M36 250q0 114 73 188t202 74t202.5 -74t73.5 -188q0 -113 -73.5 -187.5t-201.5 -74.5q-129 0 -202.5 74t-73.5 188zM311 363q-39 0 -62 -32.5t-23 -80.5q0 -47 23.5 -79.5t61.5 -32.5q39 0 62.5 32.5t23.5 79.5q0 48 -23.5 80.5t-62.5 32.5zM295 575l189 174l76 -77
l-145 -97h-120zM183 575h-120l189 174l77 -77z" />
    <glyph glyph-name="OE" unicode="&#x152;" horiz-adv-x="1147" 
d="M36 352q0 149 113 253t268 103q66 0 121 -23v15h561v-159h-362v-112h316v-158h-316l-1 -112h363v-159h-561v15q-59 -24 -122 -24q-157 0 -268.5 105.5t-111.5 255.5zM235 352q0 -82 53.5 -141.5t128.5 -59.5q66 0 121 55v290q-55 53 -121 53q-75 0 -128.5 -58t-53.5 -139
z" />
    <glyph glyph-name="oe" unicode="&#x153;" horiz-adv-x="977" 
d="M36 250q0 114 73 188t202 74q113 0 183 -62q70 62 182 62q137 0 207 -82.5t58 -212.5h-343q7 -42 34.5 -65.5t65.5 -23.5q72 0 112 54l110 -80q-28 -45 -90.5 -79.5t-147.5 -34.5q-109 0 -184 65q-73 -65 -186 -65q-129 0 -202.5 74t-73.5 188zM226 250q0 -47 23.5 -79.5
t61.5 -32.5q39 0 62.5 32.5t23.5 79.5q0 48 -23.5 80.5t-62.5 32.5t-62 -32.5t-23 -80.5zM603 316h170q-2 28 -25 46.5t-56 18.5q-69 0 -89 -65z" />
    <glyph glyph-name="Racute" unicode="&#x154;" horiz-adv-x="728" 
d="M267 0h-199v700h357q120 0 191.5 -70.5t71.5 -178.5q0 -73 -35.5 -131t-98.5 -88l158 -232h-225l-139 203h-81v-203zM267 541v-179h141q44 0 67.5 25.5t23.5 63.5t-24 64t-67 26h-141zM351 775h-119l188 174l77 -77z" />
    <glyph glyph-name="racute" unicode="&#x155;" horiz-adv-x="520" 
d="M248 0h-190v500h190v-55q57 65 151 65q56 0 110 -22l-53 -160q-38 19 -79 19q-50 0 -89.5 -34t-39.5 -109v-204zM128 575l188 174l77 -77l-145 -97h-120z" />
    <glyph glyph-name="uni0156" unicode="&#x156;" horiz-adv-x="728" 
d="M267 0h-199v700h357q120 0 191.5 -70.5t71.5 -178.5q0 -73 -35.5 -131t-98.5 -88l158 -232h-225l-139 203h-81v-203zM267 541v-179h141q44 0 67.5 25.5t23.5 63.5t-24 64t-67 26h-141zM317 -103q0 23 17 40t42 17t42.5 -16.5t17.5 -40.5q0 -27 -17.5 -60.5t-37.5 -53.5
l-47 23q12 17 18 39q-35 15 -35 52z" />
    <glyph glyph-name="uni0157" unicode="&#x157;" horiz-adv-x="520" 
d="M248 0h-190v500h190v-55q57 65 151 65q56 0 110 -22l-53 -160q-38 19 -79 19q-50 0 -89.5 -34t-39.5 -109v-204zM129 -155q-37 16 -35 52q0 23 17 40t42 17q24 0 42 -16.5t18 -40.5q0 -27 -17.5 -60.5t-38.5 -53.5l-46 23q12 17 18 39z" />
    <glyph glyph-name="Rcaron" unicode="&#x158;" horiz-adv-x="728" 
d="M267 0h-199v700h357q120 0 191.5 -70.5t71.5 -178.5q0 -73 -35.5 -131t-98.5 -88l158 -232h-225l-139 203h-81v-203zM408 541h-141v-179h141q44 0 67.5 25.5t23.5 63.5t-24 64t-67 26zM183 920h108l73 -64l72 64h110l-131 -145h-101z" />
    <glyph glyph-name="rcaron" unicode="&#x159;" horiz-adv-x="520" 
d="M58 500h190v-55q57 65 151 65q56 0 110 -22l-53 -160q-38 19 -79 19q-50 0 -89.5 -34t-39.5 -109v-204h-190v500zM210 575l-131 145h108l73 -64l72 64h110l-131 -145h-101z" />
    <glyph glyph-name="Sacute" unicode="&#x15a;" horiz-adv-x="688" 
d="M27 79l85 143q109 -73 250 -74q100 0 100 54q0 21 -24 36t-62 25.5t-84 21.5t-91.5 28t-83.5 39.5t-62 61.5t-24 90q0 88 75.5 146t220.5 59q186 0 314 -84l-81 -135q-85 59 -233 59q-97 0 -97 -43q0 -21 32 -36t80 -23.5t104 -25t104 -38t79.5 -64t31.5 -100.5
q-1 -101 -84 -165.5t-226 -64.5q-187 0 -324 90zM211 775l189 174l77 -77l-146 -97h-120z" />
    <glyph glyph-name="sacute" unicode="&#x15b;" horiz-adv-x="506" 
d="M25 47l69 112q49 -38 155 -38q17 0 30 7t13 18q0 16 -26.5 29t-64 25.5t-75 29t-64 48.5t-26.5 75q0 74 61.5 116.5t163.5 42.5q114 0 199 -48l-62 -119q-53 35 -132 35q-44 0 -44 -22q0 -13 27 -25t65 -25t76 -31.5t65 -52t27 -77.5q0 -75 -64 -117.5t-170 -42.5
q-137 0 -223 60zM240 575h-120l189 174l77 -77z" />
    <glyph glyph-name="Scircumflex" unicode="&#x15c;" horiz-adv-x="688" 
d="M27 79l85 143q109 -73 250 -74q100 0 100 54q0 21 -24 36t-62 25.5t-84 21.5t-91.5 28t-83.5 39.5t-62 61.5t-24 90q0 88 75.5 146t220.5 59q186 0 314 -84l-81 -135q-85 59 -233 59q-97 0 -97 -43q0 -21 32 -36t80 -23.5t104 -25t104 -38t79.5 -64t31.5 -100.5
q-1 -101 -84 -165.5t-226 -64.5q-187 0 -324 90zM163 775l131 145h100l132 -145h-109l-73 64l-72 -64h-109z" />
    <glyph glyph-name="scircumflex" unicode="&#x15d;" horiz-adv-x="506" 
d="M25 47l69 112q49 -38 155 -38q17 0 30 7t13 18q0 16 -26.5 29t-64 25.5t-75 29t-64 48.5t-26.5 75q0 74 61.5 116.5t163.5 42.5q114 0 199 -48l-62 -119q-53 35 -132 35q-44 0 -44 -22q0 -13 27 -25t65 -25t76 -31.5t65 -52t27 -77.5q0 -75 -64 -117.5t-170 -42.5
q-137 0 -223 60zM181 575h-109l131 145h100l131 -145h-108l-73 64z" />
    <glyph glyph-name="Scedilla" unicode="&#x15e;" horiz-adv-x="688" 
d="M27 79l85 143q49 -34 118 -54t132 -20q22 0 42 3.5t39 16.5t19 34q0 23 -32 40.5t-80 27.5t-103.5 28t-103.5 39.5t-80 64.5t-32 102q0 56 27.5 97.5t73 64t94.5 33t101 10.5q183 0 314 -84l-81 -135q-92 59 -233 59q-97 0 -97 -43q0 -25 44.5 -40.5t107.5 -29
t126.5 -34.5t108 -67.5t44.5 -115.5q0 -60 -27 -106t-72.5 -72t-97 -39t-108.5 -13l-5 -13q50 -1 84 -23t34 -69q0 -50 -38 -77.5t-90 -27.5q-73 0 -117 31l29 72q43 -24 80 -24q35 0 35 25t-33 25q-19 0 -31 -8l-42 44l26 48q-145 14 -261 87z" />
    <glyph glyph-name="scedilla" unicode="&#x15f;" horiz-adv-x="506" 
d="M25 47l69 112q49 -38 155 -38q17 0 30 7t13 18q0 16 -26.5 29t-64 25.5t-75 29t-64 48.5t-26.5 75q0 74 61.5 116.5t163.5 42.5q114 0 199 -48l-62 -119q-53 35 -132 35q-44 0 -44 -22q0 -13 27 -25t65 -25t76 -31.5t65 -52t27 -77.5q0 -67 -53 -109t-144 -50l-5 -16
q44 -3 70 -28.5t26 -65.5q0 -45 -35 -75.5t-93 -29.5q-78 2 -118 31l30 72q43 -24 79 -25q36 0 36 26q0 25 -34 25q-18 0 -31 -8l-41 44l27 51q-101 9 -171 58z" />
    <glyph glyph-name="Scaron" unicode="&#x160;" horiz-adv-x="688" 
d="M27 79l85 143q109 -73 250 -74q100 0 100 54q0 21 -24 36t-62 25.5t-84 21.5t-91.5 28t-83.5 39.5t-62 61.5t-24 90q0 88 75.5 146t220.5 59q186 0 314 -84l-81 -135q-85 59 -233 59q-97 0 -97 -43q0 -21 32 -36t80 -23.5t104 -25t104 -38t79.5 -64t31.5 -100.5
q-1 -101 -84 -165.5t-226 -64.5q-187 0 -324 90zM294 775l-131 145h108l73 -64l72 64h110l-132 -145h-100z" />
    <glyph glyph-name="scaron" unicode="&#x161;" horiz-adv-x="506" 
d="M25 47l69 112q49 -38 155 -38q17 0 30 7t13 18q0 16 -26.5 29t-64 25.5t-75 29t-64 48.5t-26.5 75q0 74 61.5 116.5t163.5 42.5q114 0 199 -48l-62 -119q-53 35 -132 35q-44 0 -44 -22q0 -13 27 -25t65 -25t76 -31.5t65 -52t27 -77.5q0 -75 -64 -117.5t-170 -42.5
q-137 0 -223 60zM72 720h108l73 -64l72 64h110l-132 -145h-100z" />
    <glyph glyph-name="uni0162" unicode="&#x162;" horiz-adv-x="658" 
d="M20 541v159h618v-159h-210v-541h-69l-4 -14q43 -4 69 -29.5t26 -65.5q0 -45 -34.5 -75t-93.5 -30q-75 0 -117 31l29 73q45 -25 80 -25q18 0 27 7.5t8 17.5q-1 21 -34 25q-17 2 -30 -8l-42 44l26 49h-40v541h-209z" />
    <glyph glyph-name="uni0163" unicode="&#x163;" horiz-adv-x="434" 
d="M81 353h-64v147h64v130h190v-130h109v-147h-109v-166q0 -56 40 -56q31 0 59 12l34 -126q-51 -27 -130 -30l-3 -11q43 -3 70.5 -24t27.5 -61q0 -49 -38.5 -77t-89.5 -28q-74 0 -118 31l30 73q43 -25 79 -25t36 25t-34 25q-17 2 -31 -8l-41 44l24 47q-105 33 -105 168v187z
" />
    <glyph glyph-name="Tcaron" unicode="&#x164;" horiz-adv-x="658" 
d="M229 541h-209v159h618v-159h-210v-541h-199v541zM147 920h109l73 -64l72 64h109l-131 -145h-100z" />
    <glyph glyph-name="tcaron" unicode="&#x165;" horiz-adv-x="473" 
d="M81 353h-64v147h64v130h190v-130h109v-147h-109v-166q0 -28 8.5 -42t31.5 -14t59 12l34 -130q-53 -26 -142 -26q-103 1 -142 51.5t-39 145.5v169zM323 716q0 24 18 40.5t42 16.5t41.5 -16.5t17.5 -40.5q0 -28 -17 -61t-38 -53l-47 22q10 14 19 40q-36 13 -36 52z" />
    <glyph glyph-name="Tbar" unicode="&#x166;" horiz-adv-x="658" 
d="M20 700h618v-159h-210v-172h121v-92h-121v-277h-199v277h-120v92h120v172h-209v159z" />
    <glyph glyph-name="tbar" unicode="&#x167;" horiz-adv-x="434" 
d="M17 500h64v130h190v-130h109v-147h-109v-57h80v-76h-80v-33q0 -28 9 -42t36 -14q23 0 54 12l34 -130q-52 -26 -142 -26q-181 0 -181 179v54h-42v76h42v57h-64v147z" />
    <glyph glyph-name="Utilde" unicode="&#x168;" horiz-adv-x="765" 
d="M383 -11q-134 0 -224.5 75t-90.5 207v429h199v-429q0 -52 30.5 -87.5t84.5 -35.5q55 0 85.5 35.5t30.5 87.5v429h199v-429q0 -132 -90.5 -207t-223.5 -75zM207 777q18 147 113 148q28 0 49 -9t31.5 -20.5t21.5 -20.5t21 -9q15 0 25.5 16t13.5 32h76q-4 -147 -109 -147
q-36 0 -73.5 29.5t-54.5 29.5q-28 0 -38 -49h-76z" />
    <glyph glyph-name="utilde" unicode="&#x169;" horiz-adv-x="670" 
d="M52 500h190v-245q0 -48 23 -76.5t64 -28.5q44 0 68.5 32t24.5 82v236h190v-500h-190v48q-60 -60 -148 -60q-99 -1 -160.5 64t-61.5 184v264zM159 577q18 147 114 148q27 0 48.5 -9t31.5 -20.5t21.5 -20.5t20.5 -9q15 0 26 17t13 31h77q-6 -147 -110 -147q-36 0 -73 29.5
t-54 29.5q-28 0 -38 -49h-77z" />
    <glyph glyph-name="Umacron" unicode="&#x16a;" horiz-adv-x="765" 
d="M383 -11q-134 0 -224.5 75t-90.5 207v429h199v-429q0 -52 30.5 -87.5t84.5 -35.5q55 0 85.5 35.5t30.5 87.5v429h199v-429q0 -132 -90.5 -207t-223.5 -75zM255 868h255v-91h-255v91z" />
    <glyph glyph-name="umacron" unicode="&#x16b;" horiz-adv-x="670" 
d="M52 236v264h190v-245q0 -48 23 -76.5t64 -28.5q44 0 68.5 32t24.5 82v236h190v-500h-190v48q-60 -60 -148 -60q-99 -1 -160.5 64t-61.5 184zM207 668h256v-91h-256v91z" />
    <glyph glyph-name="Ubreve" unicode="&#x16c;" horiz-adv-x="765" 
d="M383 -11q-134 0 -224.5 75t-90.5 207v429h199v-429q0 -52 30.5 -87.5t84.5 -35.5q55 0 85.5 35.5t30.5 87.5v429h199v-429q0 -132 -90.5 -207t-223.5 -75zM383 764q-74 0 -116 41.5t-42 112.5h82q0 -27 21 -44.5t55 -17.5q33 0 54 17.5t21 44.5h82q0 -71 -41.5 -112.5
t-115.5 -41.5z" />
    <glyph glyph-name="ubreve" unicode="&#x16d;" horiz-adv-x="670" 
d="M52 500h190v-245q0 -48 23 -76.5t64 -28.5q44 0 68.5 32t24.5 82v236h190v-500h-190v48q-60 -60 -148 -60q-99 -1 -160.5 64t-61.5 184v264zM335 564q-74 0 -115.5 41.5t-41.5 112.5h81q0 -27 21 -44.5t55 -17.5q33 0 54 17.5t21 44.5h82q0 -71 -41.5 -112.5
t-115.5 -41.5z" />
    <glyph glyph-name="Uring" unicode="&#x16e;" horiz-adv-x="765" 
d="M383 -11q-134 0 -224.5 75t-90.5 207v429h199v-429q0 -52 30.5 -87.5t84.5 -35.5q55 0 85.5 35.5t30.5 87.5v429h199v-429q0 -132 -90.5 -207t-223.5 -75zM383 754q-54 0 -84 34t-30 72t30 72t84 34q53 0 83 -34t30 -72t-30 -72t-83 -34zM347 860q0 -21 10.5 -32.5
t25.5 -11.5t25 11.5t10 32.5t-10.5 32.5t-24.5 11.5q-15 0 -25.5 -11.5t-10.5 -32.5z" />
    <glyph glyph-name="uring" unicode="&#x16f;" horiz-adv-x="670" 
d="M52 500h190v-245q0 -48 23 -76.5t64 -28.5q44 0 68.5 32t24.5 82v236h190v-500h-190v48q-60 -60 -148 -60q-99 -1 -160.5 64t-61.5 184v264zM221 660q0 38 30 72t84 34t84 -34t30 -72t-30 -72t-84 -34t-84 34t-30 72zM299 660q0 -21 11 -32.5t25 -11.5q15 0 25 11.5
t10 32.5t-10.5 32.5t-24.5 11.5t-25 -11.5t-11 -32.5z" />
    <glyph glyph-name="Uhungarumlaut" unicode="&#x170;" horiz-adv-x="765" 
d="M383 -11q-134 0 -224.5 75t-90.5 207v429h199v-429q0 -52 30.5 -87.5t84.5 -35.5q55 0 85.5 35.5t30.5 87.5v429h199v-429q0 -132 -90.5 -207t-223.5 -75zM254 775h-120l189 174l76 -77zM366 775l188 174l77 -77l-145 -97h-120z" />
    <glyph glyph-name="uhungarumlaut" unicode="&#x171;" horiz-adv-x="670" 
d="M52 236v264h190v-245q0 -48 23 -76.5t64 -28.5q44 0 68.5 32t24.5 82v236h190v-500h-190v48q-60 -60 -148 -60q-99 -1 -160.5 64t-61.5 184zM206 575h-120l189 174l77 -77zM318 575l189 174l76 -77l-145 -97h-120z" />
    <glyph glyph-name="Uogonek" unicode="&#x172;" horiz-adv-x="765" 
d="M68 271v429h199v-429q0 -52 30.5 -87.5t84.5 -35.5q55 1 85.5 36t30.5 87v429h199v-429q0 -121 -76.5 -194t-194.5 -86q-34 -43 -34 -79q0 -31 37 -31q29 0 53 20l31 -74q-39 -34 -101 -36q-58 0 -89 27.5t-31 73.5q0 44 43 100q-116 13 -191.5 86.5t-75.5 192.5z" />
    <glyph glyph-name="uogonek" unicode="&#x173;" horiz-adv-x="670" 
d="M52 500h190v-245q0 -48 23 -76.5t64 -28.5q44 0 68.5 32t24.5 82v236h190v-500h-69q-40 -47 -40 -88q0 -31 34 -31q31 0 56 20l31 -74q-40 -36 -101 -36q-54 0 -87 24.5t-33 76.5q0 49 50 108h-31v48q-60 -60 -148 -60q-99 -1 -160.5 64t-61.5 184v264z" />
    <glyph glyph-name="Wcircumflex" unicode="&#x174;" horiz-adv-x="1273" 
d="M28 700h205l150 -415l151 415h205l151 -415l150 415h205l-252 -700h-206l-150 417l-151 -417h-206zM565 775h-110l131 145h101l131 -145h-109l-72 64z" />
    <glyph glyph-name="wcircumflex" unicode="&#x175;" horiz-adv-x="995" 
d="M26 500h200l90 -262l89 262h184l89 -262l90 262h201l-193 -500h-196l-83 218l-84 -218h-196zM426 575h-110l131 145h101l131 -145h-109l-72 64z" />
    <glyph glyph-name="Ycircumflex" unicode="&#x176;" horiz-adv-x="798" 
d="M299 277l-271 423h223l148 -231l149 231h222l-272 -423v-277h-199v277zM327 775h-110l132 145h100l131 -145h-108l-73 64z" />
    <glyph glyph-name="ycircumflex" unicode="&#x177;" horiz-adv-x="707" 
d="M287 4l-263 496h206l143 -276l109 276h201l-233 -578q-29 -71 -88.5 -106.5t-134.5 -35.5q-105 0 -182 61l59 111q40 -32 91 -32q60 0 82 57zM282 575h-110l131 145h101l131 -145h-109l-72 64z" />
    <glyph glyph-name="Ydieresis" unicode="&#x178;" horiz-adv-x="798" 
d="M299 277l-271 423h223l148 -231l149 231h222l-272 -423v-277h-199v277zM490 775q-33 0 -50.5 21t-17.5 44t17.5 44t50.5 21q32 0 50.5 -21t18.5 -44t-18 -44t-51 -21zM308 775q-33 0 -51 21t-18 44t18 44t51 21q32 0 50 -21t18 -44t-17.5 -44t-50.5 -21z" />
    <glyph glyph-name="Zacute" unicode="&#x179;" horiz-adv-x="672" 
d="M379 541h-333v159h580v-159l-332 -382h332v-159h-580v159zM203 775l189 174l77 -77l-146 -97h-120z" />
    <glyph glyph-name="zacute" unicode="&#x17a;" horiz-adv-x="582" 
d="M536 0h-490v147l240 206h-240v147h490v-147l-239 -206h239v-147zM158 575l189 174l77 -77l-146 -97h-120z" />
    <glyph glyph-name="Zdotaccent" unicode="&#x17b;" horiz-adv-x="672" 
d="M46 159l333 382h-333v159h580v-159l-332 -382h332v-159h-580v159zM336 775q-33 0 -51 21t-18 44t18.5 44t50.5 21t50.5 -21t18.5 -44t-18 -44t-51 -21z" />
    <glyph glyph-name="zdotaccent" unicode="&#x17c;" horiz-adv-x="582" 
d="M46 0v147l240 206h-240v147h490v-147l-239 -206h239v-147h-490zM291 575q-33 0 -51 21t-18 44t18.5 44t50.5 21t50.5 -21t18.5 -44t-18 -44t-51 -21z" />
    <glyph glyph-name="Zcaron" unicode="&#x17d;" horiz-adv-x="672" 
d="M379 541h-333v159h580v-159l-332 -382h332v-159h-580v159zM286 775l-131 145h108l73 -64l72 64h110l-132 -145h-100z" />
    <glyph glyph-name="zcaron" unicode="&#x17e;" horiz-adv-x="582" 
d="M536 0h-490v147l240 206h-240v147h490v-147l-239 -206h239v-147zM241 575l-131 145h108l73 -64l72 64h110l-132 -145h-100z" />
    <glyph glyph-name="florin" unicode="&#x192;" horiz-adv-x="550" 
d="M-104 -182l55 123q27 -16 61 -16q57 0 66 59l57 379h-47v137h68l9 50q29 160 211 160q43 0 143 -23l-42 -108q-37 12 -79 12q-43 0 -52 -57l-5 -34h111v-137h-134l-57 -391q-4 -31 -16 -58.5t-35 -56t-65.5 -45.5t-98.5 -17q-81 0 -150 23z" />
    <glyph glyph-name="Ohorn" unicode="&#x1a0;" horiz-adv-x="833" 
d="M417 -11q-162 0 -271.5 106t-109.5 257q0 152 109 255.5t272 103.5q26 0 78.5 -5.5t77.5 -5.5q46 0 69.5 26.5t24.5 67.5q0 40 -20 75h131q16 -34 16 -85q0 -58 -27.5 -104t-86.5 -66q117 -104 117 -262q0 -153 -109 -258t-271 -105zM235 352q0 -80 53 -137t129 -57
q75 0 128.5 57t52.5 137t-53.5 134.5t-127.5 54.5q-76 0 -129 -55t-53 -134z" />
    <glyph glyph-name="ohorn" unicode="&#x1a1;" horiz-adv-x="623" 
d="M312 -12q-129 0 -202.5 74t-73.5 188q0 115 73.5 189t203.5 73q26 0 59.5 -2t54.5 -2q30 0 45.5 16t15.5 41q0 30 -22 65h112q29 -33 29 -84q0 -97 -76 -127q56 -70 56 -169q0 -113 -73.5 -187.5t-201.5 -74.5zM311 363q-39 0 -62 -32.5t-23 -80.5q0 -47 23.5 -79.5
t61.5 -32.5q39 0 62.5 32.5t23.5 79.5q0 48 -23.5 80.5t-62.5 32.5z" />
    <glyph glyph-name="Uhorn" unicode="&#x1af;" horiz-adv-x="765" 
d="M383 -11q-134 0 -224.5 75t-90.5 207v429h199v-429q0 -52 30.5 -87.5t84.5 -35.5q55 1 85.5 36t30.5 87v429h108q44 0 67 26.5t23 66.5q0 41 -20 76h130q17 -36 17 -85q0 -60 -30 -108.5t-96 -68.5v-336q0 -132 -90.5 -207t-223.5 -75z" />
    <glyph glyph-name="uhorn" unicode="&#x1b0;" horiz-adv-x="670" 
d="M52 236v264h190v-245q0 -48 23 -76.5t64 -28.5q44 0 68.5 32t24.5 82v236h112q29 0 44 17t15 44q0 35 -23 69h112q29 -33 29 -85q0 -107 -99 -133v-412h-190v48q-60 -60 -148 -60q-99 -1 -160.5 64t-61.5 184z" />
    <glyph glyph-name="uni0218" unicode="&#x218;" horiz-adv-x="688" 
d="M351 -11q-189 0 -324 90l85 143q118 -74 250 -74q100 0 100 54q0 21 -24 36t-62 25.5t-84 21.5t-91.5 28t-83.5 39.5t-62 61.5t-24 90q0 88 75.5 146.5t220.5 58.5q186 0 314 -84l-81 -135q-89 59 -233 59q-97 0 -97 -43q0 -21 32 -36t80 -23.5t103.5 -25t103.5 -38
t80 -64t32 -100.5q0 -101 -83.5 -165.5t-226.5 -64.5zM318 -103q0 23 17 39.5t42 17.5t42.5 -16.5t17.5 -42.5t-17 -58t-38 -54l-47 23q8 12 19 39q-36 15 -36 52z" />
    <glyph glyph-name="uni0219" unicode="&#x219;" horiz-adv-x="506" 
d="M25 47l69 112q49 -38 155 -38q17 0 30 7t13 18q0 16 -26.5 29t-64 25.5t-75 29t-64 48.5t-26.5 75q0 74 61.5 116.5t163.5 42.5q114 0 199 -48l-62 -119q-53 35 -132 35q-44 0 -44 -22q0 -13 27 -25t65 -25t76 -31.5t65 -52t27 -77.5q0 -75 -64 -117.5t-170 -42.5
q-137 0 -223 60zM212 -103q0 23 17 40t42 17t42 -16t18 -41q1 -27 -16.5 -60t-38.5 -54l-47 23q12 17 18 39q-35 15 -35 52z" />
    <glyph glyph-name="uni021A" unicode="&#x21a;" horiz-adv-x="658" 
d="M20 700h618v-159h-210v-541h-199v541h-209v159zM308 -155q-36 15 -36 52q0 23 17.5 40t42.5 17q24 0 42 -16.5t18 -40.5q0 -27 -17.5 -60.5t-38.5 -53.5l-46 23q12 17 18 39z" />
    <glyph glyph-name="uni021B" unicode="&#x21b;" horiz-adv-x="434" 
d="M17 353v147h64v130h190v-130h109v-147h-109v-166q0 -56 40 -56q32 0 59 12l34 -130q-53 -26 -142 -26q-104 0 -142.5 52t-38.5 148v166h-64zM223 -155q-36 15 -36 52q0 23 17.5 40t42.5 17q24 0 41.5 -16.5t17.5 -40.5q0 -27 -17.5 -60.5t-37.5 -53.5l-47 23q9 11 19 39z
" />
    <glyph glyph-name="uni0237" unicode="&#x237;" horiz-adv-x="330" 
d="M-18 -69q18 -7 41 -7q49 0 49 52v524h190v-535q0 -91 -37.5 -134t-127.5 -43q-55 0 -115 15v128z" />
    <glyph glyph-name="circumflex" unicode="&#x2c6;" horiz-adv-x="499" 
d="M178 575h-110l131 145h101l131 -145h-109l-72 64z" />
    <glyph glyph-name="caron" unicode="&#x2c7;" horiz-adv-x="499" 
d="M199 575l-131 145h109l72 -64l72 64h110l-131 -145h-101z" />
    <glyph glyph-name="uni02C9" unicode="&#x2c9;" horiz-adv-x="392" 
d="M324 668v-91h-256v91h256z" />
    <glyph glyph-name="breve" unicode="&#x2d8;" horiz-adv-x="450" 
d="M68 718h82q0 -27 21 -44.5t54 -17.5t54 17.5t21 44.5h82q0 -71 -41.5 -112.5t-115.5 -41.5t-115.5 41.5t-41.5 112.5z" />
    <glyph glyph-name="dotaccent" unicode="&#x2d9;" horiz-adv-x="273" 
d="M68 640q0 23 18.5 44t50.5 21t50 -21t18 -44t-17.5 -44t-50.5 -21t-51 21t-18 44z" />
    <glyph glyph-name="ring" unicode="&#x2da;" horiz-adv-x="363" 
d="M182 766q54 0 84 -34t30 -72t-30 -72t-84 -34t-84 34t-30 72t30 72t84 34zM182 616q15 0 25 11.5t10 32.5t-10.5 32.5t-24.5 11.5t-25 -11.5t-11 -32.5t11 -32.5t25 -11.5z" />
    <glyph glyph-name="ogonek" unicode="&#x2db;" horiz-adv-x="357" 
d="M68 -108q0 40 31 83.5t69 74.5h92q-91 -80 -92 -138q0 -31 37 -31q27 0 54 20l30 -74q-39 -34 -101 -36q-58 0 -89 27.5t-31 73.5z" />
    <glyph glyph-name="tilde" unicode="&#x2dc;" horiz-adv-x="488" 
d="M145 577h-77q18 147 114 148q28 0 49 -9t31 -20.5t21.5 -20.5t20.5 -9q15 0 26 16.5t14 31.5h76q-6 -147 -110 -147q-36 0 -73 29.5t-54 29.5q-28 0 -38 -49z" />
    <glyph glyph-name="hungarumlaut" unicode="&#x2dd;" horiz-adv-x="633" 
d="M300 575l188 174l77 -77l-145 -97h-120zM188 575h-120l189 174l76 -77z" />
    <glyph glyph-name="uni0394" unicode="&#x394;" horiz-adv-x="825" 
d="M795 109v-109h-765v109l294 591h177zM413 448l-144 -289h287z" />
    <glyph glyph-name="uni03A9" unicode="&#x3a9;" horiz-adv-x="906" 
d="M30 155h139q-49 28 -78 87.5t-29 129.5q0 103 57.5 181t145.5 115.5t189 37.5t188 -37.5t144.5 -115.5t57.5 -181q0 -58 -24.5 -122.5t-66.5 -94.5h123v-155h-377v154q66 14 106 72.5t40 127.5q0 84 -54 138.5t-138 54.5t-138 -54t-54 -138q0 -71 39.5 -129.5
t106.5 -70.5v-155h-377v155z" />
    <glyph glyph-name="uni03BC" unicode="&#x3bc;" horiz-adv-x="676" 
d="M58 -200v700h190v-247q0 -47 23.5 -75t63.5 -28q44 0 68.5 32t24.5 82v236h190v-500h-190v41q-53 -51 -128 -51q-30 0 -52 12v-202h-190z" />
    <glyph glyph-name="pi" unicode="&#x3c0;" horiz-adv-x="771" 
d="M118 315l-110 69q37 59 95.5 87.5t112.5 28.5h528v-132h-83v-185q0 -36 39 -36h44v-147h-92q-79 0 -130 41t-51 119v208h-98v-368h-184v368q-6 -2 -12.5 -5t-12.5 -6.5t-11 -7.5t-9.5 -8t-8.5 -7.5t-7 -7t-5 -6t-3 -4.5z" />
    <glyph glyph-name="uni0401" unicode="&#x401;" horiz-adv-x="659" 
d="M68 0v700h563v-157h-364v-117h314v-152h-314v-117h364v-157h-563zM386 840q0 23 18 44t51 21q32 0 50.5 -21t18.5 -44t-18 -44t-51 -21t-51 21t-18 44zM272 905q32 0 50.5 -21t18.5 -44t-18 -44t-51 -21t-50.5 21t-17.5 44t18 43.5t50 21.5z" />
    <glyph glyph-name="uni0402" unicode="&#x402;" horiz-adv-x="820" 
d="M20 541v159h476v-159h-139v-114q151 11 167 11q110 0 185 -54.5t75 -159.5t-59.5 -169t-163.5 -64q-106 0 -167 33l45 155q35 -20 81 -20q73 0 73 64q0 56 -77 56q-23 0 -49.5 -2t-59.5 -5.5t-50 -4.5v-267h-199v541h-138z" />
    <glyph glyph-name="uni0403" unicode="&#x403;" horiz-adv-x="598" 
d="M590 700v-159h-323v-541h-199v700h522zM426 872l-146 -97h-120l189 174z" />
    <glyph glyph-name="uni0404" unicode="&#x404;" horiz-adv-x="752" 
d="M36 348q0 160 110.5 260t270.5 101q105 0 184 -40.5t121 -101.5l-133 -98q-59 79 -162 80q-62 1 -111.5 -35t-68.5 -98h287v-133h-288q18 -61 67.5 -96.5t112.5 -35.5q113 0 167 82l128 -89q-34 -60 -112.5 -107t-191.5 -47q-161 0 -271 98t-110 260z" />
    <glyph glyph-name="uni0405" unicode="&#x405;" horiz-adv-x="688" 
d="M27 79l85 143q109 -73 250 -74q100 0 100 54q0 21 -24 36t-62 25.5t-84 21.5t-91.5 28t-83.5 39.5t-62 61.5t-24 90q0 88 75.5 146t220.5 59q186 0 314 -84l-81 -135q-85 59 -233 59q-97 0 -97 -43q0 -21 32 -36t80 -23.5t104 -25t104 -38t79.5 -64t31.5 -100.5
q-1 -101 -84 -165.5t-226 -64.5q-187 0 -324 90z" />
    <glyph glyph-name="uni0406" unicode="&#x406;" horiz-adv-x="347" 
d="M273 700v-700h-199v700h199z" />
    <glyph glyph-name="uni0407" unicode="&#x407;" horiz-adv-x="315" 
d="M256 0h-199v700h199v-700zM66 775q-33 0 -50.5 21t-17.5 44t18 44t50 21t50.5 -21t18.5 -44t-18 -44t-51 -21zM181 840q0 23 18 44t50 21t50.5 -21t18.5 -44t-18 -44t-51 -21t-50.5 21t-17.5 44z" />
    <glyph glyph-name="uni0408" unicode="&#x408;" horiz-adv-x="609" 
d="M16 97l103 123q52 -68 128 -68q43 0 69 28t26 79v441h199v-458q0 -115 -75.5 -184.5t-201.5 -69.5q-143 0 -248 109z" />
    <glyph glyph-name="uni0409" unicode="&#x409;" horiz-adv-x="1092" 
d="M328 410q-2 -81 -9.5 -138.5t-28 -114t-54.5 -90t-91 -54.5t-137 -21l1 167q26 0 46 9t32.5 28t20.5 39.5t12.5 53t6 59t2.5 65.5l7 287h505v-263h144q57 0 101.5 -9t85 -31t62.5 -66t22 -108q0 -100 -66.5 -161.5t-199.5 -61.5h-348v541h-110zM641 278v-119h149
q67 0 67 65q0 54 -72 54h-144z" />
    <glyph glyph-name="uni040A" unicode="&#x40a;" horiz-adv-x="1114" 
d="M267 0h-199v700h199v-263h197v263h198v-263h145q57 0 101.5 -9t85 -31t62.5 -65.5t22 -107.5q0 -101 -66.5 -162.5t-199.5 -61.5h-348v278h-197v-278zM807 278h-145v-119h150q67 0 67 65q0 54 -72 54z" />
    <glyph glyph-name="uni040B" unicode="&#x40b;" horiz-adv-x="819" 
d="M20 541v159h476v-159h-138v-102q81 38 168 38q117 0 179 -50t62 -176v-251h-199v231q0 49 -26 72.5t-82 23.5q-57 0 -102 -27v-300h-199v541h-139z" />
    <glyph glyph-name="uni040C" unicode="&#x40c;" horiz-adv-x="811" 
d="M267 0h-199v700h199v-270h65l226 270h235l-292 -350l292 -350h-235l-226 271h-65v-271zM353 775h-120l188 174l77 -77z" />
    <glyph glyph-name="uni040E" unicode="&#x40e;" horiz-adv-x="756" 
d="M28 700h221l177 -303l131 303h211l-246 -570q-63 -144 -219 -144q-129 0 -215 82l77 118q19 -16 30 -23t28.5 -14t36.5 -7q25 0 43 15.5t18 40.5zM237 918h82q0 -27 20.5 -44.5t52.5 -17.5q31 0 54 16.5t23 45.5h82q0 -71 -41.5 -112.5t-115.5 -41.5t-115.5 41.5
t-41.5 112.5z" />
    <glyph glyph-name="uni040F" unicode="&#x40f;" horiz-adv-x="773" 
d="M68 0v700h199v-541h239v541h199v-699l-219 -1v-115h-199v115h-219z" />
    <glyph glyph-name="uni0410" unicode="&#x410;" horiz-adv-x="863" 
d="M222 0h-210l316 700h208l315 -700h-209l-50 113h-320zM341 271h181l-90 202z" />
    <glyph glyph-name="uni0411" unicode="&#x411;" horiz-adv-x="719" 
d="M68 0v700h568v-159h-369v-104h144q57 0 102 -9t85.5 -31t62.5 -65.5t22 -107.5q-1 -101 -67.5 -162.5t-199.5 -61.5h-348zM412 278h-145v-119h149q35 0 52 17t16 48q-1 54 -72 54z" />
    <glyph glyph-name="uni0412" unicode="&#x412;" horiz-adv-x="769" 
d="M68 0v700h380q127 0 194 -51t67 -130q0 -52 -25 -91t-67 -58q47 -12 81.5 -55.5t34.5 -105.5q0 -95 -67.5 -152t-196.5 -57h-401zM267 159h188q37 0 58 17t21 46q0 62 -77 62h-190v-125zM437 541h-170v-113h170q36 0 55.5 15t19.5 41t-20 41.5t-55 15.5z" />
    <glyph glyph-name="uni0413" unicode="&#x413;" horiz-adv-x="598" 
d="M590 700v-159h-323v-541h-199v700h522z" />
    <glyph glyph-name="uni0414" unicode="&#x414;" horiz-adv-x="831" 
d="M28 -115v274q56 2 96.5 68t59 160.5t26.5 174.5t7 138h503v-541h93v-274h-199v115h-387v-115h-199zM320 159h201v382h-110q-20 -263 -91 -382z" />
    <glyph glyph-name="uni0415" unicode="&#x415;" horiz-adv-x="679" 
d="M68 700h563v-157h-364v-117h314v-152h-314v-117h364v-157h-563v700z" />
    <glyph glyph-name="uni0416" unicode="&#x416;" horiz-adv-x="1235" 
d="M-2 700h235l226 -270h49v270h198v-270h50l226 270h235l-292 -350l292 -350h-235l-226 271h-50v-271h-198v271h-49l-226 -271h-235l292 350z" />
    <glyph glyph-name="uni0417" unicode="&#x417;" horiz-adv-x="626" 
d="M28 92l96 129q61 -73 184 -73q44 0 72.5 19t28.5 53q0 37 -37.5 56t-92.5 19h-81l1 139h76q37 0 64.5 18.5t27.5 51.5q0 22 -19.5 36t-47.5 14q-41 0 -79.5 -17t-55.5 -32t-20 -20l-111 108q98 120 282 120q101 0 175.5 -47.5t74.5 -136.5q0 -43 -27.5 -85.5t-69.5 -59.5
q57 -12 98 -61t41 -114q0 -92 -78 -156.5t-214 -64.5q-40 0 -76 4.5t-63.5 13.5t-49 17.5t-40 21t-27.5 19.5t-20 18z" />
    <glyph glyph-name="uni0418" unicode="&#x418;" horiz-adv-x="812" 
d="M270 0h-202v700h199v-383l276 383h201v-700h-199v381z" />
    <glyph glyph-name="uni0419" unicode="&#x419;" horiz-adv-x="812" 
d="M75 700h199v-383l276 383h201v-700h-199v381l-274 -381h-203v700zM243 918h82q0 -27 21 -44.5t54 -17.5t54 17.5t21 44.5h82q0 -71 -41 -112.5t-116 -41.5q-74 0 -115.5 41.5t-41.5 112.5z" />
    <glyph glyph-name="uni041A" unicode="&#x41a;" horiz-adv-x="811" 
d="M267 0h-199v700h199v-270h65l226 270h235l-292 -350l292 -350h-235l-226 271h-65v-271z" />
    <glyph glyph-name="uni041B" unicode="&#x41b;" horiz-adv-x="741" 
d="M8 -8v167q26 0 46 9t32.5 28t21 39.5t12.5 53.5t6 58.5t3 65.5l8 287h536v-700h-199l1 541h-143l-4 -131q-2 -75 -9.5 -130t-28 -112.5t-54 -93.5t-91.5 -59t-137 -23z" />
    <glyph glyph-name="uni041C" unicode="&#x41c;" horiz-adv-x="944" 
d="M68 0v700h201l202 -302l204 302h201v-700h-199v382l-206 -313l-204 311v-380h-199z" />
    <glyph glyph-name="uni041D" unicode="&#x41d;" horiz-adv-x="817" 
d="M69 700h198v-271h282v271h199v-700h-199v270h-281v-270h-199v700z" />
    <glyph glyph-name="uni041E" unicode="&#x41e;" horiz-adv-x="833" 
d="M36 352q0 152 109 255.5t272 103.5t272 -104t108 -255q-1 -153 -109.5 -258.5t-270.5 -104.5t-271.5 106.5t-109.5 256.5zM235 352q0 -80 53 -137t129 -57q75 0 128 56.5t53 137.5q0 80 -53 134.5t-128 54.5q-76 0 -129 -55t-53 -134z" />
    <glyph glyph-name="uni041F" unicode="&#x41f;" horiz-adv-x="773" 
d="M68 700h637v-700h-199v541h-239v-541h-199v700z" />
    <glyph glyph-name="uni0420" unicode="&#x420;" horiz-adv-x="708" 
d="M68 0v700h350q120 0 191.5 -70.5t72.5 -178.5q1 -106 -70.5 -177t-192.5 -71h-152v-203h-199zM267 362h135q43 0 66.5 25.5t23.5 63.5q0 39 -23.5 64.5t-66.5 25.5h-135v-179z" />
    <glyph glyph-name="uni0421" unicode="&#x421;" horiz-adv-x="752" 
d="M417 -10q-161 0 -271 98t-110 260q0 160 110.5 260t270.5 101q105 0 184 -40.5t121 -101.5l-133 -98q-59 80 -162 80q-80 0 -136 -56t-56 -145q0 -88 55.5 -142.5t135.5 -54.5q113 0 167 82l128 -89q-34 -60 -112.5 -107t-191.5 -47z" />
    <glyph glyph-name="uni0422" unicode="&#x422;" horiz-adv-x="658" 
d="M20 541v159h618v-159h-209l-1 -541h-199v541h-209z" />
    <glyph glyph-name="uni0423" unicode="&#x423;" horiz-adv-x="796" 
d="M28 700h221l177 -303l131 303h211l-246 -570q-63 -144 -219 -144q-129 0 -215 82l77 118q19 -15 30.5 -23t29.5 -14.5t38 -6.5q29 0 43.5 19t14.5 37z" />
    <glyph glyph-name="uni0424" unicode="&#x424;" horiz-adv-x="820" 
d="M323 37q-131 17 -209 88.5t-78 213.5q0 266 287 301v85h175v-85q62 -8 111.5 -28t90 -54.5t62.5 -90t22 -128.5q0 -272 -286 -303v-61h-175v62zM323 481q-100 -31 -100 -141q0 -112 100 -142v283zM498 481v-282q99 31 99 141q0 112 -99 141z" />
    <glyph glyph-name="uni0425" unicode="&#x425;" horiz-adv-x="874" 
d="M264 0h-238l292 367l-264 333h236l147 -184l146 184h236l-264 -333l293 -367h-239l-172 218z" />
    <glyph glyph-name="uni0426" unicode="&#x426;" horiz-adv-x="840" 
d="M68 0v700h199v-541h211v541h199v-541h145v-274h-199v115h-555z" />
    <glyph glyph-name="uni0427" unicode="&#x427;" horiz-adv-x="761" 
d="M332 191q-55 0 -103 12.5t-90 39.5t-66.5 77.5t-24.5 119.5v260h199v-260q0 -90 138 -90q53 0 109 32v318h199v-700h-199v229q-81 -38 -162 -38z" />
    <glyph glyph-name="uni0428" unicode="&#x428;" horiz-adv-x="1021" 
d="M68 700h199v-541h144v541h199v-541h144v541h199v-700h-885v700z" />
    <glyph glyph-name="uni0429" unicode="&#x429;" horiz-adv-x="1104" 
d="M68 700h199v-541h144v541h199v-541h144v541h199v-541h133v-274h-199v115h-819v700z" />
    <glyph glyph-name="uni042A" unicode="&#x42a;" horiz-adv-x="814" 
d="M164 541h-156v159h355v-263h144q57 0 101.5 -9t85 -31t62.5 -65.5t22 -107.5q0 -101 -66.5 -162.5t-199.5 -61.5h-348v541zM363 159h149q36 0 52 15.5t15 47.5q0 56 -71 56h-145v-119z" />
    <glyph glyph-name="uni042B" unicode="&#x42b;" horiz-adv-x="1010" 
d="M68 700h199v-263h144q57 0 102 -9t85.5 -31t62.5 -65.5t22 -107.5q-1 -101 -67.5 -162.5t-199.5 -61.5h-348v700zM942 0h-199v700h199v-700zM267 278v-119h149q35 0 52 15.5t16 46.5q-2 57 -72 57h-145z" />
    <glyph glyph-name="uni042C" unicode="&#x42c;" horiz-adv-x="719" 
d="M68 0v700h199v-263h144q57 0 102 -9t85.5 -31t62.5 -65.5t22 -107.5q-1 -101 -67.5 -162.5t-199.5 -61.5h-348zM267 278v-119h149q35 0 52 16.5t16 46.5q-1 56 -72 56h-145z" />
    <glyph glyph-name="uni042D" unicode="&#x42d;" horiz-adv-x="740" 
d="M323 709q159 0 270 -100.5t111 -260.5q0 -162 -110 -260t-271 -98q-113 0 -191.5 47t-112.5 107l128 89q54 -82 167 -82q63 0 112.5 35.5t66.5 96.5h-287v133h286q-18 61 -67 97t-112 36q-103 0 -162 -80l-133 98q42 61 121 101.5t184 40.5z" />
    <glyph glyph-name="uni042E" unicode="&#x42e;" horiz-adv-x="1145" 
d="M267 0h-199v700h199v-270h90q27 124 129.5 202.5t241.5 78.5q163 0 272.5 -104t108.5 -255q-1 -153 -109.5 -257.5t-271.5 -105.5q-138 -1 -240 79t-130 203h-91v-271zM547 352q0 -80 53 -137t128 -57q76 0 129 56.5t53 137.5q0 80 -53 134.5t-129 54.5q-75 0 -128 -55
t-53 -134z" />
    <glyph glyph-name="uni042F" unicode="&#x42f;" horiz-adv-x="720" 
d="M234 0h-226l159 232q-64 30 -99 88.5t-36 130.5q-1 107 71.5 178t192.5 71h356v-700h-199v203h-81zM222 451q0 -38 23.5 -63.5t66.5 -25.5h141v179h-141q-43 0 -66.5 -25.5t-23.5 -64.5z" />
    <glyph glyph-name="uni0430" unicode="&#x430;" horiz-adv-x="677" 
d="M36 248q0 111 71.5 186.5t169.5 75.5q92 0 152 -55v45h190v-500h-190v48q-60 -58 -147 -58q-99 0 -172.5 73.5t-73.5 184.5zM219 249q0 -47 29.5 -80t75.5 -33t75.5 33t29.5 80q0 46 -29.5 79t-75.5 33t-75.5 -33t-29.5 -79z" />
    <glyph glyph-name="uni0431" unicode="&#x431;" horiz-adv-x="604" 
d="M34 277q-1 60 7.5 115t30 107t55 91.5t85.5 65.5t117 31q12 1 55.5 2t70 6t51.5 17l41 -133q-17 -7 -35 -12t-41 -8t-36.5 -4t-42 -3t-36.5 -3q-82 -7 -111 -93q37 24 85 24q116 0 186 -63.5t70 -171.5t-80 -182.5t-195 -74.5q-126 0 -200.5 81.5t-76.5 207.5zM310 356
q-36 0 -60.5 -30.5t-24.5 -80.5q0 -45 25.5 -78t59.5 -33q35 0 60.5 33t25.5 78t-25.5 78t-60.5 33z" />
    <glyph glyph-name="uni0432" unicode="&#x432;" horiz-adv-x="565" 
d="M58 0v500h265q99 0 154.5 -37.5t55.5 -98.5q0 -37 -18 -64.5t-47 -38.5q35 -8 57 -38.5t22 -75.5q0 -67 -57 -107t-162 -40h-270zM234 124h109q21 0 32 10.5t11 25.5q0 37 -42 37h-110v-73zM234 308h98q21 0 31.5 9.5t10.5 24.5q0 34 -42 34h-98v-68z" />
    <glyph glyph-name="uni0433" unicode="&#x433;" horiz-adv-x="459" 
d="M456 500v-147h-208v-353h-190v500h398z" />
    <glyph glyph-name="uni0434" unicode="&#x434;" horiz-adv-x="675" 
d="M188 -79h-190v226h81q95 8 91 353h424v-353h83v-226h-190v79h-299v-79zM288 147h117v206h-74q-8 -141 -43 -206z" />
    <glyph glyph-name="uni0435" unicode="&#x435;" horiz-adv-x="609" 
d="M36 249q0 116 71 189.5t201 73.5q138 0 205.5 -80.5t58.5 -215.5h-343q7 -42 34.5 -65t65.5 -23q72 0 112 54l110 -80q-28 -45 -90.5 -79.5t-147.5 -34.5q-123 0 -200 74.5t-77 186.5zM235 316h170q-3 28 -26 46t-56 18q-68 0 -88 -64z" />
    <glyph glyph-name="uni0436" unicode="&#x436;" horiz-adv-x="982" 
d="M207 249l-209 251h223l145 -175h30v175h189v-175h31l147 175h221l-210 -251l209 -249h-222l-145 174h-31v-174h-189v174h-29l-146 -174h-222z" />
    <glyph glyph-name="uni0437" unicode="&#x437;" horiz-adv-x="481" 
d="M18 64l76 103q51 -49 138 -49q74 0 74 46q0 45 -95 45h-62v103h58q67 0 67 40q0 15 -15 24t-33 9q-30 0 -59 -9.5t-43 -18.5t-14 -11l-81 91q70 75 210 75q79 0 136 -34t57 -98q0 -33 -20.5 -63t-51.5 -42q42 -9 72.5 -44.5t30.5 -81.5q0 -67 -59.5 -113.5t-164.5 -46.5
q-22 0 -42.5 2t-36.5 4.5t-32 7t-27.5 9t-23 10.5t-18.5 10t-15 10t-11.5 9t-8.5 8t-6 5z" />
    <glyph glyph-name="uni0438" unicode="&#x438;" horiz-adv-x="678" 
d="M250 0h-192v500h189v-246l180 246h193v-500h-189v246z" />
    <glyph glyph-name="uni0439" unicode="&#x439;" horiz-adv-x="678" 
d="M252 0h-192v500h189v-246l180 246h192v-500h-189v246zM156 718h82q0 -27 21 -44.5t54 -17.5t54 17.5t21 44.5h82q0 -71 -41 -112.5t-116 -41.5q-74 0 -115.5 41.5t-41.5 112.5z" />
    <glyph glyph-name="uni043A" unicode="&#x43a;" horiz-adv-x="686" 
d="M58 500h189v-175h41l147 175h221l-210 -251l209 -249h-222l-145 174h-41v-174h-189v500z" />
    <glyph glyph-name="uni043B" unicode="&#x43b;" horiz-adv-x="661" 
d="M311 353q-4 -83 -18.5 -143.5t-46.5 -112.5t-92 -79t-146 -27v156q132 0 131 343v10h464v-500h-190v353h-102z" />
    <glyph glyph-name="uni043C" unicode="&#x43c;" horiz-adv-x="721" 
d="M58 500h163l138 -183l138 183h166v-500h-190v195l-114 -164l-113 163v-194h-188v500z" />
    <glyph glyph-name="uni043D" unicode="&#x43d;" horiz-adv-x="665" 
d="M247 0h-189v499l189 1v-176h170v175l189 1l1 -500h-190v177h-170v-177z" />
    <glyph glyph-name="uni043E" unicode="&#x43e;" horiz-adv-x="623" 
d="M312 -12q-129 0 -202.5 74t-73.5 188t73 188t202 74t202.5 -74t73.5 -188q0 -113 -73.5 -187.5t-201.5 -74.5zM311 363q-39 0 -62 -32.5t-23 -80.5q0 -47 23.5 -79.5t61.5 -32.5q39 0 62.5 32.5t23.5 79.5q0 48 -23.5 80.5t-62.5 32.5z" />
    <glyph glyph-name="uni043F" unicode="&#x43f;" horiz-adv-x="642" 
d="M58 0v500h526v-500h-190v352h-147v-352h-189z" />
    <glyph glyph-name="uni0440" unicode="&#x440;" horiz-adv-x="677" 
d="M58 500h190v-46q61 56 153 56q98 0 169 -75.5t71 -186.5t-73 -184.5t-172 -73.5q-87 0 -148 59v-249h-190v700zM248 248q0 -46 29.5 -79t75.5 -33t76 33t30 79t-30 79.5t-76 33.5t-75.5 -33t-29.5 -80z" />
    <glyph glyph-name="uni0441" unicode="&#x441;" horiz-adv-x="572" 
d="M307 -16q-121 0 -196 76.5t-75 187.5q0 113 74.5 189.5t198.5 76.5q81 0 141 -34t89 -78l-103 -90q-38 52 -99 52q-46 0 -78.5 -32t-32.5 -80q0 -51 32 -83t81 -32q61 0 96 56l108 -95q-89 -114 -236 -114z" />
    <glyph glyph-name="uni0442" unicode="&#x442;" horiz-adv-x="520" 
d="M20 352v148h480v-148h-145v-352h-190v352h-145z" />
    <glyph glyph-name="uni0443" unicode="&#x443;" horiz-adv-x="707" 
d="M287 4l-263 496h206l143 -276l109 276h201l-233 -578q-29 -71 -88.5 -106.5t-134.5 -35.5q-105 0 -182 61l59 111q40 -32 91 -32q60 0 82 57z" />
    <glyph glyph-name="uni0444" unicode="&#x444;" horiz-adv-x="814" 
d="M328 -1q-292 27 -292 251q0 223 292 251v199h158v-200q63 -6 113.5 -22t92 -45t64 -75.5t22.5 -107.5q0 -228 -292 -252l-1 -198h-157v199zM236 250q0 -78 92 -98v196q-92 -20 -92 -98zM486 347v-195q92 21 92 97q0 78 -92 98z" />
    <glyph glyph-name="uni0445" unicode="&#x445;" horiz-adv-x="670" 
d="M239 0h-217l205 256l-193 244h213l88 -109l87 109h214l-194 -244l206 -256h-217l-96 121z" />
    <glyph glyph-name="uni0446" unicode="&#x446;" horiz-adv-x="659" 
d="M472 0h-414v500h190v-353h155v353h190v-353h68v-226h-189v79z" />
    <glyph glyph-name="uni0447" unicode="&#x447;" horiz-adv-x="639" 
d="M270 110q-104 0 -168 56t-64 164v170h190v-170q0 -72 77 -72q37 0 86 35v207h190v-500h-190v140q-60 -30 -121 -30z" />
    <glyph glyph-name="uni0448" unicode="&#x448;" horiz-adv-x="899" 
d="M58 500h189v-349h107v349h190v-349h107v349h190v-500h-783v500z" />
    <glyph glyph-name="uni0449" unicode="&#x449;" horiz-adv-x="959" 
d="M58 0v500h189v-349h107v349h190v-349h106v349h190v-349h121v-229h-190v78h-713z" />
    <glyph glyph-name="uni044A" unicode="&#x44a;" horiz-adv-x="635" 
d="M-12 353v147h307v-139h61q243 0 243 -179q0 -97 -65 -139.5t-173 -42.5h-257v353h-116zM294 141h81q49 0 49 42t-53 42h-77v-84z" />
    <glyph glyph-name="uni044B" unicode="&#x44b;" horiz-adv-x="862" 
d="M58 0v500h191v-139h61q243 0 243 -179q0 -97 -65 -139.5t-173 -42.5h-257zM804 0h-190v500h190v-500zM248 225v-84h81q49 0 49 42t-53 42h-77z" />
    <glyph glyph-name="uni044C" unicode="&#x44c;" horiz-adv-x="589" 
d="M315 0h-257v500h191v-139h61q243 0 243 -179q0 -97 -65 -139.5t-173 -42.5zM248 225v-84h81q49 0 49 42t-53 42h-77z" />
    <glyph glyph-name="uni044D" unicode="&#x44d;" horiz-adv-x="562" 
d="M255 -16q-147 0 -236 114l101 89q39 -60 116 -60q36 0 65.5 21.5t42.5 55.5h-170v92h170q-12 33 -41 54t-67 21q-72 0 -113 -56l-100 87q29 44 89 78t141 34q124 0 198.5 -76.5t74.5 -189.5q0 -111 -75 -187.5t-196 -76.5z" />
    <glyph glyph-name="uni044E" unicode="&#x44e;" horiz-adv-x="896" 
d="M248 0h-190v500h190v-177h70q21 85 90.5 137t175.5 52q129 0 202.5 -74t73.5 -188q0 -113 -73.5 -187.5t-201.5 -74.5q-105 0 -175 52t-91 136h-71v-176zM499 250q0 -47 23 -79.5t62 -32.5t62.5 32.5t23.5 79.5q0 48 -23.5 80.5t-62.5 32.5t-62 -32.5t-23 -80.5z" />
    <glyph glyph-name="uni044F" unicode="&#x44f;" horiz-adv-x="618" 
d="M240 0h-201l101 167q-44 25 -69 64.5t-25 84.5q0 79 65.5 131.5t160.5 52.5h288v-500h-190v132h-50zM235 316q0 -22 13 -35.5t37 -12.5h85v97h-85q-24 0 -37 -13.5t-13 -35.5z" />
    <glyph glyph-name="uni0451" unicode="&#x451;" horiz-adv-x="609" 
d="M313 -12q-123 0 -200 74.5t-77 186.5q0 116 71 189.5t201 73.5q138 0 205.5 -80.5t58.5 -215.5h-343q7 -42 34.5 -65t65.5 -23q72 0 112 54l110 -80q-28 -45 -90.5 -79.5t-147.5 -34.5zM390 575q-33 0 -50.5 21t-17.5 44t18 44t50 21t50.5 -21t18.5 -44t-18 -44t-51 -21z
M208 575q-33 0 -51 21t-18 44t18.5 44t50.5 21t50 -21t18 -44t-17.5 -44t-50.5 -21zM235 316h170q-3 28 -26 46t-56 18q-68 0 -88 -64z" />
    <glyph glyph-name="uni0452" unicode="&#x452;" horiz-adv-x="729" 
d="M20 550v90h97v60h190v-60h180v-90h-180v-98q59 61 148 61q99 0 160 -64.5t62 -184.5l1 -266q0 -166 -173 -166q-113 0 -173 47l56 87q13 -17 52 -17q21 0 34 13t13 35v248q0 47 -23 75.5t-64 29.5q-43 1 -68 -31t-25 -82v-237h-190v550h-97z" />
    <glyph glyph-name="uni0453" unicode="&#x453;" horiz-adv-x="454" 
d="M456 500v-147h-208v-353h-190v500h398zM334 672l-146 -97h-120l189 174z" />
    <glyph glyph-name="uni0454" unicode="&#x454;" horiz-adv-x="572" 
d="M36 248q0 113 74.5 189.5t198.5 76.5q81 0 141 -34t89 -78l-100 -87q-41 56 -113 56q-38 0 -67 -21t-41 -54h170v-92h-170q12 -34 42 -55.5t66 -21.5q77 0 116 60l101 -89q-89 -114 -236 -114q-121 0 -196 76.5t-75 187.5z" />
    <glyph glyph-name="uni0455" unicode="&#x455;" horiz-adv-x="506" 
d="M25 47l69 112q49 -38 155 -38q17 0 30 7t13 18q0 16 -26.5 29t-64 25.5t-75 29t-64 48.5t-26.5 75q0 74 61.5 116.5t163.5 42.5q114 0 199 -48l-62 -119q-53 35 -132 35q-44 0 -44 -22q0 -13 27 -25t65 -25t76 -31.5t65 -52t27 -77.5q0 -75 -64 -117.5t-170 -42.5
q-137 0 -223 60z" />
    <glyph glyph-name="uni0456" unicode="&#x456;" horiz-adv-x="330" 
d="M260 0h-190v500h190v-500zM165 545q-45 0 -75.5 23.5t-30.5 57.5q0 33 31 57.5t75 23.5q42 -1 74.5 -25t32.5 -56q0 -33 -32 -57t-75 -24z" />
    <glyph glyph-name="uni0457" unicode="&#x457;" horiz-adv-x="314" 
d="M62 500h190v-500h-190v500zM180 640q0 23 18 44t50 21t50.5 -21t18.5 -44t-18 -44t-51 -21t-50.5 21t-17.5 44zM-3 640q0 23 18 44t51 21q32 0 50 -21t18 -44t-17.5 -44t-50.5 -21t-51 21t-18 44z" />
    <glyph glyph-name="uni0458" unicode="&#x458;" horiz-adv-x="330" 
d="M97 -212q-55 0 -115 15v128q21 -8 40 -8q50 2 50 53v524h190v-535q0 -91 -37.5 -134t-127.5 -43zM165 545q-45 0 -76 24t-31 58q0 33 31 56.5t76 23.5q42 0 74.5 -24.5t32.5 -55.5q0 -34 -32 -58t-75 -24z" />
    <glyph glyph-name="uni0459" unicode="&#x459;" horiz-adv-x="930" 
d="M-2 -6v147q116 0 116 273q0 18 -0.5 47t-0.5 39h477v-139h61q242 0 243 -179q0 -50 -18.5 -86.5t-52 -56.5t-75 -29.5t-92.5 -9.5h-257v353h-98q-3 -83 -17.5 -143.5t-47 -111.5t-92 -77.5t-146.5 -26.5zM589 225v-84h82q48 0 48 42t-53 42h-77z" />
    <glyph glyph-name="uni045A" unicode="&#x45a;" horiz-adv-x="973" 
d="M58 0v500h190v-179h194v179h191v-139h61q243 0 243 -179q0 -97 -65 -139.5t-173 -42.5h-257v174h-194v-174h-190zM709 225h-77v-84h81q49 0 49 42t-53 42z" />
    <glyph glyph-name="uni045B" unicode="&#x45b;" horiz-adv-x="729" 
d="M20 640h97v60h190v-60h180v-90h-180v-98q59 61 148 61q99 0 160.5 -65t61.5 -184v-264h-190v245q0 48 -23.5 76t-63.5 29q-43 1 -68 -31t-25 -82v-237h-190v550h-97v90z" />
    <glyph glyph-name="uni045C" unicode="&#x45c;" horiz-adv-x="686" 
d="M58 500h189v-175h41l147 175h221l-210 -251l209 -249h-222l-145 174h-41v-174h-189v500zM248 575h-120l189 174l77 -77z" />
    <glyph glyph-name="uni045E" unicode="&#x45e;" horiz-adv-x="675" 
d="M24 500h206l143 -276l109 276h201l-233 -578q-29 -71 -88.5 -106.5t-134.5 -35.5q-105 0 -182 61l59 111q40 -32 91 -32q60 0 82 57l10 27zM193 718h82q0 -27 21 -44.5t54 -17.5t54 17.5t21 44.5h82q0 -71 -41 -112.5t-116 -41.5q-74 0 -115.5 41.5t-41.5 112.5z" />
    <glyph glyph-name="uni045F" unicode="&#x45f;" horiz-adv-x="653" 
d="M232 0h-174v500h190v-353h157v353h190v-500h-173v-79h-190v79z" />
    <glyph glyph-name="uni0490" unicode="&#x490;" horiz-adv-x="615" 
d="M68 700h339v116h200l-1 -275h-339v-541h-199v700z" />
    <glyph glyph-name="uni0491" unicode="&#x491;" horiz-adv-x="502" 
d="M58 500h255v84h190l1 -231h-264v-353h-182v500z" />
    <glyph glyph-name="Wgrave" unicode="&#x1e80;" horiz-adv-x="1273" 
d="M280 0l-252 700h205l150 -415l151 415h205l151 -415l150 415h205l-252 -700h-206l-150 417l-151 -417h-206zM649 775l-145 97l77 77l188 -174h-120z" />
    <glyph glyph-name="wgrave" unicode="&#x1e81;" horiz-adv-x="995" 
d="M26 500h200l90 -262l89 262h184l89 -262l90 262h201l-193 -500h-196l-83 218l-84 -218h-196zM510 575l-145 97l76 77l189 -174h-120z" />
    <glyph glyph-name="Wacute" unicode="&#x1e82;" horiz-adv-x="1273" 
d="M280 0l-252 700h205l150 -415l151 415h205l151 -415l150 415h205l-252 -700h-206l-150 417l-151 -417h-206zM624 775h-120l189 174l76 -77z" />
    <glyph glyph-name="wacute" unicode="&#x1e83;" horiz-adv-x="995" 
d="M26 500h200l90 -262l89 262h184l89 -262l90 262h201l-193 -500h-196l-83 218l-84 -218h-196zM485 575h-120l188 174l77 -77z" />
    <glyph glyph-name="Wdieresis" unicode="&#x1e84;" horiz-adv-x="1273" 
d="M28 700h205l150 -415l151 415h205l151 -415l150 415h205l-252 -700h-206l-150 417l-151 -417h-206zM659 840q0 23 18 44t51 21q32 0 50.5 -21t18.5 -44t-18 -44t-51 -21t-51 21t-18 44zM477 840q0 23 18 44t50 21t50.5 -21t18.5 -44t-18 -44t-51 -21t-50.5 21t-17.5 44z
" />
    <glyph glyph-name="wdieresis" unicode="&#x1e85;" horiz-adv-x="995" 
d="M26 500h200l90 -262l89 262h184l89 -262l90 262h201l-193 -500h-196l-83 218l-84 -218h-196zM589 575q-33 0 -51 21t-18 44t18 44t51 21q32 0 50 -21t18 -44t-17.5 -44t-50.5 -21zM406 575q-33 0 -51 21t-18 44t18.5 44t50.5 21t50.5 -21t18.5 -44t-18 -44t-51 -21z" />
    <glyph glyph-name="endash" unicode="&#x2013;" horiz-adv-x="466" 
d="M8 177v146h450v-146h-450z" />
    <glyph glyph-name="emdash" unicode="&#x2014;" horiz-adv-x="816" 
d="M8 177v146h800v-146h-800z" />
    <glyph glyph-name="quoteleft" unicode="&#x2018;" horiz-adv-x="318" 
d="M48 507q0 49 32.5 110t70.5 96l88 -42q-19 -28 -33 -68q29 -13 46.5 -39t17.5 -57q0 -43 -32.5 -74.5t-78.5 -31.5q-45 0 -78 30t-33 76z" />
    <glyph glyph-name="quoteright" unicode="&#x2019;" horiz-adv-x="318" 
d="M48 607q0 43 32.5 74.5t78.5 31.5t78 -30.5t33 -75.5q1 -49 -32 -109.5t-71 -96.5l-88 42q19 28 33 68q-29 13 -46.5 39t-17.5 57z" />
    <glyph glyph-name="quotesinglbase" unicode="&#x201a;" horiz-adv-x="318" 
d="M48 97q0 43 32.5 74t78.5 32q45 1 77.5 -30t33.5 -76q1 -49 -31.5 -109.5t-71.5 -97.5l-88 43q19 27 33 68q-29 12 -46.5 38t-17.5 58z" />
    <glyph glyph-name="quotedblleft" unicode="&#x201c;" horiz-adv-x="592" 
d="M48 507q-1 48 32 109t71 97l88 -42q-19 -28 -33 -68q29 -13 46.5 -39t17.5 -57q0 -44 -32.5 -75t-78.5 -31q-45 0 -78 30t-33 76zM322 507q-1 48 31.5 109t70.5 97l89 -42q-20 -27 -34 -68q29 -13 47 -39t18 -57q0 -43 -32.5 -74.5t-78.5 -31.5t-78.5 30t-32.5 76z" />
    <glyph glyph-name="quotedblright" unicode="&#x201d;" horiz-adv-x="592" 
d="M48 607q0 44 32.5 75t78.5 31t78 -30.5t33 -75.5q1 -49 -32 -109.5t-71 -96.5l-88 42q19 28 33 68q-29 13 -46.5 39t-17.5 57zM322 607q0 44 32 75t79 31q45 0 77.5 -30.5t33.5 -75.5q1 -49 -32 -109t-71 -97l-88 42q19 28 33 68q-29 13 -46.5 39t-17.5 57z" />
    <glyph glyph-name="quotedblbase" unicode="&#x201e;" horiz-adv-x="592" 
d="M48 97q0 43 32.5 74t78.5 32q45 1 77.5 -30t33.5 -76q1 -49 -31.5 -109.5t-71.5 -97.5l-88 43q19 27 33 68q-29 12 -46.5 38t-17.5 58zM322 97q0 43 32.5 74t78.5 32q45 1 77.5 -30t33.5 -76q1 -49 -32 -109t-71 -98l-88 43q19 27 33 68q-29 12 -46.5 38t-17.5 58z" />
    <glyph glyph-name="dagger" unicode="&#x2020;" horiz-adv-x="527" 
d="M164 363h-136v159h136v178h199v-178h136v-159h-136v-563h-199v563z" />
    <glyph glyph-name="daggerdbl" unicode="&#x2021;" horiz-adv-x="527" 
d="M28 117h136v246h-136v159h136v178h199v-178h136v-159h-136v-246h136v-159h-136v-158h-199v158h-136v159z" />
    <glyph glyph-name="bullet" unicode="&#x2022;" horiz-adv-x="366" 
d="M68 307q0 45 33.5 77t81.5 32q46 0 80.5 -32.5t34.5 -76.5t-34.5 -77.5t-80.5 -33.5q-48 0 -81.5 32.5t-33.5 78.5z" />
    <glyph glyph-name="ellipsis" unicode="&#x2026;" horiz-adv-x="953" 
d="M683 97q0 43 32.5 74.5t78.5 31.5q45 0 78 -32t33 -74q0 -43 -33.5 -75t-77.5 -32q-46 0 -78.5 31.5t-32.5 75.5zM48 97q0 43 32.5 74.5t78.5 31.5q45 0 78 -32t33 -74q0 -43 -33.5 -75t-77.5 -32q-46 0 -78.5 31.5t-32.5 75.5zM366 97q0 43 32 74.5t79 31.5q44 0 77 -32
t33 -74q0 -43 -33.5 -75t-77.5 -32q-46 0 -78 31.5t-32 75.5z" />
    <glyph glyph-name="perthousand" unicode="&#x2030;" horiz-adv-x="1353" 
d="M530 192q0 94 46.5 148.5t138.5 54.5q93 0 140 -54t46 -149q-1 -93 -47.5 -146.5t-138.5 -54.5q-94 -1 -139.5 52.5t-45.5 148.5zM954 192q0 94 46.5 148.5t138.5 54.5q93 0 139.5 -54t46.5 -149q0 -93 -47 -146.5t-139 -54.5q-94 -1 -139.5 52.5t-45.5 148.5zM28 505
q0 94 46.5 148t139.5 54t139.5 -54t45.5 -148t-47.5 -148.5t-137.5 -53.5q-94 1 -140 54t-46 148zM181 0l453 700h116l-453 -700h-116zM1076 192q0 -20 2.5 -36.5t8.5 -34.5t19.5 -28t32.5 -10q66 1 64 109q-2 110 -64 110q-65 0 -63 -110zM150 505q0 -20 2.5 -37t8.5 -35
t20 -28t33 -10q63 1 63 110q0 110 -63 110q-64 0 -64 -110zM652 192q0 -109 63 -109q64 0 64 109q0 110 -64 110q-63 0 -63 -110z" />
    <glyph glyph-name="guilsinglleft" unicode="&#x2039;" horiz-adv-x="320" 
d="M141 54l-113 196l113 196h141l-112 -196l112 -196h-141z" />
    <glyph glyph-name="guilsinglright" unicode="&#x203a;" horiz-adv-x="320" 
d="M179 446l113 -196l-113 -196h-141l112 196l-112 196h141z" />
    <glyph glyph-name="fraction" unicode="&#x2044;" horiz-adv-x="289" 
d="M-11 0h-116l453 700h116z" />
    <glyph glyph-name="uni2070" unicode="&#x2070;" horiz-adv-x="446" 
d="M19 638q0 102 51 160.5t153 58.5q103 0 153.5 -58.5t50.5 -160.5q0 -101 -51 -159.5t-153 -58.5q-204 0 -204 218zM149 638q0 -50 16.5 -85.5t57.5 -34.5q73 1 73 120q0 120 -73 120q-74 0 -74 -120z" />
    <glyph glyph-name="uni2074" unicode="&#x2074;" horiz-adv-x="444" 
d="M236 511h-232v72l258 267h104v-240h74v-99h-74v-85h-130v85zM169 610h67v75z" />
    <glyph glyph-name="uni2075" unicode="&#x2075;" horiz-adv-x="451" 
d="M33 471l57 82q46 -33 107 -33q93 3 93 56q0 28 -31 42t-63 14q-48 0 -86 -27l-67 47l22 198h318v-94h-206l-3 -36q16 2 50 2q75 0 135.5 -38t60.5 -109q0 -54 -36 -91.5t-83.5 -51.5t-101.5 -14q-101 0 -166 53z" />
    <glyph glyph-name="uni2076" unicode="&#x2076;" horiz-adv-x="445" 
d="M229 414q-60 0 -103.5 21t-65.5 55.5t-32 69.5t-10 71q0 39 12 75.5t38 71.5t74.5 56t113.5 21q98 0 161 -49l-56 -73q-47 31 -99 31q-81 0 -102 -73q33 29 92 29q72 0 125.5 -39t53.5 -108q0 -68 -56.5 -113.5t-145.5 -45.5zM241 623q-30 0 -52 -16.5t-22 -39.5
q0 -22 19.5 -35.5t47.5 -13.5q30 0 51 14.5t21 39.5t-19 38t-46 13z" />
    <glyph glyph-name="uni2077" unicode="&#x2077;" horiz-adv-x="446" 
d="M423 781l-244 -355h-149l224 325h-232v99h401v-69z" />
    <glyph glyph-name="uni2078" unicode="&#x2078;" horiz-adv-x="445" 
d="M20 551q0 59 57 95q-43 35 -43 81q0 60 59 94t132 34q72 0 129 -35t57 -93q0 -47 -42 -81q57 -37 57 -95q0 -64 -61 -100t-142 -36t-142 36t-61 100zM151 553q0 -38 72 -38q73 0 73 38q0 16 -20 27t-53 11q-34 0 -53 -10.5t-19 -27.5zM223 691q26 0 41 9.5t16 23.5
q1 12 -14.5 21t-42.5 9q-58 0 -58 -28q0 -14 15.5 -24.5t42.5 -10.5z" />
    <glyph glyph-name="uni2079" unicode="&#x2079;" horiz-adv-x="445" 
d="M14 696q0 68 57 113.5t145 45.5q60 0 103.5 -21t65.5 -55.5t32 -69.5t10 -71q0 -39 -12 -75.5t-37.5 -71.5t-74 -56t-113.5 -21q-98 0 -162 49l57 73q45 -31 98 -31q81 0 102 72q-31 -28 -91 -28q-72 -1 -126 38t-54 109zM139 697q0 -25 19.5 -38t46.5 -13q30 0 52 16
t22 40q0 22 -20 35t-48 13q-30 0 -51 -14t-21 -39z" />
    <glyph glyph-name="franc" unicode="&#x20a3;" horiz-adv-x="713" 
d="M23 166h92v534h563v-157h-364v-145h314v-157h-314v-75h117v-91h-117v-75h-199v75h-92v91z" />
    <glyph glyph-name="lira" unicode="&#x20a4;" horiz-adv-x="589" 
d="M28 419h81q-4 34 -4 51q0 238 247 238q20 0 39.5 -2t36 -5.5t32.5 -8t29 -9.5t24.5 -10t19.5 -9.5t14 -8t9 -5.5l4 -2l-77 -118q-52 34 -111 34h-2q-40 0 -60 -24.5t-19 -67.5q0 -23 5 -53h164v-64h-151q6 -26 8 -39q10 -2 52 -4.5t48 -3.5l43 -52l-93 -11q-1 0 -18.5 -2
t-21.5 -3q2 -51 -19 -91h225v-149h-505v149h60q32 5 44 30.5t10 54.5q-2 1 -13 5t-13 6l-88 11l24 52q5 1 38 3.5t40 4.5q-2 13 -8 39h-94v64z" />
    <glyph glyph-name="dong" unicode="&#x20ab;" horiz-adv-x="678" 
d="M36 247q0 111 71.5 187t169.5 76q92 0 153 -56v94h-155v91h155v61h190v-61h44v-91h-44v-548h-190v49q-61 -59 -148 -59q-99 0 -172.5 73.5t-73.5 183.5zM37 -60h583v-91h-583v91zM219 248q0 -46 29.5 -79t76.5 -33q46 0 75 33t29 79q0 47 -29.5 80.5t-75.5 32.5
q-46 0 -75.5 -33.5t-29.5 -79.5z" />
    <glyph glyph-name="Euro" unicode="&#x20ac;" horiz-adv-x="639" 
d="M8 240v86h47q0 4 -0.5 12t-0.5 13q0 15 1 23h-47v85h60q31 112 117 182t206 70q122 0 220 -72l-82 -118q-62 45 -138 45q-47 0 -84.5 -28t-57.5 -79h261v-85h-279v-48h278l1 -86h-261q19 -50 56.5 -77t85.5 -27q83 0 135 47l85 -107q-104 -85 -220 -85q-122 0 -208 67.5
t-115 181.5h-60z" />
    <glyph glyph-name="uni2113" unicode="&#x2113;" horiz-adv-x="406" 
d="M52 100l-54 65l78 63v290q0 81 44 132.5t117 51.5q75 0 107 -44t32 -100q0 -201 -196 -368l-1 -48q0 -36 14.5 -50t50.5 -14q21 0 45.5 11.5t39.5 26.5l49 -69q-78 -53 -140 -53q-75 0 -117 31.5t-42 83.5v12zM278 556q0 24 -9 47t-28 23q-30 0 -44.5 -31t-14.5 -74
l-1 -205q97 103 97 240z" />
    <glyph glyph-name="uni2116" unicode="&#x2116;" horiz-adv-x="1238" 
d="M68 700h201l276 -383v383h199v-700h-202l-275 381v-381h-199v700zM1008 324q-80 0 -136.5 56.5t-56.5 135.5q0 80 56.5 136.5t136.5 56.5t136 -56.5t56 -136.5t-56 -136t-136 -56zM837 137v105h350v-105h-350zM927 516q0 -36 23.5 -61.5t57.5 -25.5q33 0 56.5 25.5
t24.5 61.5q0 36 -24 61.5t-57 25.5q-34 0 -57.5 -25.5t-23.5 -61.5z" />
    <glyph glyph-name="trademark" unicode="&#x2122;" horiz-adv-x="753" 
d="M363 373v327h83l83 -127l84 127h82v-327h-103v145l-63 -92l-62 92v-145h-104zM114 615h-86v85h277v-85h-87v-242h-104v242z" />
    <glyph glyph-name="estimated" unicode="&#x212e;" horiz-adv-x="782" 
d="M36 349q0 149 103.5 255t251.5 106t251.5 -106t103.5 -255v-33h-533v-191q28 -32 78 -53t101 -21q176 0 252 138l65 -38q-54 -78 -128.5 -119.5t-189.5 -41.5q-97 1 -178.5 49.5t-129 131t-47.5 178.5zM213 579v-205h360v203q-69 72 -181 72t-179 -70z" />
    <glyph glyph-name="twothirds" unicode="&#x2154;" horiz-adv-x="1125" 
d="M689 66l67 75q25 -23 63 -34.5t72 -11.5q33 0 51.5 10.5t18.5 26.5q-1 43 -127 43h-37v86l34 -1h7q33 0 62.5 11t29.5 36q0 28 -47 28q-68 0 -130 -50l-63 71q69 74 202 74q78 0 123.5 -28t45.5 -75q0 -39 -21 -62.5t-51 -31.5q36 -4 68 -32t32 -75q0 -38 -20.5 -65.5
t-53.5 -41.5t-67 -20.5t-69 -6.5q-128 0 -190 74zM115 544l-79 67q62 98 202 98q79 0 131 -31.5t52 -96.5q0 -36 -24 -73t-49 -59t-67 -54l-25 -19h170v-100h-383v83l94 66q98 69 126 105q18 24 18 42q0 35 -52 35q-71 0 -114 -63zM411 0h-115l453 700h115z" />
    <glyph glyph-name="oneeighth" unicode="&#x215b;" horiz-adv-x="1085" 
d="M700 219q-42 36 -42 82q0 59 58.5 93t131.5 35q72 1 129.5 -34.5t57.5 -93.5q0 -47 -43 -82q57 -36 57 -94q0 -65 -61 -100.5t-142 -36.5q-80 0 -141 36t-62 101q-2 57 57 94zM38 600l151 100h108v-325h106v-99h-364v99h127v179l-58 -39zM272 0l453 700h115l-453 -700
h-115zM774 127q0 -38 72 -38q73 0 73 38q0 16 -20 26.5t-53 10.5q-34 0 -53 -10.5t-19 -26.5zM846 265q26 0 41 9.5t16 23.5q1 11 -14.5 20.5t-42.5 9.5q-28 0 -43 -8.5t-15 -19.5q0 -14 16 -24.5t42 -10.5z" />
    <glyph glyph-name="threeeighths" unicode="&#x215c;" horiz-adv-x="1067" 
d="M682 219q-43 36 -43 82q0 59 58.5 93t132.5 35q72 1 129.5 -34.5t56.5 -93.5q0 -48 -42 -82q57 -36 57 -94q0 -65 -61 -100.5t-142 -36.5q-80 0 -141.5 36.5t-61.5 100.5q0 59 57 94zM36 342l68 75q24 -23 62 -34.5t72 -11.5q33 0 51.5 11t18.5 27q0 42 -127 42h-36
l-1 87l34 -1q14 0 29 1.5t32 6t27.5 14.5t10.5 24q0 29 -47 29q-68 0 -129 -51l-64 72q69 74 202 74q78 0 123.5 -28t45.5 -75q0 -40 -21 -63.5t-51 -30.5q36 -4 68 -32.5t32 -74.5q0 -62 -55 -98.5t-148 -36.5q-133 0 -197 74zM253 0l453 700h115l-453 -700h-115zM828 89
q73 0 73 38q0 16 -20 26.5t-53 10.5q-34 0 -53 -10.5t-19 -26.5q0 -38 72 -38zM770 300q0 -14 15.5 -24.5t42.5 -10.5q26 0 41.5 9.5t15.5 23.5q0 12 -15 21t-42 9q-28 0 -43 -8.5t-15 -19.5z" />
    <glyph glyph-name="fiveeighths" unicode="&#x215d;" horiz-adv-x="1051" 
d="M609 125q0 58 57 94q-42 35 -42 82q0 59 58.5 93t131.5 35q72 1 129 -34t58 -94q0 -47 -43 -82q57 -36 57 -94q0 -65 -61.5 -100.5t-141.5 -36.5q-79 0 -141 36t-62 101zM36 321l58 82q45 -33 114 -33q39 0 62 15t23 42q0 25 -28 40t-66 15q-47 0 -86 -27l-67 47l22 198
h318v-94h-207l-3 -36q12 2 36 2q92 0 151.5 -40t59.5 -107q0 -70 -60.5 -113.5t-159.5 -43.5q-102 0 -167 53zM350 0h-115l453 700h115zM812 89q73 0 73 38q0 16 -20 26.5t-53 10.5t-52.5 -10t-19.5 -27q0 -38 72 -38zM754 300q0 -15 16.5 -25t41.5 -10t41 9.5t16 23.5
q0 16 -18.5 23t-38.5 7q-27 0 -42.5 -8t-15.5 -20z" />
    <glyph glyph-name="seveneighths" unicode="&#x215e;" horiz-adv-x="949" 
d="M507 125q0 59 57 94q-44 38 -43 82q1 43 35 73.5t75.5 42.5t83.5 12q70 0 124.5 -35t58.5 -93q3 -46 -42 -82q57 -36 57 -94q0 -65 -61 -100.5t-142 -36.5q-81 0 -142.5 36.5t-60.5 100.5zM36 700h401v-69l-245 -355h-149l225 325h-232v99zM132 0l453 700h116l-453 -700
h-116zM638 127q0 -38 72 -38q73 0 73 38q0 20 -24 28.5t-49 8.5q-34 0 -53 -10.5t-19 -26.5zM710 265q26 -1 41.5 9t15.5 24q0 12 -15 21t-42 9q-58 0 -58 -31q0 -13 15.5 -22.5t42.5 -9.5z" />
    <glyph glyph-name="arrowleft" unicode="&#x2190;" horiz-adv-x="636" 
d="M68 266l162 187h120l-110 -136h328v-101h-328l110 -135h-120z" />
    <glyph glyph-name="arrowup" unicode="&#x2191;" horiz-adv-x="509" 
d="M253 500l188 -162v-120l-136 110v-328h-102v328l-135 -110v120z" />
    <glyph glyph-name="arrowright" unicode="&#x2192;" horiz-adv-x="636" 
d="M286 453h120l162 -187l-162 -185h-120l110 135h-328v101h328z" />
    <glyph glyph-name="arrowdown" unicode="&#x2193;" horiz-adv-x="509" 
d="M255 0l-187 162v120l136 -110v328h102v-328l135 110v-120z" />
    <glyph glyph-name="arrowboth" unicode="&#x2194;" horiz-adv-x="792" 
d="M230 64l-162 185l162 187h120l-110 -136h313l-110 136h119l162 -187l-162 -185h-120l110 135h-312l110 -135h-120z" />
    <glyph glyph-name="arrowupdn" unicode="&#x2195;" horiz-adv-x="509" 
d="M68 516l185 162l188 -162v-119l-136 110v-313l136 110v-120l-188 -162l-185 162v120l135 -110v312l-135 -110v120z" />
    <glyph glyph-name="uni2196" unicode="&#x2196;" horiz-adv-x="542" 
d="M85 435l246 18l85 -85l-174 -19l232 -231l-71 -72l-232 232l-18 -174l-85 85z" />
    <glyph glyph-name="uni2197" unicode="&#x2197;" horiz-adv-x="543" 
d="M457 436l18 -247l-85 -84l-18 173l-232 -232l-72 72l232 232l-173 18l84 85z" />
    <glyph glyph-name="uni2198" unicode="&#x2198;" horiz-adv-x="542" 
d="M457 64l-246 -18l-85 85l174 18l-232 232l72 72l232 -232l18 173l84 -84z" />
    <glyph glyph-name="uni2199" unicode="&#x2199;" horiz-adv-x="543" 
d="M86 52l-18 247l85 84l18 -174l232 232l72 -71l-232 -232l173 -18l-84 -85z" />
    <glyph glyph-name="arrowdblleft" unicode="&#x21d0;" horiz-adv-x="676" 
d="M68 250l162 187h133l-47 -59h292v-92h-356l-29 -36l28 -34h357v-92h-293l49 -59h-134z" />
    <glyph glyph-name="arrowdblup" unicode="&#x21d1;" horiz-adv-x="509" 
d="M68 244v134l185 162l188 -162v-133l-59 47v-292h-93v356l-35 29l-35 -28v-357h-92v293z" />
    <glyph glyph-name="arrowdblright" unicode="&#x21d2;" horiz-adv-x="676" 
d="M68 216h357l28 34l-29 36h-356v92h292l-47 59h133l162 -187l-162 -185h-134l49 59h-293v92z" />
    <glyph glyph-name="arrowdbldown" unicode="&#x21d3;" horiz-adv-x="509" 
d="M68 277l59 -48v292h92v-355l36 -29l34 27v357h92v-292l60 48v-134l-186 -162l-187 162v134z" />
    <glyph glyph-name="arrowdblboth" unicode="&#x21d4;" horiz-adv-x="838" 
d="M68 269l162 187h133l-47 -59h207l-48 59h134l161 -187l-161 -185h-134l48 59h-208l49 -59h-134zM252 305l-29 -36l28 -34h336l28 34l-29 36h-334z" />
    <glyph glyph-name="partialdiff" unicode="&#x2202;" horiz-adv-x="613" 
d="M18 215q1 116 77.5 187.5t193.5 71.5q68 0 103 -40q-18 127 -112 127q-32 0 -67.5 -7.5t-54 -14t-25.5 -10.5l-60 127q8 6 39.5 18t86.5 24t106 12q92 0 156 -46t91.5 -116t27.5 -158q0 -76 -18.5 -145.5t-55 -128t-99 -93t-143.5 -34.5q-101 0 -173 62.5t-73 163.5z
M270 146q35 0 60.5 28.5t25.5 70.5q0 35 -15 59.5t-48 25.5q-40 1 -62.5 -33.5t-22.5 -77.5q0 -33 17.5 -52.5t44.5 -20.5z" />
    <glyph glyph-name="product" unicode="&#x220f;" horiz-adv-x="749" 
d="M267 -201h-199v1004h613v-1004h-199v845h-215v-845z" />
    <glyph glyph-name="summation" unicode="&#x2211;" horiz-adv-x="633" 
d="M48 700h568v-157h-329l182 -294l-181 -292h317v-157h-557v133l196 316l-196 317v134z" />
    <glyph glyph-name="minus" unicode="&#x2212;" horiz-adv-x="486" 
d="M58 233v148h370v-148h-370z" />
    <glyph glyph-name="uni2215" unicode="&#x2215;" horiz-adv-x="451" 
d="M508 790l-416 -875h-149l417 876z" />
    <glyph glyph-name="uni2219" unicode="&#x2219;" horiz-adv-x="358" 
d="M68 351q0 44 32.5 75t78.5 31q45 0 78 -32t33 -74q0 -43 -33.5 -75t-77.5 -32q-46 0 -78.5 31.5t-32.5 75.5z" />
    <glyph glyph-name="radical" unicode="&#x221a;" horiz-adv-x="639" 
d="M398 -200h-141l-259 517h216l96 -218l260 704h276v-168h-130z" />
    <glyph glyph-name="infinity" unicode="&#x221e;" horiz-adv-x="842" 
d="M38 350q0 78 57.5 130t144.5 52q108 0 182 -81q72 81 181 81q86 0 143.5 -52t57.5 -129t-58 -130t-143 -53q-109 0 -181 81q-74 -81 -183 -81q-87 0 -144 52t-57 130zM600 423q-58 0 -107 -73q24 -35 48 -54t59 -19q31 0 51 21t21 53q1 31 -19.5 51.5t-52.5 20.5z
M170 350q0 -31 21 -51.5t52 -21.5q35 0 59 19t48 54q-48 72 -107 73q-31 -1 -52 -21.5t-21 -51.5z" />
    <glyph glyph-name="integral" unicode="&#x222b;" horiz-adv-x="361" 
d="M-72 -171l53 127q33 -11 52 -11q43 0 43 46v626q0 87 54 135.5t143 48.5q90 0 160 -39l-49 -112q-49 11 -61 11q-48 0 -48 -48v-629q0 -87 -54.5 -135.5t-143.5 -48.5q-79 0 -149 29z" />
    <glyph glyph-name="approxequal" unicode="&#x2248;" horiz-adv-x="669" 
d="M240 333q65 0 137 -55q50 -39 77 -39q55 0 68 83h104q-13 -81 -54.5 -132.5t-117.5 -51.5q-68 0 -140 55q-47 38 -74 38q-26 0 -44.5 -14t-25.5 -28t-14 -35h-113q26 83 71.5 131t125.5 48zM240 543q65 0 137 -55q50 -39 77 -39q55 0 68 83h104q-13 -81 -54.5 -132.5
t-117.5 -51.5q-68 0 -140 55q-1 1 -10.5 8.5t-12.5 9.5t-11.5 7.5t-13.5 7.5t-12.5 4t-13.5 2q-26 0 -44.5 -14.5t-25.5 -28.5t-14 -35h-113q25 84 71 131.5t126 47.5z" />
    <glyph glyph-name="notequal" unicode="&#x2260;" horiz-adv-x="516" 
d="M58 521h240l31 65h83l-31 -65h77v-132h-140l-37 -77h177v-131h-240l-31 -67h-84l32 67h-77v131h140l37 77h-177v132z" />
    <glyph glyph-name="lessequal" unicode="&#x2264;" horiz-adv-x="591" 
d="M48 330v121l485 194v-135l-315 -120l315 -120v-134zM49 0v102h484v-102h-484z" />
    <glyph glyph-name="greaterequal" unicode="&#x2265;" horiz-adv-x="591" 
d="M58 270l314 120l-314 120v135l485 -194v-121l-485 -194v134zM542 0h-484v102h484v-102z" />
    <glyph glyph-name="lozenge" unicode="&#x25ca;" horiz-adv-x="692" 
d="M410 0h-129l-233 352l234 348h129l233 -348zM346 172l121 179l-120 178l-121 -179z" />
    <glyph glyph-name="zero.dnom" horiz-adv-x="446" 
d="M19 212q0 102 51 160.5t153 58.5q103 0 153.5 -58.5t50.5 -160.5q0 -101 -51 -159.5t-153 -58.5q-204 0 -204 218zM149 212q0 -50 16.5 -85.5t57.5 -34.5q73 1 73 120q0 120 -73 120q-74 0 -74 -120z" />
    <glyph glyph-name="zero.numr" horiz-adv-x="446" 
d="M19 488q0 102 51 160.5t153 58.5q103 0 153.5 -58.5t50.5 -160.5q0 -101 -51 -159.5t-153 -58.5q-204 0 -204 218zM149 488q0 -120 74 -120q73 1 73 120q0 120 -73 120q-74 0 -74 -120z" />
    <glyph glyph-name="zero.onum" horiz-adv-x="649" 
d="M325 -8q-77 0 -134.5 24.5t-89.5 67.5t-47.5 94t-15.5 111q0 61 15 113t47.5 95.5t90 68t134.5 24.5t134.5 -25t89.5 -69t47 -95t15 -111q0 -61 -15 -112t-47 -94t-89.5 -67.5t-134.5 -24.5zM237 289q0 -67 19.5 -101.5t68.5 -34.5q47 0 66.5 33.5t20.5 102.5
q1 70 -19 105t-68 35t-68 -34.5t-20 -105.5z" />
    <glyph glyph-name="zero.subs" horiz-adv-x="446" 
d="M19 62q0 102 51 160.5t153 58.5q103 0 153.5 -58.5t50.5 -160.5q0 -101 -51 -159.5t-153 -58.5q-204 0 -204 218zM149 62q0 -50 16.5 -85.5t57.5 -34.5q73 1 73 120q0 120 -73 120q-74 0 -74 -120z" />
    <glyph glyph-name="zero.tab" 
d="M350 -11q-72 0 -126.5 20.5t-87 53.5t-52.5 81t-27.5 97t-7.5 108q0 74 15.5 136t49 114t94 82t142.5 30q84 0 145 -30.5t93.5 -83.5t47 -114t14.5 -133q0 -58 -9 -108.5t-30.5 -98t-55 -81t-86 -53.5t-119.5 -20zM350 549q-102 0 -102 -200q0 -198 102 -198
q101 0 101 198q0 200 -101 200z" />
    <glyph glyph-name="one.dnom" horiz-adv-x="450" 
d="M56 323l151 101h107v-325h107v-99h-364v99h127v178l-58 -39z" />
    <glyph glyph-name="one.numr" horiz-adv-x="450" 
d="M56 600l151 100h107v-325h107v-99h-364v99h127v179l-58 -39z" />
    <glyph glyph-name="one.onum" horiz-adv-x="480" 
d="M2 434l249 146h151v-580h-199v355l-110 -66z" />
    <glyph glyph-name="one.subs" horiz-adv-x="450" 
d="M56 173l151 101h107v-325h107v-99h-364v99h127v179l-58 -40z" />
    <glyph glyph-name="one.tab" 
d="M54 552l255 148l157 1v-554h177v-147h-578v147h203v348l-126 -74z" />
    <glyph glyph-name="two.dnom" horiz-adv-x="436" 
d="M103 268l-78 68q64 97 204 97q79 0 129.5 -31.5t50.5 -97.5q0 -86 -131 -179l-34 -25h170v-100h-382v82l93 67q3 2 21 14.5t27 19.5t26.5 20.5t27.5 23.5t21 22.5t16.5 24t5.5 21.5q0 36 -51 36q-71 0 -116 -63z" />
    <glyph glyph-name="two.numr" horiz-adv-x="436" 
d="M103 544l-78 68q63 97 204 97q79 0 129.5 -31.5t50.5 -96.5q0 -84 -131 -180l-34 -25h170v-100h-382v83l93 66q6 4 31 22.5t40 30.5t34.5 30t29.5 34t10 30q0 35 -51 35q-71 0 -116 -63z" />
    <glyph glyph-name="two.onum" horiz-adv-x="566" 
d="M28 463q107 126 268 126q53 0 104 -15.5t90 -54.5t39 -94q0 -123 -162 -249l-32 -25h203v-151h-483v114l125 94q2 1 32.5 23t44.5 34t37.5 33.5t34 40.5t10.5 36q0 50 -61 50q-37 0 -77 -23.5t-64 -55.5z" />
    <glyph glyph-name="two.subs" horiz-adv-x="436" 
d="M103 118l-78 68q64 97 204 97q79 0 129.5 -31.5t50.5 -96.5q0 -86 -132 -181l-33 -24h170v-100h-382v82l93 67q1 1 21 15t27.5 19.5t26 20t27.5 24t21 22.5t17 24.5t5 21.5q0 35 -51 35q-71 0 -116 -63z" />
    <glyph glyph-name="two.tab" 
d="M149 457l-110 120q66 66 139 100.5t189 34.5q127 0 209 -52.5t82 -155.5q0 -34 -17.5 -71t-40 -66.5t-59 -64t-60.5 -54t-58 -45.5l-74 -56h302v-147h-596v120l185 135q143 103 193 163q38 45 38 76q1 34 -24.5 50.5t-79.5 17.5q-122 1 -218 -105z" />
    <glyph glyph-name="three.dnom" horiz-adv-x="443" 
d="M19 66l67 75q25 -23 63 -34.5t71 -11.5t51.5 10.5t18.5 26.5q0 43 -127 43h-36v86l33 -1h7q34 0 63.5 11t29.5 36q0 28 -48 28q-67 0 -129 -50l-64 71q69 74 203 74q78 0 123.5 -28t45.5 -75q0 -39 -21 -62.5t-52 -31.5q37 -4 68.5 -32t32.5 -75q0 -62 -55.5 -98.5
t-147.5 -35.5q-75 0 -124 22.5t-73 51.5z" />
    <glyph glyph-name="three.numr" horiz-adv-x="443" 
d="M19 342l67 75q25 -23 63 -34.5t71 -11.5t51.5 11t18.5 27q0 42 -127 42h-36v87l33 -1q36 0 68 10t32 36q0 29 -48 29q-68 0 -129 -51l-64 72q69 74 203 74q78 0 123.5 -28t45.5 -75q0 -40 -21.5 -63.5t-51.5 -30.5q37 -4 68.5 -32.5t32.5 -74.5q0 -62 -55 -98.5
t-148 -36.5q-135 0 -197 74z" />
    <glyph glyph-name="three.onum" horiz-adv-x="626" 
d="M28 -27l96 129q63 -74 184 -73q44 0 72.5 19t28.5 53q0 37 -37 56t-93 19h-81l1 139l76 -1q37 0 64.5 19t27.5 52q0 22 -19.5 36t-47.5 14q-41 0 -79.5 -17t-55.5 -32t-20 -20l-111 108q98 120 282 120q102 0 176 -47.5t74 -136.5q0 -43 -27.5 -85.5t-69.5 -59.5
q57 -12 98 -61t41 -114q0 -92 -78 -156.5t-214 -64.5q-40 0 -76 4.5t-63.5 13.5t-49 17.5t-40 21t-27.5 19.5t-20 17z" />
    <glyph glyph-name="three.subs" horiz-adv-x="443" 
d="M18 -84l68 75q25 -23 63 -34.5t71 -11.5t51.5 10.5t18.5 26.5q0 43 -127 43h-36v86h33q100 0 100 46q0 27 -48 29q-68 0 -129 -51l-64 71q69 75 203 75q78 -1 123.5 -29t45.5 -75q0 -39 -21 -62.5t-52 -31.5q37 -3 68.5 -31.5t32.5 -74.5q0 -62 -55 -98.5t-148 -36.5
q-136 0 -198 74z" />
    <glyph glyph-name="three.tab" 
d="M28 92l105 129q66 -73 200 -73q133 0 133 70q0 77 -164 77h-88v139h83q42 0 78 18.5t36 51.5q0 22 -23 36t-63 14q-50 0 -97 -18t-68 -34t-24 -21l-101 112q106 120 307 120q70 0 130 -19t101 -62t41 -103q0 -43 -30 -85.5t-75 -59.5q63 -13 107 -62.5t44 -114.5
q0 -91 -85 -155t-233 -64q-44 0 -83 4.5t-69 13.5t-53.5 17.5t-43.5 21t-30 19.5t-23 18z" />
    <glyph glyph-name="four.dnom" horiz-adv-x="437" 
d="M228 85h-224v72l251 267h104v-241h74v-98h-74v-85h-131v85zM161 183h68v76z" />
    <glyph glyph-name="four.numr" horiz-adv-x="444" 
d="M236 361h-232v72l258 267h104v-240h74v-99h-74v-85h-130v85zM169 460h67v75z" />
    <glyph glyph-name="four.onum" horiz-adv-x="654" 
d="M25 130l301 450h208l-269 -413h142l-1 166h185l1 -166h56v-156h-56v-131h-185v131h-382v119z" />
    <glyph glyph-name="four.subs" horiz-adv-x="444" 
d="M236 -65h-232v72l258 267h104v-240h74v-99h-74v-85h-130v85zM169 34h67v75z" />
    <glyph glyph-name="four.tab" 
d="M39 252l375 448h178v-412h64v-159h-64v-129h-199v129h-354v123zM277 288h116v143z" />
    <glyph glyph-name="five.dnom" horiz-adv-x="451" 
d="M33 45l57 82q45 -33 114 -33q39 0 62.5 15t23.5 41q0 25 -28.5 40.5t-65.5 15.5q-47 0 -86 -27l-67 47l22 198h318v-94h-216l-3 -37q18 3 44 3q93 0 152.5 -40t59.5 -107q0 -70 -61 -113.5t-160 -43.5q-103 0 -166 53z" />
    <glyph glyph-name="five.numr" horiz-adv-x="451" 
d="M33 321l57 82q45 -33 114 -33q39 0 62.5 15t23.5 42q0 25 -28 40t-66 15q-47 0 -86 -27l-67 47l22 198h318v-94h-216l-3 -36q12 2 44 2q93 0 152.5 -40t59.5 -107q0 -70 -61 -113.5t-160 -43.5q-103 0 -166 53z" />
    <glyph glyph-name="five.onum" horiz-adv-x="612" 
d="M297 -133q-67 0 -139 16t-115 44l58 147q74 -46 174 -46q49 0 84.5 26t35.5 73q0 44 -35 68t-81 24q-76 0 -131 -43l-92 44l42 359h452v-155h-299l-7 -70q19 4 62 4q117 0 202.5 -59.5t85.5 -171.5q0 -119 -87.5 -189.5t-209.5 -70.5z" />
    <glyph glyph-name="five.subs" horiz-adv-x="451" 
d="M33 -105l57 82q45 -33 114 -33q39 0 62.5 15t23.5 41t-28 41t-66 15q-47 0 -86 -27l-67 47l22 198h318v-94h-216l-3 -36q12 2 44 2q93 0 152.5 -40t59.5 -107q0 -70 -61 -113.5t-160 -43.5q-103 0 -166 53z" />
    <glyph glyph-name="five.tab" 
d="M326 -12q-72 0 -150 16t-126 44l63 147q83 -47 190 -47q52 1 93.5 26t41.5 74q0 45 -40 68.5t-88 23.5q-87 0 -147 -43l-100 44l45 359h504v-155h-341l-8 -72q25 7 76 7q56 0 109 -13t99 -39.5t74 -73t28 -106.5q0 -83 -49.5 -144t-121 -88.5t-152.5 -27.5z" />
    <glyph glyph-name="six.dnom" horiz-adv-x="445" 
d="M18 204q0 30 6.5 59.5t24 60t43.5 53.5t68.5 37.5t95.5 14.5q97 0 161 -49l-56 -73q-49 31 -99 31q-75 0 -102 -73q41 29 92 29q72 0 126 -38.5t54 -108.5q0 -67 -56.5 -113.5t-146.5 -46.5q-60 0 -104 21.5t-66 56t-31.5 69t-9.5 70.5zM241 197q-31 0 -52.5 -17
t-21.5 -40q0 -21 19 -34.5t48 -13.5q30 0 51 14.5t21 38.5q0 23 -18.5 37.5t-46.5 14.5z" />
    <glyph glyph-name="six.numr" horiz-adv-x="445" 
d="M18 481q0 38 12 74.5t37 71.5t74 56.5t115 21.5q97 0 161 -49l-56 -73q-49 31 -99 31q-76 0 -102 -73q41 29 92 29q72 0 126 -39t54 -108q0 -67 -56.5 -113t-146.5 -46q-60 0 -104 21.5t-66 56t-31.5 69t-9.5 70.5zM241 473q-31 0 -52.5 -16.5t-21.5 -39.5
q0 -22 19 -35.5t48 -13.5q30 0 51 14.5t21 39.5q0 23 -18.5 37t-46.5 14z" />
    <glyph glyph-name="six.onum" horiz-adv-x="648" 
d="M33 339q0 75 20.5 140.5t61.5 118.5t110 84t158 31q75 0 133.5 -19.5t88.5 -42.5l-76 -132q0 2 -17.5 11.5t-52 20t-69.5 10.5q-65 0 -101 -38t-46 -96q3 2 21.5 12t31.5 16t38 12t51 6q110 0 177.5 -61t67.5 -166q0 -119 -85 -188.5t-208 -69.5q-77 0 -137 29
t-95.5 78.5t-53.5 111.5t-18 132zM345 328q-40 0 -66.5 -24t-25.5 -64q1 -39 26.5 -66t65.5 -27q39 0 65 25t25 64q0 37 -23.5 64.5t-66.5 27.5z" />
    <glyph glyph-name="six.subs" horiz-adv-x="445" 
d="M18 55q0 38 12 74.5t37 71.5t74 56.5t115 21.5q97 0 161 -49l-56 -73q-49 31 -99 31q-75 0 -102 -73q41 29 92 29q72 0 126 -39t54 -108q0 -67 -56.5 -113.5t-146.5 -46.5q-60 0 -104 21.5t-66 56t-31.5 69.5t-9.5 71zM241 47q-31 0 -52.5 -17t-21.5 -40q0 -21 19 -34.5
t48 -13.5q30 0 51 14.5t21 38.5q0 23 -18.5 37.5t-46.5 14.5z" />
    <glyph glyph-name="six.tab" 
d="M358 -12q-82 0 -145.5 29t-101.5 78.5t-57 111.5t-19 132q0 75 22 140.5t65 118.5t116.5 84t167.5 31q79 0 141 -19.5t95 -42.5l-81 -132q-3 3 -19.5 11.5t-53.5 19.5t-74 11q-69 0 -107 -38t-49 -96q4 2 23 12t33 16t40.5 12t53.5 6q116 0 187.5 -60.5t72.5 -165.5
q0 -79 -43 -139t-113 -90t-154 -30zM365 328q-41 0 -69 -24t-28 -64q0 -39 27.5 -66t70.5 -27q41 0 68 25.5t28 64.5t-25 65t-72 26z" />
    <glyph glyph-name="seven.dnom" horiz-adv-x="446" 
d="M423 355l-244 -355h-149l224 325h-232v99h401v-69z" />
    <glyph glyph-name="seven.numr" horiz-adv-x="446" 
d="M423 631l-244 -355h-149l224 325h-232v99h401v-69z" />
    <glyph glyph-name="seven.onum" horiz-adv-x="571" 
d="M558 464l-292 -584h-216l270 541h-292v159h530v-116z" />
    <glyph glyph-name="seven.subs" horiz-adv-x="446" 
d="M423 205l-244 -355h-149l224 325h-232v99h401v-69z" />
    <glyph glyph-name="seven.tab" 
d="M677 549l-355 -549h-225l350 544h-376v156h606v-151z" />
    <glyph glyph-name="eight.dnom" horiz-adv-x="445" 
d="M20 125q0 59 57 94q-43 36 -43 82q0 60 59 94t132 34q72 0 129 -35t57 -93q0 -48 -42 -82q57 -36 57 -94q0 -65 -61 -100.5t-142 -36.5q-81 0 -142 36t-61 101zM151 127q0 -38 72 -38q73 0 73 38q0 16 -20 26.5t-53 10.5q-34 0 -53 -10.5t-19 -26.5zM223 265q26 0 41 9.5
t16 23.5q1 11 -14.5 20.5t-42.5 9.5q-28 0 -43 -8.5t-15 -19.5q0 -14 15.5 -24.5t42.5 -10.5z" />
    <glyph glyph-name="eight.numr" horiz-adv-x="445" 
d="M20 401q0 59 57 95q-43 35 -43 81q0 60 59 94t132 34t129.5 -34.5t56.5 -93.5q0 -47 -42 -81q57 -37 57 -95q0 -64 -61 -100t-142 -36t-142 36t-61 100zM151 403q0 -38 72 -38q73 1 73 38q0 16 -20 27t-53 11q-34 0 -53 -10.5t-19 -27.5zM223 541q26 0 41 9.5t16 23.5
q1 12 -14.5 21.5t-42.5 9.5q-28 0 -43 -9t-15 -20q0 -14 15.5 -24.5t42.5 -10.5z" />
    <glyph glyph-name="eight.onum" horiz-adv-x="657" 
d="M329 -17q-135 0 -218 58.5t-83 160.5q0 49 28 92t78 73q-85 56 -85 148q0 67 45.5 115t106.5 67.5t127 19.5q50 0 97.5 -11.5t89.5 -35t67.5 -63.5t25.5 -91q0 -94 -84 -149q105 -63 105 -165t-82.5 -160.5t-217.5 -58.5zM329 298q-42 -1 -72 -22t-30 -58q0 -38 30 -58
t72 -21t72 19.5t29 58.5t-30.5 59.5t-70.5 21.5zM328 574q-34 0 -59.5 -20t-25.5 -50t24 -51t59 -21q33 0 60 20t27 52q0 30 -25 50t-60 20z" />
    <glyph glyph-name="eight.subs" horiz-adv-x="445" 
d="M20 -25q0 59 57 95q-43 35 -43 81q0 60 59 94t132 34q72 0 129 -35t57 -93q0 -46 -42 -82q57 -36 57 -94q0 -64 -61 -100t-142 -36t-142 36t-61 100zM151 -23q0 -38 72 -38q73 0 73 38q0 16 -20 27t-53 11q-34 -1 -53 -11.5t-19 -26.5zM223 115q26 0 41 9.5t16 23.5
q1 12 -14.5 21t-42.5 9q-28 0 -43 -8.5t-15 -19.5q0 -14 15.5 -24.5t42.5 -10.5z" />
    <glyph glyph-name="eight.tab" 
d="M29 211q0 95 92 157q-69 57 -69 136q0 96 90 154t208 58t208 -58t90 -154q0 -80 -69 -136q93 -62 92 -157q0 -110 -92.5 -168t-228.5 -58q-134 0 -227.5 58.5t-93.5 167.5zM217 211q0 -35 36 -55.5t98 -20.5t97.5 20.5t35.5 55.5q0 37 -45 57t-88 20q-57 -1 -95.5 -23
t-38.5 -54zM241 504q0 -28 30.5 -47t78.5 -19q48 -1 79 18.5t31 47.5q0 26 -30.5 44.5t-79.5 18.5q-50 0 -79.5 -18t-29.5 -45z" />
    <glyph glyph-name="nine.dnom" horiz-adv-x="445" 
d="M15 269q0 68 56 114t146 46q60 0 104 -21.5t66 -56t32 -69.5t10 -71q0 -38 -12 -74.5t-37 -71.5t-74 -56.5t-115 -21.5q-97 0 -162 49l57 73q49 -31 98 -31q76 0 103 73q-41 -29 -92 -29q-73 0 -126.5 38.5t-53.5 108.5zM222 324q-30 0 -51 -14.5t-21 -38.5
q0 -23 18.5 -37.5t46.5 -14.5q31 0 53 17t22 40q0 21 -19.5 34.5t-48.5 13.5z" />
    <glyph glyph-name="nine.numr" horiz-adv-x="445" 
d="M15 546q0 67 56 113t146 46q60 0 104 -21.5t66 -56t32 -69t10 -70.5q0 -38 -12 -74.5t-37.5 -71.5t-74 -56.5t-114.5 -21.5q-97 0 -162 49l57 73q45 -31 98 -31q77 0 103 72q-40 -28 -92 -28q-73 0 -126.5 39t-53.5 108zM222 600q-30 0 -51 -14.5t-21 -38.5
q0 -23 18.5 -37t46.5 -14q31 0 53 16.5t22 39.5q0 21 -19.5 34.5t-48.5 13.5z" />
    <glyph glyph-name="nine.onum" horiz-adv-x="648" 
d="M18 332q0 119 85 188.5t208 69.5q77 0 137 -29t95.5 -78.5t53.5 -111.5t18 -132q0 -75 -20.5 -140.5t-61.5 -118.5t-110 -84t-158 -31q-74 0 -133 19.5t-89 42.5l76 132l4 -3q4 -2 10.5 -5.5t16 -8t21.5 -9t25.5 -8t29.5 -6t32 -2.5q65 -1 101 37.5t46 97.5
q-1 -1 -21 -12.5t-32 -17t-37.5 -11.5t-51.5 -6q-110 0 -177.5 61t-67.5 166zM303 431q-39 0 -65 -25t-25 -64q1 -38 24.5 -64.5t65.5 -26.5q41 0 67 23.5t25 63.5q-1 39 -26.5 66t-65.5 27z" />
    <glyph glyph-name="nine.subs" horiz-adv-x="445" 
d="M15 120q0 67 56 113t146 46q60 0 104 -21.5t66 -56t32 -69t10 -70.5q0 -30 -6.5 -59.5t-24 -60t-43.5 -53.5t-68.5 -37.5t-95.5 -14.5q-97 0 -162 49l57 73q49 -31 98 -31q76 0 103 73q-41 -29 -92 -29q-73 0 -126.5 38.5t-53.5 109.5zM222 174q-30 0 -51 -14.5
t-21 -38.5q0 -23 18.5 -37t46.5 -15q31 0 53 17t22 40q0 21 -19.5 34.5t-48.5 13.5z" />
    <glyph glyph-name="nine.tab" 
d="M35 454q-1 119 89.5 189t220.5 70q82 0 145.5 -29t101.5 -78.5t57 -111.5t19 -132q0 -74 -22 -139.5t-65 -119t-116.5 -84.5t-167.5 -31q-79 0 -141.5 20t-94.5 43l80 132q3 -3 20 -11.5t54 -19.5t74 -11q68 0 106.5 38.5t48.5 95.5q-4 -2 -22.5 -12t-32.5 -16.5
t-40.5 -12.5t-53.5 -6q-117 0 -188.5 61t-71.5 165zM241 464q0 -39 25 -64.5t71 -25.5q42 0 69.5 24t27.5 64q0 38 -27 65.5t-70 27.5q-41 0 -68.5 -25.5t-27.5 -65.5z" />
    <glyph glyph-name="space.tab" horiz-adv-x="300" 
 />
    <glyph glyph-name="numbersign.tab" 
d="M27 143v116h108l42 187h-84v116h110l31 138h133l-31 -138h122l31 138h133l-31 -138h83v-116h-108l-42 -187h84v-116h-109l-32 -143h-134l32 143h-122l-31 -143h-134l31 143h-82zM310 446l-41 -187h121l42 187h-122z" />
    <glyph glyph-name="percent.tab" 
d="M28 505q0 94 35 148t105 54t105 -54t35 -148q0 -93 -35 -148t-105 -54q-71 1 -105.5 54t-34.5 148zM393 192q0 94 35 148.5t105 54.5t105 -54t34 -149q0 -39 -7 -72t-22 -63.5t-44 -48t-70 -17.5q-69 0 -102.5 53.5t-33.5 147.5zM220 0h-85l347 700h85zM118 505
q0 -27 3 -49.5t15 -41.5t32 -19q50 1 50 110q0 110 -50 110t-50 -110zM483 192q0 -27 3 -49t15 -41t32 -19q50 1 50 109q0 110 -50 110q-52 0 -50 -110z" />
    <glyph glyph-name="plus.tab" 
d="M273 276h-160v148h160v147h153v-147h161v-148h-161v-147h-153v147z" />
    <glyph glyph-name="minus.tab" 
d="M157 276v148h386v-148h-386z" />
    <glyph glyph-name="divide.tab" 
d="M518 304h-336v92h336v-92zM276 184q0 28 21.5 48.5t52.5 21.5q30 0 52 -21t22 -49q0 -30 -22 -50.5t-52 -20.5q-31 0 -52.5 20.5t-21.5 50.5zM350 588q30 0 52 -21t22 -49q0 -30 -22 -50.5t-52 -20.5q-31 0 -52.5 20.5t-21.5 50.5q0 28 21.5 48.5t52.5 21.5z" />
    <glyph glyph-name="multiply.tab" 
d="M124 229l121 122l-120 120l105 105l120 -121l121 121l105 -105l-121 -121l121 -120l-105 -105l-120 120l-122 -121z" />
    <glyph glyph-name="comma.tab" horiz-adv-x="300" 
d="M103 1q-29 12 -46.5 38t-17.5 58q0 43 32 74t79 32q45 1 77.5 -30t33.5 -76q1 -49 -32 -109t-71 -98l-88 43q19 27 33 68z" />
    <glyph glyph-name="period.tab" horiz-adv-x="300" 
d="M39 97q0 43 32.5 74.5t78.5 31.5q45 0 78 -32t33 -74q0 -43 -33.5 -75t-77.5 -32q-46 0 -78.5 31.5t-32.5 75.5z" />
    <glyph glyph-name="slash.tab" 
d="M632 790l-416 -875h-148l417 876z" />
    <glyph glyph-name="colon.tab" horiz-adv-x="300" 
d="M39 405q0 44 32.5 75t78.5 31q45 0 78 -31.5t33 -73.5q0 -43 -33.5 -75t-77.5 -32q-46 0 -78.5 31t-32.5 75zM39 97q0 43 32.5 74.5t78.5 31.5q45 0 78 -32t33 -74q0 -43 -33.5 -75t-77.5 -32q-46 0 -78.5 31.5t-32.5 75.5z" />
    <glyph glyph-name="semicolon.tab" horiz-adv-x="300" 
d="M103 1q-29 12 -46.5 38t-17.5 58q0 43 32.5 74t78.5 32q45 1 77.5 -30t33.5 -76q1 -49 -32 -109t-71 -98l-88 43q19 27 33 68zM39 405q0 44 32.5 75t78.5 31q44 0 77.5 -32t33.5 -73q0 -43 -33.5 -75t-77.5 -32q-46 0 -78.5 31t-32.5 75z" />
    <glyph glyph-name="less.tab" 
d="M593 68l-486 215v134l486 215v-175l-242 -107l242 -107v-175z" />
    <glyph glyph-name="equal.tab" 
d="M550 389h-400v132h400v-132zM150 312h400v-131h-400v131z" />
    <glyph glyph-name="greater.tab" 
d="M107 243l242 107l-242 107v175l486 -215v-134l-486 -215v175z" />
    <glyph glyph-name="bar.tab" horiz-adv-x="300" 
d="M229 773v-973h-158v973h158z" />
    <glyph glyph-name="dollar.tab" 
d="M70 114l75 103q27 -30 67 -56t77 -37v197q-46 12 -78 25t-66 35.5t-51.5 56t-17.5 78.5q0 86 61 134t152 57v69l130 -1v-74q118 -25 187 -88l-63 -105q-45 54 -124 69v-167q46 -13 78.5 -27t65.5 -37t50.5 -58t17.5 -80q0 -88 -60.5 -145t-151.5 -69v-80h-130v85
q-59 12 -120 43t-99 72zM419 283v-168q33 10 53 34.5t20 58.5q0 46 -73 75zM215 518q0 -43 74 -71v141q-74 -13 -74 -70z" />
    <glyph glyph-name="Euro.tab" 
d="M95 374h-47v85h61q30 112 116 182t206 70q122 0 220 -72l-82 -118q-62 45 -138 45q-47 0 -84.5 -28t-56.5 -79h260v-85h-279v-23q0 -17 1 -25h278v-86h-261q19 -50 56.5 -77t85.5 -27q85 0 135 47l86 -107q-104 -85 -221 -85q-122 0 -207.5 67.5t-115.5 181.5h-60v86h47
v25v23z" />
    <glyph glyph-name="cent.tab" 
d="M372 613l18 87h102l-22 -104q87 -30 129 -95l-98 -80q-25 34 -58 49l-52 -249q34 2 65.5 18t49.5 44l96 -86q-88 -113 -240 -113l-17 -84h-102l22 101q-79 28 -124 95t-45 151q0 118 78.5 192.5t197.5 73.5zM295 245l49 235q-45 -10 -72 -46.5t-27 -83.5q0 -69 50 -105z
" />
    <glyph glyph-name="sterling.tab" 
d="M84 149h60q53 21 55 73q0 23 -8 69h-107v111h84q-7 40 -7 68q0 238 247 238q20 0 39.5 -2t36 -5.5t32.5 -8t29 -9.5t24 -10t19.5 -9.5t14.5 -8t9 -5.5l4 -2l-77 -118l-3 2q-4 2 -9.5 5t-13.5 6.5t-18 7t-21 6.5t-23.5 5t-24.5 2q-80 0 -80 -92q0 -24 8 -70h226v-111h-204
q8 -42 7 -63q-2 -44 -19 -79h225v-149h-505v149z" />
    <glyph glyph-name="yen.tab" 
d="M225 346l-200 354h195l130 -223l130 223h196l-201 -354h96v-104h-135v-54h135v-104h-135v-84h-172v84h-135v104h135v54h-135v104h96z" />
    <glyph glyph-name="section.tab" 
d="M95 -60l97 115q33 -30 83.5 -51t94.5 -21q33 0 55 13.5t22 43.5q0 23 -35 39t-85 29.5t-100 31.5t-85 54.5t-35 88.5q0 67 68 109q-68 49 -68 135q0 63 35.5 105.5t86.5 59.5t113 17q61 0 130 -20.5t116 -55.5l-69 -121q-87 56 -182 56q-71 0 -71 -39q0 -18 25 -31
t63 -21t82 -23t81.5 -34.5t62.5 -58t25 -91.5q0 -65 -42 -115q42 -43 42 -115q0 -96 -67.5 -149t-166.5 -53q-74 0 -149.5 27.5t-126.5 74.5zM314 335q-48 -10 -48 -36q0 -11 12 -21.5t32 -18t38 -13t39 -10.5t27 -7q33 19 33 41q0 10 -10.5 19t-29 16.5t-34 12.5
t-35.5 10.5t-24 6.5z" />
    <glyph glyph-name="degree.tab" 
d="M350 709q69 0 118 -49t49 -118t-49 -118t-118 -49t-118 49t-49 118t49 118t118 49zM262 542q0 -36 26 -62t62 -26q37 0 62.5 26t25.5 62q0 37 -26 62.5t-62 25.5t-62 -26t-26 -62z" />
    <glyph glyph-name="plusminus.tab" 
d="M113 469h161v147h153v-147h160v-148h-160v-147h-153v147h-161v148zM113 123h474v-123h-474v123z" />
    <glyph glyph-name="periodcentered.tab" horiz-adv-x="300" 
d="M39 351q0 44 32.5 75t78.5 31q45 0 78 -32t33 -74q0 -43 -33.5 -75t-77.5 -32q-46 0 -78.5 31.5t-32.5 75.5z" />
    <glyph glyph-name="Q.ss01" horiz-adv-x="833" 
d="M338 -3q-133 25 -217.5 124.5t-84.5 230.5q0 152 109 255.5t272 103.5q162 0 271 -104t109 -255q0 -125 -76.5 -221t-198.5 -128q42 -83 157 -83q55 0 118 20v-148q-60 -17 -117 -17q-120 0 -212 56.5t-130 165.5zM235 352q0 -80 53 -137t129 -57q75 0 128.5 57t52.5 137
t-53.5 134.5t-127.5 54.5q-76 0 -129 -55t-53 -134z" />
    <glyph glyph-name="a.ss01" horiz-adv-x="610" 
d="M36 143q0 70 61 114.5t159 44.5h111q-8 76 -99 76q-90 0 -153 -40l-53 111q1 0 14.5 7t23 11t28 11.5t37.5 12.5t42.5 10t50.5 8t56 3q131 1 187.5 -52.5t56.5 -172.5v-287h-190v52q-23 -28 -65 -45t-88 -17q-80 0 -129.5 42.5t-49.5 110.5zM276 208q-72 -2 -72 -49
q0 -23 18 -36t47 -13q38 0 67.5 21t30.5 53v24h-91z" />
    <glyph glyph-name="agrave.ss01" horiz-adv-x="610" 
d="M36 143q0 70 61 114.5t159 44.5h111q-8 76 -99 76q-90 0 -153 -40l-53 111q1 0 14.5 7t23 11t28 11.5t37.5 12.5t42.5 10t50.5 8t56 3q131 1 187.5 -52.5t56.5 -172.5v-287h-190v52q-23 -28 -65 -45t-88 -17q-80 0 -129.5 42.5t-49.5 110.5zM326 575l-145 97l76 77
l189 -174h-120zM276 208q-72 -2 -72 -49q0 -23 18 -36t47 -13q38 0 67.5 21t30.5 53v24h-91z" />
    <glyph glyph-name="aacute.ss01" horiz-adv-x="610" 
d="M36 143q0 70 61 114.5t159 44.5h111q-8 76 -99 76q-90 0 -153 -40l-53 111q1 0 14.5 7t23 11t28 11.5t37.5 12.5t42.5 10t50.5 8t56 3q131 1 187.5 -52.5t56.5 -172.5v-287h-190v52q-23 -28 -65 -45t-88 -17q-80 0 -129.5 42.5t-49.5 110.5zM181 575l188 174l77 -77
l-145 -97h-120zM276 208q-72 -2 -72 -49q0 -23 18 -36t47 -13q38 0 67.5 21t30.5 53v24h-91z" />
    <glyph glyph-name="acircumflex.ss01" horiz-adv-x="610" 
d="M36 143q0 70 61 114.5t159 44.5h111q-8 76 -99 76q-90 0 -153 -40l-53 111q1 0 14.5 7t23 11t28 11.5t37.5 12.5t42.5 10t50.5 8t56 3q131 1 187.5 -52.5t56.5 -172.5v-287h-190v52q-23 -28 -65 -45t-88 -17q-80 0 -129.5 42.5t-49.5 110.5zM242 575h-110l131 145h101
l131 -145h-109l-72 64zM276 208q-72 -2 -72 -49q0 -23 18 -36t47 -13q38 0 67.5 21t30.5 53v24h-91z" />
    <glyph glyph-name="atilde.ss01" horiz-adv-x="610" 
d="M36 143q0 70 61 114.5t159 44.5h111q-8 76 -99 76q-90 0 -153 -40l-53 111q1 0 14.5 7t23 11t28 11.5t37.5 12.5t42.5 10t50.5 8t56 3q131 1 187.5 -52.5t56.5 -172.5v-287h-190v52q-23 -28 -65 -45t-88 -17q-80 0 -129.5 42.5t-49.5 110.5zM137 577q20 147 114 148
q28 0 49 -9t31.5 -20.5t21.5 -20.5t21 -9q15 0 25.5 16t13.5 32h76q-6 -147 -109 -147q-36 0 -73.5 29.5t-54.5 29.5q-28 0 -38 -49h-77zM276 208q-72 -2 -72 -49q0 -23 18 -36t47 -13q38 0 67.5 21t30.5 53v24h-91z" />
    <glyph glyph-name="adieresis.ss01" horiz-adv-x="610" 
d="M36 143q0 70 61 114.5t159 44.5h111q-8 76 -99 76q-90 0 -153 -40l-53 111q1 0 14.5 7t23 11t28 11.5t37.5 12.5t42.5 10t50.5 8t56 3q131 1 187.5 -52.5t56.5 -172.5v-287h-190v52q-23 -28 -65 -45t-88 -17q-80 0 -129.5 42.5t-49.5 110.5zM153 640q0 23 18.5 44
t50.5 21t50 -21t19 -44q0 -23 -18 -44t-51 -21t-51 21t-18 44zM405 575q-33 0 -51 21t-18 44t18 44t51 21q32 0 50 -21t18 -44t-17.5 -44t-50.5 -21zM276 208q-72 -2 -72 -49q0 -23 18 -36t47 -13q38 0 67.5 21t30.5 53v24h-91z" />
    <glyph glyph-name="aring.ss01" horiz-adv-x="610" 
d="M36 143q0 70 61 114.5t159 44.5h111q-8 76 -99 76q-90 0 -153 -40l-53 111q1 0 14.5 7t23 11t28 11.5t37.5 12.5t42.5 10t50.5 8t56 3q131 1 187.5 -52.5t56.5 -172.5v-287h-190v52q-23 -28 -65 -45t-88 -17q-80 0 -129.5 42.5t-49.5 110.5zM200 660q0 38 30 72t83 34
q54 0 84 -34t30 -72t-30 -72t-84 -34q-53 0 -83 34t-30 72zM276 208q-72 -2 -72 -49q0 -23 18 -36t47 -13q38 0 67.5 21t30.5 53v24h-91zM313 704q-14 0 -24.5 -11.5t-10.5 -32.5t10.5 -32.5t24.5 -11.5q15 0 25.5 11.5t10.5 32.5t-10.5 32.5t-25.5 11.5z" />
    <glyph glyph-name="amacron.ss01" horiz-adv-x="610" 
d="M36 143q0 70 61 114.5t159 44.5h111q-8 76 -99 76q-90 0 -153 -40l-53 111q1 0 14.5 7t23 11t28 11.5t37.5 12.5t42.5 10t50.5 8t56 3q131 1 187.5 -52.5t56.5 -172.5v-287h-190v52q-23 -28 -65 -45t-88 -17q-80 0 -129.5 42.5t-49.5 110.5zM186 668h255v-91h-255v91z
M276 208q-72 -2 -72 -49q0 -23 18 -36t47 -13q38 0 67.5 21t30.5 53v24h-91z" />
    <glyph glyph-name="abreve.ss01" horiz-adv-x="610" 
d="M36 143q0 70 61 114.5t159 44.5h111q-8 76 -99 76q-90 0 -153 -40l-53 111q1 0 14.5 7t23 11t28 11.5t37.5 12.5t42.5 10t50.5 8t56 3q131 1 187.5 -52.5t56.5 -172.5v-287h-190v52q-23 -28 -65 -45t-88 -17q-80 0 -129.5 42.5t-49.5 110.5zM313 564q-74 0 -115.5 41.5
t-41.5 112.5h82q0 -27 21 -44.5t54 -17.5t54 17.5t21 44.5h82q0 -71 -41 -112.5t-116 -41.5zM276 208q-72 -2 -72 -49q0 -23 18 -36t47 -13q38 0 67.5 21t30.5 53v24h-91z" />
    <glyph glyph-name="aogonek.ss01" horiz-adv-x="610" 
d="M36 143q0 70 61 114.5t159 44.5h111q-8 76 -99 76q-90 0 -153 -40l-53 111q1 0 14.5 7t23 11t28 11.5t37.5 12.5t42.5 10t50.5 8t56 3q130 1 187 -52.5t57 -172.5v-287h-107q-34 -45 -34 -84q0 -32 37 -30q29 0 54 19l30 -73q-40 -36 -101 -36q-58 0 -89 27t-31 73
q0 57 51 121v35q-23 -28 -65 -45t-88 -17q-80 0 -129.5 42.5t-49.5 110.5zM204 159q-1 -23 17.5 -36t47.5 -13q38 0 67.5 21t30.5 53v24h-91q-72 -2 -72 -49z" />
    </font>
</defs>
</svg>
