<?xml version="1.0" standalone="no"?>
<!DOCTYPE svg PUBLIC "-//W3C//DTD SVG 1.1//EN" "http://www.w3.org/Graphics/SVG/1.1/DTD/svg11.dtd" >
<svg xmlns="http://www.w3.org/2000/svg" xmlns:xlink="http://www.w3.org/1999/xlink" version="1.1">
<metadata>
Created by FontForge 20170731 at Tue Sep 30 20:42:43 2014
 By Aleksey,,,
Copyright (c) 2014 by gud. All rights reserved.
</metadata>
<defs>
<font id="ModeG-Regular" horiz-adv-x="715" >
  <font-face 
    font-family="Mode G"
    font-weight="400"
    font-stretch="normal"
    units-per-em="1000"
    panose-1="2 0 0 0 0 0 0 0 0 0"
    ascent="800"
    descent="-200"
    x-height="631"
    cap-height="830"
    bbox="-169 -792 3230 1198"
    underline-thickness="50"
    underline-position="-150"
    unicode-range="U+000D-FB02"
  />
<missing-glyph horiz-adv-x="426" 
 />
    <glyph glyph-name="m_o_d_e" unicode="mode" horiz-adv-x="3272" 
d="M923 563q19 -20 34.5 -41.5t26 -46.5t16 -55t5.5 -67v-353h-112v350q0 41 -13 73t-35 54.5t-51.5 34t-63.5 11.5q-33 0 -58.5 -13.5t-44.5 -36t-30 -51t-14 -58.5v-364h-119v350q0 35 -9.5 66.5t-28.5 55t-47 37.5t-65 14q-33 0 -62.5 -11.5t-51.5 -34t-34.5 -54.5
t-12.5 -73v-350h-111v353q0 67 22.5 120t61.5 89.5t91 56t111 19.5q30 0 59.5 -8t55.5 -22t47.5 -33t33.5 -40q11 21 32 40t47.5 33t56.5 22t59 8q60 0 112 -16.5t92 -58.5zM1451 696q78 0 147 -30t120.5 -81.5t81 -120.5t29.5 -146q0 -80 -30 -149t-81.5 -120t-120 -80
t-146.5 -29t-147 29t-120.5 80t-81 120t-29.5 149q0 78 29.5 146.5t81 120t120.5 81.5t147 30zM1451 186q27 0 51 10.5t41.5 28.5t28 42t10.5 50q0 27 -10.5 50.5t-28 41.5t-41.5 28.5t-51 10.5t-51 -10.5t-41.5 -28.5t-28 -41.5t-10.5 -50.5q0 -26 10.5 -50t28 -42
t41.5 -28.5t51 -10.5zM2207 109q42 0 80 16.5t66 44.5t44.5 65.5t16.5 80.5q0 42 -16.5 79.5t-44.5 65.5t-66 44.5t-80 16.5t-80 -16.5t-66 -44.5t-44.5 -65.5t-16.5 -79.5q0 -43 16.5 -80.5t44.5 -65.5t66 -44.5t80 -16.5zM2208 634q57 0 106.5 -18t89.5 -51v203
q0 24 18.5 42t42.5 18q26 0 43.5 -18t17.5 -42v-453q0 -66 -25 -124t-68.5 -101.5t-101 -68.5t-123.5 -25t-124.5 25t-102 68.5t-68.5 101.5t-25 124t25 124.5t68.5 101.5t102 68t124.5 25zM2713 380h393q-10 31 -29 57.5t-44.5 46t-57 30.5t-65.5 11q-35 0 -66 -11
t-57 -30.5t-45 -46t-29 -57.5zM3056 175q16 16 40 16q22 0 40 -16q17 -19 17 -40q0 -23 -17 -40q-47 -47 -106 -70.5t-121 -23.5q-61 0 -120 23t-107 70q-47 46 -70 105t-23 122t23.5 122t70.5 105q4 3 7.5 5.5t8.5 4.5q42 38 95 59t116 21q66 0 124 -25.5t101.5 -69
t69 -101.5t25.5 -124q0 -25 -18 -43t-43 -18h-456q8 -23 20 -43.5t30 -38.5q30 -30 68 -45t78 -15t78.5 15t68.5 45z" />
    <glyph glyph-name=".notdef" horiz-adv-x="426" 
 />
    <glyph glyph-name=".null" horiz-adv-x="620" 
 />
    <glyph glyph-name=".null" horiz-adv-x="620" 
 />
    <glyph glyph-name="nonmarkingreturn" unicode="&#xd;" horiz-adv-x="426" 
 />
    <glyph glyph-name="space" unicode=" " horiz-adv-x="335" 
 />
    <glyph glyph-name="exclam" unicode="!" horiz-adv-x="189" 
d="M97 -16q-25 0 -41.5 17.5t-16.5 43.5q0 25 16.5 42.5t41.5 17.5t41.5 -17.5t16.5 -42.5q0 -26 -16.5 -43.5t-41.5 -17.5zM48 1039q0 21 15 35.5t35 14.5q21 0 35.5 -14.5t14.5 -35.5v-807h-100v807z" />
    <glyph glyph-name="quotedbl" unicode="&#x22;" horiz-adv-x="270" 
d="M254 543h-90v178q0 18 13.5 31t31.5 13q19 0 32 -13t13 -31v-178zM109 543h-89v178q0 18 13 31t32 13q18 0 31 -13t13 -31v-178z" />
    <glyph glyph-name="numbersign" unicode="#" horiz-adv-x="613" 
d="M423 705q25 0 43 -18t18 -43v-125h97v-120h-97v-145h97v-120h-97v-132h-123v132h-132v-133h-123v133h-79v120h79v145h-79v120h79v124q0 25 18 43t44 18q25 0 43 -18t18 -43v-124h132v125q0 25 18 43t44 18zM229 254h132v145h-132v-145z" />
    <glyph glyph-name="dollar" unicode="$" horiz-adv-x="637" 
d="M381 126q40 11 66.5 43t26.5 77t-26.5 77.5t-66.5 43.5v-241zM260 706q-41 -4 -69 -33.5t-28 -71.5q0 -43 27.5 -73t69.5 -34v212zM321 950q24 0 42 -17t18 -43v-60h118q25 0 43 -17t18 -43q0 -27 -18 -44t-43 -17l-118 -1v-215q46 -5 85.5 -26t68.5 -54t45.5 -76
t16.5 -91q0 -47 -16.5 -89t-46 -75t-69 -54.5t-84.5 -27.5v-92h-121v90h-215v124h215v249l-30 3q-40 8 -74.5 28t-60 50t-40.5 68t-15 81q0 46 17 87t47 72t70 49.5t86 20.5v60q0 25 17.5 42.5t43.5 17.5z" />
    <glyph glyph-name="percent" unicode="%" horiz-adv-x="356" 
d="M69 620q-23 0 -37.5 14.5t-14.5 37.5t14.5 37.5t37.5 14.5t37.5 -14.5t14.5 -37.5t-14.5 -37.5t-37.5 -14.5zM174 3h-107l92 643q-1 2 -1 8q0 22 15.5 37.5t37.5 15.5q21 0 36 -14t17 -34h3zM288 3q-23 0 -37.5 14.5t-14.5 37.5t14.5 37.5t37.5 14.5t37.5 -14.5
t14.5 -37.5t-14.5 -37.5t-37.5 -14.5z" />
    <glyph glyph-name="ampersand" unicode="&#x26;" horiz-adv-x="645" 
d="M561 318q14 17 34 17q18 0 30.5 -13t12.5 -32q0 -18 -12 -31l-3 -3l-97 -96l96 -107l-65 -58l-92 103l-56 -55q-33 -33 -75 -49.5t-85.5 -17t-85 16t-74.5 49.5t-48 76.5t-10.5 89t27.5 90t66 80.5l52 43q-13 14 -26 28.5t-23 30.5t-16 34t-6 39q0 30 11.5 57t31.5 47
t46.5 31.5t56.5 11.5t56.5 -11.5t46.5 -31.5t31.5 -47t11.5 -57q0 -45 -21.5 -75t-53.5 -53l-21 -15l166 -185zM238 358l-55 -46q-35 -30 -51.5 -58.5t-18.5 -54.5t8.5 -49.5t30.5 -43.5q20 -21 45.5 -31t52.5 -10t52.5 10t45.5 30l59 58zM251 611q-25 0 -42 -17t-17 -41
q1 -21 15.5 -38.5t27.5 -31.5l8 -9q10 6 21.5 14.5t21.5 18.5t16.5 21.5t6.5 24.5q0 25 -17 41.5t-41 16.5z" />
    <glyph glyph-name="quotesingle" unicode="'" horiz-adv-x="140" 
d="M40 537v163h62v-163h-62z" />
    <glyph glyph-name="parenleft" unicode="(" horiz-adv-x="199" 
d="M195 -32h31v-90h-31v-1h-10t-10 1q-32 3 -59.5 16t-47.5 34t-31 48t-11 58v747q0 31 11 58t31 48t47.5 34t60.5 16q2 1 9 1h10v-1q15 -4 25.5 -16t10.5 -28q0 -17 -10.5 -29t-25.5 -16v-1q-35 0 -57 -19t-22 -47v-747q0 -28 22 -47t57 -19z" />
    <glyph glyph-name="parenright" unicode=")" horiz-adv-x="199" 
d="M-14 -131v90h31q35 0 57 19t22 47v747q0 28 -22 47t-57 19v1q-15 4 -25.5 16t-10.5 29q0 16 10.5 28t25.5 16v1h10q7 0 9 -1q33 -3 60.5 -16t47.5 -34t31 -48t11 -58v-747q0 -31 -11 -58t-31 -48t-47.5 -34t-59.5 -16q-5 -1 -10 -1h-10v1h-31z" />
    <glyph glyph-name="asterisk" unicode="*" horiz-adv-x="210" 
d="M126 832v-39l51 29l18 -33l-50 -28l50 -28l-18 -31l-51 28v-58h-37v58l-50 -28l-18 31l49 28l-49 28l18 33l50 -29v39q0 19 19 19q18 0 18 -19z" />
    <glyph glyph-name="plus" unicode="+" horiz-adv-x="378" 
d="M139 456q0 20 14.5 34.5t34.5 14.5t34.5 -14.5t14.5 -34.5v-104h123v-101h-123v-126h-98v126h-120v101h120v104z" />
    <glyph glyph-name="comma" unicode="," horiz-adv-x="134" 
d="M64 -10q-26 0 -44 18t-18 44q0 25 18 43t44 18q25 0 43 -18t18 -43v-49q0 -20 -6 -35.5t-24 -25.5q-14 -7 -23 -7q-12 0 -12 10q0 7 4 12q7 9 12 17t7 19q-9 -3 -19 -3z" />
    <glyph glyph-name="hyphen" unicode="-" horiz-adv-x="421" 
d="M40 342h341v-70h-341v70z" />
    <glyph glyph-name="period" unicode="." horiz-adv-x="141" 
d="M71 -1q-26 0 -44 18t-18 44q0 25 18 43t44 18q25 0 43 -18t18 -43q0 -26 -18 -44t-43 -18z" />
    <glyph glyph-name="slash" unicode="/" horiz-adv-x="312" 
d="M233 700q0 15 11 26t26 11t26 -11t11 -26q0 -9 -4 -16h1l-223 -684h-78l228 700h2z" />
    <glyph glyph-name="zero" unicode="0" horiz-adv-x="803" 
d="M402 -24q-77 0 -145 29.5t-119 80.5t-80.5 119t-29.5 145t29.5 145t80.5 119t119 80.5t145 29.5t145 -29.5t119 -80.5t80.5 -119t29.5 -145t-29.5 -145t-80.5 -119t-119 -80.5t-145 -29.5zM402 619q-55 0 -104 -21.5t-86 -58.5t-58.5 -85.5t-21.5 -103.5t21.5 -104
t58.5 -86t86 -58.5t104 -21.5t103.5 21.5t85.5 58.5t58.5 86t21.5 104t-21.5 103.5t-58.5 85.5t-85.5 58.5t-103.5 21.5z" />
    <glyph glyph-name="one" unicode="1" horiz-adv-x="214" 
d="M175 0h-89v597h-82q-21 0 -35.5 15.5t-14.5 35.5q0 21 14.5 36.5t35.5 15.5h171v-700z" />
    <glyph glyph-name="two" unicode="2" horiz-adv-x="506" 
d="M83 660q33 34 73 50t81.5 15.5t82 -18t73.5 -51.5q32 -33 49 -76t17 -87t-16 -86t-50 -75l-233 -228h307v-104h-426l-1 103l283 302q17 19 26 42t9 47t-9 47t-27 41q-17 17 -38.5 26.5t-44 11.5t-44 -5t-39.5 -23q-14 -19 -39 -19q-21 0 -35.5 14.5t-14.5 35.5
q0 23 16 37z" />
    <glyph glyph-name="three" unicode="3" horiz-adv-x="593" 
d="M27 271q0 21 15 36.5t37 15.5t37 -15.5t15 -36.5q0 -3 -0.5 -5.5t-0.5 -4.5q2 -51 13 -75q20 -48 62.5 -77.5t96.5 -29.5q36 0 67 14t54.5 38t37 56t13.5 68q0 25 -7.5 51t-23.5 48.5t-39.5 39.5t-55.5 24q-22 5 -46 3.5t-62 -5.5v103l103 77l-203 1h-4q-22 0 -37 15
t-15 36q0 22 15 37t37 15q5 0 8 -1v1h333h4q20 0 33.5 -13.5t13.5 -33.5q0 -24 -20 -39l-103 -100l4 -2q37 -16 68 -42t53 -59t34.5 -73t12.5 -83q0 -58 -21.5 -109t-59 -89t-87.5 -60t-107 -22q-43 0 -82 12.5t-72 35t-58.5 54t-41.5 69.5q-11 24 -16 52.5t-5 72.5z" />
    <glyph glyph-name="four" unicode="4" horiz-adv-x="486" 
d="M302 223v87q0 20 15 35t36 15q20 0 35 -15t15 -35v-87h76v-104h-76v-119h-101v119h-294l119 549q5 16 19 26t31 10q22 0 37 -15t15 -37q0 -8 -1 -11l-91 -418h165z" />
    <glyph glyph-name="five" unicode="5" horiz-adv-x="596" 
d="M397 699q19 -2 31.5 -16.5t12.5 -34.5t-12.5 -34.5t-31.5 -17.5l-191 -3l-1 -91q26 11 62 21.5t65 10.5q57 0 107 -22t87.5 -60t59 -88.5t21.5 -108.5t-21.5 -109t-59 -89t-87.5 -60t-107 -22q-43 0 -82 12.5t-72 35t-58.5 54t-41.5 69.5q-11 25 -16 54t-5 71v2
q0 20 15 35t36 15t35.5 -15t15.5 -35h1q0 -33 3 -52t10 -35q20 -48 62.5 -77.5t96.5 -29.5q36 0 67 14t54.5 38t37 56t13.5 68t-13 68t-36.5 55.5t-56 37.5t-71.5 14q-42 0 -77.5 -15.5t-59.5 -48.5h-97l5 334h299v-1z" />
    <glyph glyph-name="six" unicode="6" horiz-adv-x="605" 
d="M306 432q-36 0 -67 -14t-54.5 -38t-37 -56t-13.5 -68t13.5 -68t37 -56t54.5 -38t67 -14t67 14t54.5 38t37 56t13.5 68t-13.5 68t-37 56t-54.5 38t-67 14zM510 631q14 -14 14 -34q0 -21 -15 -36t-37 -15q-18 0 -33 12q-21 20 -36 30t-30 17q-36 14 -67 14q-32 0 -60 -10.5
t-50.5 -29.5t-37.5 -45t-21 -56q35 29 78 43.5t91 14.5q57 0 107 -22t87.5 -60t59 -89t21.5 -109t-21.5 -109t-59 -89t-87.5 -60t-107 -22t-107 22t-87.5 60t-59 89t-21.5 109v188q0 58 21.5 109t59 89t87.5 60t107 22q56 0 107 -22q23 -11 46.5 -26t51.5 -44z" />
    <glyph glyph-name="seven" unicode="7" horiz-adv-x="585" 
d="M495 0h-93v596h-329q-17 0 -33.5 16t-16.5 36q0 21 14.5 36t35.5 16h373q20 0 35 -15.5t15 -35.5z" />
    <glyph glyph-name="eight" unicode="8" horiz-adv-x="594" 
d="M423 506q34 -15 62 -41t47 -59t29.5 -71.5t10.5 -78.5q0 -58 -21.5 -109t-59 -89t-87.5 -60t-107 -22q-43 0 -82 12.5t-72 35t-58.5 54t-41.5 69.5q-22 51 -21.5 109t21.5 109q19 46 51 83.5t77 57.5q-18 33 -18 72q0 30 11 57t30.5 46.5t46 31t56.5 11.5t56 -11.5
t45.5 -31t31 -46.5t11.5 -57q0 -39 -18 -72zM296 653q-23 0 -39 -16.5t-16 -39.5t16 -40t39 -17h5q20 3 35 18.5t15 38.5t-16 39.5t-39 16.5zM363 418q-31 14 -61 14h-5q-36 0 -67 -14t-54.5 -38t-37 -56t-13.5 -68t13.5 -68t37 -56t54.5 -38t67 -14t67 14t54.5 38t37 56
t13.5 68q0 55 -29 98t-77 64z" />
    <glyph glyph-name="nine" unicode="9" horiz-adv-x="605" 
d="M299 620q-36 0 -67 -14t-54.5 -38t-37 -56t-13.5 -68t13.5 -68t37 -56t54.5 -38t67 -14t67 14t54.5 38t37 56t13.5 68t-13.5 68t-37 56t-54.5 38t-67 14zM87 99q0 21 15 35.5t36 14.5q20 0 34 -12q21 -20 33 -27.5t27 -14.5q36 -14 67 -14q32 0 60 11t50.5 30t37.5 45
t21 56q-35 -28 -78 -43.5t-91 -15.5q-57 0 -107 22t-87.5 60t-59 89t-21.5 109t21.5 109t59 89t87.5 60t107 22t107 -22t87.5 -60t59 -89t21.5 -109v-11q0 -235 -22 -286q-16 -38 -41.5 -69.5t-58 -54t-71.5 -35t-82 -12.5q-56 0 -107 22q-23 11 -45.5 26.5t-50.5 44.5
q-9 13 -9 30z" />
    <glyph glyph-name="colon" unicode=":" horiz-adv-x="145" 
d="M73 386q-26 0 -44 18t-18 44q0 16 7.5 29.5t20.5 21.5q14 11 34 11q11 0 20 -4t16 -10q11 -9 18 -21.5t7 -26.5q0 -26 -18 -44t-43 -18zM73 -10h-5q-25 2 -42 19t-17 43q0 25 18 43t44 18q25 0 43 -18t18 -43q0 -15 -6 -27.5t-16 -20.5q-7 -6 -16.5 -10t-20.5 -4z" />
    <glyph glyph-name="semicolon" unicode=";" horiz-adv-x="139" 
d="M89 -54q-16 -8 -29 -8q-9 0 -14 4q-7 6 -7 14q0 11 11 20q13 7 15 14q-35 3 -45 26q-11 16 -11 36q0 25 18 43t44 18q25 0 43 -18t18 -43q0 -21 -13 -39v-10q0 -14 -6.5 -30t-23.5 -27zM73 386q-26 0 -44 18t-18 44q0 15 6 27q5 16 18 25.5t32 9.5h4q13 0 22 -4t16 -10
q11 -9 18 -21.5t7 -26.5q0 -26 -18 -44t-43 -18z" />
    <glyph glyph-name="less" unicode="&#x3c;" horiz-adv-x="457" 
d="M390 451q2 1 10 1q19 0 32.5 -13.5t13.5 -32.5q0 -12 -5.5 -22t-13.5 -16v-1l-286 -116l279 -121v-94l-398 172v86l368 158v-1z" />
    <glyph glyph-name="equal" unicode="=" horiz-adv-x="556" 
d="M40 236h366v-90h-366v90zM40 406h366v-90h-366v90z" />
    <glyph glyph-name="greater" unicode="&#x3e;" horiz-adv-x="438" 
d="M78 452l368 -158v-86l-398 -172v94l279 121l-286 116v1q-8 6 -13.5 16t-5.5 22q0 19 13.5 32.5t32.5 13.5q8 0 10 -1v1z" />
    <glyph glyph-name="question" unicode="?" horiz-adv-x="412" 
d="M89 1039h9q61 0 115 -24t93.5 -66t62.5 -98t23 -119q0 -57 -19 -108t-52.5 -91t-79 -67t-98.5 -36v-225h-103v322h55q41 0 77 16t63 43.5t42.5 65t15.5 80.5t-15.5 80t-42.5 65t-63 44t-77 16h-6q-23 0 -39.5 14t-16.5 37t16.5 37t39.5 14zM84 -8q-26 0 -44 18t-18 44
t18 44t44 18t44 -18t18 -44t-18 -44t-44 -18z" />
    <glyph glyph-name="at" unicode="@" horiz-adv-x="751" 
d="M549 139q0 -4 -2 -15t-2 -20q0 -6 1 -7q8 -4 13.5 -5t10.5 -1q17 0 22.5 10t5.5 17v199q0 45 -18 85.5t-48.5 70.5t-72 47.5t-87.5 17.5q-47 0 -88 -17.5t-71 -47.5t-47.5 -70.5t-17.5 -85.5t17.5 -84.5t47.5 -69t71 -47t88 -17.5h7v-98h-7q-66 0 -124 25t-101.5 68.5
t-69 101.5t-25.5 124t25.5 124t69 101.5t101.5 68.5t124 25t124 -25t101.5 -68.5t69 -101.5t25.5 -124v-226q0 -20 -11.5 -37t-29 -29.5t-38.5 -19.5t-40 -7q-41 0 -69 27.5t-36 65.5l-8 45v25q-41 -25 -93 -25q-38 0 -71 14.5t-57.5 39t-39 57.5t-14.5 70t14.5 70t39 58
t57.5 39t71 14q37 0 70.5 -14t58 -39t39 -58t14.5 -70v-181zM366 416q-41 0 -69 -28t-28 -69q0 -21 7.5 -39t21 -31t31 -20.5t37.5 -7.5q41 0 69 28.5t28 69.5q0 19 -7.5 37t-20.5 31t-30.5 21t-38.5 8z" />
    <glyph glyph-name="A" unicode="A" 
d="M356 829q66 0 123.5 -24.5t100.5 -67.5t67.5 -100.5t24.5 -123.5v-513h-116v192h-399v-192h-117v513q0 66 25 123.5t68 100.5t100.5 67.5t122.5 24.5zM556 310v203q0 41 -15.5 77.5t-42.5 63.5t-63.5 43t-78.5 16q-41 0 -77.5 -16t-63.5 -43t-42.5 -63.5t-15.5 -77.5
v-203h399z" />
    <glyph glyph-name="B" unicode="B" horiz-adv-x="683" 
d="M543 456v-5q51 -33 81 -86.5t30 -119.5q0 -50 -19.5 -95t-53 -79t-78 -53.5t-95.5 -19.5h-366v776q0 23 16.5 40t41.5 17h268q47 0 88.5 -18t73 -49t49.5 -72.5t18 -88.5q0 -86 -54 -147zM158 714v-222h210q22 0 42.5 8.5t35.5 23.5t24 35.5t9 43.5q0 22 -9 42.5
t-24 35.5t-35.5 24t-42.5 9h-210zM158 117h250q26 0 49.5 10t41 27.5t28 40.5t10.5 50t-10.5 51t-28 41t-41 27t-49.5 10h-250v-257z" />
    <glyph glyph-name="C" unicode="C" horiz-adv-x="669" 
d="M456 124h173v-126h-173q-86 0 -162 33t-132.5 90t-89 132.5t-32.5 160.5q0 82 29.5 156.5t80.5 131.5t120 91t149 36l43 1h82q26 0 44 -18t18 -44t-18 -44t-44 -18h-88q-60 0 -113 -23t-92.5 -62.5t-62 -92.5t-22.5 -114q0 -60 22.5 -113t62 -92t92.5 -62t113 -23z" />
    <glyph glyph-name="D" unicode="D" horiz-adv-x="680" 
d="M280 830v-1q79 -7 148 -42t120.5 -90.5t81 -128t29.5 -154.5q0 -85 -33 -160.5t-89.5 -132.5t-132.5 -90t-161 -33h-203v771q0 26 18 43.5t44 17.5h178zM164 124h79q60 0 113 23t92 62t62 92t23 113q0 61 -23 114t-62 92.5t-92 62.5t-113 23h-79v-582z" />
    <glyph glyph-name="E" unicode="E" horiz-adv-x="617" 
d="M162 122h415v-124h-537v772q0 26 17.5 43t43.5 17h385q22 0 37.5 -15t15.5 -37q0 -23 -15.5 -38.5t-37.5 -15.5h-324v-241h216v-110h-216v-251z" />
    <glyph glyph-name="F" unicode="F" horiz-adv-x="579" 
d="M101 828h385q22 0 37.5 -15.5t15.5 -38.5q0 -22 -15.5 -37t-37.5 -15h-325v-242h217v-110h-217v-371h-121v768q0 25 17.5 43t43.5 18z" />
    <glyph glyph-name="G" unicode="G" horiz-adv-x="696" 
d="M593 421q26 0 44.5 -18t18.5 -44v-359h-173q-86 0 -162 32.5t-132.5 89t-89 132.5t-32.5 162q0 82 29.5 154t81 127.5t120.5 90.5t148 42q9 0 17.5 1t17.5 1h90q26 0 44 -18.5t18 -43.5q0 -27 -18 -45.5t-44 -18.5h-88q-60 0 -113 -22.5t-92.5 -62t-62 -92.5t-22.5 -113
t22.5 -113t62 -92.5t92.5 -62.5t113 -23h49v234q0 26 17.5 44t43.5 18z" />
    <glyph glyph-name="H" unicode="H" horiz-adv-x="731" 
d="M629 833q26 0 43 -18t17 -42v-772h-120v374h-408v-374h-121v772q0 24 17.5 42t43.5 18q24 0 42 -18t18 -42v-287h408v287q0 24 17 42t43 18z" />
    <glyph glyph-name="I" unicode="I" horiz-adv-x="201" 
d="M100 830q24 0 42 -17t18 -43v-772h-121v772q0 25 17.5 42.5t43.5 17.5z" />
    <glyph glyph-name="J" unicode="J" horiz-adv-x="389" 
d="M289 832q24 0 42 -16.5t18 -42.5v-465q0 -63 -24.5 -119t-66.5 -98t-98 -66.5t-120 -24.5v118q39 0 74 15t60.5 41t40.5 60.5t15 73.5v465q0 26 17 42.5t42 16.5z" />
    <glyph glyph-name="K" unicode="K" horiz-adv-x="576" 
d="M499 723l-201 -201q51 -13 95 -42t75.5 -69.5t49.5 -90.5t18 -105v-216h-121v216q0 40 -15.5 75.5t-41.5 62t-61.5 42t-75.5 15.5h-60v-411h-121v771q0 26 17.5 43.5t43.5 17.5q24 0 42 -17t18 -44v-214l253 253q18 18 42.5 18t42.5 -18q19 -19 19 -43t-19 -43z" />
    <glyph glyph-name="L" unicode="L" horiz-adv-x="579" 
d="M161 124h378v-122h-499v771q0 25 17.5 43t43.5 18q24 0 42 -17.5t18 -43.5v-649z" />
    <glyph glyph-name="M" unicode="M" horiz-adv-x="1143" 
d="M1013 738q42 -45 66 -101t24 -120v-517h-124v514q0 37 -14 69.5t-38.5 57t-57 38.5t-69.5 14q-32 0 -61 -10.5t-52.5 -29.5t-39.5 -45t-22 -57q-4 -12 -4 -37v-514h-102v514q0 37 -14 69.5t-38.5 57t-57 38.5t-69.5 14t-69.5 -14t-56.5 -38.5t-38 -57t-14 -69.5v-514
h-122v517q0 64 24 120t66 101q43 45 101 69.5t124 24.5q64 0 119 -23t97 -62q43 39 98 62t118 23q67 0 125 -24.5t101 -69.5z" />
    <glyph glyph-name="N" unicode="N" horiz-adv-x="718" 
d="M358 830q66 0 124.5 -25t102 -68t68.5 -101t25 -124v-514h-124v514q0 40 -15.5 75.5t-42 62t-62.5 42t-76 15.5q-41 0 -76.5 -15.5t-61.5 -42t-41.5 -62t-15.5 -75.5v-514h-123v514q0 66 25 124t68.5 101t101 68t123.5 25z" />
    <glyph glyph-name="O" unicode="O" horiz-adv-x="912" 
d="M456 830q86 0 162 -32.5t132.5 -88.5t89 -132t32.5 -163q0 -85 -32.5 -160.5t-89 -132.5t-132.5 -90t-162 -33t-162 33t-132.5 90t-89 132.5t-32.5 160.5q0 87 32.5 163t89 132t132.5 88.5t162 32.5zM456 124q60 0 113 23t92.5 62t62 92t22.5 113q0 61 -22.5 114
t-62 92.5t-92.5 62.5t-113 23t-113 -23t-92.5 -62.5t-62 -92.5t-22.5 -114q0 -60 22.5 -113t62 -92t92.5 -62t113 -23z" />
    <glyph glyph-name="P" unicode="P" 
d="M378 337h-220v-339h-116v776q0 23 16.5 40t41.5 17h308q51 0 95.5 -20t78 -53.5t53 -78.5t19.5 -95q0 -60 -23 -106t-61 -77.5t-88 -47.5t-104 -16zM158 724v-268h252q26 0 49 10t40.5 27t27.5 40.5t10 50.5t-10.5 52t-28 44.5t-41 31.5t-49.5 12h-250z" />
    <glyph glyph-name="Q" unicode="Q" horiz-adv-x="921" 
d="M461 828q87 0 163.5 -33t133.5 -90t90 -133.5t33 -163.5q0 -80 -27.5 -150t-75.5 -125.5t-113.5 -92t-140.5 -48.5v-63q0 -26 -17.5 -43.5t-43.5 -17.5t-43.5 17.5t-17.5 43.5v63q-77 10 -143 46.5t-114.5 92t-76.5 126.5t-28 151q0 87 33 163.5t90 133.5t133.5 90
t164.5 33zM524 166v-45q49 11 91.5 37.5t73 64.5t48 85t17.5 100q0 60 -23 113.5t-63 93.5t-93 63.5t-114 23.5q-62 0 -115.5 -23.5t-93.5 -63.5t-63 -93.5t-23 -113.5q0 -54 18 -102t50 -86t75 -64t93 -36v46q0 24 18.5 42t42.5 18q25 0 43 -18t18 -42z" />
    <glyph glyph-name="R" unicode="R" horiz-adv-x="710" 
d="M378 337h-220v-339h-116v776q0 23 16.5 40t41.5 17h308q51 0 95.5 -20t78 -53.5t53 -78.5t19.5 -95q0 -66 -27.5 -115t-72.5 -80q40 -43 62 -97t22 -117v-175h-121v175q0 54 -24.5 96.5t-66.5 68.5q-24 -3 -48 -3zM158 724v-268h252q26 0 49 10t40.5 27t27.5 40.5
t10 50.5t-10.5 52t-28.5 44.5t-41.5 31.5t-49.5 12h-249z" />
    <glyph glyph-name="S" unicode="S" horiz-adv-x="637" 
d="M270 494h88q50 0 93.5 -20t76 -53.5t51 -78.5t18.5 -96t-19.5 -96t-53.5 -78.5t-79 -53.5t-96 -20h-304v124h304q25 0 48 9.5t40 26t27 39.5t10 49t-10 49t-27 40t-40 26.5t-48 9.5h-79q-11 0 -20.5 1t-19.5 2q-40 8 -74.5 28t-60 50t-40.5 68t-15 81q0 47 18 89t49 73
t73 49t90 18h229q25 0 43 -17t18 -43q0 -27 -18 -44t-43 -17l-229 -2q-22 0 -41.5 -8.5t-34 -23t-23 -33.5t-8.5 -41q0 -23 8.5 -42.5t23 -33.5t34 -22.5t41.5 -8.5z" />
    <glyph glyph-name="T" unicode="T" horiz-adv-x="570" 
d="M98 831h376q23 0 39.5 -16.5t16.5 -40.5t-16.5 -41.5t-39.5 -17.5h-130v-716h-119v716h-127q-24 0 -41 17.5t-17 41.5t17 40.5t41 16.5z" />
    <glyph glyph-name="U" unicode="U" horiz-adv-x="717" 
d="M614 831q26 0 44.5 -17.5t18.5 -43.5v-452q0 -66 -25 -124t-68 -101.5t-101.5 -68.5t-124.5 -25t-124 25t-101 68.5t-68 101.5t-25 124v452q0 25 18 43t44 18t43.5 -17.5t17.5 -43.5v-452q0 -41 15.5 -76.5t41.5 -62t61.5 -42t76.5 -15.5q40 0 75.5 15.5t62.5 42t42.5 62
t15.5 76.5v452q0 25 17.5 43t42.5 18z" />
    <glyph glyph-name="V" unicode="V" horiz-adv-x="777" 
d="M716 823q24 -10 34.5 -33t0.5 -46l-311 -744h-132l-307 741q-10 23 0.5 46t34.5 33q23 10 46.5 0t33.5 -33l258 -632l262 635q10 23 33.5 33t46.5 0z" />
    <glyph glyph-name="W" unicode="W" horiz-adv-x="1265" 
d="M617 631q18 0 33.5 -10.5t23.5 -27.5l180 -438l259 634q10 23 33.5 33t46.5 0q24 -10 34.5 -33t0.5 -46l-308 -743h-132l-171 410l-172 -410h-132l-311 745q-10 23 0.5 46t34.5 33q23 10 46.5 0t33.5 -33l262 -636l180 438q8 17 23.5 27.5t34.5 10.5z" />
    <glyph glyph-name="X" unicode="X" horiz-adv-x="944" 
d="M786 0v96q0 58 -21 104.5t-57.5 80t-86 53t-106.5 23.5q-4 0 -9 -0.5t-11 -0.5q-4 0 -9.5 0.5t-10.5 0.5q-57 -4 -106 -23.5t-86 -53t-58 -80t-21 -104.5v-96h-125v96q0 110 54 189.5t142 133.5q-88 54 -142 133.5t-54 189.5v45q1 20 18 37q19 18 45 18t44 -18
q15 -17 18 -37v-45q0 -57 21 -103.5t58 -80t86 -53.5t106 -24q3 1 10 1h21q6 0 9 -1q57 4 106.5 25.5t86 57t57.5 83.5t21 105v33q0 25 18.5 43.5t44.5 18.5h3q23 -1 41 -19t18 -43v-36q0 -49 -10 -89q-20 -84 -67 -140t-119 -101q73 -42 119.5 -94.5t66.5 -136.5
q10 -40 10 -89v-99h-125z" />
    <glyph glyph-name="Y" unicode="Y" horiz-adv-x="716" 
d="M614 834q26 0 44 -18t18 -44v-318q0 -57 -19.5 -109.5t-53.5 -94t-81.5 -70t-102.5 -38.5v-140h-122v140q-55 10 -102 38.5t-81.5 70t-54 94t-19.5 109.5v318q0 26 18 44t44 18q25 0 43 -18t18 -44v-318q0 -41 15.5 -76.5t41.5 -61.5t61.5 -41.5t76.5 -15.5
q40 0 75.5 15.5t62.5 41.5t42.5 61.5t15.5 76.5v318q0 26 17.5 44t42.5 18z" />
    <glyph glyph-name="Z" unicode="Z" horiz-adv-x="610" 
d="M194 121h376v-122h-530v122h1l301 589h-241q-26 0 -43.5 18t-17.5 42q0 27 17.5 44t43.5 17h379v-1q13 -5 24 -12q20 -14 22.5 -39.5t-12.5 -44.5z" />
    <glyph glyph-name="bracketleft" unicode="[" horiz-adv-x="268" 
d="M214 931q22 0 37.5 -15.5t15.5 -37.5t-15.5 -37.5t-37.5 -15.5h-85v-830h138v-106h-228v1042h175z" />
    <glyph glyph-name="backslash" unicode="\" horiz-adv-x="312" 
d="M163 791q0 23 16.5 39.5t39.5 16.5t39 -16.5t16 -39.5q0 -5 -0.5 -8.5t-1.5 -7.5l-116 -775h-111z" />
    <glyph glyph-name="bracketright" unicode="]" horiz-adv-x="268" 
d="M70 936h175v-1042h-228v106h138v830h-85q-22 0 -37.5 15.5t-15.5 37.5t15.5 37.5t37.5 15.5z" />
    <glyph glyph-name="asciicircum" unicode="^" horiz-adv-x="455" 
d="M185 721q14 26 43 26q14 0 25.5 -7.5t16.5 -19.5h1l177 -417h-111l-110 251l-109 -251h-111l177 418h1z" />
    <glyph glyph-name="underscore" unicode="_" horiz-adv-x="584" 
d="M40 0v100h504v-100h-504z" />
    <glyph glyph-name="grave" unicode="`" horiz-adv-x="161" 
d="M2 1051q0 17 11 28t28 11q25 0 36 -24l53 -127h-78l-47 96q-3 7 -3 16z" />
    <glyph glyph-name="a" unicode="a" horiz-adv-x="720" 
d="M359 109q42 0 80 16.5t66 44.5t44.5 65.5t16.5 80.5q0 42 -16.5 79.5t-44.5 65.5t-66 44.5t-80 16.5t-80 -16.5t-66 -44.5t-44.5 -65.5t-16.5 -79.5q0 -43 16.5 -80.5t44.5 -65.5t66 -44.5t80 -16.5zM360 638q66 0 124.5 -25t102 -68.5t68.5 -101.5t25 -125v-320h-122v69
q-40 -33 -90.5 -51t-107.5 -18q-66 0 -124.5 25t-102 68.5t-68.5 102t-25 124.5q0 67 25 125t68.5 101.5t102 68.5t124.5 25z" />
    <glyph glyph-name="b" unicode="b" horiz-adv-x="718" 
d="M358 634q66 0 124.5 -25t102 -68t68.5 -101.5t25 -124.5t-25 -124t-68.5 -101.5t-102 -68.5t-124.5 -25t-123.5 25t-101 68.5t-68.5 101.5t-25 124v453q0 24 17.5 42t43.5 18q24 0 42.5 -18t18.5 -42v-203q40 33 89.5 51t106.5 18zM359 109q42 0 80 16.5t66 44.5
t44.5 65.5t16.5 80.5q0 42 -16.5 79.5t-44.5 65.5t-66 44.5t-80 16.5t-80 -16.5t-66 -44.5t-44.5 -65.5t-16.5 -79.5q0 -43 16.5 -80.5t44.5 -65.5t66 -44.5t80 -16.5z" />
    <glyph glyph-name="c" unicode="c" horiz-adv-x="660" 
d="M508 175q16 16 40 16q22 0 40 -16q17 -19 17 -40q0 -23 -17 -40q-48 -48 -105.5 -71t-119.5 -23q-61 0 -120.5 23t-107.5 71t-71 106t-23 119q0 58 20 113q22 63 74 115q47 47 105.5 70.5t120.5 23.5t120.5 -23.5t106.5 -70.5q16 -19 16 -41q0 -24 -17 -41
q-16 -17 -39 -17t-41 18q-30 30 -68.5 45.5t-79.5 15.5q-37 0 -72 -13t-64 -39l-7 -9q-30 -30 -45.5 -68.5t-15.5 -78.5t15 -77.5t45 -67.5t68 -45t78 -15t78.5 15t68.5 45z" />
    <glyph glyph-name="d" unicode="d" horiz-adv-x="718" 
d="M360 634q57 0 106.5 -18t89.5 -51v203q0 24 18.5 42t42.5 18q26 0 43.5 -18t17.5 -42v-453q0 -66 -25 -124t-68.5 -101.5t-101 -68.5t-123.5 -25t-124.5 25t-102 68.5t-68.5 101.5t-25 124t25 124.5t68.5 101.5t102 68t124.5 25zM359 109q42 0 80 16.5t66 44.5t44.5 65.5
t16.5 80.5q0 42 -16.5 79.5t-44.5 65.5t-66 44.5t-80 16.5t-80 -16.5t-66 -44.5t-44.5 -65.5t-16.5 -79.5q0 -43 16.5 -80.5t44.5 -65.5t66 -44.5t80 -16.5z" />
    <glyph glyph-name="e" unicode="e" horiz-adv-x="688" 
d="M165 380h393q-10 31 -29 57.5t-44.5 46t-57 30.5t-65.5 11q-35 0 -66 -11t-57 -30.5t-45 -46t-29 -57.5zM508 175q16 16 40 16q22 0 40 -16q17 -19 17 -40q0 -23 -17 -40q-47 -47 -106 -70.5t-121 -23.5q-65 0 -122.5 25.5t-101.5 69t-69.5 102t-25.5 123.5t25 123
t68 101t101.5 68t125.5 25q66 0 124 -25.5t101.5 -69t69 -101.5t25.5 -124q0 -25 -18 -43t-43 -18h-456q9 -32 29 -58t46.5 -45t57.5 -29t63 -10q40 0 78.5 15t68.5 45z" />
    <glyph glyph-name="f" unicode="f" horiz-adv-x="408" 
d="M356 832q26 0 43.5 -15.5t17.5 -41.5q0 -25 -17.5 -40.5t-43.5 -15.5q-39 0 -74 -16t-61.5 -42.5t-42.5 -61.5t-16 -73v-30h120q25 0 42.5 -18t17.5 -43q0 -26 -17 -43t-43 -17h-120l-1 -375h-121l1 517q0 65 24.5 122.5t67.5 100t100.5 67.5t122.5 25z" />
    <glyph glyph-name="g" unicode="g" horiz-adv-x="700" 
d="M360 638q66 0 124.5 -25.5t102 -69t68.5 -102t25 -123.5q0 -91 -43.5 -162.5t-115.5 -113.5q26 -29 41 -65.5t15 -78.5q0 -45 -17 -84t-46 -68.5t-69 -46.5t-85 -17q-9 0 -18 3q-42 3 -78 21t-63 47t-42.5 67t-15.5 81q0 25 16.5 41.5t41.5 16.5q26 0 42 -17t16 -40
q0 -21 8 -40t21.5 -32.5t31.5 -21.5t39 -8t39.5 8t32 21.5t21.5 32t8 39.5q0 38 -25 65t-62 32h-13q-66 0 -124.5 25t-102 68t-68.5 101.5t-25 125.5q0 66 25 124t68.5 101.5t102 69t124.5 25.5zM360 111v4q8 0 14 -0.5t12 -1.5q38 5 71 23t57.5 45.5t38.5 62.5t14 74
q0 42 -16.5 79.5t-44.5 65.5t-66 44.5t-80 16.5t-80 -16.5t-66 -44.5t-44.5 -65.5t-16.5 -79.5q0 -43 16.5 -80.5t44.5 -65.5t66 -44.5t80 -16.5z" />
    <glyph glyph-name="h" unicode="h" horiz-adv-x="700" 
d="M162 770v-192q38 29 86 46t102 17q66 0 122.5 -25.5t98.5 -69t65.5 -101.5t23.5 -124h-1v-321h-113v321q0 42 -14.5 80t-41 66t-62.5 44.5t-78 16.5q-35 0 -65.5 -11t-54.5 -30t-41.5 -45.5t-26.5 -57.5v-386h-122v772q0 26 17.5 43t43.5 17q24 0 42.5 -17t18.5 -43z" />
    <glyph glyph-name="i" unicode="i" horiz-adv-x="203" 
d="M102 636q25 0 43 -18t18 -43v-575h-123v575q0 25 18 43t44 18zM102 707q-26 0 -44 18t-18 44q0 25 18 43t44 18q25 0 43 -18t18 -43q0 -26 -18 -44t-43 -18z" />
    <glyph glyph-name="j" unicode="j" horiz-adv-x="199" 
d="M102 636q25 0 43 -18t18 -43v-774h-123v774q0 25 18 43t44 18zM102 707q-26 0 -44 18t-18 44q0 25 18 43t44 18q25 0 43 -18t18 -43q0 -26 -18 -44t-43 -18z" />
    <glyph glyph-name="k" unicode="k" horiz-adv-x="523" 
d="M429 491l-128 -129q48 -24 89 -62t64 -86q29 -63 29 -136v-80h-109l-6 80q-3 40 -20.5 76t-45.5 62.5t-64.5 42t-76.5 15.5v-276h-121v772q0 25 17.5 42.5t43.5 17.5q24 0 42 -17t18 -43v-375h1l67 67l114 115q18 18 43 18t43 -18q19 -19 18.5 -43.5t-18.5 -42.5z" />
    <glyph glyph-name="l" unicode="l" horiz-adv-x="200" 
d="M158 772v-772h-118v772q0 26 18 42t41 16q27 0 43 -16t16 -42z" />
    <glyph glyph-name="m" unicode="m" horiz-adv-x="1045" 
d="M923 563q19 -20 34.5 -41.5t26 -46.5t16 -55t5.5 -67v-353h-112v350q0 41 -13 73t-35 54.5t-51.5 34t-63.5 11.5h-2q-32 0 -57.5 -13.5t-44 -36t-29.5 -51t-14 -58.5v-364h-119v350q0 35 -9.5 66.5t-28.5 55t-47 37.5t-65 14q-33 0 -62.5 -11.5t-51.5 -34t-34.5 -54.5
t-12.5 -73v-350h-111v353q0 67 22.5 120t61.5 89.5t91 56t111 19.5q30 0 59.5 -8t55.5 -22t47.5 -33t33.5 -40q11 21 32 40t47.5 33t56.5 22t59 8q60 0 112 -16.5t92 -58.5z" />
    <glyph glyph-name="n" unicode="n" horiz-adv-x="698" 
d="M39 321q0 66 23.5 124t64.5 100.5t98 67.5t124 25q66 0 122.5 -25t98.5 -67.5t65.5 -100.5t23.5 -124h-1v-321h-113v321q0 42 -14.5 79t-41 64t-62.5 42.5t-78 15.5q-43 0 -79 -15.5t-62.5 -42.5t-41 -64t-14.5 -79v-321h-113v321z" />
    <glyph glyph-name="o" unicode="o" horiz-adv-x="720" 
d="M360 638q66 0 124.5 -25.5t102 -69t68.5 -102t25 -123.5q0 -67 -25.5 -125.5t-69 -101.5t-101.5 -68t-124 -25t-124.5 25t-102 68t-68.5 101.5t-25 125.5q0 66 25 124t68.5 101.5t102 69t124.5 25.5zM360 111q42 0 80 16.5t66 44.5t44.5 65.5t16.5 80.5q0 42 -16.5 79.5
t-44.5 65.5t-66 44.5t-80 16.5t-80 -16.5t-66 -44.5t-44.5 -65.5t-16.5 -79.5q0 -43 16.5 -80.5t44.5 -65.5t66 -44.5t80 -16.5z" />
    <glyph glyph-name="p" unicode="p" 
d="M356 111q42 0 80 16.5t66 44.5t44.5 65.5t16.5 80.5q0 42 -16.5 79.5t-44.5 65.5t-66 44.5t-80 16.5t-80 -16.5t-66 -44.5t-44.5 -65.5t-16.5 -79.5q0 -43 16.5 -80.5t44.5 -65.5t66 -44.5t80 -16.5zM357 636q66 0 124 -25t101 -68.5t68 -101.5t25 -123q0 -66 -25 -123.5
t-68 -101t-101 -68.5t-124 -25q-57 0 -106.5 18t-89.5 51v-265h-121v514q0 65 25 123t67.5 101.5t100.5 68.5t124 25z" />
    <glyph glyph-name="q" unicode="q" 
d="M359 111q42 0 80 16.5t66 44.5t44.5 65.5t16.5 80.5q0 42 -16.5 79.5t-44.5 65.5t-66 44.5t-80 16.5t-80 -16.5t-66 -44.5t-44.5 -65.5t-16.5 -79.5q0 -43 16.5 -80.5t44.5 -65.5t66 -44.5t80 -16.5zM358 636q66 0 124 -25t100.5 -68.5t67.5 -101.5t25 -123v-515h-121
v266q-40 -33 -89.5 -51t-106.5 -18q-66 0 -124 25t-101 68.5t-68 101t-25 123.5q0 65 25 123t68 101.5t101 68.5t124 25z" />
    <glyph glyph-name="r" unicode="r" horiz-adv-x="439" 
d="M362 638q26 0 44 -18t18 -44t-18 -44t-44 -18q-40 0 -76 -14t-63 -39t-43 -59.5t-16 -75.5v-328h-124v341q0 72 25.5 128t69.5 94t102.5 57.5t124.5 19.5z" />
    <glyph glyph-name="s" unicode="s" horiz-adv-x="572" 
d="M216 391h134q40 0 74.5 -15.5t60 -42.5t40.5 -63t15 -76q0 -39 -16 -74t-42.5 -62t-62 -42.5t-74.5 -15.5h-274q-13 0 -13 14v90q0 14 13 14h274q32 0 54.5 22.5t22.5 53.5q0 34 -22.5 56t-54.5 22h-129q-36 0 -68.5 12.5t-57.5 36t-40 57t-15 76.5q0 37 14 70t39 58
t57.5 39.5t70.5 14.5h238q23 0 40 -16.5t17 -41.5t-17 -41.5t-40 -16.5h-238q-27 0 -46 -19.5t-19 -46.5q0 -26 19 -44.5t46 -18.5z" />
    <glyph glyph-name="t" unicode="t" horiz-adv-x="315" 
d="M96 -1v541h-54q-24 0 -41 17t-17 43q0 24 17 41t41 17h54v111q2 22 17.5 38.5t41.5 16.5h4q26 0 40.5 -18.5t14.5 -40.5v-107h54q24 0 41 -17t17 -41q0 -26 -17 -43t-41 -17h-54v-541h-118z" />
    <glyph glyph-name="u" unicode="u" horiz-adv-x="664" 
d="M567 632q24 0 40.5 -17t16.5 -40v-285q0 -61 -23 -114t-62.5 -92.5t-93 -62.5t-113.5 -23q-61 0 -114 23t-92.5 62.5t-62.5 92.5t-23 114v285q0 23 16.5 40t39.5 17q24 0 40.5 -17t16.5 -40v-284q0 -36 14 -68.5t38.5 -57t57 -39t69.5 -14.5t69.5 14.5t57 39t38.5 57
t14 68.5v284q0 23 16.5 40t39.5 17z" />
    <glyph glyph-name="v" unicode="v" horiz-adv-x="667" 
d="M594 626q18 -8 29 -23.5t11 -33.5q0 -10 -5 -22l-229 -547h-132l-229 547q-5 12 -5 22q0 18 11 33.5t29 23.5q13 5 23 5q18 0 33.5 -10.5t23.5 -27.5l180 -438l180 438q8 17 23.5 27.5t33.5 10.5q10 0 23 -5z" />
    <glyph glyph-name="w" unicode="w" horiz-adv-x="937" 
d="M469 270l-109 -270h-122l-229 547q-5 12 -5 22q0 18 11 33.5t29 23.5q13 5 23 5q18 0 33.5 -10.5t23.5 -27.5l180 -438l106 301q5 13 14 21t21 13q9 4 23 4q18 0 34 -9.5t23 -27.5l112 -302l180 438q8 17 23.5 27.5t33.5 10.5q10 0 23 -5q18 -8 29 -23.5t11 -33.5
q0 -10 -5 -22l-229 -547h-122z" />
    <glyph glyph-name="x" unicode="x" horiz-adv-x="718" 
d="M151 0h-113q0 48 13 91.5t37 81t57 67t74 49.5q-41 19 -74 48.5t-57 67t-37 81t-13 91.5q0 23 17.5 40t40.5 17q22 0 37.5 -14.5t18.5 -35.5v-7q0 -42 16.5 -80t44.5 -66t65.5 -44.5t79.5 -16.5q43 0 80.5 16.5t65.5 44.5t44.5 66t16.5 80q0 23 17 40t40 17t39.5 -17
t16.5 -40q0 -48 -13 -92t-37 -81.5t-57.5 -67t-74.5 -48.5q40 -20 73.5 -49.5t57.5 -67t37.5 -81t13.5 -90.5l-57 -2q-22 -1 -39.5 -0.5t-17.5 2.5q0 42 -16.5 80t-44.5 66t-65.5 44.5t-79.5 16.5q-43 0 -80.5 -16.5t-65.5 -44.5t-44.5 -66t-16.5 -80z" />
    <glyph glyph-name="y" unicode="y" horiz-adv-x="686" 
d="M594 626q18 -8 29 -23.5t11 -33.5q0 -10 -5 -22l-122 -292l-183 -437q-6 -18 -21 -28.5t-33 -10.5q-10 0 -23 5q-18 8 -29 23.5t-11 33.5q0 10 5 22l57 137l-230 547q-5 12 -5 22q0 18 11 33.5t29 23.5q13 5 23 5q18 0 33.5 -10.5t23.5 -27.5l180 -438l180 438
q8 17 23.5 27.5t33.5 10.5q10 0 23 -5z" />
    <glyph glyph-name="z" unicode="z" horiz-adv-x="615" 
d="M195 121h380v-123h-535v123l306 395h-244q-26 0 -44 17.5t-18 43.5q0 25 18 43t44 18h383l24 -12q23 -21 23 -50q0 -20 -13 -37z" />
    <glyph glyph-name="braceleft" unicode="{" horiz-adv-x="256" 
d="M80 30v263q0 27 -18.5 46.5t-44.5 19.5h-16v91q35 0 57 19t22 47v261q0 32 12 60t33.5 49t50.5 33.5t64 14.5h9q17 -2 29 -15t12 -30q0 -18 -12 -31t-29 -15q-35 0 -57 -19t-22 -47v-261q0 -35 -13 -63t-34 -49q21 -21 34 -49.5t13 -61.5v-263q0 -28 22 -47t57 -19v-91
q-36 0 -67 12t-53.5 33t-35.5 50t-13 62z" />
    <glyph glyph-name="bar" unicode="|" horiz-adv-x="181" 
d="M146 936v-1023h-110v1023h110z" />
    <glyph glyph-name="braceright" unicode="}" horiz-adv-x="256" 
d="M230 371q-26 0 -44.5 -19.5t-18.5 -46.5v-263q0 -33 -13 -62t-35.5 -50t-53.5 -33t-67 -12v91q35 0 57 19t22 47v263q0 33 12.5 61.5t34.5 49.5q-22 21 -34.5 49t-12.5 63v261q0 28 -22 47t-57 19q-17 2 -29 15t-12 31q0 17 12 30t29 15h8q34 -2 63.5 -14.5t51 -33.5
t34 -49t12.5 -60v-261q0 -28 21.5 -47t57.5 -19v-91h-16z" />
    <glyph glyph-name="asciitilde" unicode="~" horiz-adv-x="498" 
d="M18 445q4 16 16 26t29 10t29 -10t16 -26v-59q1 -22 16.5 -37.5t37.5 -15.5q16 0 33 14q4 3 7.5 6.5l8.5 8.5l18 19q18 20 43.5 37t63.5 17q30 0 56.5 -11t46 -30.5t30.5 -46t11 -56.5v-59h-92v59q0 22 -15.5 37.5t-37.5 15.5q-15 0 -32 -14q-9 -6 -16 -15l-18 -19
q-18 -20 -43.5 -37t-64.5 -17q-30 0 -56.5 11t-46 30.5t-30.5 46t-11 56.5z" />
    <glyph glyph-name="uni00A0" unicode="&#xa0;" horiz-adv-x="335" 
 />
    <glyph glyph-name="exclamdown" unicode="&#xa1;" horiz-adv-x="200" 
d="M97 1089q25 0 41.5 -17.5t16.5 -43.5q0 -25 -16.5 -42.5t-41.5 -17.5t-41.5 17.5t-16.5 42.5q0 26 16.5 43.5t41.5 17.5zM48 791q0 21 15 35.5t35 14.5q21 0 35.5 -14.5t14.5 -35.5v-807h-100v807z" />
    <glyph glyph-name="cent" unicode="&#xa2;" horiz-adv-x="660" 
d="M290 515q-39 -14 -67 -39l-7 -9q-30 -30 -45.5 -68.5t-15.5 -78.5t15 -77.5t45 -67.5q31 -32 75 -48v388zM351 740q24 0 42 -17t18 -43v-42q49 -8 93.5 -30t82.5 -61q17 -17 17 -41q0 -23 -17 -40q-16 -17 -39 -17t-41 18q-20 20 -45 33.5t-51 20.5v-400q55 12 97 54
q16 16 40 16q22 0 40 -16q17 -19 17 -40q0 -23 -17 -40q-38 -38 -83 -60t-94 -30v-97h-121v101q-42 10 -81.5 31t-73.5 55l-3 3q-46 47 -69 104.5t-23 118.5q0 57 20 112q24 64 75 115q33 33 72.5 54.5t82.5 31.5v46q0 25 17.5 42.5t43.5 17.5z" />
    <glyph glyph-name="sterling" unicode="&#xa3;" horiz-adv-x="363" 
d="M243 559q0 31 -11 45.5t-28 14.5q-16 0 -27 -12t-11 -29v-193h115v-104h-115v-177h174v-104h-274v281h-45v104h45v193q0 31 10.5 57.5t29.5 46t43.5 31t53.5 11.5t54 -11.5t44 -33t29.5 -52t10.5 -68.5h-98z" />
    <glyph glyph-name="yen" unicode="&#xa5;" horiz-adv-x="557" 
d="M444 716q5 17 19 28t33 11q23 0 39 -16t16 -39q0 -10 -3 -19q-3 -8 -7 -12l-164 -306h142v-104h-187v-30h187v-104h-187v-125h-107v125h-185v104h185v33q-12 -2 -42.5 -2.5t-62.5 -0.5h-80v104h139l-170 314q-2 6 -3 12t-1 11q0 23 16 39t39 16q17 0 31 -10t20 -25
l170 -342q5 12 14.5 33t22 47t26.5 55l28 58z" />
    <glyph glyph-name="dieresis" unicode="&#xa8;" horiz-adv-x="298" 
d="M64 701q-26 0 -44 18t-18 44q0 25 18 43t44 18q25 0 43 -18t18 -43q0 -26 -18 -44t-43 -18zM219 701q-26 0 -44 18t-18 44q0 25 18 43t44 18q25 0 43 -18t18 -43q0 -26 -18 -44t-43 -18z" />
    <glyph glyph-name="copyright" unicode="&#xa9;" horiz-adv-x="803" 
d="M138 350q0 -54 21 -102.5t57 -84.5t84.5 -57t102.5 -21t102 21t84 57t57 84.5t21 102.5t-21 102t-57 84t-84 57t-102 21t-102.5 -21t-84.5 -57t-57 -84t-21 -102zM28 350q0 77 29.5 145t80.5 119t119 80.5t145 29.5t145 -29.5t119 -80.5t80.5 -119t29.5 -145t-29.5 -145
t-80.5 -119t-119 -80.5t-145 -29.5t-145 29.5t-119 80.5t-80.5 119t-29.5 145zM500 263q10 10 24 10t24 -10q11 -10 11 -23.5t-11 -24.5q-27 -27 -62.5 -41.5t-72.5 -15t-73 13.5t-64 43l-1 2h-1v1q-40 42 -50.5 95.5t8.5 104.5q13 38 44 69q28 28 63.5 42t72.5 14t72.5 -14
t63.5 -42q10 -10 9.5 -24t-10.5 -25t-23.5 -10.5t-24.5 11.5q-17 17 -39 26t-45 10t-45.5 -7t-40.5 -24q-1 -2 -4 -5q-18 -18 -27 -41t-9.5 -47t8.5 -47t27 -41h1q18 -18 40.5 -27t46.5 -9t47 9t41 27z" />
    <glyph glyph-name="guillemotleft" unicode="&#xab;" horiz-adv-x="577" 
d="M241 505q15 17 36 17q20 0 34 -14t14 -34q0 -24 -18 -37l-174 -188l175 -184l-68 -73l-244 257zM451 505q15 17 36 17q20 0 34 -14t14 -34q0 -24 -18 -37l-174 -188l175 -184l-68 -73l-244 257z" />
    <glyph glyph-name="registered" unicode="&#xae;" horiz-adv-x="803" 
d="M776 350q0 -77 -29.5 -145t-80.5 -119t-119 -80.5t-145 -29.5t-145 29.5t-119 80.5t-80.5 119t-29.5 145t29.5 145t80.5 119t119 80.5t145 29.5t145 -29.5t119 -80.5t80.5 -119t29.5 -145zM671 350q0 55 -21.5 103.5t-58.5 85.5t-85.5 58.5t-103.5 21.5t-104 -21.5
t-86 -58.5t-58.5 -85.5t-21.5 -103.5t21.5 -104t58.5 -86t86 -58.5t104 -21.5t103.5 21.5t85.5 58.5t58.5 86t21.5 104zM446 176v91q0 12 -4.5 22.5t-16.5 21.5h-66v-136h-83v332q0 17 11 30.5t31 13.5h110q23 0 43 -10t34.5 -26.5t23 -38t8.5 -45.5q0 -50 -30 -82
q24 -39 24 -82v-91h-85zM359 401h69q8 0 16.5 8t8.5 22q0 16 -9 25.5t-17 9.5h-68v-65z" />
    <glyph glyph-name="plusminus" unicode="&#xb1;" horiz-adv-x="378" 
d="M19 0v101h341v-101h-341zM139 456q0 20 14.5 34.5t34.5 14.5t34.5 -14.5t14.5 -34.5v-104h123v-101h-123v-126h-98v126h-120v101h120v104z" />
    <glyph glyph-name="acute" unicode="&#xb4;" horiz-adv-x="161" 
d="M147 1033q5 11 14.5 18t22.5 7q16 0 27.5 -11.5t11.5 -28.5q0 -12 -6 -21l-47 -90l-86 2z" />
    <glyph glyph-name="mu" unicode="&#xb5;" horiz-adv-x="528" 
d="M389 500q0 21 15 36t35 15q21 0 36 -15t15 -36v-279q0 -48 -17.5 -90t-48 -73.5t-71.5 -50t-87 -18.5q-69 0 -122 37v-224h-104v698q0 21 15 36.5t37 15.5q21 0 36 -15.5t15 -36.5v-279q0 -26 9.5 -49t26.5 -40t39 -27t48 -10q25 0 47.5 10t39.5 27t26.5 40t9.5 49v279z
" />
    <glyph glyph-name="periodcentered" unicode="&#xb7;" horiz-adv-x="150" 
d="M76 243q-26 0 -44 18t-18 44q0 25 18 43t44 18q25 0 43 -18t18 -43q0 -26 -18 -44t-43 -18z" />
    <glyph glyph-name="cedilla" unicode="&#xb8;" horiz-adv-x="230" 
d="M40 -264v70h70q14 0 24 10t10 24t-10 24.5t-24 10.5h-70v125h70v-55q21 0 40.5 -8.5t33.5 -22.5t22.5 -33t8.5 -41t-8.5 -41t-22.5 -33t-33.5 -22t-40.5 -8h-70z" />
    <glyph glyph-name="guillemotright" unicode="&#xbb;" horiz-adv-x="577" 
d="M307 505l246 -256l-245 -257l-68 73l175 184l-174 188q-18 13 -18 37q0 20 14 34t34 14q22 0 36 -17zM97 505l246 -256l-245 -257l-68 73l175 184l-174 188q-18 13 -18 37q0 20 14 34t34 14q22 0 36 -17z" />
    <glyph glyph-name="questiondown" unicode="&#xbf;" horiz-adv-x="455" 
d="M324 -10h-9q-62 0 -115.5 24t-93 66t-62.5 98t-23 119q0 57 19 108t52.5 91t79 67t98.5 36v225h103v-322h-55q-41 0 -77 -16t-63 -43.5t-42.5 -65t-15.5 -80.5t15.5 -80.5t42.5 -65t63 -43.5t77 -16h6q23 0 39.5 -14t16.5 -37t-16.5 -37t-39.5 -14zM329 1037q26 0 44 -18
t18 -44t-18 -44t-44 -18t-44 18t-18 44t18 44t44 18z" />
    <glyph glyph-name="Agrave" unicode="&#xc0;" horiz-adv-x="721" 
d="M356 829q66 0 123.5 -24.5t100.5 -67.5t67.5 -100.5t24.5 -123.5v-513h-116v192h-399v-192h-117v513q0 66 25 123.5t68 100.5t100.5 67.5t122.5 24.5zM556 310v203q0 41 -15.5 77.5t-42.5 63.5t-63.5 43t-78.5 16q-41 0 -77.5 -16t-63.5 -43t-42.5 -63.5t-15.5 -77.5
v-203h399zM206 1157q0 17 11 28t28 11q25 0 36 -24l53 -127h-78l-47 96q-3 7 -3 16z" />
    <glyph glyph-name="Aacute" unicode="&#xc1;" horiz-adv-x="712" 
d="M425 1046q0 17 -10.998 28t-27.9941 11q-24.9961 0 -35.9941 -24l-52.9902 -127h77.9863l46.9912 96q2.99902 7 2.99902 16zM356 829q66 0 123.5 -24.5t100.5 -67.5t67.5 -100.5t24.5 -123.5v-513h-116v192h-399v-192h-117v513q0 66 25 123.5t68 100.5t100.5 67.5
t122.5 24.5zM556 310v203q0 41 -15.5 77.5t-42.5 63.5t-63.5 43t-78.5 16q-41 0 -77.5 -16t-63.5 -43t-42.5 -63.5t-15.5 -77.5v-203h399z" />
    <glyph glyph-name="Acircumflex" unicode="&#xc2;" horiz-adv-x="731" 
d="M356 829q66 0 123.5 -24.5t100.5 -67.5t67.5 -100.5t24.5 -123.5v-513h-116v192h-399v-192h-117v513q0 66 25 123.5t68 100.5t100.5 67.5t122.5 24.5zM556 310v203q0 41 -15.5 77.5t-42.5 63.5t-63.5 43t-78.5 16q-41 0 -77.5 -16t-63.5 -43t-42.5 -63.5t-15.5 -77.5
v-203h399zM314 1083q5 12 16.5 20t25.5 8q13 0 24 -7.5t16 -18.5l96 -149h-76l-60 84l-61 -84h-75z" />
    <glyph glyph-name="Atilde" unicode="&#xc3;" horiz-adv-x="696" 
d="M356 829q66 0 123.5 -24.5t100.5 -67.5t67.5 -100.5t24.5 -123.5v-513h-116v192h-399v-192h-117v513q0 66 25 123.5t68 100.5t100.5 67.5t122.5 24.5zM556 310v203q0 41 -15.5 77.5t-42.5 63.5t-63.5 43t-78.5 16q-41 0 -77.5 -16t-63.5 -43t-42.5 -63.5t-15.5 -77.5
v-203h399zM478 1002q0 -4 -1 -7.5t-2 -6.5q-32 -55 -87 -55q-31 0 -59 17q-11 6 -19 6q-18 0 -31 -22l-62 37q16 28 40 42.5t52 14.5q27 0 57 -16q10 -6 19 -6q18 0 31 21q13 10 27 10t24.5 -10.5t10.5 -24.5z" />
    <glyph glyph-name="Adieresis" unicode="&#xc4;" horiz-adv-x="721" 
d="M356 829q66 0 123.5 -24.5t100.5 -67.5t67.5 -100.5t24.5 -123.5v-513h-116v192h-399v-192h-117v513q0 66 25 123.5t68 100.5t100.5 67.5t122.5 24.5zM556 310v203q0 41 -15.5 77.5t-42.5 63.5t-63.5 43t-78.5 16q-41 0 -77.5 -16t-63.5 -43t-42.5 -63.5t-15.5 -77.5
v-203h399zM282 938q-26 0 -44 18t-18 44q0 25 18 43t44 18q25 0 43 -18t18 -43q0 -26 -18 -44t-43 -18zM437 938q-26 0 -44 18t-18 44q0 25 18 43t44 18q25 0 43 -18t18 -43q0 -26 -18 -44t-43 -18z" />
    <glyph glyph-name="AE" unicode="&#xc6;" horiz-adv-x="1072" 
d="M560 541q-5 36 -22 67.5t-43.5 54.5t-60.5 36.5t-72 13.5q-41 0 -77.5 -16t-63.5 -43t-42.5 -63.5t-15.5 -77.5v-203h397v231zM682 122h345v-124h-467v194h-397v-192h-117v513q0 66 25 123.5t68 100.5t100.5 67.5t122.5 24.5q63 0 116.5 -21.5t95.5 -59.5q8 25 20.5 43.5
t26.5 18.5h315q22 0 37.5 -15t15.5 -37q0 -23 -15.5 -38.5t-37.5 -15.5h-254v-221h216v-110h-216v-251z" />
    <glyph glyph-name="Ccedilla" unicode="&#xc7;" horiz-adv-x="770" 
d="M456 124h173v-126h-173q-86 0 -162 33t-132.5 90t-89 132.5t-32.5 160.5q0 82 29.5 156.5t80.5 131.5t120 91t149 36l43 1h82q26 0 44 -18t18 -44t-18 -44t-44 -18h-88q-60 0 -113 -23t-92.5 -62.5t-62 -92.5t-22.5 -114q0 -60 22.5 -113t62 -92t92.5 -62t113 -23z
M355 -214v70h70q14 0 24 10t10 24t-10 24.5t-24 10.5h-70v125h70v-55q21 0 40.5 -8.5t33.5 -22.5t22.5 -33t8.5 -41t-8.5 -41t-22.5 -33t-33.5 -22t-40.5 -8h-70z" />
    <glyph glyph-name="Egrave" unicode="&#xc8;" horiz-adv-x="597" 
d="M162 122h415v-124h-537v772q0 26 17.5 43t43.5 17h385q22 0 37.5 -15t15.5 -37q0 -23 -15.5 -38.5t-37.5 -15.5h-324v-241h216v-110h-216v-251zM232 1048q0 17 11 28t28 11q25 0 36 -24l53 -127h-78l-47 96q-3 7 -3 16z" />
    <glyph glyph-name="Eacute" unicode="&#xc9;" horiz-adv-x="620" 
d="M162 122h415v-124h-537v772q0 26 17.5 43t43.5 17h385q22 0 37.5 -15t15.5 -37q0 -23 -15.5 -38.5t-37.5 -15.5h-324v-241h216v-110h-216v-251zM379 1047q0 17 -10.998 28t-27.9941 11q-24.9961 0 -35.9941 -24l-52.9902 -127h77.9863l46.9912 96q2.99902 7 2.99902 16z
" />
    <glyph glyph-name="Ecircumflex" unicode="&#xca;" horiz-adv-x="533" 
d="M162 122h415v-124h-537v772q0 26 17.5 43t43.5 17h385q22 0 37.5 -15t15.5 -37q0 -23 -15.5 -38.5t-37.5 -15.5h-324v-241h216v-110h-216v-251zM261 1080q5 12 16.5 20t25.5 8q13 0 24 -7.5t16 -18.5l96 -149h-76l-60 84l-61 -84h-75z" />
    <glyph glyph-name="Edieresis" unicode="&#xcb;" horiz-adv-x="595" 
d="M162 122h415v-124h-537v772q0 26 17.5 43t43.5 17h385q22 0 37.5 -15t15.5 -37q0 -23 -15.5 -38.5t-37.5 -15.5h-324v-241h216v-110h-216v-251zM231 933q-26 0 -44 18t-18 44q0 25 18 43t44 18q25 0 43 -18t18 -43q0 -26 -18 -44t-43 -18zM386 933q-26 0 -44 18t-18 44
q0 25 18 43t44 18q25 0 43 -18t18 -43q0 -26 -18 -44t-43 -18z" />
    <glyph glyph-name="Igrave" unicode="&#xcc;" horiz-adv-x="212" 
d="M104 830q24 0 42 -17t18 -43v-772h-121v772q0 25 17.5 42.5t43.5 17.5zM38 1047q0 17 11 28t28 11q25 0 36 -24l53 -127h-78l-47 96q-3 7 -3 16z" />
    <glyph glyph-name="Iacute" unicode="&#xcd;" horiz-adv-x="185" 
d="M102 830q24 0 42 -17t18 -43v-772h-121v772q0 25 17.5 42.5t43.5 17.5zM177 1048q0 17 -10.998 28t-27.9941 11q-24.9961 0 -35.9941 -24l-52.9902 -127h77.9863l46.9912 96q2.99902 7 2.99902 16z" />
    <glyph glyph-name="Icircumflex" unicode="&#xce;" horiz-adv-x="181" 
d="M100 830q24 0 42 -17t18 -43v-772h-121v772q0 25 17.5 42.5t43.5 17.5zM58 1078q5 12 16.5 20t25.5 8q13 0 24 -7.5t16 -18.5l96 -149h-76l-60 84l-61 -84h-75z" />
    <glyph glyph-name="Idieresis" unicode="&#xcf;" horiz-adv-x="220" 
d="M116 830q24 0 42 -17t18 -43v-772h-121v772q0 25 17.5 42.5t43.5 17.5zM42 937q-26 0 -44 18t-18 44q0 25 18 43t44 18q25 0 43 -18t18 -43q0 -26 -18 -44t-43 -18zM197 937q-26 0 -44 18t-18 44q0 25 18 43t44 18q25 0 43 -18t18 -43q0 -26 -18 -44t-43 -18z" />
    <glyph glyph-name="Eth" unicode="&#xd0;" horiz-adv-x="693" 
d="M-38 425h78v344q0 26 18 43.5t44 17.5h178q79 0 148 -34t120.5 -91.5t81 -133t29.5 -157.5q0 -85 -33 -160.5t-89.5 -132.5t-132.5 -90t-161 -33h-203v317h-78v110zM164 425h139v-110h-139v-191h79q60 0 113 23t92 62t62 92t23 113q0 61 -23 114t-62 92.5t-92 62.5
t-113 23h-79v-281z" />
    <glyph glyph-name="Ntilde" unicode="&#xd1;" horiz-adv-x="711" 
d="M358 830q66 0 124.5 -25t102 -68t68.5 -101t25 -124v-514h-124v514q0 40 -15.5 75.5t-42 62t-62.5 42t-76 15.5q-41 0 -76.5 -15.5t-61.5 -42t-41.5 -62t-15.5 -75.5v-514h-123v514q0 66 25 124t68.5 101t101 68t123.5 25zM492 1001q0 -4 -1 -7.5t-2 -6.5
q-32 -55 -87 -55q-31 0 -59 17q-11 6 -19 6q-18 0 -31 -22l-62 37q16 28 40 42.5t52 14.5q27 0 57 -16q10 -6 19 -6q18 0 31 21q13 10 27 10t24.5 -10.5t10.5 -24.5z" />
    <glyph glyph-name="Ograve" unicode="&#xd2;" horiz-adv-x="914" 
d="M456 827q86 0 162 -32.5t132.5 -88.5t89 -132t32.5 -163q0 -85 -32.5 -160.5t-89 -132.5t-132.5 -90t-162 -33t-162 33t-132.5 90t-89 132.5t-32.5 160.5q0 87 32.5 163t89 132t132.5 88.5t162 32.5zM456 121q60 0 113 23t92.5 62t62 92t22.5 113q0 61 -22.5 114
t-62 92.5t-92.5 62.5t-113 23t-113 -23t-92.5 -62.5t-62 -92.5t-22.5 -114q0 -60 22.5 -113t62 -92t92.5 -62t113 -23zM393 1050q0 17 11 28t28 11q25 0 36 -24l53 -127h-78l-47 96q-3 7 -3 16z" />
    <glyph glyph-name="Oacute" unicode="&#xd3;" horiz-adv-x="898" 
d="M456 830q86 0 162 -32.5t132.5 -88.5t89 -132t32.5 -163q0 -85 -32.5 -160.5t-89 -132.5t-132.5 -90t-162 -33t-162 33t-132.5 90t-89 132.5t-32.5 160.5q0 87 32.5 163t89 132t132.5 88.5t162 32.5zM456 124q60 0 113 23t92.5 62t62 92t22.5 113q0 61 -22.5 114
t-62 92.5t-92.5 62.5t-113 23t-113 -23t-92.5 -62.5t-62 -92.5t-22.5 -114q0 -60 22.5 -113t62 -92t92.5 -62t113 -23zM536 1048q0 17 -10.998 28t-27.9941 11q-24.9961 0 -35.9941 -24l-52.9902 -127h77.9863l46.9912 96q2.99902 7 2.99902 16z" />
    <glyph glyph-name="Ocircumflex" unicode="&#xd4;" horiz-adv-x="888" 
d="M455 830q86 0 162 -32.5t132.5 -88.5t89 -132t32.5 -163q0 -85 -32.5 -160.5t-89 -132.5t-132.5 -90t-162 -33t-162 33t-132.5 90t-89 132.5t-32.5 160.5q0 87 32.5 163t89 132t132.5 88.5t162 32.5zM455 124q60 0 113 23t92.5 62t62 92t22.5 113q0 61 -22.5 114
t-62 92.5t-92.5 62.5t-113 23t-113 -23t-92.5 -62.5t-62 -92.5t-22.5 -114q0 -60 22.5 -113t62 -92t92.5 -62t113 -23zM404 1082q5 12 16.5 20t25.5 8q13 0 24 -7.5t16 -18.5l96 -149h-76l-60 84l-61 -84h-75z" />
    <glyph glyph-name="Otilde" unicode="&#xd5;" horiz-adv-x="898" 
d="M449 830q86 0 162 -32.5t132.5 -88.5t89 -132t32.5 -163q0 -85 -32.5 -160.5t-89 -132.5t-132.5 -90t-162 -33t-162 33t-132.5 90t-89 132.5t-32.5 160.5q0 87 32.5 163t89 132t132.5 88.5t162 32.5zM449 124q60 0 113 23t92.5 62t62 92t22.5 113q0 61 -22.5 114
t-62 92.5t-92.5 62.5t-113 23t-113 -23t-92.5 -62.5t-62 -92.5t-22.5 -114q0 -60 22.5 -113t62 -92t92.5 -62t113 -23zM577 1003q0 -4 -1 -7.5t-2 -6.5q-32 -55 -87 -55q-31 0 -59 17q-11 6 -19 6q-18 0 -31 -22l-62 37q16 28 40 42.5t52 14.5q27 0 57 -16q10 -6 19 -6
q18 0 31 21q13 10 27 10t24.5 -10.5t10.5 -24.5z" />
    <glyph glyph-name="Odieresis" unicode="&#xd6;" horiz-adv-x="910" 
d="M456 830q86 0 162 -32.5t132.5 -88.5t89 -132t32.5 -163q0 -85 -32.5 -160.5t-89 -132.5t-132.5 -90t-162 -33t-162 33t-132.5 90t-89 132.5t-32.5 160.5q0 87 32.5 163t89 132t132.5 88.5t162 32.5zM456 124q60 0 113 23t92.5 62t62 92t22.5 113q0 61 -22.5 114
t-62 92.5t-92.5 62.5t-113 23t-113 -23t-92.5 -62.5t-62 -92.5t-22.5 -114q0 -60 22.5 -113t62 -92t92.5 -62t113 -23zM375 939q-26 0 -44 18t-18 44q0 25 18 43t44 18q25 0 43 -18t18 -43q0 -26 -18 -44t-43 -18zM530 939q-26 0 -44 18t-18 44q0 25 18 43t44 18
q25 0 43 -18t18 -43q0 -26 -18 -44t-43 -18z" />
    <glyph glyph-name="multiply" unicode="&#xd7;" horiz-adv-x="353" 
d="M11 397q0 20 14.5 34.5t34.5 14.5q14 0 25.5 -7.5t17.5 -19.5l74 -72l69 69q7 11 18 18t25 7q20 0 34.5 -14.5t14.5 -34.5q0 -17 -10 -30l-83 -83l85 -85l-68 -69l-85 85l-85 -85l-69 69l85 85l-84 82q-13 16 -13 36z" />
    <glyph glyph-name="Oslash" unicode="&#xd8;" horiz-adv-x="790" 
d="M311 34l83 561q-57 -4 -106 -28.5t-85 -63.5t-56.5 -90t-20.5 -109q0 -46 13.5 -88t38 -77t58.5 -62t75 -43zM513 580l-84 -566q58 3 108.5 26.5t88 62.5t59 90.5t21.5 110.5q0 48 -14.5 91.5t-40 79.5t-61 63t-77.5 42zM481 830q12 0 23.5 -4.5t20.5 -12.5t13.5 -19
t2.5 -24l-10 -66q65 -18 120.5 -56t95.5 -90.5t62.5 -117t22.5 -136.5q0 -85 -32.5 -161t-89 -133t-132.5 -90t-162 -32h-6l-9 -60h-121l12 79q-63 20 -116.5 58.5t-92.5 91t-61 115.5t-22 132q0 87 32.5 162.5t88.5 131.5t131 88.5t161 33.5l7 50q4 25 19.5 42.5t41.5 17.5
z" />
    <glyph glyph-name="Ugrave" unicode="&#xd9;" horiz-adv-x="698" 
d="M614 831q26 0 44.5 -17.5t18.5 -43.5v-452q0 -66 -25 -124t-68 -101.5t-101.5 -68.5t-124.5 -25t-124 25t-101 68.5t-68 101.5t-25 124v452q0 25 18 43t44 18t43.5 -17.5t17.5 -43.5v-452q0 -41 15.5 -76.5t41.5 -62t61.5 -42t76.5 -15.5q40 0 75.5 15.5t62.5 42t42.5 62
t15.5 76.5v452q0 25 17.5 43t42.5 18zM297 1047q0 17 11 28t28 11q25 0 36 -24l53 -127h-78l-47 96q-3 7 -3 16z" />
    <glyph glyph-name="Uacute" unicode="&#xda;" horiz-adv-x="686" 
d="M614 831q26 0 44.5 -17.5t18.5 -43.5v-452q0 -66 -25 -124t-68 -101.5t-101.5 -68.5t-124.5 -25t-124 25t-101 68.5t-68 101.5t-25 124v452q0 25 18 43t44 18t43.5 -17.5t17.5 -43.5v-452q0 -41 15.5 -76.5t41.5 -62t61.5 -42t76.5 -15.5q40 0 75.5 15.5t62.5 42t42.5 62
t15.5 76.5v452q0 25 17.5 43t42.5 18zM432 1047q0 17 -10.998 28t-27.9941 11q-24.9961 0 -35.9941 -24l-52.9902 -127h77.9863l46.9912 96q2.99902 7 2.99902 16z" />
    <glyph glyph-name="Ucircumflex" unicode="&#xdb;" horiz-adv-x="700" 
d="M614 831q26 0 44.5 -17.5t18.5 -43.5v-452q0 -66 -25 -124t-68 -101.5t-101.5 -68.5t-124.5 -25t-124 25t-101 68.5t-68 101.5t-25 124v452q0 25 18 43t44 18t43.5 -17.5t17.5 -43.5v-452q0 -41 15.5 -76.5t41.5 -62t61.5 -42t76.5 -15.5q40 0 75.5 15.5t62.5 42t42.5 62
t15.5 76.5v452q0 25 17.5 43t42.5 18zM323 1084q5 12 16.5 20t25.5 8q13 0 24 -7.5t16 -18.5l96 -149h-76l-60 84l-61 -84h-75z" />
    <glyph glyph-name="Udieresis" unicode="&#xdc;" horiz-adv-x="690" 
d="M614 831q26 0 44.5 -17.5t18.5 -43.5v-452q0 -66 -25 -124t-68 -101.5t-101.5 -68.5t-124.5 -25t-124 25t-101 68.5t-68 101.5t-25 124v452q0 25 18 43t44 18t43.5 -17.5t17.5 -43.5v-452q0 -41 15.5 -76.5t41.5 -62t61.5 -42t76.5 -15.5q40 0 75.5 15.5t62.5 42t42.5 62
t15.5 76.5v452q0 25 17.5 43t42.5 18zM280 935q-26 0 -44 18t-18 44q0 25 18 43t44 18q25 0 43 -18t18 -43q0 -26 -18 -44t-43 -18zM435 935q-26 0 -44 18t-18 44q0 25 18 43t44 18q25 0 43 -18t18 -43q0 -26 -18 -44t-43 -18z" />
    <glyph glyph-name="Yacute" unicode="&#xdd;" horiz-adv-x="705" 
d="M614 834q26 0 44 -18t18 -44v-318q0 -57 -19.5 -109.5t-53.5 -94t-81.5 -70t-102.5 -38.5v-140h-122v140q-55 10 -102 38.5t-81.5 70t-54 94t-19.5 109.5v318q0 26 18 44t44 18q25 0 43 -18t18 -44v-318q0 -41 15.5 -76.5t41.5 -61.5t61.5 -41.5t76.5 -15.5
q40 0 75.5 15.5t62.5 41.5t42.5 61.5t15.5 76.5v318q0 26 17.5 44t42.5 18zM354 1061q5 11 14.5 18t22.5 7q16 0 27.5 -11.5t11.5 -28.5q0 -12 -6 -21l-47 -90l-86 2z" />
    <glyph glyph-name="Thorn" unicode="&#xde;" horiz-adv-x="407" 
d="M245 402q-32 26 -91 26h-16v-195h16q32 0 55.5 5.5t41.5 19.5q14 11 19 28.5t5 43.5q0 48 -30 72zM20 709q0 23 16 39t39 16t39 -16t16 -39v-170h18q57 0 102.5 -12.5t80.5 -41.5t51 -68t16 -87q0 -97 -67 -154q-34 -29 -80 -41.5t-103 -12.5h-18v-123h-110v710z" />
    <glyph glyph-name="germandbls" unicode="&#xdf;" horiz-adv-x="481" 
d="M-15 674q0 7 4.5 15t11.5 15t15 11.5t16 4.5h146q57 0 102.5 -13t80.5 -42q35 -28 51 -67t16 -87q0 -42 -12.5 -75.5t-36.5 -60.5q8 -5 14.5 -9.5t13.5 -9.5q33 -32 51.5 -69.5t18.5 -91.5q0 -48 -17 -88.5t-53 -70.5q-35 -30 -83 -43t-105 -13h-51v111h52q38 0 63 7.5
t41 20.5q36 31 36 77q0 49 -36 79q-16 13 -41.5 20.5t-62.5 7.5h-52v108h42q39 0 70 28q33 25 33 72t-32 73q-34 28 -101 28h-76v-632h-116z" />
    <glyph glyph-name="agrave" unicode="&#xe0;" horiz-adv-x="702" 
d="M359 109q42 0 80 16.5t66 44.5t44.5 65.5t16.5 80.5q0 42 -16.5 79.5t-44.5 65.5t-66 44.5t-80 16.5t-80 -16.5t-66 -44.5t-44.5 -65.5t-16.5 -79.5q0 -43 16.5 -80.5t44.5 -65.5t66 -44.5t80 -16.5zM360 638q66 0 124.5 -25t102 -68.5t68.5 -101.5t25 -125v-320h-122v69
q-40 -33 -90.5 -51t-107.5 -18q-66 0 -124.5 25t-102 68.5t-68.5 102t-25 124.5q0 67 25 125t68.5 101.5t102 68.5t124.5 25zM294 814q0 17 11 28t28 11q25 0 36 -24l53 -127h-78l-47 96q-3 7 -3 16z" />
    <glyph glyph-name="aacute" unicode="&#xe1;" horiz-adv-x="708" 
d="M359 109q42 0 80 16.5t66 44.5t44.5 65.5t16.5 80.5q0 42 -16.5 79.5t-44.5 65.5t-66 44.5t-80 16.5t-80 -16.5t-66 -44.5t-44.5 -65.5t-16.5 -79.5q0 -43 16.5 -80.5t44.5 -65.5t66 -44.5t80 -16.5zM360 638q66 0 124.5 -25t102 -68.5t68.5 -101.5t25 -125v-320h-122v69
q-40 -33 -90.5 -51t-107.5 -18q-66 0 -124.5 25t-102 68.5t-68.5 102t-25 124.5q0 67 25 125t68.5 101.5t102 68.5t124.5 25zM436 816q0 17 -10.998 28t-27.9941 11q-24.9961 0 -35.9941 -24l-52.9902 -127h77.9863l46.9912 96q2.99902 7 2.99902 16z" />
    <glyph glyph-name="acircumflex" unicode="&#xe2;" horiz-adv-x="617" 
d="M359 109q42 0 80 16.5t66 44.5t44.5 65.5t16.5 80.5q0 42 -16.5 79.5t-44.5 65.5t-66 44.5t-80 16.5t-80 -16.5t-66 -44.5t-44.5 -65.5t-16.5 -79.5q0 -43 16.5 -80.5t44.5 -65.5t66 -44.5t80 -16.5zM360 638q66 0 124.5 -25t102 -68.5t68.5 -101.5t25 -125v-320h-122v69
q-40 -33 -90.5 -51t-107.5 -18q-66 0 -124.5 25t-102 68.5t-68.5 102t-25 124.5q0 67 25 125t68.5 101.5t102 68.5t124.5 25zM322 850q5 12 16.5 20t25.5 8q13 0 24 -7.5t16 -18.5l96 -149h-76l-60 84l-61 -84h-75z" />
    <glyph glyph-name="atilde" unicode="&#xe3;" horiz-adv-x="619" 
d="M359 109q42 0 80 16.5t66 44.5t44.5 65.5t16.5 80.5q0 42 -16.5 79.5t-44.5 65.5t-66 44.5t-80 16.5t-80 -16.5t-66 -44.5t-44.5 -65.5t-16.5 -79.5q0 -43 16.5 -80.5t44.5 -65.5t66 -44.5t80 -16.5zM360 638q66 0 124.5 -25t102 -68.5t68.5 -101.5t25 -125v-320h-122v69
q-40 -33 -90.5 -51t-107.5 -18q-66 0 -124.5 25t-102 68.5t-68.5 102t-25 124.5q0 67 25 125t68.5 101.5t102 68.5t124.5 25zM477 770q0 -4 -1 -7.5t-2 -6.5q-32 -55 -87 -55q-31 0 -59 17q-11 6 -19 6q-18 0 -31 -22l-62 37q16 28 40 42.5t52 14.5q27 0 57 -16q10 -6 19 -6
q18 0 31 21q13 10 27 10t24.5 -10.5t10.5 -24.5z" />
    <glyph glyph-name="adieresis" unicode="&#xe4;" horiz-adv-x="620" 
d="M359 109q42 0 80 16.5t66 44.5t44.5 65.5t16.5 80.5q0 42 -16.5 79.5t-44.5 65.5t-66 44.5t-80 16.5t-80 -16.5t-66 -44.5t-44.5 -65.5t-16.5 -79.5q0 -43 16.5 -80.5t44.5 -65.5t66 -44.5t80 -16.5zM360 638q66 0 124.5 -25t102 -68.5t68.5 -101.5t25 -125v-320h-122v69
q-40 -33 -90.5 -51t-107.5 -18q-66 0 -124.5 25t-102 68.5t-68.5 102t-25 124.5q0 67 25 125t68.5 101.5t102 68.5t124.5 25zM279 701q-26 0 -44 18t-18 44q0 25 18 43t44 18q25 0 43 -18t18 -43q0 -26 -18 -44t-43 -18zM434 701q-26 0 -44 18t-18 44q0 25 18 43t44 18
q25 0 43 -18t18 -43q0 -26 -18 -44t-43 -18z" />
    <glyph glyph-name="ae" unicode="&#xe6;" horiz-adv-x="1217" 
d="M355 109q42 0 80 16.5t66 44.5t44.5 65.5t16.5 80.5q0 42 -16.5 79.5t-44.5 65.5t-66 44.5t-80 16.5t-80 -16.5t-66 -44.5t-44.5 -65.5t-16.5 -79.5q0 -43 16.5 -80.5t44.5 -65.5t66 -44.5t80 -16.5zM356 638q66 0 124.5 -25t102 -68.5t68.5 -101.5t25 -125v-320h-122v69
q-40 -33 -90.5 -51t-107.5 -18q-66 0 -124.5 25t-102 68.5t-68.5 102t-25 124.5q0 67 25 125t68.5 101.5t102 68.5t124.5 25zM682 380h393q-10 31 -29 57.5t-44.5 46t-57 30.5t-65.5 11q-35 0 -66 -11t-57 -30.5t-45 -46t-29 -57.5zM1025 175q16 16 40 16q22 0 40 -16
q17 -19 17 -40q0 -23 -17 -40q-47 -47 -106 -70.5t-121 -23.5q-65 0 -122.5 25.5t-101.5 69t-69.5 102t-25.5 123.5t25 123t68 101t101.5 68t125.5 25q66 0 124 -25.5t101.5 -69t69 -101.5t25.5 -124q0 -25 -18 -43t-43 -18h-456q9 -32 29 -58t46.5 -45t57.5 -29t63 -10
q40 0 78.5 15t68.5 45z" />
    <glyph glyph-name="ccedilla" unicode="&#xe7;" horiz-adv-x="598" 
d="M508 175q16 16 40 16q22 0 40 -16q17 -19 17 -40q0 -23 -17 -40q-48 -48 -105.5 -71t-119.5 -23q-61 0 -120.5 23t-107.5 71t-71 106t-23 119q0 58 20 113q22 63 74 115q47 47 105.5 70.5t120.5 23.5t120.5 -23.5t106.5 -70.5q16 -19 16 -41q0 -24 -17 -41
q-16 -17 -39 -17t-41 18q-30 30 -68.5 45.5t-79.5 15.5q-37 0 -72 -13t-64 -39l-7 -9q-30 -30 -45.5 -68.5t-15.5 -78.5t15 -77.5t45 -67.5t68 -45t78 -15t78.5 15t68.5 45zM287 -206v70h70q14 0 24 10t10 24t-10 24.5t-24 10.5h-70v125h70v-55q21 0 40.5 -8.5t33.5 -22.5
t22.5 -33t8.5 -41t-8.5 -41t-22.5 -33t-33.5 -22t-40.5 -8h-70z" />
    <glyph glyph-name="egrave" unicode="&#xe8;" horiz-adv-x="682" 
d="M165 380h393q-10 31 -29 57.5t-44.5 46t-57 30.5t-65.5 11q-35 0 -66 -11t-57 -30.5t-45 -46t-29 -57.5zM508 175q16 16 40 16q22 0 40 -16q17 -19 17 -40q0 -23 -17 -40q-47 -47 -106 -70.5t-121 -23.5q-65 0 -122.5 25.5t-101.5 69t-69.5 102t-25.5 123.5t25 123
t68 101t101.5 68t125.5 25q66 0 124 -25.5t101.5 -69t69 -101.5t25.5 -124q0 -25 -18 -43t-43 -18h-456q9 -32 29 -58t46.5 -45t57.5 -29t63 -10q40 0 78.5 15t68.5 45zM301 816q0 17 11 28t28 11q25 0 36 -24l53 -127h-78l-47 96q-3 7 -3 16z" />
    <glyph glyph-name="eacute" unicode="&#xe9;" horiz-adv-x="676" 
d="M165 380h393q-10 31 -29 57.5t-44.5 46t-57 30.5t-65.5 11q-35 0 -66 -11t-57 -30.5t-45 -46t-29 -57.5zM508 175q16 16 40 16q22 0 40 -16q17 -19 17 -40q0 -23 -17 -40q-47 -47 -106 -70.5t-121 -23.5q-65 0 -122.5 25.5t-101.5 69t-69.5 102t-25.5 123.5t25 123
t68 101t101.5 68t125.5 25q66 0 124 -25.5t101.5 -69t69 -101.5t25.5 -124q0 -25 -18 -43t-43 -18h-456q9 -32 29 -58t46.5 -45t57.5 -29t63 -10q40 0 78.5 15t68.5 45zM423 814q0 17 -10.998 28t-27.9941 11q-24.9961 0 -35.9941 -24l-52.9902 -127h77.9863l46.9912 96
q2.99902 7 2.99902 16z" />
    <glyph glyph-name="ecircumflex" unicode="&#xea;" horiz-adv-x="665" 
d="M165 380h393q-10 31 -29 57.5t-44.5 46t-57 30.5t-65.5 11q-35 0 -66 -11t-57 -30.5t-45 -46t-29 -57.5zM508 175q16 16 40 16q22 0 40 -16q17 -19 17 -40q0 -23 -17 -40q-47 -47 -106 -70.5t-121 -23.5q-65 0 -122.5 25.5t-101.5 69t-69.5 102t-25.5 123.5t25 123
t68 101t101.5 68t125.5 25q66 0 124 -25.5t101.5 -69t69 -101.5t25.5 -124q0 -25 -18 -43t-43 -18h-456q9 -32 29 -58t46.5 -45t57.5 -29t63 -10q40 0 78.5 15t68.5 45zM321 849q5 12 16.5 20t25.5 8q13 0 24 -7.5t16 -18.5l96 -149h-76l-60 84l-61 -84h-75z" />
    <glyph glyph-name="edieresis" unicode="&#xeb;" horiz-adv-x="676" 
d="M165 380h393q-10 31 -29 57.5t-44.5 46t-57 30.5t-65.5 11q-35 0 -66 -11t-57 -30.5t-45 -46t-29 -57.5zM508 175q16 16 40 16q22 0 40 -16q17 -19 17 -40q0 -23 -17 -40q-47 -47 -106 -70.5t-121 -23.5q-65 0 -122.5 25.5t-101.5 69t-69.5 102t-25.5 123.5t25 123
t68 101t101.5 68t125.5 25q66 0 124 -25.5t101.5 -69t69 -101.5t25.5 -124q0 -25 -18 -43t-43 -18h-456q9 -32 29 -58t46.5 -45t57.5 -29t63 -10q40 0 78.5 15t68.5 45zM282 703q-26 0 -44 18t-18 44q0 25 18 43t44 18q25 0 43 -18t18 -43q0 -26 -18 -44t-43 -18zM437 703
q-26 0 -44 18t-18 44q0 25 18 43t44 18q25 0 43 -18t18 -43q0 -26 -18 -44t-43 -18z" />
    <glyph glyph-name="igrave" unicode="&#xec;" horiz-adv-x="180" 
d="M100 636q25 0 43 -18t18 -43v-575h-123v575q0 25 18 43t44 18zM18 813q0 17 11 28t28 11q25 0 36 -24l53 -127h-78l-47 96q-3 7 -3 16z" />
    <glyph glyph-name="iacute" unicode="&#xed;" horiz-adv-x="186" 
d="M182 814q0 -9 -3 -16l-47 -96h-78l53 127q11 24 36 24q17 0 28 -11t11 -28zM101 636q-26 0 -44 -18t-18 -43v-575h123v575q0 25 -18 43t-43 18z" />
    <glyph glyph-name="icircumflex" unicode="&#xee;" horiz-adv-x="205" 
d="M101 638q25 0 43 -18t18 -43v-575h-123v575q0 25 18 43t44 18zM59 847q5 12 16.5 20t25.5 8q13 0 24 -7.5t16 -18.5l96 -149h-76l-60 84l-61 -84h-75z" />
    <glyph glyph-name="idieresis" unicode="&#xef;" horiz-adv-x="192" 
d="M101 636q25 0 43 -18t18 -43v-575h-123v575q0 25 18 43t44 18zM136 744q0 18 12 30t30 12t30 -12t12 -30t-12 -30t-30 -12t-30 12t-12 30zM-24 744q0 18 12 30t30 12t30 -12t12 -30t-12 -30t-30 -12t-30 12t-12 30z" />
    <glyph glyph-name="ntilde" unicode="&#xf1;" horiz-adv-x="705" 
d="M39 321q0 66 23.5 124t64.5 100.5t98 67.5t124 25q66 0 122.5 -25t98.5 -67.5t65.5 -100.5t23.5 -124h-1v-321h-113v321q0 42 -14.5 79t-41 64t-62.5 42.5t-78 15.5q-43 0 -79 -15.5t-62.5 -42.5t-41 -64t-14.5 -79v-321h-113v321zM471 771q0 -4 -1 -7.5t-2 -6.5
q-32 -55 -87 -55q-31 0 -59 17q-11 6 -19 6q-18 0 -31 -22l-62 37q16 28 40 42.5t52 14.5q27 0 57 -16q10 -6 19 -6q18 0 31 21q13 10 27 10t24.5 -10.5t10.5 -24.5z" />
    <glyph glyph-name="ograve" unicode="&#xf2;" horiz-adv-x="712" 
d="M360 638q66 0 124.5 -25.5t102 -69t68.5 -102t25 -123.5q0 -67 -25.5 -125.5t-69 -101.5t-101.5 -68t-124 -25t-124.5 25t-102 68t-68.5 101.5t-25 125.5q0 66 25 124t68.5 101.5t102 69t124.5 25.5zM360 111q42 0 80 16.5t66 44.5t44.5 65.5t16.5 80.5q0 42 -16.5 79.5
t-44.5 65.5t-66 44.5t-80 16.5t-80 -16.5t-66 -44.5t-44.5 -65.5t-16.5 -79.5q0 -43 16.5 -80.5t44.5 -65.5t66 -44.5t80 -16.5zM297 814q0 17 11 28t28 11q25 0 36 -24l53 -127h-78l-47 96q-3 7 -3 16z" />
    <glyph glyph-name="oacute" unicode="&#xf3;" horiz-adv-x="676" 
d="M360 638q66 0 124.5 -25.5t102 -69t68.5 -102t25 -123.5q0 -67 -25.5 -125.5t-69 -101.5t-101.5 -68t-124 -25t-124.5 25t-102 68t-68.5 101.5t-25 125.5q0 66 25 124t68.5 101.5t102 69t124.5 25.5zM360 111q42 0 80 16.5t66 44.5t44.5 65.5t16.5 80.5q0 42 -16.5 79.5
t-44.5 65.5t-66 44.5t-80 16.5t-80 -16.5t-66 -44.5t-44.5 -65.5t-16.5 -79.5q0 -43 16.5 -80.5t44.5 -65.5t66 -44.5t80 -16.5zM364 828q5 11 14.5 18t22.5 7q16 0 27.5 -11.5t11.5 -28.5q0 -12 -6 -21l-47 -90l-86 2z" />
    <glyph glyph-name="ocircumflex" unicode="&#xf4;" horiz-adv-x="694" 
d="M360 638q66 0 124.5 -25.5t102 -69t68.5 -102t25 -123.5q0 -67 -25.5 -125.5t-69 -101.5t-101.5 -68t-124 -25t-124.5 25t-102 68t-68.5 101.5t-25 125.5q0 66 25 124t68.5 101.5t102 69t124.5 25.5zM360 111q42 0 80 16.5t66 44.5t44.5 65.5t16.5 80.5q0 42 -16.5 79.5
t-44.5 65.5t-66 44.5t-80 16.5t-80 -16.5t-66 -44.5t-44.5 -65.5t-16.5 -79.5q0 -43 16.5 -80.5t44.5 -65.5t66 -44.5t80 -16.5zM318 848q5 12 16.5 20t25.5 8q13 0 24 -7.5t16 -18.5l96 -149h-76l-60 84l-61 -84h-75z" />
    <glyph glyph-name="otilde" unicode="&#xf5;" horiz-adv-x="686" 
d="M360 638q66 0 124.5 -25.5t102 -69t68.5 -102t25 -123.5q0 -67 -25.5 -125.5t-69 -101.5t-101.5 -68t-124 -25t-124.5 25t-102 68t-68.5 101.5t-25 125.5q0 66 25 124t68.5 101.5t102 69t124.5 25.5zM360 111q42 0 80 16.5t66 44.5t44.5 65.5t16.5 80.5q0 42 -16.5 79.5
t-44.5 65.5t-66 44.5t-80 16.5t-80 -16.5t-66 -44.5t-44.5 -65.5t-16.5 -79.5q0 -43 16.5 -80.5t44.5 -65.5t66 -44.5t80 -16.5zM481 773q0 -4 -1 -7.5t-2 -6.5q-32 -55 -87 -55q-31 0 -59 17q-11 6 -19 6q-18 0 -31 -22l-62 37q16 28 40 42.5t52 14.5q27 0 57 -16
q10 -6 19 -6q18 0 31 21q13 10 27 10t24.5 -10.5t10.5 -24.5z" />
    <glyph glyph-name="odieresis" unicode="&#xf6;" horiz-adv-x="696" 
d="M360 638q66 0 124.5 -25.5t102 -69t68.5 -102t25 -123.5q0 -67 -25.5 -125.5t-69 -101.5t-101.5 -68t-124 -25t-124.5 25t-102 68t-68.5 101.5t-25 125.5q0 66 25 124t68.5 101.5t102 69t124.5 25.5zM360 111q42 0 80 16.5t66 44.5t44.5 65.5t16.5 80.5q0 42 -16.5 79.5
t-44.5 65.5t-66 44.5t-80 16.5t-80 -16.5t-66 -44.5t-44.5 -65.5t-16.5 -79.5q0 -43 16.5 -80.5t44.5 -65.5t66 -44.5t80 -16.5zM280 700q-26 0 -44 18t-18 44q0 25 18 43t44 18q25 0 43 -18t18 -43q0 -26 -18 -44t-43 -18zM435 700q-26 0 -44 18t-18 44q0 25 18 43t44 18
q25 0 43 -18t18 -43q0 -26 -18 -44t-43 -18z" />
    <glyph glyph-name="divide" unicode="&#xf7;" horiz-adv-x="143" 
d="M73 386q-26 0 -44 18t-18 44q0 16 7.5 29.5t20.5 21.5q14 11 34 11q11 0 20 -4t16 -10q11 -9 18 -21.5t7 -26.5q0 -26 -18 -44t-43 -18zM73 -10h-5q-25 2 -42 19t-17 43q0 25 18 43t44 18q25 0 43 -18t18 -43q0 -15 -6 -27.5t-16 -20.5q-7 -6 -16.5 -10t-20.5 -4zM73 386
q-26 0 -44 18t-18 44q0 16 7.5 29.5t20.5 21.5q14 11 34 11q11 0 20 -4t16 -10q11 -9 18 -21.5t7 -26.5q0 -26 -18 -44t-43 -18zM73 -10h-5q-25 2 -42 19t-17 43q0 25 18 43t44 18q25 0 43 -18t18 -43q0 -15 -6 -27.5t-16 -20.5q-7 -6 -16.5 -10t-20.5 -4zM-103 -652v-140
h341v140h-341z" />
    <glyph glyph-name="oslash" unicode="&#xf8;" horiz-adv-x="720" 
d="M375 112q40 3 75 20t61 44.5t41 64t15 77.5q0 61 -33 111t-87 75zM329 522q-37 -6 -69 -24.5t-56 -45.5t-37.5 -61.5t-13.5 -72.5q0 -58 29 -105.5t77 -74.5zM421 750q12 0 23.5 -4.5t20.5 -12.5t13.5 -19t2.5 -24l-13 -71q46 -17 85 -47t67.5 -69.5t44 -86.5t15.5 -98
q0 -67 -25.5 -125.5t-69 -102t-101.5 -68.5t-124 -24h-6l-13 -70h-121l17 94q-44 18 -80 47.5t-62 68t-40.5 84t-14.5 96.5q0 64 24 121.5t66 101t98.5 69.5t121.5 28l10 52q5 24 20 42t41 18z" />
    <glyph glyph-name="ugrave" unicode="&#xf9;" horiz-adv-x="644" 
d="M567 632q24 0 40.5 -17t16.5 -40v-285q0 -61 -23 -114t-62.5 -92.5t-93 -62.5t-113.5 -23q-61 0 -114 23t-92.5 62.5t-62.5 92.5t-23 114v285q0 23 16.5 40t39.5 17q24 0 40.5 -17t16.5 -40v-284q0 -36 14 -68.5t38.5 -57t57 -39t69.5 -14.5t69.5 14.5t57 39t38.5 57
t14 68.5v284q0 23 16.5 40t39.5 17zM265 812q0 17 11 28t28 11q25 0 36 -24l53 -127h-78l-47 96q-3 7 -3 16z" />
    <glyph glyph-name="uacute" unicode="&#xfa;" horiz-adv-x="651" 
d="M567 632q24 0 40.5 -17t16.5 -40v-285q0 -61 -23 -114t-62.5 -92.5t-93 -62.5t-113.5 -23q-61 0 -114 23t-92.5 62.5t-62.5 92.5t-23 114v285q0 23 16.5 40t39.5 17q24 0 40.5 -17t16.5 -40v-284q0 -36 14 -68.5t38.5 -57t57 -39t69.5 -14.5t69.5 14.5t57 39t38.5 57
t14 68.5v284q0 23 16.5 40t39.5 17zM325 828q5 11 14.5 18t22.5 7q16 0 27.5 -11.5t11.5 -28.5q0 -12 -6 -21l-47 -90l-86 2z" />
    <glyph glyph-name="ucircumflex" unicode="&#xfb;" horiz-adv-x="642" 
d="M567 632q24 0 40.5 -17t16.5 -40v-285q0 -61 -23 -114t-62.5 -92.5t-93 -62.5t-113.5 -23q-61 0 -114 23t-92.5 62.5t-62.5 92.5t-23 114v285q0 23 16.5 40t39.5 17q24 0 40.5 -17t16.5 -40v-284q0 -36 14 -68.5t38.5 -57t57 -39t69.5 -14.5t69.5 14.5t57 39t38.5 57
t14 68.5v284q0 23 16.5 40t39.5 17zM287 850q5 12 16.5 20t25.5 8q13 0 24 -7.5t16 -18.5l96 -149h-76l-60 84l-61 -84h-75z" />
    <glyph glyph-name="udieresis" unicode="&#xfc;" horiz-adv-x="638" 
d="M567 632q24 0 40.5 -17t16.5 -40v-285q0 -61 -23 -114t-62.5 -92.5t-93 -62.5t-113.5 -23q-61 0 -114 23t-92.5 62.5t-62.5 92.5t-23 114v285q0 23 16.5 40t39.5 17q24 0 40.5 -17t16.5 -40v-284q0 -36 14 -68.5t38.5 -57t57 -39t69.5 -14.5t69.5 14.5t57 39t38.5 57
t14 68.5v284q0 23 16.5 40t39.5 17zM256 699q-26 0 -44 18t-18 44q0 25 18 43t44 18q25 0 43 -18t18 -43q0 -26 -18 -44t-43 -18zM411 699q-26 0 -44 18t-18 44q0 25 18 43t44 18q25 0 43 -18t18 -43q0 -26 -18 -44t-43 -18z" />
    <glyph glyph-name="yacute" unicode="&#xfd;" horiz-adv-x="627" 
d="M594 626q18 -8 29 -23.5t11 -33.5q0 -10 -5 -22l-122 -292l-183 -437q-6 -18 -21 -28.5t-33 -10.5q-10 0 -23 5q-18 8 -29 23.5t-11 33.5q0 10 5 22l57 137l-230 547q-5 12 -5 22q0 18 11 33.5t29 23.5q13 5 23 5q18 0 33.5 -10.5t23.5 -27.5l180 -438l180 438
q8 17 23.5 27.5t33.5 10.5q10 0 23 -5zM325 831q5 11 14.5 18t22.5 7q16 0 27.5 -11.5t11.5 -28.5q0 -12 -6 -21l-47 -90l-86 2z" />
    <glyph glyph-name="thorn" unicode="&#xfe;" horiz-adv-x="626" 
d="M174 262v-10q0 -35 13 -65t35 -52.5t51.5 -35.5t63.5 -13t63.5 13t51.5 35.5t35 52.5t13 65q0 34 -13 64.5t-35 53t-51.5 35.5t-63.5 13q-51 0 -91 -28.5t-60 -73.5q-5 -13 -8.5 -26.5t-3.5 -27.5zM130 640v-206l10 11q37 40 87.5 60.5t107.5 20.5t107 -21.5t87.5 -59
t59 -87.5t21.5 -107t-21.5 -107t-59 -87.5t-87.5 -59t-107 -21.5t-108 20.5t-87 59.5l-10 11v-272h-110v845q0 23 16 39t39 16t39 -16t16 -39z" />
    <glyph glyph-name="ydieresis" unicode="&#xff;" horiz-adv-x="653" 
d="M594 626q18 -8 29 -23.5t11 -33.5q0 -10 -5 -22l-122 -292l-183 -437q-6 -18 -21 -28.5t-33 -10.5q-10 0 -23 5q-18 8 -29 23.5t-11 33.5q0 10 5 22l57 137l-230 547q-5 12 -5 22q0 18 11 33.5t29 23.5q13 5 23 5q18 0 33.5 -10.5t23.5 -27.5l180 -438l180 438
q8 17 23.5 27.5t33.5 10.5q10 0 23 -5zM263 701q-26 0 -44 18t-18 44q0 25 18 43t44 18q25 0 43 -18t18 -43q0 -26 -18 -44t-43 -18zM418 701q-26 0 -44 18t-18 44q0 25 18 43t44 18q25 0 43 -18t18 -43q0 -26 -18 -44t-43 -18z" />
    <glyph glyph-name="aogonek" unicode="&#x105;" horiz-adv-x="721" 
d="M359 109q42 0 80 16.5t66 44.5t44.5 65.5t16.5 80.5q0 42 -16.5 79.5t-44.5 65.5t-66 44.5t-80 16.5t-80 -16.5t-66 -44.5t-44.5 -65.5t-16.5 -79.5q0 -43 16.5 -80.5t44.5 -65.5t66 -44.5t80 -16.5zM360 638q66 0 124.5 -25t102 -68.5t68.5 -101.5t25 -125v-320h-122v69
q-40 -33 -90.5 -51t-107.5 -18q-66 0 -124.5 25t-102 68.5t-68.5 102t-25 124.5q0 67 25 125t68.5 101.5t102 68.5t124.5 25zM680 -127v-70h-70q-21 0 -40.5 8t-33.5 22t-22.5 33t-8.5 41t8.5 41t22.5 33t33.5 22.5t40.5 8.5v55h70v-125h-70q-14 0 -24 -10.5t-10 -24.5
t10 -24t24 -10h70z" />
    <glyph glyph-name="Cacute" unicode="&#x106;" horiz-adv-x="645" 
d="M456 124h173v-126h-173q-86 0 -162 33t-132.5 90t-89 132.5t-32.5 160.5q0 82 29.5 156.5t80.5 131.5t120 91t149 36l43 1h82q26 0 44 -18t18 -44t-18 -44t-44 -18h-88q-60 0 -113 -23t-92.5 -62.5t-62 -92.5t-22.5 -114q0 -60 22.5 -113t62 -92t92.5 -62t113 -23z
M391 1059q5 11 14.5 18t22.5 7q16 0 27.5 -11.5t11.5 -28.5q0 -12 -6 -21l-47 -90l-86 2z" />
    <glyph glyph-name="cacute" unicode="&#x107;" horiz-adv-x="620" 
d="M508 175q16 16 40 16q22 0 40 -16q17 -19 17 -40q0 -23 -17 -40q-48 -48 -105.5 -71t-119.5 -23q-61 0 -120.5 23t-107.5 71t-71 106t-23 119q0 58 20 113q22 63 74 115q47 47 105.5 70.5t120.5 23.5t120.5 -23.5t106.5 -70.5q16 -19 16 -41q0 -24 -17 -41
q-16 -17 -39 -17t-41 18q-30 30 -68.5 45.5t-79.5 15.5q-37 0 -72 -13t-64 -39l-7 -9q-30 -30 -45.5 -68.5t-15.5 -78.5t15 -77.5t45 -67.5t68 -45t78 -15t78.5 15t68.5 45zM356 826q5 11 14.5 18t22.5 7q16 0 27.5 -11.5t11.5 -28.5q0 -12 -6 -21l-47 -90l-86 2z" />
    <glyph glyph-name="Ccircumflex" unicode="&#x108;" horiz-adv-x="665" 
d="M456 124h173v-126h-173q-86 0 -162 33t-132.5 90t-89 132.5t-32.5 160.5q0 82 29.5 156.5t80.5 131.5t120 91t149 36l43 1h82q26 0 44 -18t18 -44t-18 -44t-44 -18h-88q-60 0 -113 -23t-92.5 -62.5t-62 -92.5t-22.5 -114q0 -60 22.5 -113t62 -92t92.5 -62t113 -23z
M291 1083q5 12 16.5 20t25.5 8q13 0 24 -7.5t16 -18.5l96 -149h-76l-60 84l-61 -84h-75z" />
    <glyph glyph-name="ccircumflex" unicode="&#x109;" horiz-adv-x="603" 
d="M508 175q16 16 40 16q22 0 40 -16q17 -19 17 -40q0 -23 -17 -40q-48 -48 -105.5 -71t-119.5 -23q-61 0 -120.5 23t-107.5 71t-71 106t-23 119q0 58 20 113q22 63 74 115q47 47 105.5 70.5t120.5 23.5t120.5 -23.5t106.5 -70.5q16 -19 16 -41q0 -24 -17 -41
q-16 -17 -39 -17t-41 18q-30 30 -68.5 45.5t-79.5 15.5q-37 0 -72 -13t-64 -39l-7 -9q-30 -30 -45.5 -68.5t-15.5 -78.5t15 -77.5t45 -67.5t68 -45t78 -15t78.5 15t68.5 45zM275 848q5 12 16.5 20t25.5 8q13 0 24 -7.5t16 -18.5l96 -149h-76l-60 84l-61 -84h-75z" />
    <glyph glyph-name="Cdotaccent" unicode="&#x10a;" horiz-adv-x="666" 
d="M456 124h173v-126h-173q-86 0 -162 33t-132.5 90t-89 132.5t-32.5 160.5q0 82 29.5 156.5t80.5 131.5t120 91t149 36l43 1h82q26 0 44 -18t18 -44t-18 -44t-44 -18h-88q-60 0 -113 -23t-92.5 -62.5t-62 -92.5t-22.5 -114q0 -60 22.5 -113t62 -92t92.5 -62t113 -23z
M402 934q-18 0 -30 12t-12 30t12 30t30 12t30 -12t12 -30t-12 -30t-30 -12z" />
    <glyph glyph-name="cdotaccent" unicode="&#x10b;" horiz-adv-x="627" 
d="M508 175q16 16 40 16q22 0 40 -16q17 -19 17 -40q0 -23 -17 -40q-48 -48 -105.5 -71t-119.5 -23q-61 0 -120.5 23t-107.5 71t-71 106t-23 119q0 58 20 113q22 63 74 115q47 47 105.5 70.5t120.5 23.5t120.5 -23.5t106.5 -70.5q16 -19 16 -41q0 -24 -17 -41
q-16 -17 -39 -17t-41 18q-30 30 -68.5 45.5t-79.5 15.5q-37 0 -72 -13t-64 -39l-7 -9q-30 -30 -45.5 -68.5t-15.5 -78.5t15 -77.5t45 -67.5t68 -45t78 -15t78.5 15t68.5 45zM362 702q-18 0 -30 12t-12 30t12 30t30 12t30 -12t12 -30t-12 -30t-30 -12z" />
    <glyph glyph-name="Ccaron" unicode="&#x10c;" horiz-adv-x="652" 
d="M456 124h173v-126h-173q-86 0 -162 33t-132.5 90t-89 132.5t-32.5 160.5q0 82 29.5 156.5t80.5 131.5t120 91t149 36l43 1h82q26 0 44 -18t18 -44t-18 -44t-44 -18h-88q-60 0 -113 -23t-92.5 -62.5t-62 -92.5t-22.5 -114q0 -60 22.5 -113t62 -92t92.5 -62t113 -23z
M544 1038l-84 -103h-89l-76 105q-10 10 -10 25q0 16 11 27t27 11q13 0 23 -8.5t13 -20.5l57 -93l64 90q2 14 13 23t25 9q15 0 26 -11t11 -27t-11 -27z" />
    <glyph glyph-name="ccaron" unicode="&#x10d;" horiz-adv-x="606" 
d="M508 175q16 16 40 16q22 0 40 -16q17 -19 17 -40q0 -23 -17 -40q-48 -48 -105.5 -71t-119.5 -23q-61 0 -120.5 23t-107.5 71t-71 106t-23 119q0 58 20 113q22 63 74 115q47 47 105.5 70.5t120.5 23.5t120.5 -23.5t106.5 -70.5q16 -19 16 -41q0 -24 -17 -41
q-16 -17 -39 -17t-41 18q-30 30 -68.5 45.5t-79.5 15.5q-37 0 -72 -13t-64 -39l-7 -9q-30 -30 -45.5 -68.5t-15.5 -78.5t15 -77.5t45 -67.5t68 -45t78 -15t78.5 15t68.5 45zM483 805l-84 -103h-89l-76 105q-10 10 -10 25q0 16 11 27t27 11q13 0 23 -8.5t13 -20.5l57 -93
l64 90q2 14 13 23t25 9q15 0 26 -11t11 -27t-11 -27z" />
    <glyph glyph-name="Dcaron" unicode="&#x10e;" horiz-adv-x="667" 
d="M280 830v-1q79 -7 148 -42t120.5 -90.5t81 -128t29.5 -154.5q0 -85 -33 -160.5t-89.5 -132.5t-132.5 -90t-161 -33h-203v771q0 26 18 43.5t44 17.5h178zM164 124h79q60 0 113 23t92 62t62 92t23 113q0 61 -23 114t-62 92.5t-92 62.5t-113 23h-79v-582zM425 1037l-84 -103
h-89l-76 105q-10 10 -10 25q0 16 11 27t27 11q13 0 23 -8.5t13 -20.5l57 -93l64 90q2 14 13 23t25 9q15 0 26 -11t11 -27t-11 -27z" />
    <glyph glyph-name="Edotaccent" unicode="&#x116;" horiz-adv-x="585" 
d="M162 122h415v-124h-537v772q0 26 17.5 43t43.5 17h385q22 0 37.5 -15t15.5 -37q0 -23 -15.5 -38.5t-37.5 -15.5h-324v-241h216v-110h-216v-251zM318 932q-18 0 -30 12t-12 30t12 30t30 12t30 -12t12 -30t-12 -30t-30 -12z" />
    <glyph glyph-name="edotaccent" unicode="&#x117;" horiz-adv-x="706" 
d="M165 380h393q-10 31 -29 57.5t-44.5 46t-57 30.5t-65.5 11q-35 0 -66 -11t-57 -30.5t-45 -46t-29 -57.5zM508 175q16 16 40 16q22 0 40 -16q17 -19 17 -40q0 -23 -17 -40q-47 -47 -106 -70.5t-121 -23.5q-65 0 -122.5 25.5t-101.5 69t-69.5 102t-25.5 123.5t25 123
t68 101t101.5 68t125.5 25q66 0 124 -25.5t101.5 -69t69 -101.5t25.5 -124q0 -25 -18 -43t-43 -18h-456q9 -32 29 -58t46.5 -45t57.5 -29t63 -10q40 0 78.5 15t68.5 45zM359 703q-18 0 -30 12t-12 30t12 30t30 12t30 -12t12 -30t-12 -30t-30 -12z" />
    <glyph glyph-name="Eogonek" unicode="&#x118;" horiz-adv-x="599" 
d="M162 122h415v-124h-537v772q0 26 17.5 43t43.5 17h385q22 0 37.5 -15t15.5 -37q0 -23 -15.5 -38.5t-37.5 -15.5h-324v-241h216v-110h-216v-251zM321 -154v-70h-70q-21 0 -40.5 8t-33.5 22t-22.5 33t-8.5 41t8.5 41t22.5 33t33.5 22.5t40.5 8.5v55h70v-125h-70
q-14 0 -24 -10.5t-10 -24.5t10 -24t24 -10h70z" />
    <glyph glyph-name="eogonek" unicode="&#x119;" horiz-adv-x="714" 
d="M165 380h393q-10 31 -29 57.5t-44.5 46t-57 30.5t-65.5 11q-35 0 -66 -11t-57 -30.5t-45 -46t-29 -57.5zM508 175q16 16 40 16q22 0 40 -16q17 -19 17 -40q0 -23 -17 -40q-47 -47 -106 -70.5t-121 -23.5q-65 0 -122.5 25.5t-101.5 69t-69.5 102t-25.5 123.5t25 123
t68 101t101.5 68t125.5 25q66 0 124 -25.5t101.5 -69t69 -101.5t25.5 -124q0 -25 -18 -43t-43 -18h-456q9 -32 29 -58t46.5 -45t57.5 -29t63 -10q40 0 78.5 15t68.5 45zM405 -149v-70h-70q-21 0 -40.5 8t-33.5 22t-22.5 33t-8.5 41t8.5 41t22.5 33t33.5 22.5t40.5 8.5v55h70
v-125h-70q-14 0 -24 -10.5t-10 -24.5t10 -24t24 -10h70z" />
    <glyph glyph-name="Ecaron" unicode="&#x11a;" horiz-adv-x="578" 
d="M162 122h415v-124h-537v772q0 26 17.5 43t43.5 17h385q22 0 37.5 -15t15.5 -37q0 -23 -15.5 -38.5t-37.5 -15.5h-324v-241h216v-110h-216v-251zM423 1035l-84 -103h-89l-76 105q-10 10 -10 25q0 16 11 27t27 11q13 0 23 -8.5t13 -20.5l57 -93l64 90q2 14 13 23t25 9
q15 0 26 -11t11 -27t-11 -27z" />
    <glyph glyph-name="ecaron" unicode="&#x11b;" horiz-adv-x="684" 
d="M165 380h393q-10 31 -29 57.5t-44.5 46t-57 30.5t-65.5 11q-35 0 -66 -11t-57 -30.5t-45 -46t-29 -57.5zM508 175q16 16 40 16q22 0 40 -16q17 -19 17 -40q0 -23 -17 -40q-47 -47 -106 -70.5t-121 -23.5q-65 0 -122.5 25.5t-101.5 69t-69.5 102t-25.5 123.5t25 123
t68 101t101.5 68t125.5 25q66 0 124 -25.5t101.5 -69t69 -101.5t25.5 -124q0 -25 -18 -43t-43 -18h-456q9 -32 29 -58t46.5 -45t57.5 -29t63 -10q40 0 78.5 15t68.5 45zM490 807l-84 -103h-89l-76 105q-10 10 -10 25q0 16 11 27t27 11q13 0 23 -8.5t13 -20.5l57 -93l64 90
q2 14 13 23t25 9q15 0 26 -11t11 -27t-11 -27z" />
    <glyph glyph-name="Gcircumflex" unicode="&#x11c;" horiz-adv-x="670" 
d="M568 421q26 0 44.5 -18t18.5 -44v-359h-173q-86 0 -162 32.5t-132.5 89t-89 132.5t-32.5 162q0 82 29.5 154t81 127.5t120.5 90.5t148 42q9 0 17.5 1t17.5 1h90q26 0 44 -18.5t18 -43.5q0 -27 -18 -45.5t-44 -18.5h-88q-60 0 -113 -22.5t-92.5 -62t-62 -92.5t-22.5 -113
t22.5 -113t62 -92.5t92.5 -62.5t113 -23h49v234q0 26 17.5 44t43.5 18zM355 1081q5 12 16.5 20t25.5 8q13 0 24 -7.5t16 -18.5l96 -149h-76l-60 84l-61 -84h-75z" />
    <glyph glyph-name="gcircumflex" unicode="&#x11d;" horiz-adv-x="701" 
d="M360 638q66 0 124.5 -25.5t102 -69t68.5 -102t25 -123.5q0 -91 -43.5 -162.5t-115.5 -113.5q26 -29 41 -65.5t15 -78.5q0 -45 -17 -84t-46 -68.5t-69 -46.5t-85 -17q-9 0 -18 3q-42 3 -78 21t-63 47t-42.5 67t-15.5 81q0 25 16.5 41.5t41.5 16.5q26 0 42 -17t16 -40
q0 -21 8 -40t21.5 -32.5t31.5 -21.5t39 -8t39.5 8t32 21.5t21.5 32t8 39.5q0 38 -25 65t-62 32h-13q-66 0 -124.5 25t-102 68t-68.5 101.5t-25 125.5q0 66 25 124t68.5 101.5t102 69t124.5 25.5zM360 111v4q8 0 14 -0.5t12 -1.5q38 5 71 23t57.5 45.5t38.5 62.5t14 74
q0 42 -16.5 79.5t-44.5 65.5t-66 44.5t-80 16.5t-80 -16.5t-66 -44.5t-44.5 -65.5t-16.5 -79.5q0 -43 16.5 -80.5t44.5 -65.5t66 -44.5t80 -16.5zM315 849q5 12 16.5 20t25.5 8q13 0 24 -7.5t16 -18.5l96 -149h-76l-60 84l-61 -84h-75z" />
    <glyph glyph-name="Gdotaccent" unicode="&#x120;" horiz-adv-x="656" 
d="M568 421q26 0 44.5 -18t18.5 -44v-359h-173q-86 0 -162 32.5t-132.5 89t-89 132.5t-32.5 162q0 82 29.5 154t81 127.5t120.5 90.5t148 42q9 0 17.5 1t17.5 1h90q26 0 44 -18.5t18 -43.5q0 -27 -18 -45.5t-44 -18.5h-88q-60 0 -113 -22.5t-92.5 -62t-62 -92.5t-22.5 -113
t22.5 -113t62 -92.5t92.5 -62.5t113 -23h49v234q0 26 17.5 44t43.5 18zM398 932q-18 0 -30 12t-12 30t12 30t30 12t30 -12t12 -30t-12 -30t-30 -12z" />
    <glyph glyph-name="Itilde" unicode="&#x128;" horiz-adv-x="198" 
d="M103 830q24 0 42 -17t18 -43v-772h-121v772q0 25 17.5 42.5t43.5 17.5zM227 1010q0 -4 -1 -7.5t-2 -6.5q-32 -55 -87 -55q-31 0 -59 17q-11 6 -19 6q-18 0 -31 -22l-62 37q16 28 40 42.5t52 14.5q27 0 57 -16q10 -6 19 -6q18 0 31 21q13 10 27 10t24.5 -10.5t10.5 -24.5z
" />
    <glyph glyph-name="dotlessi" unicode="&#x131;" horiz-adv-x="228" 
d="M40 0v500l118 4v-500z" />
    <glyph glyph-name="nacute" unicode="&#x144;" horiz-adv-x="691" 
d="M39 321q0 66 23.5 124t64.5 100.5t98 67.5t124 25q66 0 122.5 -25t98.5 -67.5t65.5 -100.5t23.5 -124h-1v-321h-113v321q0 42 -14.5 79t-41 64t-62.5 42.5t-78 15.5q-43 0 -79 -15.5t-62.5 -42.5t-41 -64t-14.5 -79v-321h-113v321zM365 828q5 11 14.5 18t22.5 7
q16 0 27.5 -11.5t11.5 -28.5q0 -12 -6 -21l-47 -90l-86 2z" />
    <glyph glyph-name="Ncaron" unicode="&#x147;" horiz-adv-x="698" 
d="M358 830q66 0 124.5 -25t102 -68t68.5 -101t25 -124v-514h-124v514q0 40 -15.5 75.5t-42 62t-62.5 42t-76 15.5q-41 0 -76.5 -15.5t-61.5 -42t-41.5 -62t-15.5 -75.5v-514h-123v514q0 66 25 124t68.5 101t101 68t123.5 25zM492 1035l-84 -103h-89l-76 105q-10 10 -10 25
q0 16 11 27t27 11q13 0 23 -8.5t13 -20.5l57 -93l64 90q2 14 13 23t25 9q15 0 26 -11t11 -27t-11 -27z" />
    <glyph glyph-name="ncaron" unicode="&#x148;" horiz-adv-x="684" 
d="M39 321q0 66 23.5 124t64.5 100.5t98 67.5t124 25q66 0 122.5 -25t98.5 -67.5t65.5 -100.5t23.5 -124h-1v-321h-113v321q0 42 -14.5 79t-41 64t-62.5 42.5t-78 15.5q-43 0 -79 -15.5t-62.5 -42.5t-41 -64t-14.5 -79v-321h-113v321zM486 801l-84 -103h-89l-76 105
q-10 10 -10 25q0 16 11 27t27 11q13 0 23 -8.5t13 -20.5l57 -93l64 90q2 14 13 23t25 9q15 0 26 -11t11 -27t-11 -27z" />
    <glyph glyph-name="OE" unicode="&#x152;" horiz-adv-x="1200" 
d="M742 122h415v-124h-701q-86 0 -162 33t-132.5 90t-89 132.5t-32.5 160.5q0 82 34 157.5t90 133t129.5 91.5t152.5 34h620q22 0 37.5 -15t15.5 -37q0 -23 -15.5 -38.5t-37.5 -15.5h-324v-241h216v-110h-216v-251zM166 414q0 -60 22.5 -113t62 -92t92.5 -62t113 -23h164
v582h-164q-60 0 -113 -23t-92.5 -62.5t-62 -92.5t-22.5 -114z" />
    <glyph glyph-name="oe" unicode="&#x153;" horiz-adv-x="1235" 
d="M361 638q66 0 124.5 -25.5t102 -69t68.5 -102t25 -123.5q0 -67 -25.5 -125.5t-69 -101.5t-101.5 -68t-124 -25t-124.5 25t-102 68t-68.5 101.5t-25 125.5q0 66 25 124t68.5 101.5t102 69t124.5 25.5zM361 111q42 0 80 16.5t66 44.5t44.5 65.5t16.5 80.5q0 42 -16.5 79.5
t-44.5 65.5t-66 44.5t-80 16.5t-80 -16.5t-66 -44.5t-44.5 -65.5t-16.5 -79.5q0 -43 16.5 -80.5t44.5 -65.5t66 -44.5t80 -16.5zM696 380h393q-10 31 -29 57.5t-44.5 46t-57 30.5t-65.5 11q-35 0 -66 -11t-57 -30.5t-45 -46t-29 -57.5zM1039 175q16 16 40 16q22 0 40 -16
q17 -19 17 -40q0 -23 -17 -40q-47 -47 -106 -70.5t-121 -23.5q-65 0 -122.5 25.5t-101.5 69t-69.5 102t-25.5 123.5t25 123t68 101t101.5 68t125.5 25q66 0 124 -25.5t101.5 -69t69 -101.5t25.5 -124q0 -25 -18 -43t-43 -18h-456q9 -32 29 -58t46.5 -45t57.5 -29t63 -10
q40 0 78.5 15t68.5 45z" />
    <glyph glyph-name="Racute" unicode="&#x154;" horiz-adv-x="684" 
d="M378 337h-220v-339h-116v776q0 23 16.5 40t41.5 17h308q51 0 95.5 -20t78 -53.5t53 -78.5t19.5 -95q0 -66 -27.5 -115t-72.5 -80q40 -43 62 -97t22 -117v-175h-121v175q0 54 -24.5 96.5t-66.5 68.5q-24 -3 -48 -3zM158 724v-268h252q26 0 49 10t40.5 27t27.5 40.5
t10 50.5t-10.5 52t-28.5 44.5t-41.5 31.5t-49.5 12h-249zM330 1059q5 11 14.5 18t22.5 7q16 0 27.5 -11.5t11.5 -28.5q0 -12 -6 -21l-47 -90l-86 2z" />
    <glyph glyph-name="racute" unicode="&#x155;" horiz-adv-x="410" 
d="M362 638q26 0 44 -18t18 -44t-18 -44t-44 -18q-40 0 -76 -14t-63 -39t-43 -59.5t-16 -75.5v-328h-124v341q0 72 25.5 128t69.5 94t102.5 57.5t124.5 19.5zM270 830q5 11 14.5 18t22.5 7q16 0 27.5 -11.5t11.5 -28.5q0 -12 -6 -21l-47 -90l-86 2z" />
    <glyph glyph-name="Rcaron" unicode="&#x158;" horiz-adv-x="666" 
d="M378 337h-220v-339h-116v776q0 23 16.5 40t41.5 17h308q51 0 95.5 -20t78 -53.5t53 -78.5t19.5 -95q0 -66 -27.5 -115t-72.5 -80q40 -43 62 -97t22 -117v-175h-121v175q0 54 -24.5 96.5t-66.5 68.5q-24 -3 -48 -3zM158 724v-268h252q26 0 49 10t40.5 27t27.5 40.5
t10 50.5t-10.5 52t-28.5 44.5t-41.5 31.5t-49.5 12h-249zM469 1038l-84 -103h-89l-76 105q-10 10 -10 25q0 16 11 27t27 11q13 0 23 -8.5t13 -20.5l57 -93l64 90q2 14 13 23t25 9q15 0 26 -11t11 -27t-11 -27z" />
    <glyph glyph-name="rcaron" unicode="&#x159;" horiz-adv-x="407" 
d="M362 638q26 0 44 -18t18 -44t-18 -44t-44 -18q-40 0 -76 -14t-63 -39t-43 -59.5t-16 -75.5v-328h-124v341q0 72 25.5 128t69.5 94t102.5 57.5t124.5 19.5zM357 807l-84 -103h-89l-76 105q-10 10 -10 25q0 16 11 27t27 11q13 0 23 -8.5t13 -20.5l57 -93l64 90q2 14 13 23
t25 9q15 0 26 -11t11 -27t-11 -27z" />
    <glyph glyph-name="Sacute" unicode="&#x15a;" horiz-adv-x="564" 
d="M270 494h88q50 0 93.5 -20t76 -53.5t51 -78.5t18.5 -96t-19.5 -96t-53.5 -78.5t-79 -53.5t-96 -20h-304v124h304q25 0 48 9.5t40 26t27 39.5t10 49t-10 49t-27 40t-40 26.5t-48 9.5h-79q-11 0 -20.5 1t-19.5 2q-40 8 -74.5 28t-60 50t-40.5 68t-15 81q0 47 18 89t49 73
t73 49t90 18h229q25 0 43 -17t18 -43q0 -27 -18 -44t-43 -17l-229 -2q-22 0 -41.5 -8.5t-34 -23t-23 -33.5t-8.5 -41q0 -23 8.5 -42.5t23 -33.5t34 -22.5t41.5 -8.5zM349 1060q5 11 14.5 18t22.5 7q16 0 27.5 -11.5t11.5 -28.5q0 -12 -6 -21l-47 -90l-86 2z" />
    <glyph glyph-name="sacute" unicode="&#x15b;" horiz-adv-x="536" 
d="M216 391h134q40 0 74.5 -15.5t60 -42.5t40.5 -63t15 -76q0 -39 -16 -74t-42.5 -62t-62 -42.5t-74.5 -15.5h-274q-13 0 -13 14v90q0 14 13 14h274q32 0 54.5 22.5t22.5 53.5q0 34 -22.5 56t-54.5 22h-129q-36 0 -68.5 12.5t-57.5 36t-40 57t-15 76.5q0 37 14 70t39 58
t57.5 39.5t70.5 14.5h238q23 0 40 -16.5t17 -41.5t-17 -41.5t-40 -16.5h-238q-27 0 -46 -19.5t-19 -46.5q0 -26 19 -44.5t46 -18.5zM301 824q5 11 14.5 18t22.5 7q16 0 27.5 -11.5t11.5 -28.5q0 -12 -6 -21l-47 -90l-86 2z" />
    <glyph glyph-name="Scircumflex" unicode="&#x15c;" horiz-adv-x="564" 
d="M270 494h88q50 0 93.5 -20t76 -53.5t51 -78.5t18.5 -96t-19.5 -96t-53.5 -78.5t-79 -53.5t-96 -20h-304v124h304q25 0 48 9.5t40 26t27 39.5t10 49t-10 49t-27 40t-40 26.5t-48 9.5h-79q-11 0 -20.5 1t-19.5 2q-40 8 -74.5 28t-60 50t-40.5 68t-15 81q0 47 18 89t49 73
t73 49t90 18h229q25 0 43 -17t18 -43q0 -27 -18 -44t-43 -17l-229 -2q-22 0 -41.5 -8.5t-34 -23t-23 -33.5t-8.5 -41q0 -23 8.5 -42.5t23 -33.5t34 -22.5t41.5 -8.5zM287 1080q5 12 16.5 20t25.5 8q13 0 24 -7.5t16 -18.5l96 -149h-76l-60 84l-61 -84h-75z" />
    <glyph glyph-name="scircumflex" unicode="&#x15d;" horiz-adv-x="557" 
d="M213 391h134q40 0 74.5 -15.5t60 -42.5t40.5 -63t15 -76q0 -39 -16 -74t-42.5 -62t-62 -42.5t-74.5 -15.5h-274q-13 0 -13 14v90q0 14 13 14h274q32 0 54.5 22.5t22.5 53.5q0 34 -22.5 56t-54.5 22h-129q-36 0 -68.5 12.5t-57.5 36t-40 57t-15 76.5q0 37 14 70t39 58
t57.5 39.5t70.5 14.5h238q23 0 40 -16.5t17 -41.5t-17 -41.5t-40 -16.5h-238q-27 0 -46 -19.5t-19 -46.5q0 -26 19 -44.5t46 -18.5zM262 847q5 12 16.5 20t25.5 8q13 0 24 -7.5t16 -18.5l96 -149h-76l-60 84l-61 -84h-75z" />
    <glyph glyph-name="Scaron" unicode="&#x160;" horiz-adv-x="627" 
d="M270 494h88q50 0 93.5 -20t76 -53.5t51 -78.5t18.5 -96t-19.5 -96t-53.5 -78.5t-79 -53.5t-96 -20h-304v124h304q25 0 48 9.5t40 26t27 39.5t10 49t-10 49t-27 40t-40 26.5t-48 9.5h-79q-11 0 -20.5 1t-19.5 2q-40 8 -74.5 28t-60 50t-40.5 68t-15 81q0 47 18 89t49 73
t73 49t90 18h229q25 0 43 -17t18 -43q0 -27 -18 -44t-43 -17l-229 -2q-22 0 -41.5 -8.5t-34 -23t-23 -33.5t-8.5 -41q0 -23 8.5 -42.5t23 -33.5t34 -22.5t41.5 -8.5zM440 1037l-84 -103h-89l-76 105q-10 10 -10 25q0 16 11 27t27 11q13 0 23 -8.5t13 -20.5l57 -93l64 90
q2 14 13 23t25 9q15 0 26 -11t11 -27t-11 -27z" />
    <glyph glyph-name="scaron" unicode="&#x161;" horiz-adv-x="551" 
d="M213 391h134q40 0 74.5 -15.5t60 -42.5t40.5 -63t15 -76q0 -39 -16 -74t-42.5 -62t-62 -42.5t-74.5 -15.5h-274q-13 0 -13 14v90q0 14 13 14h274q32 0 54.5 22.5t22.5 53.5q0 34 -22.5 56t-54.5 22h-129q-36 0 -68.5 12.5t-57.5 36t-40 57t-15 76.5q0 37 14 70t39 58
t57.5 39.5t70.5 14.5h238q23 0 40 -16.5t17 -41.5t-17 -41.5t-40 -16.5h-238q-27 0 -46 -19.5t-19 -46.5q0 -26 19 -44.5t46 -18.5zM409 802l-84 -103h-89l-76 105q-10 10 -10 25q0 16 11 27t27 11q13 0 23 -8.5t13 -20.5l57 -93l64 90q2 14 13 23t25 9q15 0 26 -11t11 -27
t-11 -27z" />
    <glyph glyph-name="Utilde" unicode="&#x168;" horiz-adv-x="684" 
d="M614 831q26 0 44.5 -17.5t18.5 -43.5v-452q0 -66 -25 -124t-68 -101.5t-101.5 -68.5t-124.5 -25t-124 25t-101 68.5t-68 101.5t-25 124v452q0 25 18 43t44 18t43.5 -17.5t17.5 -43.5v-452q0 -41 15.5 -76.5t41.5 -62t61.5 -42t76.5 -15.5q40 0 75.5 15.5t62.5 42t42.5 62
t15.5 76.5v452q0 25 17.5 43t42.5 18zM490 1006q0 -4 -1 -7.5t-2 -6.5q-32 -55 -87 -55q-31 0 -59 17q-11 6 -19 6q-18 0 -31 -22l-62 37q16 28 40 42.5t52 14.5q27 0 57 -16q10 -6 19 -6q18 0 31 21q13 10 27 10t24.5 -10.5t10.5 -24.5z" />
    <glyph glyph-name="utilde" unicode="&#x169;" horiz-adv-x="649" 
d="M567 632q24 0 40.5 -17t16.5 -40v-285q0 -61 -23 -114t-62.5 -92.5t-93 -62.5t-113.5 -23q-61 0 -114 23t-92.5 62.5t-62.5 92.5t-23 114v285q0 23 16.5 40t39.5 17q24 0 40.5 -17t16.5 -40v-284q0 -36 14 -68.5t38.5 -57t57 -39t69.5 -14.5t69.5 14.5t57 39t38.5 57
t14 68.5v284q0 23 16.5 40t39.5 17zM466 773q0 -4 -1 -7.5t-2 -6.5q-32 -55 -87 -55q-31 0 -59 17q-11 6 -19 6q-18 0 -31 -22l-62 37q16 28 40 42.5t52 14.5q27 0 57 -16q10 -6 19 -6q18 0 31 21q13 10 27 10t24.5 -10.5t10.5 -24.5z" />
    <glyph glyph-name="Wcircumflex" unicode="&#x174;" horiz-adv-x="1244" 
d="M617 631q18 0 33.5 -10.5t23.5 -27.5l180 -438l259 634q10 23 33.5 33t46.5 0q24 -10 34.5 -33t0.5 -46l-308 -743h-132l-171 410l-172 -410h-132l-311 745q-10 23 0.5 46t34.5 33q23 10 46.5 0t33.5 -33l262 -636l180 438q8 17 23.5 27.5t34.5 10.5zM574 1081
q5 12 16.5 20t25.5 8q13 0 24 -7.5t16 -18.5l96 -149h-76l-60 84l-61 -84h-75z" />
    <glyph glyph-name="wcircumflex" unicode="&#x175;" horiz-adv-x="950" 
d="M469 270l-109 -270h-122l-229 547q-5 12 -5 22q0 18 11 33.5t29 23.5q13 5 23 5q18 0 33.5 -10.5t23.5 -27.5l180 -438l106 301q5 13 14 21t21 13q9 4 23 4q18 0 34 -9.5t23 -27.5l112 -302l180 438q8 17 23.5 27.5t33.5 10.5q10 0 23 -5q18 -8 29 -23.5t11 -33.5
q0 -10 -5 -22l-229 -547h-122zM428 850q5 12 16.5 20t25.5 8q13 0 24 -7.5t16 -18.5l96 -149h-76l-60 84l-61 -84h-75z" />
    <glyph glyph-name="Ycircumflex" unicode="&#x176;" horiz-adv-x="698" 
d="M614 834q26 0 44 -18t18 -44v-318q0 -57 -19.5 -109.5t-53.5 -94t-81.5 -70t-102.5 -38.5v-140h-122v140q-55 10 -102 38.5t-81.5 70t-54 94t-19.5 109.5v318q0 26 18 44t44 18q25 0 43 -18t18 -44v-318q0 -41 15.5 -76.5t41.5 -61.5t61.5 -41.5t76.5 -15.5
q40 0 75.5 15.5t62.5 41.5t42.5 61.5t15.5 76.5v318q0 26 17.5 44t42.5 18zM319 1081q5 12 16.5 20t25.5 8q13 0 24 -7.5t16 -18.5l96 -149h-76l-60 84l-61 -84h-75z" />
    <glyph glyph-name="Ydieresis" unicode="&#x178;" horiz-adv-x="713" 
d="M614 834q26 0 44 -18t18 -44v-318q0 -57 -19.5 -109.5t-53.5 -94t-81.5 -70t-102.5 -38.5v-140h-122v140q-55 10 -102 38.5t-81.5 70t-54 94t-19.5 109.5v318q0 26 18 44t44 18q25 0 43 -18t18 -44v-318q0 -41 15.5 -76.5t41.5 -61.5t61.5 -41.5t76.5 -15.5
q40 0 75.5 15.5t62.5 41.5t42.5 61.5t15.5 76.5v318q0 26 17.5 44t42.5 18zM281 936q-26 0 -44 18t-18 44q0 25 18 43t44 18q25 0 43 -18t18 -43q0 -26 -18 -44t-43 -18zM436 936q-26 0 -44 18t-18 44q0 25 18 43t44 18q25 0 43 -18t18 -43q0 -26 -18 -44t-43 -18z" />
    <glyph glyph-name="Zacute" unicode="&#x179;" horiz-adv-x="599" 
d="M194 121h376v-122h-530v122h1l301 589h-241q-26 0 -43.5 18t-17.5 42q0 27 17.5 44t43.5 17h379v-1q13 -5 24 -12q20 -14 22.5 -39.5t-12.5 -44.5zM362 1060q5 11 14.5 18t22.5 7q16 0 27.5 -11.5t11.5 -28.5q0 -12 -6 -21l-47 -90l-86 2z" />
    <glyph glyph-name="zacute" unicode="&#x17a;" horiz-adv-x="585" 
d="M193 121h380v-123h-535v123l306 395h-244q-26 0 -44 17.5t-18 43.5q0 25 18 43t44 18h383l24 -12q23 -21 23 -50q0 -20 -13 -37zM287 827q5 11 14.5 18t22.5 7q16 0 27.5 -11.5t11.5 -28.5q0 -12 -6 -21l-47 -90l-86 2z" />
    <glyph glyph-name="Zdotaccent" unicode="&#x17b;" horiz-adv-x="605" 
d="M194 121h376v-122h-530v122h1l301 589h-241q-26 0 -43.5 18t-17.5 42q0 27 17.5 44t43.5 17h379v-1q13 -5 24 -12q20 -14 22.5 -39.5t-12.5 -44.5zM326 933q-18 0 -30 12t-12 30t12 30t30 12t30 -12t12 -30t-12 -30t-30 -12z" />
    <glyph glyph-name="Zcaron" unicode="&#x17d;" horiz-adv-x="593" 
d="M194 121h376v-122h-530v122h1l301 589h-241q-26 0 -43.5 18t-17.5 42q0 27 17.5 44t43.5 17h379v-1q13 -5 24 -12q20 -14 22.5 -39.5t-12.5 -44.5zM453 1037l-84 -103h-89l-76 105q-10 10 -10 25q0 16 11 27t27 11q13 0 23 -8.5t13 -20.5l57 -93l64 90q2 14 13 23t25 9
q15 0 26 -11t11 -27t-11 -27z" />
    <glyph glyph-name="zcaron" unicode="&#x17e;" horiz-adv-x="594" 
d="M195 121h380v-123h-535v123l306 395h-244q-26 0 -44 17.5t-18 43.5q0 25 18 43t44 18h383l24 -12q23 -21 23 -50q0 -20 -13 -37zM431 808l-84 -103h-89l-76 105q-10 10 -10 25q0 16 11 27t27 11q13 0 23 -8.5t13 -20.5l57 -93l64 90q2 14 13 23t25 9q15 0 26 -11t11 -27
t-11 -27z" />
    <glyph glyph-name="florin" unicode="&#x192;" horiz-adv-x="320" 
d="M-168 -73q-1 2 -1 10v10h1q4 16 16 26t29 10t29 -10t16 -26h1q0 -29 15.5 -46t37.5 -17q23 0 38.5 15.5t15.5 37.5v325h-51v90h51v214q0 30 11 56.5t30.5 46t46 30.5t56.5 11t56.5 -11.5t46 -31.5t31 -48.5t11.5 -62.5h-90q0 29 -15.5 46t-38.5 17q-22 0 -37.5 -15.5
t-15.5 -37.5v-214h129v-90h-129v-325q0 -30 -11.5 -56.5t-32 -46t-47 -30.5t-56.5 -11q-57 0 -96.5 37t-46.5 97z" />
    <glyph glyph-name="circumflex" unicode="&#x2c6;" horiz-adv-x="315" 
d="M116 987q5 12 16.5 20t25.5 8q13 0 24 -7.5t16 -18.5l96 -149h-76l-60 84l-61 -84h-75z" />
    <glyph glyph-name="caron" unicode="&#x2c7;" horiz-adv-x="312" 
d="M291 931l-84 -103h-89l-76 105q-10 10 -10 25q0 16 11 27t27 11q13 0 23 -8.5t13 -20.5l57 -93l64 90q2 14 13 23t25 9q15 0 26 -11t11 -27t-11 -27z" />
    <glyph glyph-name="dotaccent" unicode="&#x2d9;" horiz-adv-x="141" 
d="M71 796q-18 0 -30 12t-12 30t12 30t30 12t30 -12t12 -30t-12 -30t-30 -12z" />
    <glyph glyph-name="ogonek" unicode="&#x2db;" horiz-adv-x="230" 
d="M191 -194v-70h-70q-21 0 -40.5 8t-33.5 22t-22.5 33t-8.5 41t8.5 41t22.5 33t33.5 22.5t40.5 8.5v55h70v-125h-70q-14 0 -24 -10.5t-10 -24.5t10 -24t24 -10h70z" />
    <glyph glyph-name="tilde" unicode="&#x2dc;" horiz-adv-x="300" 
d="M280 955q0 -4 -1 -7.5t-2 -6.5q-32 -55 -87 -55q-31 0 -59 17q-11 6 -19 6q-18 0 -31 -22l-62 37q16 28 40 42.5t52 14.5q27 0 57 -16q10 -6 19 -6q18 0 31 21q13 10 27 10t24.5 -10.5t10.5 -24.5z" />
    <glyph glyph-name="uni03BC" unicode="&#x3bc;" horiz-adv-x="528" 
d="M389 500q0 21 15 36t35 15q21 0 36 -15t15 -36v-279q0 -48 -17.5 -90t-48 -73.5t-71.5 -50t-87 -18.5q-69 0 -122 37v-224h-104v698q0 21 15 36.5t37 15.5q21 0 36 -15.5t15 -36.5v-279q0 -26 9.5 -49t26.5 -40t39 -27t48 -10q25 0 47.5 10t39.5 27t26.5 40t9.5 49v279z
" />
    <glyph glyph-name="Wgrave" unicode="&#x1e80;" horiz-adv-x="1260" 
d="M629 631q18 0 33.5 -10.5t23.5 -27.5l180 -438l259 634q10 23 33.5 33t46.5 0q24 -10 34.5 -33t0.5 -46l-308 -743h-132l-171 410l-172 -410h-132l-311 745q-10 23 0.5 46t34.5 33q23 10 46.5 0t33.5 -33l262 -636l180 438q8 17 23.5 27.5t34.5 10.5zM465 1159
q0 17 11 28t28 11q25 0 36 -24l53 -127h-78l-47 96q-3 7 -3 16z" />
    <glyph glyph-name="wgrave" unicode="&#x1e81;" horiz-adv-x="935" 
d="M469 270l-109 -270h-122l-229 547q-5 12 -5 22q0 18 11 33.5t29 23.5q13 5 23 5q18 0 33.5 -10.5t23.5 -27.5l180 -438l106 301q5 13 14 21t21 13q9 4 23 4q18 0 34 -9.5t23 -27.5l112 -302l180 438q8 17 23.5 27.5t33.5 10.5q10 0 23 -5q18 -8 29 -23.5t11 -33.5
q0 -10 -5 -22l-229 -547h-122zM403 815q0 17 11 28t28 11q25 0 36 -24l53 -127h-78l-47 96q-3 7 -3 16z" />
    <glyph glyph-name="Wacute" unicode="&#x1e82;" horiz-adv-x="1255" 
d="M617 631q18 0 33.5 -10.5t23.5 -27.5l180 -438l259 634q10 23 33.5 33t46.5 0q24 -10 34.5 -33t0.5 -46l-308 -743h-132l-171 410l-172 -410h-132l-311 745q-10 23 0.5 46t34.5 33q23 10 46.5 0t33.5 -33l262 -636l180 438q8 17 23.5 27.5t34.5 10.5zM616 1059
q5 11 14.5 18t22.5 7q16 0 27.5 -11.5t11.5 -28.5q0 -12 -6 -21l-47 -90l-86 2z" />
    <glyph glyph-name="wacute" unicode="&#x1e83;" horiz-adv-x="935" 
d="M469 270l-109 -270h-122l-229 547q-5 12 -5 22q0 18 11 33.5t29 23.5q13 5 23 5q18 0 33.5 -10.5t23.5 -27.5l180 -438l106 301q5 13 14 21t21 13q9 4 23 4q18 0 34 -9.5t23 -27.5l112 -302l180 438q8 17 23.5 27.5t33.5 10.5q10 0 23 -5q18 -8 29 -23.5t11 -33.5
q0 -10 -5 -22l-229 -547h-122zM464 824q5 11 14.5 18t22.5 7q16 0 27.5 -11.5t11.5 -28.5q0 -12 -6 -21l-47 -90l-86 2z" />
    <glyph glyph-name="Wdieresis" unicode="&#x1e84;" horiz-adv-x="1262" 
d="M617 631q18 0 33.5 -10.5t23.5 -27.5l180 -438l259 634q10 23 33.5 33t46.5 0q24 -10 34.5 -33t0.5 -46l-308 -743h-132l-171 410l-172 -410h-132l-311 745q-10 23 0.5 46t34.5 33q23 10 46.5 0t33.5 -33l262 -636l180 438q8 17 23.5 27.5t34.5 10.5zM537 937
q-26 0 -44 18t-18 44q0 25 18 43t44 18q25 0 43 -18t18 -43q0 -26 -18 -44t-43 -18zM692 937q-26 0 -44 18t-18 44q0 25 18 43t44 18q25 0 43 -18t18 -43q0 -26 -18 -44t-43 -18z" />
    <glyph glyph-name="wdieresis" unicode="&#x1e85;" horiz-adv-x="915" 
d="M469 270l-109 -270h-122l-229 547q-5 12 -5 22q0 18 11 33.5t29 23.5q13 5 23 5q18 0 33.5 -10.5t23.5 -27.5l180 -438l106 301q5 13 14 21t21 13q9 4 23 4q18 0 34 -9.5t23 -27.5l112 -302l180 438q8 17 23.5 27.5t33.5 10.5q10 0 23 -5q18 -8 29 -23.5t11 -33.5
q0 -10 -5 -22l-229 -547h-122zM393 697q-26 0 -44 18t-18 44q0 25 18 43t44 18q25 0 43 -18t18 -43q0 -26 -18 -44t-43 -18zM548 697q-26 0 -44 18t-18 44q0 25 18 43t44 18q25 0 43 -18t18 -43q0 -26 -18 -44t-43 -18z" />
    <glyph glyph-name="Ygrave" unicode="&#x1ef2;" horiz-adv-x="706" 
d="M614 834q26 0 44 -18t18 -44v-318q0 -57 -19.5 -109.5t-53.5 -94t-81.5 -70t-102.5 -38.5v-140h-122v140q-55 10 -102 38.5t-81.5 70t-54 94t-19.5 109.5v318q0 26 18 44t44 18q25 0 43 -18t18 -44v-318q0 -41 15.5 -76.5t41.5 -61.5t61.5 -41.5t76.5 -15.5
q40 0 75.5 15.5t62.5 41.5t42.5 61.5t15.5 76.5v318q0 26 17.5 44t42.5 18zM290 1047q0 17 11 28t28 11q25 0 36 -24l53 -127h-78l-47 96q-3 7 -3 16z" />
    <glyph glyph-name="endash" unicode="&#x2013;" horiz-adv-x="494" 
d="M454 230h-414v100h414v-100z" />
    <glyph glyph-name="emdash" unicode="&#x2014;" horiz-adv-x="574" 
d="M534 230h-494v100h494v-100z" />
    <glyph glyph-name="quoteleft" unicode="&#x2018;" horiz-adv-x="135" 
d="M67 754q-10 0 -19 3q2 -11 7 -19t12 -17q4 -5 4 -12q0 -10 -12 -10q-9 0 -23 7q-18 10 -24 25.5t-6 35.5v49q0 25 18 43t43 18q26 0 44 -18t18 -43q0 -26 -18 -44t-44 -18z" />
    <glyph glyph-name="quoteright" unicode="&#x2019;" horiz-adv-x="134" 
d="M68 755q-26 0 -44 18t-18 44q0 25 18 43t44 18q25 0 43 -18t18 -43v-49q0 -20 -6 -35.5t-24 -25.5q-14 -7 -23 -7q-12 0 -12 10q0 7 4 12q7 9 12 17t7 19q-9 -3 -19 -3z" />
    <glyph glyph-name="quotesinglbase" unicode="&#x201a;" horiz-adv-x="157" 
d="M74 -10q-26 0 -44 18t-18 44q0 25 18 43t44 18q25 0 43 -18t18 -43v-49q0 -20 -6 -35.5t-24 -25.5q-14 -7 -23 -7q-12 0 -12 10q0 7 4 12q7 9 12 17t7 19q-9 -3 -19 -3z" />
    <glyph glyph-name="quotedblleft" unicode="&#x201c;" horiz-adv-x="272" 
d="M204 759q-10 0 -19 3q2 -11 7 -19t12 -17q4 -5 4 -12q0 -10 -12 -10q-9 0 -23 7q-18 10 -24 25.5t-6 35.5v49q0 25 18 43t43 18q26 0 44 -18t18 -43q0 -26 -18 -44t-44 -18zM67 762q-10 0 -19 3q2 -11 7 -19t12 -17q4 -5 4 -12q0 -10 -12 -10q-9 0 -23 7q-18 10 -24 25.5
t-6 35.5v49q0 25 18 43t43 18q26 0 44 -18t18 -43q0 -26 -18 -44t-44 -18z" />
    <glyph glyph-name="quotedblright" unicode="&#x201d;" horiz-adv-x="282" 
d="M68 751q-26 0 -44 18t-18 44q0 25 18 43t44 18q25 0 43 -18t18 -43v-49q0 -20 -6 -35.5t-24 -25.5q-14 -7 -23 -7q-12 0 -12 10q0 7 4 12q7 9 12 17t7 19q-9 -3 -19 -3zM205 754q-26 0 -44 18t-18 44q0 25 18 43t44 18q25 0 43 -18t18 -43v-49q0 -20 -6 -35.5t-24 -25.5
q-14 -7 -23 -7q-12 0 -12 10q0 7 4 12q7 9 12 17t7 19q-9 -3 -19 -3z" />
    <glyph glyph-name="quotedblbase" unicode="&#x201e;" horiz-adv-x="287" 
d="M74 -10q-26 0 -44 18t-18 44q0 25 18 43t44 18q25 0 43 -18t18 -43v-49q0 -20 -6 -35.5t-24 -25.5q-14 -7 -23 -7q-12 0 -12 10q0 7 4 12q7 9 12 17t7 19q-9 -3 -19 -3zM213 -10q-26 0 -44 18t-18 44q0 25 18 43t44 18q25 0 43 -18t18 -43v-49q0 -20 -6 -35.5t-24 -25.5
q-14 -7 -23 -7q-12 0 -12 10q0 7 4 12q7 9 12 17t7 19q-9 -3 -19 -3z" />
    <glyph glyph-name="dagger" unicode="&#x2020;" horiz-adv-x="349" 
d="M345 406h-122v-621h-98v621h-121v106h121v312q0 20 14.5 34.5t34.5 14.5t34.5 -14.5t14.5 -34.5v-312h122v-106z" />
    <glyph glyph-name="daggerdbl" unicode="&#x2021;" horiz-adv-x="485" 
d="M191 824q0 21 15 36t36 15t36 -15t15 -36v-312h188v-106h-188v-96h188v-106h-188v-419h-102v419h-186v106h186v96h-186v106h186v312z" />
    <glyph glyph-name="bullet" unicode="&#x2022;" horiz-adv-x="228" 
d="M29 299q0 37 24.5 61.5t60.5 24.5q37 0 61.5 -24.5t24.5 -61.5q0 -36 -24.5 -60.5t-61.5 -24.5q-36 0 -60.5 24.5t-24.5 60.5z" />
    <glyph glyph-name="ellipsis" unicode="&#x2026;" horiz-adv-x="485" 
d="M230 -10q-26 0 -44 18t-18 44q0 16 7.5 29.5t20.5 21.5q14 11 34 11q11 0 20 -4t16 -10q11 -9 18 -21.5t7 -26.5q0 -26 -18 -44t-43 -18zM71 -10q-27 2 -44.5 19t-17.5 43q0 25 18 43t44 18q25 0 43 -18t18 -43q0 -15 -6 -27.5t-16 -20.5q-7 -6 -16.5 -10t-22.5 -4z
M395 -3q-27 2 -44.5 19t-17.5 43q0 25 18 43t44 18q25 0 43 -18t18 -43q0 -15 -6 -27.5t-16 -20.5q-7 -6 -16.5 -10t-22.5 -4z" />
    <glyph glyph-name="perthousand" unicode="&#x2030;" horiz-adv-x="496" 
d="M89 584q-24 0 -40.5 16.5t-16.5 41.5t16.5 42t40.5 17t40.5 -17t16.5 -42t-16.5 -41.5t-40.5 -16.5zM428 0q-24 0 -40.5 16.5t-16.5 42.5q0 25 16.5 41.5t40.5 16.5t40.5 -16.5t16.5 -41.5q0 -26 -16.5 -42.5t-40.5 -16.5zM290 0q-24 0 -40.5 16.5t-16.5 42.5
q0 25 16.5 41.5t40.5 16.5t40.5 -16.5t16.5 -41.5q0 -26 -16.5 -42.5t-40.5 -16.5zM253 700q0 15 11 26t26 11t26 -11t11 -26q0 -9 -4 -16h1l-223 -684h-78l228 700h2z" />
    <glyph glyph-name="guilsinglleft" unicode="&#x2039;" horiz-adv-x="333" 
d="M241 505q15 17 36 17q20 0 34 -14t14 -34q0 -24 -18 -37l-174 -188l175 -184l-68 -73l-244 257l244 257z" />
    <glyph glyph-name="guilsinglright" unicode="&#x203a;" horiz-adv-x="333" 
d="M80 505v1l245 -257l-245 -257l-68 73l176 184l-174 188q-18 13 -18 37q0 20 14 34t34 14q21 0 36 -17z" />
    <glyph glyph-name="fraction" unicode="&#x2044;" horiz-adv-x="312" 
d="M101 0h-103l213 700h103z" />
    <glyph glyph-name="Euro" unicode="&#x20ac;" horiz-adv-x="708" 
d="M669 124v-126h-173q-64 0 -122.5 21t-108 57.5t-88 86.5t-62.5 108h-96v90h69q-2 12 -3.5 24.5t-3.5 25.5h-62v90h65q10 71 42.5 130.5t82.5 102.5t114 68t136 27h125q26 0 44 -17.5t18 -43.5t-18 -44t-44 -18h-88q-53 0 -100 -14t-84.5 -40.5t-63.5 -64.5t-36 -86h202
v-90h-207q2 -13 4 -25.5t6 -24.5h197v-90h-159q39 -65 102 -106t139 -41h173zM200 268l-1 3q0 -2 1 -3z" />
    <glyph glyph-name="minus" unicode="&#x2212;" horiz-adv-x="421" 
d="M40 242v70h341v-70h-341z" />
    <glyph glyph-name="lessequal" unicode="&#x2264;" horiz-adv-x="428" 
d="M287 682q15 17 36 17q20 0 34 -14t14 -34q0 -24 -18 -37l-174 -188l175 -184l-68 -73l-244 257zM40 128h341v-70h-341v70z" />
    <glyph glyph-name="greaterequal" unicode="&#x2265;" horiz-adv-x="414" 
d="M379 426l-244 -257l-68 73l175 184l-174 188q-18 13 -18 37q0 20 14 34t34 14q21 0 36 -17zM381 58h-341v70h341v-70z" />
    <glyph glyph-name="fi" unicode="&#xfb01;" horiz-adv-x="583" 
d="M356 832q26 0 43.5 -15.5t17.5 -41.5q0 -25 -17.5 -40.5t-43.5 -15.5q-39 0 -74 -16t-61.5 -42.5t-42.5 -61.5t-16 -73v-30h120q25 0 42.5 -18t17.5 -43q0 -26 -17 -43t-43 -17h-120v-375h-122v517q0 65 25 122.5t68 100t100.5 67.5t122.5 25zM482 636q25 0 43 -18
t18 -43v-575h-123v575q0 25 18 43t44 18zM482 707q-26 0 -44 18t-18 44q0 25 18 43t44 18q25 0 43 -18t18 -43q0 -26 -18 -44t-43 -18z" />
    <glyph glyph-name="fl" unicode="&#xfb02;" horiz-adv-x="541" 
d="M445 830q23 -2 39.5 -18t16.5 -42v-772h-121v725q-8 -4 -24 -4q-39 0 -74 -16t-61.5 -42.5t-42.5 -61.5t-16 -73v-30h120q25 0 42.5 -18t17.5 -43q0 -26 -17 -43t-43 -17h-120v-375h-122v517q0 65 25 122.5t68 100t100.5 67.5t122.5 25z" />
    <glyph glyph-name=".null.001" horiz-adv-x="0" 
 />
    <glyph glyph-name="numbersign.001" horiz-adv-x="565" 
 />
    <glyph glyph-name="m_o_d_e.001" horiz-adv-x="0" 
 />
    <glyph glyph-name="glyph256" horiz-adv-x="500" 
 />
    </font>
</defs>
</svg>
